mtllib bit.mtl
o hex_bit_envelope
usemtl graphite_housing
v 0 -0.00300000002607703 -1.1175870905794083e-10
v 0.0003915785637218505 -0.0029743346385657766 -1.1175870905794083e-10
v 0.0007764571346342564 -0.002897777594625948 -1.1175870905794083e-10
v 0.001148050301708281 -0.0027716385666280968 -1.1175870905794083e-10
v 0.001500000013038516 -0.002598076127469538 -1.1175870905794083e-10
v 0.0018262843368574977 -0.0023800600320100767 -1.1175870905794083e-10
v 0.00212132022716105 -0.002121320227161048 -1.1175870905794083e-10
v 0.0023800600320100784 -0.0018262843368574962 -1.1175870992530257e-10
v 0.0025980761274695396 -0.0015000000130385145 -1.1175870992530257e-10
v 0.0027716385666280985 -0.0011480503017082797 -1.1175870992530257e-10
v 0.00289777759462595 -0.0007764571346342551 -1.1175870992530257e-10
v 0.0029743346385657787 -0.0003915785637218493 -1.1175870992530257e-10
v 0.003000000026077032 9.265259863976237e-19 -1.1175870992530257e-10
v 0.0029743346385657787 0.0003915785637218515 -1.1175870992530257e-10
v 0.00289777759462595 0.0007764571346342572 -1.1175870992530257e-10
v 0.0027716385666280985 0.001148050301708282 -1.1175870992530257e-10
v 0.0025980761274695396 0.0015000000130385167 -1.1175870992530257e-10
v 0.0023800600320100784 0.0018262843368574983 -1.1175870992530257e-10
v 0.00212132022716105 0.0021213202271610507 -1.117587107926643e-10
v 0.0018262843368574977 0.0023800600320100793 -1.117587107926643e-10
v 0.001500000013038516 0.0025980761274695405 -1.117587107926643e-10
v 0.001148050301708281 0.0027716385666280994 -1.117587107926643e-10
v 0.0007764571346342564 0.0028977775946259507 -1.117587107926643e-10
v 0.0003915785637218505 0.002974334638565779 -1.117587107926643e-10
v 3.673940268242289e-19 0.0030000000260770325 -1.117587107926643e-10
v -0.0003915785637218505 0.002974334638565779 -1.117587107926643e-10
v -0.0007764571346342564 0.0028977775946259507 -1.117587107926643e-10
v -0.001148050301708281 0.0027716385666280994 -1.117587107926643e-10
v -0.001500000013038516 0.0025980761274695405 -1.117587107926643e-10
v -0.0018262843368574977 0.0023800600320100793 -1.117587107926643e-10
v -0.00212132022716105 0.0021213202271610507 -1.117587107926643e-10
v -0.0023800600320100784 0.0018262843368574983 -1.1175870992530257e-10
v -0.0025980761274695396 0.0015000000130385167 -1.1175870992530257e-10
v -0.0027716385666280985 0.001148050301708282 -1.1175870992530257e-10
v -0.00289777759462595 0.0007764571346342572 -1.1175870992530257e-10
v -0.0029743346385657787 0.0003915785637218515 -1.1175870992530257e-10
v -0.003000000026077032 1.6613140400460815e-18 -1.1175870992530257e-10
v -0.0029743346385657787 -0.0003915785637218493 -1.1175870992530257e-10
v -0.00289777759462595 -0.0007764571346342551 -1.1175870992530257e-10
v -0.0027716385666280985 -0.0011480503017082797 -1.1175870992530257e-10
v -0.0025980761274695396 -0.0015000000130385145 -1.1175870992530257e-10
v -0.0023800600320100784 -0.0018262843368574962 -1.1175870992530257e-10
v -0.00212132022716105 -0.002121320227161048 -1.1175870905794083e-10
v -0.0018262843368574977 -0.0023800600320100767 -1.1175870905794083e-10
v -0.001500000013038516 -0.002598076127469538 -1.1175870905794083e-10
v -0.001148050301708281 -0.0027716385666280968 -1.1175870905794083e-10
v -0.0007764571346342564 -0.002897777594625948 -1.1175870905794083e-10
v -0.0003915785637218505 -0.0029743346385657766 -1.1175870905794083e-10
v -7.347880536484578e-19 -0.00300000002607703 -1.1175870905794083e-10
v 0 -0.0030000000260770325 -0.009999999888241289
v 0.0003915785637218505 -0.002974334638565779 -0.009999999888241289
v 0.0007764571346342564 -0.0028977775946259507 -0.009999999888241289
v 0.001148050301708281 -0.0027716385666280994 -0.009999999888241289
v 0.001500000013038516 -0.0025980761274695405 -0.009999999888241289
v 0.0018262843368574977 -0.0023800600320100793 -0.009999999888241289
v 0.00212132022716105 -0.0021213202271610507 -0.009999999888241289
v 0.0023800600320100784 -0.0018262843368574983 -0.00999999988824129
v 0.0025980761274695396 -0.0015000000130385167 -0.00999999988824129
v 0.0027716385666280985 -0.001148050301708282 -0.00999999988824129
v 0.00289777759462595 -0.0007764571346342572 -0.00999999988824129
v 0.0029743346385657787 -0.0003915785637218515 -0.00999999988824129
v 0.003000000026077032 -1.2939200132218526e-18 -0.00999999988824129
v 0.0029743346385657787 0.0003915785637218493 -0.00999999988824129
v 0.00289777759462595 0.0007764571346342551 -0.00999999988824129
v 0.0027716385666280985 0.0011480503017082797 -0.00999999988824129
v 0.0025980761274695396 0.0015000000130385145 -0.00999999988824129
v 0.0023800600320100784 0.0018262843368574962 -0.00999999988824129
v 0.00212132022716105 0.002121320227161048 -0.009999999888241292
v 0.0018262843368574977 0.0023800600320100767 -0.009999999888241292
v 0.001500000013038516 0.002598076127469538 -0.009999999888241292
v 0.001148050301708281 0.0027716385666280968 -0.009999999888241292
v 0.0007764571346342564 0.002897777594625948 -0.009999999888241292
v 0.0003915785637218505 0.0029743346385657766 -0.009999999888241292
v 3.673940268242289e-19 0.00300000002607703 -0.009999999888241292
v -0.0003915785637218505 0.0029743346385657766 -0.009999999888241292
v -0.0007764571346342564 0.002897777594625948 -0.009999999888241292
v -0.001148050301708281 0.0027716385666280968 -0.009999999888241292
v -0.001500000013038516 0.002598076127469538 -0.009999999888241292
v -0.0018262843368574977 0.0023800600320100767 -0.009999999888241292
v -0.00212132022716105 0.002121320227161048 -0.009999999888241292
v -0.0023800600320100784 0.0018262843368574962 -0.00999999988824129
v -0.0025980761274695396 0.0015000000130385145 -0.00999999988824129
v -0.0027716385666280985 0.0011480503017082797 -0.00999999988824129
v -0.00289777759462595 0.0007764571346342551 -0.00999999988824129
v -0.0029743346385657787 0.0003915785637218493 -0.00999999988824129
v -0.003000000026077032 -5.591319595733949e-19 -0.00999999988824129
v -0.0029743346385657787 -0.0003915785637218515 -0.00999999988824129
v -0.00289777759462595 -0.0007764571346342572 -0.00999999988824129
v -0.0027716385666280985 -0.001148050301708282 -0.00999999988824129
v -0.0025980761274695396 -0.0015000000130385167 -0.00999999988824129
v -0.0023800600320100784 -0.0018262843368574983 -0.00999999988824129
v -0.00212132022716105 -0.0021213202271610507 -0.009999999888241289
v -0.0018262843368574977 -0.0023800600320100793 -0.009999999888241289
v -0.001500000013038516 -0.0025980761274695405 -0.009999999888241289
v -0.001148050301708281 -0.0027716385666280994 -0.009999999888241289
v -0.0007764571346342564 -0.0028977775946259507 -0.009999999888241289
v -0.0003915785637218505 -0.002974334638565779 -0.009999999888241289
v -7.347880536484578e-19 -0.0030000000260770325 -0.009999999888241289
v 0 1.1102229998097382e-18 -1.1175870992530257e-10
v 0 1.1102229998097382e-18 -1.1175870992530257e-10
v 0 1.1102229998097382e-18 -1.1175870992530257e-10
v 0 1.1102229998097382e-18 -1.1175870992530257e-10
v 0 1.1102229998097382e-18 -1.1175870992530257e-10
v 0 1.1102229998097382e-18 -1.1175870992530257e-10
v 0 1.1102229998097382e-18 -1.1175870992530257e-10
v 0 1.1102229998097382e-18 -1.1175870992530257e-10
v 0 1.1102229998097382e-18 -1.1175870992530257e-10
v 0 1.1102229998097382e-18 -1.1175870992530257e-10
v 0 1.1102229998097382e-18 -1.1175870992530257e-10
v 0 1.1102229998097382e-18 -1.1175870992530257e-10
v 0 1.1102229998097382e-18 -1.1175870992530257e-10
v 0 1.1102229998097382e-18 -1.1175870992530257e-10
v 0 1.1102229998097382e-18 -1.1175870992530257e-10
v 0 1.1102229998097382e-18 -1.1175870992530257e-10
v 0 1.1102229998097382e-18 -1.1175870992530257e-10
v 0 1.1102229998097382e-18 -1.1175870992530257e-10
v 0 1.1102229998097382e-18 -1.1175870992530257e-10
v 0 1.1102229998097382e-18 -1.1175870992530257e-10
v 0 1.1102229998097382e-18 -1.1175870992530257e-10
v 0 1.1102229998097382e-18 -1.1175870992530257e-10
v 0 1.1102229998097382e-18 -1.1175870992530257e-10
v 0 1.1102229998097382e-18 -1.1175870992530257e-10
v 0 1.1102229998097382e-18 -1.1175870992530257e-10
v 0 1.1102229998097382e-18 -1.1175870992530257e-10
v 0 1.1102229998097382e-18 -1.1175870992530257e-10
v 0 1.1102229998097382e-18 -1.1175870992530257e-10
v 0 1.1102229998097382e-18 -1.1175870992530257e-10
v 0 1.1102229998097382e-18 -1.1175870992530257e-10
v 0 1.1102229998097382e-18 -1.1175870992530257e-10
v 0 1.1102229998097382e-18 -1.1175870992530257e-10
v 0 1.1102229998097382e-18 -1.1175870992530257e-10
v 0 1.1102229998097382e-18 -1.1175870992530257e-10
v 0 1.1102229998097382e-18 -1.1175870992530257e-10
v 0 1.1102229998097382e-18 -1.1175870992530257e-10
v 0 1.1102229998097382e-18 -1.1175870992530257e-10
v 0 1.1102229998097382e-18 -1.1175870992530257e-10
v 0 1.1102229998097382e-18 -1.1175870992530257e-10
v 0 1.1102229998097382e-18 -1.1175870992530257e-10
v 0 1.1102229998097382e-18 -1.1175870992530257e-10
v 0 1.1102229998097382e-18 -1.1175870992530257e-10
v 0 1.1102229998097382e-18 -1.1175870992530257e-10
v 0 1.1102229998097382e-18 -1.1175870992530257e-10
v 0 1.1102229998097382e-18 -1.1175870992530257e-10
v 0 1.1102229998097382e-18 -1.1175870992530257e-10
v 0 1.1102229998097382e-18 -1.1175870992530257e-10
v 0 1.1102229998097382e-18 -1.1175870992530257e-10
v 0 -0.00300000002607703 -1.1175870905794083e-10
v 0.0003915785637218505 -0.0029743346385657766 -1.1175870905794083e-10
v 0.0007764571346342564 -0.002897777594625948 -1.1175870905794083e-10
v 0.001148050301708281 -0.0027716385666280968 -1.1175870905794083e-10
v 0.001500000013038516 -0.002598076127469538 -1.1175870905794083e-10
v 0.0018262843368574977 -0.0023800600320100767 -1.1175870905794083e-10
v 0.00212132022716105 -0.002121320227161048 -1.1175870905794083e-10
v 0.0023800600320100784 -0.0018262843368574962 -1.1175870992530257e-10
v 0.0025980761274695396 -0.0015000000130385145 -1.1175870992530257e-10
v 0.0027716385666280985 -0.0011480503017082797 -1.1175870992530257e-10
v 0.00289777759462595 -0.0007764571346342551 -1.1175870992530257e-10
v 0.0029743346385657787 -0.0003915785637218493 -1.1175870992530257e-10
v 0.003000000026077032 9.265259863976237e-19 -1.1175870992530257e-10
v 0.0029743346385657787 0.0003915785637218515 -1.1175870992530257e-10
v 0.00289777759462595 0.0007764571346342572 -1.1175870992530257e-10
v 0.0027716385666280985 0.001148050301708282 -1.1175870992530257e-10
v 0.0025980761274695396 0.0015000000130385167 -1.1175870992530257e-10
v 0.0023800600320100784 0.0018262843368574983 -1.1175870992530257e-10
v 0.00212132022716105 0.0021213202271610507 -1.117587107926643e-10
v 0.0018262843368574977 0.0023800600320100793 -1.117587107926643e-10
v 0.001500000013038516 0.0025980761274695405 -1.117587107926643e-10
v 0.001148050301708281 0.0027716385666280994 -1.117587107926643e-10
v 0.0007764571346342564 0.0028977775946259507 -1.117587107926643e-10
v 0.0003915785637218505 0.002974334638565779 -1.117587107926643e-10
v 3.673940268242289e-19 0.0030000000260770325 -1.117587107926643e-10
v -0.0003915785637218505 0.002974334638565779 -1.117587107926643e-10
v -0.0007764571346342564 0.0028977775946259507 -1.117587107926643e-10
v -0.001148050301708281 0.0027716385666280994 -1.117587107926643e-10
v -0.001500000013038516 0.0025980761274695405 -1.117587107926643e-10
v -0.0018262843368574977 0.0023800600320100793 -1.117587107926643e-10
v -0.00212132022716105 0.0021213202271610507 -1.117587107926643e-10
v -0.0023800600320100784 0.0018262843368574983 -1.1175870992530257e-10
v -0.0025980761274695396 0.0015000000130385167 -1.1175870992530257e-10
v -0.0027716385666280985 0.001148050301708282 -1.1175870992530257e-10
v -0.00289777759462595 0.0007764571346342572 -1.1175870992530257e-10
v -0.0029743346385657787 0.0003915785637218515 -1.1175870992530257e-10
v -0.003000000026077032 1.6613140400460815e-18 -1.1175870992530257e-10
v -0.0029743346385657787 -0.0003915785637218493 -1.1175870992530257e-10
v -0.00289777759462595 -0.0007764571346342551 -1.1175870992530257e-10
v -0.0027716385666280985 -0.0011480503017082797 -1.1175870992530257e-10
v -0.0025980761274695396 -0.0015000000130385145 -1.1175870992530257e-10
v -0.0023800600320100784 -0.0018262843368574962 -1.1175870992530257e-10
v -0.00212132022716105 -0.002121320227161048 -1.1175870905794083e-10
v -0.0018262843368574977 -0.0023800600320100767 -1.1175870905794083e-10
v -0.001500000013038516 -0.002598076127469538 -1.1175870905794083e-10
v -0.001148050301708281 -0.0027716385666280968 -1.1175870905794083e-10
v -0.0007764571346342564 -0.002897777594625948 -1.1175870905794083e-10
v -0.0003915785637218505 -0.0029743346385657766 -1.1175870905794083e-10
v -7.347880536484578e-19 -0.00300000002607703 -1.1175870905794083e-10
v 0 -1.1102229998097382e-18 -0.00999999988824129
v 0 -1.1102229998097382e-18 -0.00999999988824129
v 0 -1.1102229998097382e-18 -0.00999999988824129
v 0 -1.1102229998097382e-18 -0.00999999988824129
v 0 -1.1102229998097382e-18 -0.00999999988824129
v 0 -1.1102229998097382e-18 -0.00999999988824129
v 0 -1.1102229998097382e-18 -0.00999999988824129
v 0 -1.1102229998097382e-18 -0.00999999988824129
v 0 -1.1102229998097382e-18 -0.00999999988824129
v 0 -1.1102229998097382e-18 -0.00999999988824129
v 0 -1.1102229998097382e-18 -0.00999999988824129
v 0 -1.1102229998097382e-18 -0.00999999988824129
v 0 -1.1102229998097382e-18 -0.00999999988824129
v 0 -1.1102229998097382e-18 -0.00999999988824129
v 0 -1.1102229998097382e-18 -0.00999999988824129
v 0 -1.1102229998097382e-18 -0.00999999988824129
v 0 -1.1102229998097382e-18 -0.00999999988824129
v 0 -1.1102229998097382e-18 -0.00999999988824129
v 0 -1.1102229998097382e-18 -0.00999999988824129
v 0 -1.1102229998097382e-18 -0.00999999988824129
v 0 -1.1102229998097382e-18 -0.00999999988824129
v 0 -1.1102229998097382e-18 -0.00999999988824129
v 0 -1.1102229998097382e-18 -0.00999999988824129
v 0 -1.1102229998097382e-18 -0.00999999988824129
v 0 -1.1102229998097382e-18 -0.00999999988824129
v 0 -1.1102229998097382e-18 -0.00999999988824129
v 0 -1.1102229998097382e-18 -0.00999999988824129
v 0 -1.1102229998097382e-18 -0.00999999988824129
v 0 -1.1102229998097382e-18 -0.00999999988824129
v 0 -1.1102229998097382e-18 -0.00999999988824129
v 0 -1.1102229998097382e-18 -0.00999999988824129
v 0 -1.1102229998097382e-18 -0.00999999988824129
v 0 -1.1102229998097382e-18 -0.00999999988824129
v 0 -1.1102229998097382e-18 -0.00999999988824129
v 0 -1.1102229998097382e-18 -0.00999999988824129
v 0 -1.1102229998097382e-18 -0.00999999988824129
v 0 -1.1102229998097382e-18 -0.00999999988824129
v 0 -1.1102229998097382e-18 -0.00999999988824129
v 0 -1.1102229998097382e-18 -0.00999999988824129
v 0 -1.1102229998097382e-18 -0.00999999988824129
v 0 -1.1102229998097382e-18 -0.00999999988824129
v 0 -1.1102229998097382e-18 -0.00999999988824129
v 0 -1.1102229998097382e-18 -0.00999999988824129
v 0 -1.1102229998097382e-18 -0.00999999988824129
v 0 -1.1102229998097382e-18 -0.00999999988824129
v 0 -1.1102229998097382e-18 -0.00999999988824129
v 0 -1.1102229998097382e-18 -0.00999999988824129
v 0 -1.1102229998097382e-18 -0.00999999988824129
v 0 -0.0030000000260770325 -0.009999999888241289
v 0.0003915785637218505 -0.002974334638565779 -0.009999999888241289
v 0.0007764571346342564 -0.0028977775946259507 -0.009999999888241289
v 0.001148050301708281 -0.0027716385666280994 -0.009999999888241289
v 0.001500000013038516 -0.0025980761274695405 -0.009999999888241289
v 0.0018262843368574977 -0.0023800600320100793 -0.009999999888241289
v 0.00212132022716105 -0.0021213202271610507 -0.009999999888241289
v 0.0023800600320100784 -0.0018262843368574983 -0.00999999988824129
v 0.0025980761274695396 -0.0015000000130385167 -0.00999999988824129
v 0.0027716385666280985 -0.001148050301708282 -0.00999999988824129
v 0.00289777759462595 -0.0007764571346342572 -0.00999999988824129
v 0.0029743346385657787 -0.0003915785637218515 -0.00999999988824129
v 0.003000000026077032 -1.2939200132218526e-18 -0.00999999988824129
v 0.0029743346385657787 0.0003915785637218493 -0.00999999988824129
v 0.00289777759462595 0.0007764571346342551 -0.00999999988824129
v 0.0027716385666280985 0.0011480503017082797 -0.00999999988824129
v 0.0025980761274695396 0.0015000000130385145 -0.00999999988824129
v 0.0023800600320100784 0.0018262843368574962 -0.00999999988824129
v 0.00212132022716105 0.002121320227161048 -0.009999999888241292
v 0.0018262843368574977 0.0023800600320100767 -0.009999999888241292
v 0.001500000013038516 0.002598076127469538 -0.009999999888241292
v 0.001148050301708281 0.0027716385666280968 -0.009999999888241292
v 0.0007764571346342564 0.002897777594625948 -0.009999999888241292
v 0.0003915785637218505 0.0029743346385657766 -0.009999999888241292
v 3.673940268242289e-19 0.00300000002607703 -0.009999999888241292
v -0.0003915785637218505 0.0029743346385657766 -0.009999999888241292
v -0.0007764571346342564 0.002897777594625948 -0.009999999888241292
v -0.001148050301708281 0.0027716385666280968 -0.009999999888241292
v -0.001500000013038516 0.002598076127469538 -0.009999999888241292
v -0.0018262843368574977 0.0023800600320100767 -0.009999999888241292
v -0.00212132022716105 0.002121320227161048 -0.009999999888241292
v -0.0023800600320100784 0.0018262843368574962 -0.00999999988824129
v -0.0025980761274695396 0.0015000000130385145 -0.00999999988824129
v -0.0027716385666280985 0.0011480503017082797 -0.00999999988824129
v -0.00289777759462595 0.0007764571346342551 -0.00999999988824129
v -0.0029743346385657787 0.0003915785637218493 -0.00999999988824129
v -0.003000000026077032 -5.591319595733949e-19 -0.00999999988824129
v -0.0029743346385657787 -0.0003915785637218515 -0.00999999988824129
v -0.00289777759462595 -0.0007764571346342572 -0.00999999988824129
v -0.0027716385666280985 -0.001148050301708282 -0.00999999988824129
v -0.0025980761274695396 -0.0015000000130385167 -0.00999999988824129
v -0.0023800600320100784 -0.0018262843368574983 -0.00999999988824129
v -0.00212132022716105 -0.0021213202271610507 -0.009999999888241289
v -0.0018262843368574977 -0.0023800600320100793 -0.009999999888241289
v -0.001500000013038516 -0.0025980761274695405 -0.009999999888241289
v -0.001148050301708281 -0.0027716385666280994 -0.009999999888241289
v -0.0007764571346342564 -0.0028977775946259507 -0.009999999888241289
v -0.0003915785637218505 -0.002974334638565779 -0.009999999888241289
v -7.347880536484578e-19 -0.0030000000260770325 -0.009999999888241289
vt 0 1
vt 0.02083333395421505 1
vt 0.0416666679084301 1
vt 0.0625 1
vt 0.0833333358168602 1
vt 0.1041666641831398 1
vt 0.125 1
vt 0.1458333283662796 1
vt 0.1666666716337204 1
vt 0.1875 1
vt 0.2083333283662796 1
vt 0.2291666716337204 1
vt 0.25 1
vt 0.2708333432674408 1
vt 0.2916666567325592 1
vt 0.3125 1
vt 0.3333333432674408 1
vt 0.3541666567325592 1
vt 0.375 1
vt 0.3958333432674408 1
vt 0.4166666567325592 1
vt 0.4375 1
vt 0.4583333432674408 1
vt 0.4791666567325592 1
vt 0.5 1
vt 0.5208333134651184 1
vt 0.5416666865348816 1
vt 0.5625 1
vt 0.5833333134651184 1
vt 0.6041666865348816 1
vt 0.625 1
vt 0.6458333134651184 1
vt 0.6666666865348816 1
vt 0.6875 1
vt 0.7083333134651184 1
vt 0.7291666865348816 1
vt 0.75 1
vt 0.7708333134651184 1
vt 0.7916666865348816 1
vt 0.8125 1
vt 0.8333333134651184 1
vt 0.8541666865348816 1
vt 0.875 1
vt 0.8958333134651184 1
vt 0.9166666865348816 1
vt 0.9375 1
vt 0.9583333134651184 1
vt 0.9791666865348816 1
vt 1 1
vt 0 0
vt 0.02083333395421505 0
vt 0.0416666679084301 0
vt 0.0625 0
vt 0.0833333358168602 0
vt 0.1041666641831398 0
vt 0.125 0
vt 0.1458333283662796 0
vt 0.1666666716337204 0
vt 0.1875 0
vt 0.2083333283662796 0
vt 0.2291666716337204 0
vt 0.25 0
vt 0.2708333432674408 0
vt 0.2916666567325592 0
vt 0.3125 0
vt 0.3333333432674408 0
vt 0.3541666567325592 0
vt 0.375 0
vt 0.3958333432674408 0
vt 0.4166666567325592 0
vt 0.4375 0
vt 0.4583333432674408 0
vt 0.4791666567325592 0
vt 0.5 0
vt 0.5208333134651184 0
vt 0.5416666865348816 0
vt 0.5625 0
vt 0.5833333134651184 0
vt 0.6041666865348816 0
vt 0.625 0
vt 0.6458333134651184 0
vt 0.6666666865348816 0
vt 0.6875 0
vt 0.7083333134651184 0
vt 0.7291666865348816 0
vt 0.75 0
vt 0.7708333134651184 0
vt 0.7916666865348816 0
vt 0.8125 0
vt 0.8333333134651184 0
vt 0.8541666865348816 0
vt 0.875 0
vt 0.8958333134651184 0
vt 0.9166666865348816 0
vt 0.9375 0
vt 0.9583333134651184 0
vt 0.9791666865348816 0
vt 1 0
vt 0.5 0.5
vt 0.5 0.5
vt 0.5 0.5
vt 0.5 0.5
vt 0.5 0.5
vt 0.5 0.5
vt 0.5 0.5
vt 0.5 0.5
vt 0.5 0.5
vt 0.5 0.5
vt 0.5 0.5
vt 0.5 0.5
vt 0.5 0.5
vt 0.5 0.5
vt 0.5 0.5
vt 0.5 0.5
vt 0.5 0.5
vt 0.5 0.5
vt 0.5 0.5
vt 0.5 0.5
vt 0.5 0.5
vt 0.5 0.5
vt 0.5 0.5
vt 0.5 0.5
vt 0.5 0.5
vt 0.5 0.5
vt 0.5 0.5
vt 0.5 0.5
vt 0.5 0.5
vt 0.5 0.5
vt 0.5 0.5
vt 0.5 0.5
vt 0.5 0.5
vt 0.5 0.5
vt 0.5 0.5
vt 0.5 0.5
vt 0.5 0.5
vt 0.5 0.5
vt 0.5 0.5
vt 0.5 0.5
vt 0.5 0.5
vt 0.5 0.5
vt 0.5 0.5
vt 0.5 0.5
vt 0.5 0.5
vt 0.5 0.5
vt 0.5 0.5
vt 0.5 0.5
vt 1 0.5
vt 0.9957224130630493 0.5652630925178528
vt 0.9829629063606262 0.6294095516204834
vt 0.9619397521018982 0.6913416981697083
vt 0.9330127239227295 0.75
vt 0.8966766595840454 0.8043807148933411
vt 0.8535534143447876 0.8535534143447876
vt 0.8043807148933411 0.8966766595840454
vt 0.75 0.9330127239227295
vt 0.6913416981697083 0.9619397521018982
vt 0.6294095516204834 0.9829629063606262
vt 0.5652630925178528 0.9957224130630493
vt 0.5 1
vt 0.4347369074821472 0.9957224130630493
vt 0.370590478181839 0.9829629063606262
vt 0.30865827202796936 0.9619397521018982
vt 0.25 0.9330127239227295
vt 0.19561928510665894 0.8966766595840454
vt 0.1464466154575348 0.8535534143447876
vt 0.10332333296537399 0.8043807148933411
vt 0.0669872984290123 0.75
vt 0.03806023299694061 0.6913416981697083
vt 0.017037086188793182 0.6294095516204834
vt 0.004277569241821766 0.5652630925178528
vt 0 0.5
vt 0.004277569241821766 0.4347369074821472
vt 0.017037086188793182 0.370590478181839
vt 0.03806023299694061 0.30865827202796936
vt 0.0669872984290123 0.25
vt 0.10332333296537399 0.19561928510665894
vt 0.1464466154575348 0.1464466154575348
vt 0.19561928510665894 0.10332333296537399
vt 0.25 0.0669872984290123
vt 0.30865827202796936 0.03806023299694061
vt 0.370590478181839 0.017037086188793182
vt 0.4347369074821472 0.004277569241821766
vt 0.5 0
vt 0.5652630925178528 0.004277569241821766
vt 0.6294095516204834 0.017037086188793182
vt 0.6913416981697083 0.03806023299694061
vt 0.75 0.0669872984290123
vt 0.8043807148933411 0.10332333296537399
vt 0.8535534143447876 0.1464466154575348
vt 0.8966766595840454 0.19561928510665894
vt 0.9330127239227295 0.25
vt 0.9619397521018982 0.30865827202796936
vt 0.9829629063606262 0.370590478181839
vt 0.9957224130630493 0.4347369074821472
vt 1 0.5
vt 0.5 0.5
vt 0.5 0.5
vt 0.5 0.5
vt 0.5 0.5
vt 0.5 0.5
vt 0.5 0.5
vt 0.5 0.5
vt 0.5 0.5
vt 0.5 0.5
vt 0.5 0.5
vt 0.5 0.5
vt 0.5 0.5
vt 0.5 0.5
vt 0.5 0.5
vt 0.5 0.5
vt 0.5 0.5
vt 0.5 0.5
vt 0.5 0.5
vt 0.5 0.5
vt 0.5 0.5
vt 0.5 0.5
vt 0.5 0.5
vt 0.5 0.5
vt 0.5 0.5
vt 0.5 0.5
vt 0.5 0.5
vt 0.5 0.5
vt 0.5 0.5
vt 0.5 0.5
vt 0.5 0.5
vt 0.5 0.5
vt 0.5 0.5
vt 0.5 0.5
vt 0.5 0.5
vt 0.5 0.5
vt 0.5 0.5
vt 0.5 0.5
vt 0.5 0.5
vt 0.5 0.5
vt 0.5 0.5
vt 0.5 0.5
vt 0.5 0.5
vt 0.5 0.5
vt 0.5 0.5
vt 0.5 0.5
vt 0.5 0.5
vt 0.5 0.5
vt 0.5 0.5
vt 1 0.5
vt 0.9957224130630493 0.4347369074821472
vt 0.9829629063606262 0.370590478181839
vt 0.9619397521018982 0.30865827202796936
vt 0.9330127239227295 0.25
vt 0.8966766595840454 0.19561928510665894
vt 0.8535534143447876 0.1464466154575348
vt 0.8043807148933411 0.10332333296537399
vt 0.75 0.0669872984290123
vt 0.6913416981697083 0.03806023299694061
vt 0.6294095516204834 0.017037086188793182
vt 0.5652630925178528 0.004277569241821766
vt 0.5 0
vt 0.4347369074821472 0.004277569241821766
vt 0.370590478181839 0.017037086188793182
vt 0.30865827202796936 0.03806023299694061
vt 0.25 0.0669872984290123
vt 0.19561928510665894 0.10332333296537399
vt 0.1464466154575348 0.1464466154575348
vt 0.10332333296537399 0.19561928510665894
vt 0.0669872984290123 0.25
vt 0.03806023299694061 0.30865827202796936
vt 0.017037086188793182 0.370590478181839
vt 0.004277569241821766 0.4347369074821472
vt 0 0.5
vt 0.004277569241821766 0.5652630925178528
vt 0.017037086188793182 0.6294095516204834
vt 0.03806023299694061 0.6913416981697083
vt 0.0669872984290123 0.75
vt 0.10332333296537399 0.8043807148933411
vt 0.1464466154575348 0.8535534143447876
vt 0.19561928510665894 0.8966766595840454
vt 0.25 0.9330127239227295
vt 0.30865827202796936 0.9619397521018982
vt 0.370590478181839 0.9829629063606262
vt 0.4347369074821472 0.9957224130630493
vt 0.5 1
vt 0.5652630925178528 0.9957224130630493
vt 0.6294095516204834 0.9829629063606262
vt 0.6913416981697083 0.9619397521018982
vt 0.75 0.9330127239227295
vt 0.8043807148933411 0.8966766595840454
vt 0.8535534143447876 0.8535534143447876
vt 0.8966766595840454 0.8043807148933411
vt 0.9330127239227295 0.75
vt 0.9619397521018982 0.6913416981697083
vt 0.9829629063606262 0.6294095516204834
vt 0.9957224130630493 0.5652630925178528
vt 1 0.5
vn 0 -1 2.2204460492503136e-16
vn 0.130526182006087 -0.9914448627185043 2.2014498284728224e-16
vn 0.2588190471264926 -0.9659258257467466 2.1447861836482103e-16
vn 0.38268343706133684 -0.9238795305660377 2.0514246536285927e-16
vn 0.5000000067305868 -0.8660253998985324 1.922962677755119e-16
vn 0.6087614397000723 -0.7933533320874724 1.7615982718932e-16
vn 0.7071067811865474 -0.7071067811865475 1.5700924586837754e-16
vn 0.7933533320874723 -0.6087614397000726 1.351721933717959e-16
vn 0.8660253998985324 -0.500000006730587 1.110223039570062e-16
vn 0.9238795305660374 -0.38268343706133695 8.497279259363766e-17
vn 0.9659258257467466 -0.25881904712649273 5.746937306627515e-17
vn 0.9914448627185043 -0.13052618200608707 2.898263451591434e-17
vn 1 -6.12323426292584e-17 1.3596311327747838e-32
vn 0.9914448627185043 0.13052618200608707 -2.898263451591434e-17
vn 0.9659258257467466 0.25881904712649273 -5.746937306627515e-17
vn 0.9238795305660374 0.38268343706133695 -8.497279259363766e-17
vn 0.8660253998985324 0.500000006730587 -1.110223039570062e-16
vn 0.7933533320874723 0.6087614397000726 -1.351721933717959e-16
vn 0.7071067811865474 0.7071067811865475 -1.5700924586837754e-16
vn 0.6087614397000723 0.7933533320874724 -1.7615982718932e-16
vn 0.5000000067305868 0.8660253998985324 -1.922962677755119e-16
vn 0.38268343706133684 0.9238795305660377 -2.0514246536285927e-16
vn 0.2588190471264926 0.9659258257467466 -2.1447861836482103e-16
vn 0.130526182006087 0.9914448627185043 -2.2014498284728224e-16
vn 1.2246468525851676e-16 1 -2.2204460492503136e-16
vn -0.130526182006087 0.9914448627185043 -2.2014498284728224e-16
vn -0.2588190471264926 0.9659258257467466 -2.1447861836482103e-16
vn -0.38268343706133684 0.9238795305660377 -2.0514246536285927e-16
vn -0.5000000067305868 0.8660253998985324 -1.922962677755119e-16
vn -0.6087614397000723 0.7933533320874724 -1.7615982718932e-16
vn -0.7071067811865474 0.7071067811865475 -1.5700924586837754e-16
vn -0.7933533320874723 0.6087614397000726 -1.351721933717959e-16
vn -0.8660253998985324 0.500000006730587 -1.110223039570062e-16
vn -0.9238795305660374 0.38268343706133695 -8.497279259363766e-17
vn -0.9659258257467466 0.25881904712649273 -5.746937306627515e-17
vn -0.9914448627185043 0.13052618200608707 -2.898263451591434e-17
vn -1 1.8369701465288543e-16 -4.0788931044507637e-32
vn -0.9914448627185043 -0.13052618200608707 2.898263451591434e-17
vn -0.9659258257467466 -0.25881904712649273 5.746937306627515e-17
vn -0.9238795305660374 -0.38268343706133695 8.497279259363766e-17
vn -0.8660253998985324 -0.500000006730587 1.110223039570062e-16
vn -0.7933533320874723 -0.6087614397000726 1.351721933717959e-16
vn -0.7071067811865474 -0.7071067811865475 1.5700924586837754e-16
vn -0.6087614397000723 -0.7933533320874724 1.7615982718932e-16
vn -0.5000000067305868 -0.8660253998985324 1.922962677755119e-16
vn -0.38268343706133684 -0.9238795305660377 2.0514246536285927e-16
vn -0.2588190471264926 -0.9659258257467466 2.1447861836482103e-16
vn -0.130526182006087 -0.9914448627185043 2.2014498284728224e-16
vn -2.449293705170335e-16 -1 2.2204460492503136e-16
vn 0 -1 2.2204460492503136e-16
vn 0.130526182006087 -0.9914448627185043 2.2014498284728224e-16
vn 0.2588190471264926 -0.9659258257467466 2.1447861836482103e-16
vn 0.38268343706133684 -0.9238795305660377 2.0514246536285927e-16
vn 0.5000000067305868 -0.8660253998985324 1.922962677755119e-16
vn 0.6087614397000723 -0.7933533320874724 1.7615982718932e-16
vn 0.7071067811865474 -0.7071067811865475 1.5700924586837754e-16
vn 0.7933533320874723 -0.6087614397000726 1.351721933717959e-16
vn 0.8660253998985324 -0.500000006730587 1.110223039570062e-16
vn 0.9238795305660374 -0.38268343706133695 8.497279259363766e-17
vn 0.9659258257467466 -0.25881904712649273 5.746937306627515e-17
vn 0.9914448627185043 -0.13052618200608707 2.898263451591434e-17
vn 1 -6.12323426292584e-17 1.3596311327747838e-32
vn 0.9914448627185043 0.13052618200608707 -2.898263451591434e-17
vn 0.9659258257467466 0.25881904712649273 -5.746937306627515e-17
vn 0.9238795305660374 0.38268343706133695 -8.497279259363766e-17
vn 0.8660253998985324 0.500000006730587 -1.110223039570062e-16
vn 0.7933533320874723 0.6087614397000726 -1.351721933717959e-16
vn 0.7071067811865474 0.7071067811865475 -1.5700924586837754e-16
vn 0.6087614397000723 0.7933533320874724 -1.7615982718932e-16
vn 0.5000000067305868 0.8660253998985324 -1.922962677755119e-16
vn 0.38268343706133684 0.9238795305660377 -2.0514246536285927e-16
vn 0.2588190471264926 0.9659258257467466 -2.1447861836482103e-16
vn 0.130526182006087 0.9914448627185043 -2.2014498284728224e-16
vn 1.2246468525851676e-16 1 -2.2204460492503136e-16
vn -0.130526182006087 0.9914448627185043 -2.2014498284728224e-16
vn -0.2588190471264926 0.9659258257467466 -2.1447861836482103e-16
vn -0.38268343706133684 0.9238795305660377 -2.0514246536285927e-16
vn -0.5000000067305868 0.8660253998985324 -1.922962677755119e-16
vn -0.6087614397000723 0.7933533320874724 -1.7615982718932e-16
vn -0.7071067811865474 0.7071067811865475 -1.5700924586837754e-16
vn -0.7933533320874723 0.6087614397000726 -1.351721933717959e-16
vn -0.8660253998985324 0.500000006730587 -1.110223039570062e-16
vn -0.9238795305660374 0.38268343706133695 -8.497279259363766e-17
vn -0.9659258257467466 0.25881904712649273 -5.746937306627515e-17
vn -0.9914448627185043 0.13052618200608707 -2.898263451591434e-17
vn -1 1.8369701465288543e-16 -4.0788931044507637e-32
vn -0.9914448627185043 -0.13052618200608707 2.898263451591434e-17
vn -0.9659258257467466 -0.25881904712649273 5.746937306627515e-17
vn -0.9238795305660374 -0.38268343706133695 8.497279259363766e-17
vn -0.8660253998985324 -0.500000006730587 1.110223039570062e-16
vn -0.7933533320874723 -0.6087614397000726 1.351721933717959e-16
vn -0.7071067811865474 -0.7071067811865475 1.5700924586837754e-16
vn -0.6087614397000723 -0.7933533320874724 1.7615982718932e-16
vn -0.5000000067305868 -0.8660253998985324 1.922962677755119e-16
vn -0.38268343706133684 -0.9238795305660377 2.0514246536285927e-16
vn -0.2588190471264926 -0.9659258257467466 2.1447861836482103e-16
vn -0.130526182006087 -0.9914448627185043 2.2014498284728224e-16
vn -2.449293705170335e-16 -1 2.2204460492503136e-16
vn 0 2.2204460492503136e-16 1
vn 0 2.2204460492503136e-16 1
vn 0 2.2204460492503136e-16 1
vn 0 2.2204460492503136e-16 1
vn 0 2.2204460492503136e-16 1
vn 0 2.2204460492503136e-16 1
vn 0 2.2204460492503136e-16 1
vn 0 2.2204460492503136e-16 1
vn 0 2.2204460492503136e-16 1
vn 0 2.2204460492503136e-16 1
vn 0 2.2204460492503136e-16 1
vn 0 2.2204460492503136e-16 1
vn 0 2.2204460492503136e-16 1
vn 0 2.2204460492503136e-16 1
vn 0 2.2204460492503136e-16 1
vn 0 2.2204460492503136e-16 1
vn 0 2.2204460492503136e-16 1
vn 0 2.2204460492503136e-16 1
vn 0 2.2204460492503136e-16 1
vn 0 2.2204460492503136e-16 1
vn 0 2.2204460492503136e-16 1
vn 0 2.2204460492503136e-16 1
vn 0 2.2204460492503136e-16 1
vn 0 2.2204460492503136e-16 1
vn 0 2.2204460492503136e-16 1
vn 0 2.2204460492503136e-16 1
vn 0 2.2204460492503136e-16 1
vn 0 2.2204460492503136e-16 1
vn 0 2.2204460492503136e-16 1
vn 0 2.2204460492503136e-16 1
vn 0 2.2204460492503136e-16 1
vn 0 2.2204460492503136e-16 1
vn 0 2.2204460492503136e-16 1
vn 0 2.2204460492503136e-16 1
vn 0 2.2204460492503136e-16 1
vn 0 2.2204460492503136e-16 1
vn 0 2.2204460492503136e-16 1
vn 0 2.2204460492503136e-16 1
vn 0 2.2204460492503136e-16 1
vn 0 2.2204460492503136e-16 1
vn 0 2.2204460492503136e-16 1
vn 0 2.2204460492503136e-16 1
vn 0 2.2204460492503136e-16 1
vn 0 2.2204460492503136e-16 1
vn 0 2.2204460492503136e-16 1
vn 0 2.2204460492503136e-16 1
vn 0 2.2204460492503136e-16 1
vn 0 2.2204460492503136e-16 1
vn 0 2.2204460492503136e-16 1
vn 0 2.2204460492503136e-16 1
vn 0 2.2204460492503136e-16 1
vn 0 2.2204460492503136e-16 1
vn 0 2.2204460492503136e-16 1
vn 0 2.2204460492503136e-16 1
vn 0 2.2204460492503136e-16 1
vn 0 2.2204460492503136e-16 1
vn 0 2.2204460492503136e-16 1
vn 0 2.2204460492503136e-16 1
vn 0 2.2204460492503136e-16 1
vn 0 2.2204460492503136e-16 1
vn 0 2.2204460492503136e-16 1
vn 0 2.2204460492503136e-16 1
vn 0 2.2204460492503136e-16 1
vn 0 2.2204460492503136e-16 1
vn 0 2.2204460492503136e-16 1
vn 0 2.2204460492503136e-16 1
vn 0 2.2204460492503136e-16 1
vn 0 2.2204460492503136e-16 1
vn 0 2.2204460492503136e-16 1
vn 0 2.2204460492503136e-16 1
vn 0 2.2204460492503136e-16 1
vn 0 2.2204460492503136e-16 1
vn 0 2.2204460492503136e-16 1
vn 0 2.2204460492503136e-16 1
vn 0 2.2204460492503136e-16 1
vn 0 2.2204460492503136e-16 1
vn 0 2.2204460492503136e-16 1
vn 0 2.2204460492503136e-16 1
vn 0 2.2204460492503136e-16 1
vn 0 2.2204460492503136e-16 1
vn 0 2.2204460492503136e-16 1
vn 0 2.2204460492503136e-16 1
vn 0 2.2204460492503136e-16 1
vn 0 2.2204460492503136e-16 1
vn 0 2.2204460492503136e-16 1
vn 0 2.2204460492503136e-16 1
vn 0 2.2204460492503136e-16 1
vn 0 2.2204460492503136e-16 1
vn 0 2.2204460492503136e-16 1
vn 0 2.2204460492503136e-16 1
vn 0 2.2204460492503136e-16 1
vn 0 2.2204460492503136e-16 1
vn 0 2.2204460492503136e-16 1
vn 0 2.2204460492503136e-16 1
vn 0 2.2204460492503136e-16 1
vn 0 2.2204460492503136e-16 1
vn 0 2.2204460492503136e-16 1
vn 0 -2.2204460492503136e-16 -1
vn 0 -2.2204460492503136e-16 -1
vn 0 -2.2204460492503136e-16 -1
vn 0 -2.2204460492503136e-16 -1
vn 0 -2.2204460492503136e-16 -1
vn 0 -2.2204460492503136e-16 -1
vn 0 -2.2204460492503136e-16 -1
vn 0 -2.2204460492503136e-16 -1
vn 0 -2.2204460492503136e-16 -1
vn 0 -2.2204460492503136e-16 -1
vn 0 -2.2204460492503136e-16 -1
vn 0 -2.2204460492503136e-16 -1
vn 0 -2.2204460492503136e-16 -1
vn 0 -2.2204460492503136e-16 -1
vn 0 -2.2204460492503136e-16 -1
vn 0 -2.2204460492503136e-16 -1
vn 0 -2.2204460492503136e-16 -1
vn 0 -2.2204460492503136e-16 -1
vn 0 -2.2204460492503136e-16 -1
vn 0 -2.2204460492503136e-16 -1
vn 0 -2.2204460492503136e-16 -1
vn 0 -2.2204460492503136e-16 -1
vn 0 -2.2204460492503136e-16 -1
vn 0 -2.2204460492503136e-16 -1
vn 0 -2.2204460492503136e-16 -1
vn 0 -2.2204460492503136e-16 -1
vn 0 -2.2204460492503136e-16 -1
vn 0 -2.2204460492503136e-16 -1
vn 0 -2.2204460492503136e-16 -1
vn 0 -2.2204460492503136e-16 -1
vn 0 -2.2204460492503136e-16 -1
vn 0 -2.2204460492503136e-16 -1
vn 0 -2.2204460492503136e-16 -1
vn 0 -2.2204460492503136e-16 -1
vn 0 -2.2204460492503136e-16 -1
vn 0 -2.2204460492503136e-16 -1
vn 0 -2.2204460492503136e-16 -1
vn 0 -2.2204460492503136e-16 -1
vn 0 -2.2204460492503136e-16 -1
vn 0 -2.2204460492503136e-16 -1
vn 0 -2.2204460492503136e-16 -1
vn 0 -2.2204460492503136e-16 -1
vn 0 -2.2204460492503136e-16 -1
vn 0 -2.2204460492503136e-16 -1
vn 0 -2.2204460492503136e-16 -1
vn 0 -2.2204460492503136e-16 -1
vn 0 -2.2204460492503136e-16 -1
vn 0 -2.2204460492503136e-16 -1
vn 0 -2.2204460492503136e-16 -1
vn 0 -2.2204460492503136e-16 -1
vn 0 -2.2204460492503136e-16 -1
vn 0 -2.2204460492503136e-16 -1
vn 0 -2.2204460492503136e-16 -1
vn 0 -2.2204460492503136e-16 -1
vn 0 -2.2204460492503136e-16 -1
vn 0 -2.2204460492503136e-16 -1
vn 0 -2.2204460492503136e-16 -1
vn 0 -2.2204460492503136e-16 -1
vn 0 -2.2204460492503136e-16 -1
vn 0 -2.2204460492503136e-16 -1
vn 0 -2.2204460492503136e-16 -1
vn 0 -2.2204460492503136e-16 -1
vn 0 -2.2204460492503136e-16 -1
vn 0 -2.2204460492503136e-16 -1
vn 0 -2.2204460492503136e-16 -1
vn 0 -2.2204460492503136e-16 -1
vn 0 -2.2204460492503136e-16 -1
vn 0 -2.2204460492503136e-16 -1
vn 0 -2.2204460492503136e-16 -1
vn 0 -2.2204460492503136e-16 -1
vn 0 -2.2204460492503136e-16 -1
vn 0 -2.2204460492503136e-16 -1
vn 0 -2.2204460492503136e-16 -1
vn 0 -2.2204460492503136e-16 -1
vn 0 -2.2204460492503136e-16 -1
vn 0 -2.2204460492503136e-16 -1
vn 0 -2.2204460492503136e-16 -1
vn 0 -2.2204460492503136e-16 -1
vn 0 -2.2204460492503136e-16 -1
vn 0 -2.2204460492503136e-16 -1
vn 0 -2.2204460492503136e-16 -1
vn 0 -2.2204460492503136e-16 -1
vn 0 -2.2204460492503136e-16 -1
vn 0 -2.2204460492503136e-16 -1
vn 0 -2.2204460492503136e-16 -1
vn 0 -2.2204460492503136e-16 -1
vn 0 -2.2204460492503136e-16 -1
vn 0 -2.2204460492503136e-16 -1
vn 0 -2.2204460492503136e-16 -1
vn 0 -2.2204460492503136e-16 -1
vn 0 -2.2204460492503136e-16 -1
vn 0 -2.2204460492503136e-16 -1
vn 0 -2.2204460492503136e-16 -1
vn 0 -2.2204460492503136e-16 -1
vn 0 -2.2204460492503136e-16 -1
vn 0 -2.2204460492503136e-16 -1
vn 0 -2.2204460492503136e-16 -1
f 1/1/1 50/50/50 2/2/2
f 50/50/50 51/51/51 2/2/2
f 2/2/2 51/51/51 3/3/3
f 51/51/51 52/52/52 3/3/3
f 3/3/3 52/52/52 4/4/4
f 52/52/52 53/53/53 4/4/4
f 4/4/4 53/53/53 5/5/5
f 53/53/53 54/54/54 5/5/5
f 5/5/5 54/54/54 6/6/6
f 54/54/54 55/55/55 6/6/6
f 6/6/6 55/55/55 7/7/7
f 55/55/55 56/56/56 7/7/7
f 7/7/7 56/56/56 8/8/8
f 56/56/56 57/57/57 8/8/8
f 8/8/8 57/57/57 9/9/9
f 57/57/57 58/58/58 9/9/9
f 9/9/9 58/58/58 10/10/10
f 58/58/58 59/59/59 10/10/10
f 10/10/10 59/59/59 11/11/11
f 59/59/59 60/60/60 11/11/11
f 11/11/11 60/60/60 12/12/12
f 60/60/60 61/61/61 12/12/12
f 12/12/12 61/61/61 13/13/13
f 61/61/61 62/62/62 13/13/13
f 13/13/13 62/62/62 14/14/14
f 62/62/62 63/63/63 14/14/14
f 14/14/14 63/63/63 15/15/15
f 63/63/63 64/64/64 15/15/15
f 15/15/15 64/64/64 16/16/16
f 64/64/64 65/65/65 16/16/16
f 16/16/16 65/65/65 17/17/17
f 65/65/65 66/66/66 17/17/17
f 17/17/17 66/66/66 18/18/18
f 66/66/66 67/67/67 18/18/18
f 18/18/18 67/67/67 19/19/19
f 67/67/67 68/68/68 19/19/19
f 19/19/19 68/68/68 20/20/20
f 68/68/68 69/69/69 20/20/20
f 20/20/20 69/69/69 21/21/21
f 69/69/69 70/70/70 21/21/21
f 21/21/21 70/70/70 22/22/22
f 70/70/70 71/71/71 22/22/22
f 22/22/22 71/71/71 23/23/23
f 71/71/71 72/72/72 23/23/23
f 23/23/23 72/72/72 24/24/24
f 72/72/72 73/73/73 24/24/24
f 24/24/24 73/73/73 25/25/25
f 73/73/73 74/74/74 25/25/25
f 25/25/25 74/74/74 26/26/26
f 74/74/74 75/75/75 26/26/26
f 26/26/26 75/75/75 27/27/27
f 75/75/75 76/76/76 27/27/27
f 27/27/27 76/76/76 28/28/28
f 76/76/76 77/77/77 28/28/28
f 28/28/28 77/77/77 29/29/29
f 77/77/77 78/78/78 29/29/29
f 29/29/29 78/78/78 30/30/30
f 78/78/78 79/79/79 30/30/30
f 30/30/30 79/79/79 31/31/31
f 79/79/79 80/80/80 31/31/31
f 31/31/31 80/80/80 32/32/32
f 80/80/80 81/81/81 32/32/32
f 32/32/32 81/81/81 33/33/33
f 81/81/81 82/82/82 33/33/33
f 33/33/33 82/82/82 34/34/34
f 82/82/82 83/83/83 34/34/34
f 34/34/34 83/83/83 35/35/35
f 83/83/83 84/84/84 35/35/35
f 35/35/35 84/84/84 36/36/36
f 84/84/84 85/85/85 36/36/36
f 36/36/36 85/85/85 37/37/37
f 85/85/85 86/86/86 37/37/37
f 37/37/37 86/86/86 38/38/38
f 86/86/86 87/87/87 38/38/38
f 38/38/38 87/87/87 39/39/39
f 87/87/87 88/88/88 39/39/39
f 39/39/39 88/88/88 40/40/40
f 88/88/88 89/89/89 40/40/40
f 40/40/40 89/89/89 41/41/41
f 89/89/89 90/90/90 41/41/41
f 41/41/41 90/90/90 42/42/42
f 90/90/90 91/91/91 42/42/42
f 42/42/42 91/91/91 43/43/43
f 91/91/91 92/92/92 43/43/43
f 43/43/43 92/92/92 44/44/44
f 92/92/92 93/93/93 44/44/44
f 44/44/44 93/93/93 45/45/45
f 93/93/93 94/94/94 45/45/45
f 45/45/45 94/94/94 46/46/46
f 94/94/94 95/95/95 46/46/46
f 46/46/46 95/95/95 47/47/47
f 95/95/95 96/96/96 47/47/47
f 47/47/47 96/96/96 48/48/48
f 96/96/96 97/97/97 48/48/48
f 48/48/48 97/97/97 49/49/49
f 97/97/97 98/98/98 49/49/49
f 147/147/147 148/148/148 99/99/99
f 148/148/148 149/149/149 100/100/100
f 149/149/149 150/150/150 101/101/101
f 150/150/150 151/151/151 102/102/102
f 151/151/151 152/152/152 103/103/103
f 152/152/152 153/153/153 104/104/104
f 153/153/153 154/154/154 105/105/105
f 154/154/154 155/155/155 106/106/106
f 155/155/155 156/156/156 107/107/107
f 156/156/156 157/157/157 108/108/108
f 157/157/157 158/158/158 109/109/109
f 158/158/158 159/159/159 110/110/110
f 159/159/159 160/160/160 111/111/111
f 160/160/160 161/161/161 112/112/112
f 161/161/161 162/162/162 113/113/113
f 162/162/162 163/163/163 114/114/114
f 163/163/163 164/164/164 115/115/115
f 164/164/164 165/165/165 116/116/116
f 165/165/165 166/166/166 117/117/117
f 166/166/166 167/167/167 118/118/118
f 167/167/167 168/168/168 119/119/119
f 168/168/168 169/169/169 120/120/120
f 169/169/169 170/170/170 121/121/121
f 170/170/170 171/171/171 122/122/122
f 171/171/171 172/172/172 123/123/123
f 172/172/172 173/173/173 124/124/124
f 173/173/173 174/174/174 125/125/125
f 174/174/174 175/175/175 126/126/126
f 175/175/175 176/176/176 127/127/127
f 176/176/176 177/177/177 128/128/128
f 177/177/177 178/178/178 129/129/129
f 178/178/178 179/179/179 130/130/130
f 179/179/179 180/180/180 131/131/131
f 180/180/180 181/181/181 132/132/132
f 181/181/181 182/182/182 133/133/133
f 182/182/182 183/183/183 134/134/134
f 183/183/183 184/184/184 135/135/135
f 184/184/184 185/185/185 136/136/136
f 185/185/185 186/186/186 137/137/137
f 186/186/186 187/187/187 138/138/138
f 187/187/187 188/188/188 139/139/139
f 188/188/188 189/189/189 140/140/140
f 189/189/189 190/190/190 141/141/141
f 190/190/190 191/191/191 142/142/142
f 191/191/191 192/192/192 143/143/143
f 192/192/192 193/193/193 144/144/144
f 193/193/193 194/194/194 145/145/145
f 194/194/194 195/195/195 146/146/146
f 245/245/245 244/244/244 196/196/196
f 246/246/246 245/245/245 197/197/197
f 247/247/247 246/246/246 198/198/198
f 248/248/248 247/247/247 199/199/199
f 249/249/249 248/248/248 200/200/200
f 250/250/250 249/249/249 201/201/201
f 251/251/251 250/250/250 202/202/202
f 252/252/252 251/251/251 203/203/203
f 253/253/253 252/252/252 204/204/204
f 254/254/254 253/253/253 205/205/205
f 255/255/255 254/254/254 206/206/206
f 256/256/256 255/255/255 207/207/207
f 257/257/257 256/256/256 208/208/208
f 258/258/258 257/257/257 209/209/209
f 259/259/259 258/258/258 210/210/210
f 260/260/260 259/259/259 211/211/211
f 261/261/261 260/260/260 212/212/212
f 262/262/262 261/261/261 213/213/213
f 263/263/263 262/262/262 214/214/214
f 264/264/264 263/263/263 215/215/215
f 265/265/265 264/264/264 216/216/216
f 266/266/266 265/265/265 217/217/217
f 267/267/267 266/266/266 218/218/218
f 268/268/268 267/267/267 219/219/219
f 269/269/269 268/268/268 220/220/220
f 270/270/270 269/269/269 221/221/221
f 271/271/271 270/270/270 222/222/222
f 272/272/272 271/271/271 223/223/223
f 273/273/273 272/272/272 224/224/224
f 274/274/274 273/273/273 225/225/225
f 275/275/275 274/274/274 226/226/226
f 276/276/276 275/275/275 227/227/227
f 277/277/277 276/276/276 228/228/228
f 278/278/278 277/277/277 229/229/229
f 279/279/279 278/278/278 230/230/230
f 280/280/280 279/279/279 231/231/231
f 281/281/281 280/280/280 232/232/232
f 282/282/282 281/281/281 233/233/233
f 283/283/283 282/282/282 234/234/234
f 284/284/284 283/283/283 235/235/235
f 285/285/285 284/284/284 236/236/236
f 286/286/286 285/285/285 237/237/237
f 287/287/287 286/286/286 238/238/238
f 288/288/288 287/287/287 239/239/239
f 289/289/289 288/288/288 240/240/240
f 290/290/290 289/289/289 241/241/241
f 291/291/291 290/290/290 242/242/242
f 292/292/292 291/291/291 243/243/243
o type_a_extender_109301
usemtl anodized_aluminium
v 0 -0.00609999988228082 -0.00999999962747098
v 0.0007962097879499197 -0.006047813687473529 -0.00999999962747098
v 0.0015787961892783642 -0.005892147310078137 -0.00999999962747098
v 0.0023343688808381557 -0.005635665263980621 -0.00999999962747098
v 0.0030499999411404133 -0.005282755009829992 -0.00999999962747098
v 0.00371344480663538 -0.004839455243200058 -0.00999999962747098
v 0.004313351586461067 -0.004313351586461061 -0.00999999962747098
v 0.004839455243200064 -0.0037134448066353733 -0.00999999962747098
v 0.005282755009829998 -0.0030499999411404068 -0.00999999962747098
v 0.005635665263980627 -0.0023343688808381497 -0.00999999962747098
v 0.005892147310078144 -0.0015787961892783581 -0.00999999962747098
v 0.0060478136874735355 -0.000796209787949914 -0.00999999962747098
v 0.006099999882280827 5.177597922836403e-18 -0.00999999962747098
v 0.0060478136874735355 0.000796209787949925 -0.00999999962747098
v 0.005892147310078144 0.0015787961892783694 -0.00999999962747098
v 0.005635665263980627 0.002334368880838161 -0.00999999962747098
v 0.005282755009829998 0.003049999941140418 -0.00999999962747098
v 0.004839455243200064 0.0037134448066353846 -0.00999999962747098
v 0.004313351586461067 0.0043133515864610715 -0.00999999962747098
v 0.00371344480663538 0.004839455243200068 -0.00999999962747098
v 0.0030499999411404133 0.005282755009830002 -0.00999999962747098
v 0.0023343688808381557 0.005635665263980631 -0.00999999962747098
v 0.0015787961892783642 0.0058921473100781475 -0.00999999962747098
v 0.0007962097879499197 0.006047813687473539 -0.00999999962747098
v 7.47034566014882e-19 0.00609999988228083 -0.00999999962747098
v -0.0007962097879499197 0.006047813687473539 -0.00999999962747098
v -0.0015787961892783642 0.0058921473100781475 -0.00999999962747098
v -0.0023343688808381557 0.005635665263980631 -0.00999999962747098
v -0.0030499999411404133 0.005282755009830002 -0.00999999962747098
v -0.00371344480663538 0.004839455243200068 -0.00999999962747098
v -0.004313351586461067 0.0043133515864610715 -0.00999999962747098
v -0.004839455243200064 0.0037134448066353846 -0.00999999962747098
v -0.005282755009829998 0.003049999941140418 -0.00999999962747098
v -0.005635665263980627 0.002334368880838161 -0.00999999962747098
v -0.005892147310078144 0.0015787961892783694 -0.00999999962747098
v -0.0060478136874735355 0.000796209787949925 -0.00999999962747098
v -0.006099999882280827 6.671667003167379e-18 -0.00999999962747098
v -0.0060478136874735355 -0.000796209787949914 -0.00999999962747098
v -0.005892147310078144 -0.0015787961892783581 -0.00999999962747098
v -0.005635665263980627 -0.0023343688808381497 -0.00999999962747098
v -0.005282755009829998 -0.0030499999411404068 -0.00999999962747098
v -0.004839455243200064 -0.0037134448066353733 -0.00999999962747098
v -0.004313351586461067 -0.004313351586461061 -0.00999999962747098
v -0.00371344480663538 -0.004839455243200058 -0.00999999962747098
v -0.0030499999411404133 -0.005282755009829992 -0.00999999962747098
v -0.0023343688808381557 -0.005635665263980621 -0.00999999962747098
v -0.0015787961892783642 -0.005892147310078137 -0.00999999962747098
v -0.0007962097879499197 -0.006047813687473529 -0.00999999962747098
v -1.494069132029764e-18 -0.00609999988228082 -0.00999999962747098
v 0 -0.00609999988228083 -0.060000000372529026
v 0.0007962097879499197 -0.006047813687473539 -0.060000000372529026
v 0.0015787961892783642 -0.0058921473100781475 -0.060000000372529026
v 0.0023343688808381557 -0.005635665263980631 -0.060000000372529026
v 0.0030499999411404133 -0.005282755009830002 -0.060000000372529026
v 0.00371344480663538 -0.004839455243200068 -0.060000000372529026
v 0.004313351586461067 -0.0043133515864610715 -0.060000000372529026
v 0.004839455243200064 -0.0037134448066353846 -0.060000000372529026
v 0.005282755009829998 -0.003049999941140418 -0.060000000372529026
v 0.005635665263980627 -0.002334368880838161 -0.060000000372529026
v 0.005892147310078144 -0.0015787961892783694 -0.060000000372529026
v 0.0060478136874735355 -0.000796209787949925 -0.060000000372529026
v 0.006099999882280827 -5.924632488851285e-18 -0.060000000372529026
v 0.0060478136874735355 0.000796209787949914 -0.060000000372529026
v 0.005892147310078144 0.0015787961892783581 -0.060000000372529026
v 0.005635665263980627 0.0023343688808381497 -0.060000000372529026
v 0.005282755009829998 0.0030499999411404068 -0.060000000372529026
v 0.004839455243200064 0.0037134448066353733 -0.060000000372529026
v 0.004313351586461067 0.004313351586461061 -0.060000000372529026
v 0.00371344480663538 0.004839455243200058 -0.060000000372529026
v 0.0030499999411404133 0.005282755009829992 -0.060000000372529026
v 0.0023343688808381557 0.005635665263980621 -0.060000000372529026
v 0.0015787961892783642 0.005892147310078137 -0.060000000372529026
v 0.0007962097879499197 0.006047813687473529 -0.060000000372529026
v 7.47034566014882e-19 0.00609999988228082 -0.060000000372529026
v -0.0007962097879499197 0.006047813687473529 -0.060000000372529026
v -0.0015787961892783642 0.005892147310078137 -0.060000000372529026
v -0.0023343688808381557 0.005635665263980621 -0.060000000372529026
v -0.0030499999411404133 0.005282755009829992 -0.060000000372529026
v -0.00371344480663538 0.004839455243200058 -0.060000000372529026
v -0.004313351586461067 0.004313351586461061 -0.060000000372529026
v -0.004839455243200064 0.0037134448066353733 -0.060000000372529026
v -0.005282755009829998 0.0030499999411404068 -0.060000000372529026
v -0.005635665263980627 0.0023343688808381497 -0.060000000372529026
v -0.005892147310078144 0.0015787961892783581 -0.060000000372529026
v -0.0060478136874735355 0.000796209787949914 -0.060000000372529026
v -0.006099999882280827 -4.430563408520309e-18 -0.060000000372529026
v -0.0060478136874735355 -0.000796209787949925 -0.060000000372529026
v -0.005892147310078144 -0.0015787961892783694 -0.060000000372529026
v -0.005635665263980627 -0.002334368880838161 -0.060000000372529026
v -0.005282755009829998 -0.003049999941140418 -0.060000000372529026
v -0.004839455243200064 -0.0037134448066353846 -0.060000000372529026
v -0.004313351586461067 -0.0043133515864610715 -0.060000000372529026
v -0.00371344480663538 -0.004839455243200068 -0.060000000372529026
v -0.0030499999411404133 -0.005282755009830002 -0.060000000372529026
v -0.0023343688808381557 -0.005635665263980631 -0.060000000372529026
v -0.0015787961892783642 -0.0058921473100781475 -0.060000000372529026
v -0.0007962097879499197 -0.006047813687473539 -0.060000000372529026
v -1.494069132029764e-18 -0.00609999988228083 -0.060000000372529026
v 0 5.551115205843844e-18 -0.00999999962747098
v 0 5.551115205843844e-18 -0.00999999962747098
v 0 5.551115205843844e-18 -0.00999999962747098
v 0 5.551115205843844e-18 -0.00999999962747098
v 0 5.551115205843844e-18 -0.00999999962747098
v 0 5.551115205843844e-18 -0.00999999962747098
v 0 5.551115205843844e-18 -0.00999999962747098
v 0 5.551115205843844e-18 -0.00999999962747098
v 0 5.551115205843844e-18 -0.00999999962747098
v 0 5.551115205843844e-18 -0.00999999962747098
v 0 5.551115205843844e-18 -0.00999999962747098
v 0 5.551115205843844e-18 -0.00999999962747098
v 0 5.551115205843844e-18 -0.00999999962747098
v 0 5.551115205843844e-18 -0.00999999962747098
v 0 5.551115205843844e-18 -0.00999999962747098
v 0 5.551115205843844e-18 -0.00999999962747098
v 0 5.551115205843844e-18 -0.00999999962747098
v 0 5.551115205843844e-18 -0.00999999962747098
v 0 5.551115205843844e-18 -0.00999999962747098
v 0 5.551115205843844e-18 -0.00999999962747098
v 0 5.551115205843844e-18 -0.00999999962747098
v 0 5.551115205843844e-18 -0.00999999962747098
v 0 5.551115205843844e-18 -0.00999999962747098
v 0 5.551115205843844e-18 -0.00999999962747098
v 0 5.551115205843844e-18 -0.00999999962747098
v 0 5.551115205843844e-18 -0.00999999962747098
v 0 5.551115205843844e-18 -0.00999999962747098
v 0 5.551115205843844e-18 -0.00999999962747098
v 0 5.551115205843844e-18 -0.00999999962747098
v 0 5.551115205843844e-18 -0.00999999962747098
v 0 5.551115205843844e-18 -0.00999999962747098
v 0 5.551115205843844e-18 -0.00999999962747098
v 0 5.551115205843844e-18 -0.00999999962747098
v 0 5.551115205843844e-18 -0.00999999962747098
v 0 5.551115205843844e-18 -0.00999999962747098
v 0 5.551115205843844e-18 -0.00999999962747098
v 0 5.551115205843844e-18 -0.00999999962747098
v 0 5.551115205843844e-18 -0.00999999962747098
v 0 5.551115205843844e-18 -0.00999999962747098
v 0 5.551115205843844e-18 -0.00999999962747098
v 0 5.551115205843844e-18 -0.00999999962747098
v 0 5.551115205843844e-18 -0.00999999962747098
v 0 5.551115205843844e-18 -0.00999999962747098
v 0 5.551115205843844e-18 -0.00999999962747098
v 0 5.551115205843844e-18 -0.00999999962747098
v 0 5.551115205843844e-18 -0.00999999962747098
v 0 5.551115205843844e-18 -0.00999999962747098
v 0 5.551115205843844e-18 -0.00999999962747098
v 0 -0.00609999988228082 -0.00999999962747098
v 0.0007962097879499197 -0.006047813687473529 -0.00999999962747098
v 0.0015787961892783642 -0.005892147310078137 -0.00999999962747098
v 0.0023343688808381557 -0.005635665263980621 -0.00999999962747098
v 0.0030499999411404133 -0.005282755009829992 -0.00999999962747098
v 0.00371344480663538 -0.004839455243200058 -0.00999999962747098
v 0.004313351586461067 -0.004313351586461061 -0.00999999962747098
v 0.004839455243200064 -0.0037134448066353733 -0.00999999962747098
v 0.005282755009829998 -0.0030499999411404068 -0.00999999962747098
v 0.005635665263980627 -0.0023343688808381497 -0.00999999962747098
v 0.005892147310078144 -0.0015787961892783581 -0.00999999962747098
v 0.0060478136874735355 -0.000796209787949914 -0.00999999962747098
v 0.006099999882280827 5.177597922836403e-18 -0.00999999962747098
v 0.0060478136874735355 0.000796209787949925 -0.00999999962747098
v 0.005892147310078144 0.0015787961892783694 -0.00999999962747098
v 0.005635665263980627 0.002334368880838161 -0.00999999962747098
v 0.005282755009829998 0.003049999941140418 -0.00999999962747098
v 0.004839455243200064 0.0037134448066353846 -0.00999999962747098
v 0.004313351586461067 0.0043133515864610715 -0.00999999962747098
v 0.00371344480663538 0.004839455243200068 -0.00999999962747098
v 0.0030499999411404133 0.005282755009830002 -0.00999999962747098
v 0.0023343688808381557 0.005635665263980631 -0.00999999962747098
v 0.0015787961892783642 0.0058921473100781475 -0.00999999962747098
v 0.0007962097879499197 0.006047813687473539 -0.00999999962747098
v 7.47034566014882e-19 0.00609999988228083 -0.00999999962747098
v -0.0007962097879499197 0.006047813687473539 -0.00999999962747098
v -0.0015787961892783642 0.0058921473100781475 -0.00999999962747098
v -0.0023343688808381557 0.005635665263980631 -0.00999999962747098
v -0.0030499999411404133 0.005282755009830002 -0.00999999962747098
v -0.00371344480663538 0.004839455243200068 -0.00999999962747098
v -0.004313351586461067 0.0043133515864610715 -0.00999999962747098
v -0.004839455243200064 0.0037134448066353846 -0.00999999962747098
v -0.005282755009829998 0.003049999941140418 -0.00999999962747098
v -0.005635665263980627 0.002334368880838161 -0.00999999962747098
v -0.005892147310078144 0.0015787961892783694 -0.00999999962747098
v -0.0060478136874735355 0.000796209787949925 -0.00999999962747098
v -0.006099999882280827 6.671667003167379e-18 -0.00999999962747098
v -0.0060478136874735355 -0.000796209787949914 -0.00999999962747098
v -0.005892147310078144 -0.0015787961892783581 -0.00999999962747098
v -0.005635665263980627 -0.0023343688808381497 -0.00999999962747098
v -0.005282755009829998 -0.0030499999411404068 -0.00999999962747098
v -0.004839455243200064 -0.0037134448066353733 -0.00999999962747098
v -0.004313351586461067 -0.004313351586461061 -0.00999999962747098
v -0.00371344480663538 -0.004839455243200058 -0.00999999962747098
v -0.0030499999411404133 -0.005282755009829992 -0.00999999962747098
v -0.0023343688808381557 -0.005635665263980621 -0.00999999962747098
v -0.0015787961892783642 -0.005892147310078137 -0.00999999962747098
v -0.0007962097879499197 -0.006047813687473529 -0.00999999962747098
v -1.494069132029764e-18 -0.00609999988228082 -0.00999999962747098
v 0 -5.551115205843844e-18 -0.060000000372529026
v 0 -5.551115205843844e-18 -0.060000000372529026
v 0 -5.551115205843844e-18 -0.060000000372529026
v 0 -5.551115205843844e-18 -0.060000000372529026
v 0 -5.551115205843844e-18 -0.060000000372529026
v 0 -5.551115205843844e-18 -0.060000000372529026
v 0 -5.551115205843844e-18 -0.060000000372529026
v 0 -5.551115205843844e-18 -0.060000000372529026
v 0 -5.551115205843844e-18 -0.060000000372529026
v 0 -5.551115205843844e-18 -0.060000000372529026
v 0 -5.551115205843844e-18 -0.060000000372529026
v 0 -5.551115205843844e-18 -0.060000000372529026
v 0 -5.551115205843844e-18 -0.060000000372529026
v 0 -5.551115205843844e-18 -0.060000000372529026
v 0 -5.551115205843844e-18 -0.060000000372529026
v 0 -5.551115205843844e-18 -0.060000000372529026
v 0 -5.551115205843844e-18 -0.060000000372529026
v 0 -5.551115205843844e-18 -0.060000000372529026
v 0 -5.551115205843844e-18 -0.060000000372529026
v 0 -5.551115205843844e-18 -0.060000000372529026
v 0 -5.551115205843844e-18 -0.060000000372529026
v 0 -5.551115205843844e-18 -0.060000000372529026
v 0 -5.551115205843844e-18 -0.060000000372529026
v 0 -5.551115205843844e-18 -0.060000000372529026
v 0 -5.551115205843844e-18 -0.060000000372529026
v 0 -5.551115205843844e-18 -0.060000000372529026
v 0 -5.551115205843844e-18 -0.060000000372529026
v 0 -5.551115205843844e-18 -0.060000000372529026
v 0 -5.551115205843844e-18 -0.060000000372529026
v 0 -5.551115205843844e-18 -0.060000000372529026
v 0 -5.551115205843844e-18 -0.060000000372529026
v 0 -5.551115205843844e-18 -0.060000000372529026
v 0 -5.551115205843844e-18 -0.060000000372529026
v 0 -5.551115205843844e-18 -0.060000000372529026
v 0 -5.551115205843844e-18 -0.060000000372529026
v 0 -5.551115205843844e-18 -0.060000000372529026
v 0 -5.551115205843844e-18 -0.060000000372529026
v 0 -5.551115205843844e-18 -0.060000000372529026
v 0 -5.551115205843844e-18 -0.060000000372529026
v 0 -5.551115205843844e-18 -0.060000000372529026
v 0 -5.551115205843844e-18 -0.060000000372529026
v 0 -5.551115205843844e-18 -0.060000000372529026
v 0 -5.551115205843844e-18 -0.060000000372529026
v 0 -5.551115205843844e-18 -0.060000000372529026
v 0 -5.551115205843844e-18 -0.060000000372529026
v 0 -5.551115205843844e-18 -0.060000000372529026
v 0 -5.551115205843844e-18 -0.060000000372529026
v 0 -5.551115205843844e-18 -0.060000000372529026
v 0 -0.00609999988228083 -0.060000000372529026
v 0.0007962097879499197 -0.006047813687473539 -0.060000000372529026
v 0.0015787961892783642 -0.0058921473100781475 -0.060000000372529026
v 0.0023343688808381557 -0.005635665263980631 -0.060000000372529026
v 0.0030499999411404133 -0.005282755009830002 -0.060000000372529026
v 0.00371344480663538 -0.004839455243200068 -0.060000000372529026
v 0.004313351586461067 -0.0043133515864610715 -0.060000000372529026
v 0.004839455243200064 -0.0037134448066353846 -0.060000000372529026
v 0.005282755009829998 -0.003049999941140418 -0.060000000372529026
v 0.005635665263980627 -0.002334368880838161 -0.060000000372529026
v 0.005892147310078144 -0.0015787961892783694 -0.060000000372529026
v 0.0060478136874735355 -0.000796209787949925 -0.060000000372529026
v 0.006099999882280827 -5.924632488851285e-18 -0.060000000372529026
v 0.0060478136874735355 0.000796209787949914 -0.060000000372529026
v 0.005892147310078144 0.0015787961892783581 -0.060000000372529026
v 0.005635665263980627 0.0023343688808381497 -0.060000000372529026
v 0.005282755009829998 0.0030499999411404068 -0.060000000372529026
v 0.004839455243200064 0.0037134448066353733 -0.060000000372529026
v 0.004313351586461067 0.004313351586461061 -0.060000000372529026
v 0.00371344480663538 0.004839455243200058 -0.060000000372529026
v 0.0030499999411404133 0.005282755009829992 -0.060000000372529026
v 0.0023343688808381557 0.005635665263980621 -0.060000000372529026
v 0.0015787961892783642 0.005892147310078137 -0.060000000372529026
v 0.0007962097879499197 0.006047813687473529 -0.060000000372529026
v 7.47034566014882e-19 0.00609999988228082 -0.060000000372529026
v -0.0007962097879499197 0.006047813687473529 -0.060000000372529026
v -0.0015787961892783642 0.005892147310078137 -0.060000000372529026
v -0.0023343688808381557 0.005635665263980621 -0.060000000372529026
v -0.0030499999411404133 0.005282755009829992 -0.060000000372529026
v -0.00371344480663538 0.004839455243200058 -0.060000000372529026
v -0.004313351586461067 0.004313351586461061 -0.060000000372529026
v -0.004839455243200064 0.0037134448066353733 -0.060000000372529026
v -0.005282755009829998 0.0030499999411404068 -0.060000000372529026
v -0.005635665263980627 0.0023343688808381497 -0.060000000372529026
v -0.005892147310078144 0.0015787961892783581 -0.060000000372529026
v -0.0060478136874735355 0.000796209787949914 -0.060000000372529026
v -0.006099999882280827 -4.430563408520309e-18 -0.060000000372529026
v -0.0060478136874735355 -0.000796209787949925 -0.060000000372529026
v -0.005892147310078144 -0.0015787961892783694 -0.060000000372529026
v -0.005635665263980627 -0.002334368880838161 -0.060000000372529026
v -0.005282755009829998 -0.003049999941140418 -0.060000000372529026
v -0.004839455243200064 -0.0037134448066353846 -0.060000000372529026
v -0.004313351586461067 -0.0043133515864610715 -0.060000000372529026
v -0.00371344480663538 -0.004839455243200068 -0.060000000372529026
v -0.0030499999411404133 -0.005282755009830002 -0.060000000372529026
v -0.0023343688808381557 -0.005635665263980631 -0.060000000372529026
v -0.0015787961892783642 -0.0058921473100781475 -0.060000000372529026
v -0.0007962097879499197 -0.006047813687473539 -0.060000000372529026
v -1.494069132029764e-18 -0.00609999988228083 -0.060000000372529026
vt 0 1
vt 0.02083333395421505 1
vt 0.0416666679084301 1
vt 0.0625 1
vt 0.0833333358168602 1
vt 0.1041666641831398 1
vt 0.125 1
vt 0.1458333283662796 1
vt 0.1666666716337204 1
vt 0.1875 1
vt 0.2083333283662796 1
vt 0.2291666716337204 1
vt 0.25 1
vt 0.2708333432674408 1
vt 0.2916666567325592 1
vt 0.3125 1
vt 0.3333333432674408 1
vt 0.3541666567325592 1
vt 0.375 1
vt 0.3958333432674408 1
vt 0.4166666567325592 1
vt 0.4375 1
vt 0.4583333432674408 1
vt 0.4791666567325592 1
vt 0.5 1
vt 0.5208333134651184 1
vt 0.5416666865348816 1
vt 0.5625 1
vt 0.5833333134651184 1
vt 0.6041666865348816 1
vt 0.625 1
vt 0.6458333134651184 1
vt 0.6666666865348816 1
vt 0.6875 1
vt 0.7083333134651184 1
vt 0.7291666865348816 1
vt 0.75 1
vt 0.7708333134651184 1
vt 0.7916666865348816 1
vt 0.8125 1
vt 0.8333333134651184 1
vt 0.8541666865348816 1
vt 0.875 1
vt 0.8958333134651184 1
vt 0.9166666865348816 1
vt 0.9375 1
vt 0.9583333134651184 1
vt 0.9791666865348816 1
vt 1 1
vt 0 0
vt 0.02083333395421505 0
vt 0.0416666679084301 0
vt 0.0625 0
vt 0.0833333358168602 0
vt 0.1041666641831398 0
vt 0.125 0
vt 0.1458333283662796 0
vt 0.1666666716337204 0
vt 0.1875 0
vt 0.2083333283662796 0
vt 0.2291666716337204 0
vt 0.25 0
vt 0.2708333432674408 0
vt 0.2916666567325592 0
vt 0.3125 0
vt 0.3333333432674408 0
vt 0.3541666567325592 0
vt 0.375 0
vt 0.3958333432674408 0
vt 0.4166666567325592 0
vt 0.4375 0
vt 0.4583333432674408 0
vt 0.4791666567325592 0
vt 0.5 0
vt 0.5208333134651184 0
vt 0.5416666865348816 0
vt 0.5625 0
vt 0.5833333134651184 0
vt 0.6041666865348816 0
vt 0.625 0
vt 0.6458333134651184 0
vt 0.6666666865348816 0
vt 0.6875 0
vt 0.7083333134651184 0
vt 0.7291666865348816 0
vt 0.75 0
vt 0.7708333134651184 0
vt 0.7916666865348816 0
vt 0.8125 0
vt 0.8333333134651184 0
vt 0.8541666865348816 0
vt 0.875 0
vt 0.8958333134651184 0
vt 0.9166666865348816 0
vt 0.9375 0
vt 0.9583333134651184 0
vt 0.9791666865348816 0
vt 1 0
vt 0.5 0.5
vt 0.5 0.5
vt 0.5 0.5
vt 0.5 0.5
vt 0.5 0.5
vt 0.5 0.5
vt 0.5 0.5
vt 0.5 0.5
vt 0.5 0.5
vt 0.5 0.5
vt 0.5 0.5
vt 0.5 0.5
vt 0.5 0.5
vt 0.5 0.5
vt 0.5 0.5
vt 0.5 0.5
vt 0.5 0.5
vt 0.5 0.5
vt 0.5 0.5
vt 0.5 0.5
vt 0.5 0.5
vt 0.5 0.5
vt 0.5 0.5
vt 0.5 0.5
vt 0.5 0.5
vt 0.5 0.5
vt 0.5 0.5
vt 0.5 0.5
vt 0.5 0.5
vt 0.5 0.5
vt 0.5 0.5
vt 0.5 0.5
vt 0.5 0.5
vt 0.5 0.5
vt 0.5 0.5
vt 0.5 0.5
vt 0.5 0.5
vt 0.5 0.5
vt 0.5 0.5
vt 0.5 0.5
vt 0.5 0.5
vt 0.5 0.5
vt 0.5 0.5
vt 0.5 0.5
vt 0.5 0.5
vt 0.5 0.5
vt 0.5 0.5
vt 0.5 0.5
vt 1 0.5
vt 0.9957224130630493 0.5652630925178528
vt 0.9829629063606262 0.6294095516204834
vt 0.9619397521018982 0.6913416981697083
vt 0.9330127239227295 0.75
vt 0.8966766595840454 0.8043807148933411
vt 0.8535534143447876 0.8535534143447876
vt 0.8043807148933411 0.8966766595840454
vt 0.75 0.9330127239227295
vt 0.6913416981697083 0.9619397521018982
vt 0.6294095516204834 0.9829629063606262
vt 0.5652630925178528 0.9957224130630493
vt 0.5 1
vt 0.4347369074821472 0.9957224130630493
vt 0.370590478181839 0.9829629063606262
vt 0.30865827202796936 0.9619397521018982
vt 0.25 0.9330127239227295
vt 0.19561928510665894 0.8966766595840454
vt 0.1464466154575348 0.8535534143447876
vt 0.10332333296537399 0.8043807148933411
vt 0.0669872984290123 0.75
vt 0.03806023299694061 0.6913416981697083
vt 0.017037086188793182 0.6294095516204834
vt 0.004277569241821766 0.5652630925178528
vt 0 0.5
vt 0.004277569241821766 0.4347369074821472
vt 0.017037086188793182 0.370590478181839
vt 0.03806023299694061 0.30865827202796936
vt 0.0669872984290123 0.25
vt 0.10332333296537399 0.19561928510665894
vt 0.1464466154575348 0.1464466154575348
vt 0.19561928510665894 0.10332333296537399
vt 0.25 0.0669872984290123
vt 0.30865827202796936 0.03806023299694061
vt 0.370590478181839 0.017037086188793182
vt 0.4347369074821472 0.004277569241821766
vt 0.5 0
vt 0.5652630925178528 0.004277569241821766
vt 0.6294095516204834 0.017037086188793182
vt 0.6913416981697083 0.03806023299694061
vt 0.75 0.0669872984290123
vt 0.8043807148933411 0.10332333296537399
vt 0.8535534143447876 0.1464466154575348
vt 0.8966766595840454 0.19561928510665894
vt 0.9330127239227295 0.25
vt 0.9619397521018982 0.30865827202796936
vt 0.9829629063606262 0.370590478181839
vt 0.9957224130630493 0.4347369074821472
vt 1 0.5
vt 0.5 0.5
vt 0.5 0.5
vt 0.5 0.5
vt 0.5 0.5
vt 0.5 0.5
vt 0.5 0.5
vt 0.5 0.5
vt 0.5 0.5
vt 0.5 0.5
vt 0.5 0.5
vt 0.5 0.5
vt 0.5 0.5
vt 0.5 0.5
vt 0.5 0.5
vt 0.5 0.5
vt 0.5 0.5
vt 0.5 0.5
vt 0.5 0.5
vt 0.5 0.5
vt 0.5 0.5
vt 0.5 0.5
vt 0.5 0.5
vt 0.5 0.5
vt 0.5 0.5
vt 0.5 0.5
vt 0.5 0.5
vt 0.5 0.5
vt 0.5 0.5
vt 0.5 0.5
vt 0.5 0.5
vt 0.5 0.5
vt 0.5 0.5
vt 0.5 0.5
vt 0.5 0.5
vt 0.5 0.5
vt 0.5 0.5
vt 0.5 0.5
vt 0.5 0.5
vt 0.5 0.5
vt 0.5 0.5
vt 0.5 0.5
vt 0.5 0.5
vt 0.5 0.5
vt 0.5 0.5
vt 0.5 0.5
vt 0.5 0.5
vt 0.5 0.5
vt 0.5 0.5
vt 1 0.5
vt 0.9957224130630493 0.4347369074821472
vt 0.9829629063606262 0.370590478181839
vt 0.9619397521018982 0.30865827202796936
vt 0.9330127239227295 0.25
vt 0.8966766595840454 0.19561928510665894
vt 0.8535534143447876 0.1464466154575348
vt 0.8043807148933411 0.10332333296537399
vt 0.75 0.0669872984290123
vt 0.6913416981697083 0.03806023299694061
vt 0.6294095516204834 0.017037086188793182
vt 0.5652630925178528 0.004277569241821766
vt 0.5 0
vt 0.4347369074821472 0.004277569241821766
vt 0.370590478181839 0.017037086188793182
vt 0.30865827202796936 0.03806023299694061
vt 0.25 0.0669872984290123
vt 0.19561928510665894 0.10332333296537399
vt 0.1464466154575348 0.1464466154575348
vt 0.10332333296537399 0.19561928510665894
vt 0.0669872984290123 0.25
vt 0.03806023299694061 0.30865827202796936
vt 0.017037086188793182 0.370590478181839
vt 0.004277569241821766 0.4347369074821472
vt 0 0.5
vt 0.004277569241821766 0.5652630925178528
vt 0.017037086188793182 0.6294095516204834
vt 0.03806023299694061 0.6913416981697083
vt 0.0669872984290123 0.75
vt 0.10332333296537399 0.8043807148933411
vt 0.1464466154575348 0.8535534143447876
vt 0.19561928510665894 0.8966766595840454
vt 0.25 0.9330127239227295
vt 0.30865827202796936 0.9619397521018982
vt 0.370590478181839 0.9829629063606262
vt 0.4347369074821472 0.9957224130630493
vt 0.5 1
vt 0.5652630925178528 0.9957224130630493
vt 0.6294095516204834 0.9829629063606262
vt 0.6913416981697083 0.9619397521018982
vt 0.75 0.9330127239227295
vt 0.8043807148933411 0.8966766595840454
vt 0.8535534143447876 0.8535534143447876
vt 0.8966766595840454 0.8043807148933411
vt 0.9330127239227295 0.75
vt 0.9619397521018982 0.6913416981697083
vt 0.9829629063606262 0.6294095516204834
vt 0.9957224130630493 0.5652630925178528
vt 1 0.5
vn 0 -1 2.2204460492503136e-16
vn 0.130526182006087 -0.9914448627185043 2.2014498284728224e-16
vn 0.2588190471264926 -0.9659258257467466 2.1447861836482103e-16
vn 0.38268343706133684 -0.9238795305660377 2.0514246536285927e-16
vn 0.5000000067305868 -0.8660253998985324 1.922962677755119e-16
vn 0.6087614397000723 -0.7933533320874724 1.7615982718932e-16
vn 0.7071067811865474 -0.7071067811865475 1.5700924586837754e-16
vn 0.7933533320874723 -0.6087614397000726 1.351721933717959e-16
vn 0.8660253998985324 -0.500000006730587 1.110223039570062e-16
vn 0.9238795305660374 -0.38268343706133695 8.497279259363766e-17
vn 0.9659258257467466 -0.25881904712649273 5.746937306627515e-17
vn 0.9914448627185043 -0.13052618200608707 2.898263451591434e-17
vn 1 -6.12323426292584e-17 1.3596311327747838e-32
vn 0.9914448627185043 0.13052618200608707 -2.898263451591434e-17
vn 0.9659258257467466 0.25881904712649273 -5.746937306627515e-17
vn 0.9238795305660374 0.38268343706133695 -8.497279259363766e-17
vn 0.8660253998985324 0.500000006730587 -1.110223039570062e-16
vn 0.7933533320874723 0.6087614397000726 -1.351721933717959e-16
vn 0.7071067811865474 0.7071067811865475 -1.5700924586837754e-16
vn 0.6087614397000723 0.7933533320874724 -1.7615982718932e-16
vn 0.5000000067305868 0.8660253998985324 -1.922962677755119e-16
vn 0.38268343706133684 0.9238795305660377 -2.0514246536285927e-16
vn 0.2588190471264926 0.9659258257467466 -2.1447861836482103e-16
vn 0.130526182006087 0.9914448627185043 -2.2014498284728224e-16
vn 1.2246468525851676e-16 1 -2.2204460492503136e-16
vn -0.130526182006087 0.9914448627185043 -2.2014498284728224e-16
vn -0.2588190471264926 0.9659258257467466 -2.1447861836482103e-16
vn -0.38268343706133684 0.9238795305660377 -2.0514246536285927e-16
vn -0.5000000067305868 0.8660253998985324 -1.922962677755119e-16
vn -0.6087614397000723 0.7933533320874724 -1.7615982718932e-16
vn -0.7071067811865474 0.7071067811865475 -1.5700924586837754e-16
vn -0.7933533320874723 0.6087614397000726 -1.351721933717959e-16
vn -0.8660253998985324 0.500000006730587 -1.110223039570062e-16
vn -0.9238795305660374 0.38268343706133695 -8.497279259363766e-17
vn -0.9659258257467466 0.25881904712649273 -5.746937306627515e-17
vn -0.9914448627185043 0.13052618200608707 -2.898263451591434e-17
vn -1 1.8369701465288543e-16 -4.0788931044507637e-32
vn -0.9914448627185043 -0.13052618200608707 2.898263451591434e-17
vn -0.9659258257467466 -0.25881904712649273 5.746937306627515e-17
vn -0.9238795305660374 -0.38268343706133695 8.497279259363766e-17
vn -0.8660253998985324 -0.500000006730587 1.110223039570062e-16
vn -0.7933533320874723 -0.6087614397000726 1.351721933717959e-16
vn -0.7071067811865474 -0.7071067811865475 1.5700924586837754e-16
vn -0.6087614397000723 -0.7933533320874724 1.7615982718932e-16
vn -0.5000000067305868 -0.8660253998985324 1.922962677755119e-16
vn -0.38268343706133684 -0.9238795305660377 2.0514246536285927e-16
vn -0.2588190471264926 -0.9659258257467466 2.1447861836482103e-16
vn -0.130526182006087 -0.9914448627185043 2.2014498284728224e-16
vn -2.449293705170335e-16 -1 2.2204460492503136e-16
vn 0 -1 2.2204460492503136e-16
vn 0.130526182006087 -0.9914448627185043 2.2014498284728224e-16
vn 0.2588190471264926 -0.9659258257467466 2.1447861836482103e-16
vn 0.38268343706133684 -0.9238795305660377 2.0514246536285927e-16
vn 0.5000000067305868 -0.8660253998985324 1.922962677755119e-16
vn 0.6087614397000723 -0.7933533320874724 1.7615982718932e-16
vn 0.7071067811865474 -0.7071067811865475 1.5700924586837754e-16
vn 0.7933533320874723 -0.6087614397000726 1.351721933717959e-16
vn 0.8660253998985324 -0.500000006730587 1.110223039570062e-16
vn 0.9238795305660374 -0.38268343706133695 8.497279259363766e-17
vn 0.9659258257467466 -0.25881904712649273 5.746937306627515e-17
vn 0.9914448627185043 -0.13052618200608707 2.898263451591434e-17
vn 1 -6.12323426292584e-17 1.3596311327747838e-32
vn 0.9914448627185043 0.13052618200608707 -2.898263451591434e-17
vn 0.9659258257467466 0.25881904712649273 -5.746937306627515e-17
vn 0.9238795305660374 0.38268343706133695 -8.497279259363766e-17
vn 0.8660253998985324 0.500000006730587 -1.110223039570062e-16
vn 0.7933533320874723 0.6087614397000726 -1.351721933717959e-16
vn 0.7071067811865474 0.7071067811865475 -1.5700924586837754e-16
vn 0.6087614397000723 0.7933533320874724 -1.7615982718932e-16
vn 0.5000000067305868 0.8660253998985324 -1.922962677755119e-16
vn 0.38268343706133684 0.9238795305660377 -2.0514246536285927e-16
vn 0.2588190471264926 0.9659258257467466 -2.1447861836482103e-16
vn 0.130526182006087 0.9914448627185043 -2.2014498284728224e-16
vn 1.2246468525851676e-16 1 -2.2204460492503136e-16
vn -0.130526182006087 0.9914448627185043 -2.2014498284728224e-16
vn -0.2588190471264926 0.9659258257467466 -2.1447861836482103e-16
vn -0.38268343706133684 0.9238795305660377 -2.0514246536285927e-16
vn -0.5000000067305868 0.8660253998985324 -1.922962677755119e-16
vn -0.6087614397000723 0.7933533320874724 -1.7615982718932e-16
vn -0.7071067811865474 0.7071067811865475 -1.5700924586837754e-16
vn -0.7933533320874723 0.6087614397000726 -1.351721933717959e-16
vn -0.8660253998985324 0.500000006730587 -1.110223039570062e-16
vn -0.9238795305660374 0.38268343706133695 -8.497279259363766e-17
vn -0.9659258257467466 0.25881904712649273 -5.746937306627515e-17
vn -0.9914448627185043 0.13052618200608707 -2.898263451591434e-17
vn -1 1.8369701465288543e-16 -4.0788931044507637e-32
vn -0.9914448627185043 -0.13052618200608707 2.898263451591434e-17
vn -0.9659258257467466 -0.25881904712649273 5.746937306627515e-17
vn -0.9238795305660374 -0.38268343706133695 8.497279259363766e-17
vn -0.8660253998985324 -0.500000006730587 1.110223039570062e-16
vn -0.7933533320874723 -0.6087614397000726 1.351721933717959e-16
vn -0.7071067811865474 -0.7071067811865475 1.5700924586837754e-16
vn -0.6087614397000723 -0.7933533320874724 1.7615982718932e-16
vn -0.5000000067305868 -0.8660253998985324 1.922962677755119e-16
vn -0.38268343706133684 -0.9238795305660377 2.0514246536285927e-16
vn -0.2588190471264926 -0.9659258257467466 2.1447861836482103e-16
vn -0.130526182006087 -0.9914448627185043 2.2014498284728224e-16
vn -2.449293705170335e-16 -1 2.2204460492503136e-16
vn 0 2.2204460492503136e-16 1
vn 0 2.2204460492503136e-16 1
vn 0 2.2204460492503136e-16 1
vn 0 2.2204460492503136e-16 1
vn 0 2.2204460492503136e-16 1
vn 0 2.2204460492503136e-16 1
vn 0 2.2204460492503136e-16 1
vn 0 2.2204460492503136e-16 1
vn 0 2.2204460492503136e-16 1
vn 0 2.2204460492503136e-16 1
vn 0 2.2204460492503136e-16 1
vn 0 2.2204460492503136e-16 1
vn 0 2.2204460492503136e-16 1
vn 0 2.2204460492503136e-16 1
vn 0 2.2204460492503136e-16 1
vn 0 2.2204460492503136e-16 1
vn 0 2.2204460492503136e-16 1
vn 0 2.2204460492503136e-16 1
vn 0 2.2204460492503136e-16 1
vn 0 2.2204460492503136e-16 1
vn 0 2.2204460492503136e-16 1
vn 0 2.2204460492503136e-16 1
vn 0 2.2204460492503136e-16 1
vn 0 2.2204460492503136e-16 1
vn 0 2.2204460492503136e-16 1
vn 0 2.2204460492503136e-16 1
vn 0 2.2204460492503136e-16 1
vn 0 2.2204460492503136e-16 1
vn 0 2.2204460492503136e-16 1
vn 0 2.2204460492503136e-16 1
vn 0 2.2204460492503136e-16 1
vn 0 2.2204460492503136e-16 1
vn 0 2.2204460492503136e-16 1
vn 0 2.2204460492503136e-16 1
vn 0 2.2204460492503136e-16 1
vn 0 2.2204460492503136e-16 1
vn 0 2.2204460492503136e-16 1
vn 0 2.2204460492503136e-16 1
vn 0 2.2204460492503136e-16 1
vn 0 2.2204460492503136e-16 1
vn 0 2.2204460492503136e-16 1
vn 0 2.2204460492503136e-16 1
vn 0 2.2204460492503136e-16 1
vn 0 2.2204460492503136e-16 1
vn 0 2.2204460492503136e-16 1
vn 0 2.2204460492503136e-16 1
vn 0 2.2204460492503136e-16 1
vn 0 2.2204460492503136e-16 1
vn 0 2.2204460492503136e-16 1
vn 0 2.2204460492503136e-16 1
vn 0 2.2204460492503136e-16 1
vn 0 2.2204460492503136e-16 1
vn 0 2.2204460492503136e-16 1
vn 0 2.2204460492503136e-16 1
vn 0 2.2204460492503136e-16 1
vn 0 2.2204460492503136e-16 1
vn 0 2.2204460492503136e-16 1
vn 0 2.2204460492503136e-16 1
vn 0 2.2204460492503136e-16 1
vn 0 2.2204460492503136e-16 1
vn 0 2.2204460492503136e-16 1
vn 0 2.2204460492503136e-16 1
vn 0 2.2204460492503136e-16 1
vn 0 2.2204460492503136e-16 1
vn 0 2.2204460492503136e-16 1
vn 0 2.2204460492503136e-16 1
vn 0 2.2204460492503136e-16 1
vn 0 2.2204460492503136e-16 1
vn 0 2.2204460492503136e-16 1
vn 0 2.2204460492503136e-16 1
vn 0 2.2204460492503136e-16 1
vn 0 2.2204460492503136e-16 1
vn 0 2.2204460492503136e-16 1
vn 0 2.2204460492503136e-16 1
vn 0 2.2204460492503136e-16 1
vn 0 2.2204460492503136e-16 1
vn 0 2.2204460492503136e-16 1
vn 0 2.2204460492503136e-16 1
vn 0 2.2204460492503136e-16 1
vn 0 2.2204460492503136e-16 1
vn 0 2.2204460492503136e-16 1
vn 0 2.2204460492503136e-16 1
vn 0 2.2204460492503136e-16 1
vn 0 2.2204460492503136e-16 1
vn 0 2.2204460492503136e-16 1
vn 0 2.2204460492503136e-16 1
vn 0 2.2204460492503136e-16 1
vn 0 2.2204460492503136e-16 1
vn 0 2.2204460492503136e-16 1
vn 0 2.2204460492503136e-16 1
vn 0 2.2204460492503136e-16 1
vn 0 2.2204460492503136e-16 1
vn 0 2.2204460492503136e-16 1
vn 0 2.2204460492503136e-16 1
vn 0 2.2204460492503136e-16 1
vn 0 2.2204460492503136e-16 1
vn 0 2.2204460492503136e-16 1
vn 0 -2.2204460492503136e-16 -1
vn 0 -2.2204460492503136e-16 -1
vn 0 -2.2204460492503136e-16 -1
vn 0 -2.2204460492503136e-16 -1
vn 0 -2.2204460492503136e-16 -1
vn 0 -2.2204460492503136e-16 -1
vn 0 -2.2204460492503136e-16 -1
vn 0 -2.2204460492503136e-16 -1
vn 0 -2.2204460492503136e-16 -1
vn 0 -2.2204460492503136e-16 -1
vn 0 -2.2204460492503136e-16 -1
vn 0 -2.2204460492503136e-16 -1
vn 0 -2.2204460492503136e-16 -1
vn 0 -2.2204460492503136e-16 -1
vn 0 -2.2204460492503136e-16 -1
vn 0 -2.2204460492503136e-16 -1
vn 0 -2.2204460492503136e-16 -1
vn 0 -2.2204460492503136e-16 -1
vn 0 -2.2204460492503136e-16 -1
vn 0 -2.2204460492503136e-16 -1
vn 0 -2.2204460492503136e-16 -1
vn 0 -2.2204460492503136e-16 -1
vn 0 -2.2204460492503136e-16 -1
vn 0 -2.2204460492503136e-16 -1
vn 0 -2.2204460492503136e-16 -1
vn 0 -2.2204460492503136e-16 -1
vn 0 -2.2204460492503136e-16 -1
vn 0 -2.2204460492503136e-16 -1
vn 0 -2.2204460492503136e-16 -1
vn 0 -2.2204460492503136e-16 -1
vn 0 -2.2204460492503136e-16 -1
vn 0 -2.2204460492503136e-16 -1
vn 0 -2.2204460492503136e-16 -1
vn 0 -2.2204460492503136e-16 -1
vn 0 -2.2204460492503136e-16 -1
vn 0 -2.2204460492503136e-16 -1
vn 0 -2.2204460492503136e-16 -1
vn 0 -2.2204460492503136e-16 -1
vn 0 -2.2204460492503136e-16 -1
vn 0 -2.2204460492503136e-16 -1
vn 0 -2.2204460492503136e-16 -1
vn 0 -2.2204460492503136e-16 -1
vn 0 -2.2204460492503136e-16 -1
vn 0 -2.2204460492503136e-16 -1
vn 0 -2.2204460492503136e-16 -1
vn 0 -2.2204460492503136e-16 -1
vn 0 -2.2204460492503136e-16 -1
vn 0 -2.2204460492503136e-16 -1
vn 0 -2.2204460492503136e-16 -1
vn 0 -2.2204460492503136e-16 -1
vn 0 -2.2204460492503136e-16 -1
vn 0 -2.2204460492503136e-16 -1
vn 0 -2.2204460492503136e-16 -1
vn 0 -2.2204460492503136e-16 -1
vn 0 -2.2204460492503136e-16 -1
vn 0 -2.2204460492503136e-16 -1
vn 0 -2.2204460492503136e-16 -1
vn 0 -2.2204460492503136e-16 -1
vn 0 -2.2204460492503136e-16 -1
vn 0 -2.2204460492503136e-16 -1
vn 0 -2.2204460492503136e-16 -1
vn 0 -2.2204460492503136e-16 -1
vn 0 -2.2204460492503136e-16 -1
vn 0 -2.2204460492503136e-16 -1
vn 0 -2.2204460492503136e-16 -1
vn 0 -2.2204460492503136e-16 -1
vn 0 -2.2204460492503136e-16 -1
vn 0 -2.2204460492503136e-16 -1
vn 0 -2.2204460492503136e-16 -1
vn 0 -2.2204460492503136e-16 -1
vn 0 -2.2204460492503136e-16 -1
vn 0 -2.2204460492503136e-16 -1
vn 0 -2.2204460492503136e-16 -1
vn 0 -2.2204460492503136e-16 -1
vn 0 -2.2204460492503136e-16 -1
vn 0 -2.2204460492503136e-16 -1
vn 0 -2.2204460492503136e-16 -1
vn 0 -2.2204460492503136e-16 -1
vn 0 -2.2204460492503136e-16 -1
vn 0 -2.2204460492503136e-16 -1
vn 0 -2.2204460492503136e-16 -1
vn 0 -2.2204460492503136e-16 -1
vn 0 -2.2204460492503136e-16 -1
vn 0 -2.2204460492503136e-16 -1
vn 0 -2.2204460492503136e-16 -1
vn 0 -2.2204460492503136e-16 -1
vn 0 -2.2204460492503136e-16 -1
vn 0 -2.2204460492503136e-16 -1
vn 0 -2.2204460492503136e-16 -1
vn 0 -2.2204460492503136e-16 -1
vn 0 -2.2204460492503136e-16 -1
vn 0 -2.2204460492503136e-16 -1
vn 0 -2.2204460492503136e-16 -1
vn 0 -2.2204460492503136e-16 -1
vn 0 -2.2204460492503136e-16 -1
vn 0 -2.2204460492503136e-16 -1
vn 0 -2.2204460492503136e-16 -1
f 293/293/293 342/342/342 294/294/294
f 342/342/342 343/343/343 294/294/294
f 294/294/294 343/343/343 295/295/295
f 343/343/343 344/344/344 295/295/295
f 295/295/295 344/344/344 296/296/296
f 344/344/344 345/345/345 296/296/296
f 296/296/296 345/345/345 297/297/297
f 345/345/345 346/346/346 297/297/297
f 297/297/297 346/346/346 298/298/298
f 346/346/346 347/347/347 298/298/298
f 298/298/298 347/347/347 299/299/299
f 347/347/347 348/348/348 299/299/299
f 299/299/299 348/348/348 300/300/300
f 348/348/348 349/349/349 300/300/300
f 300/300/300 349/349/349 301/301/301
f 349/349/349 350/350/350 301/301/301
f 301/301/301 350/350/350 302/302/302
f 350/350/350 351/351/351 302/302/302
f 302/302/302 351/351/351 303/303/303
f 351/351/351 352/352/352 303/303/303
f 303/303/303 352/352/352 304/304/304
f 352/352/352 353/353/353 304/304/304
f 304/304/304 353/353/353 305/305/305
f 353/353/353 354/354/354 305/305/305
f 305/305/305 354/354/354 306/306/306
f 354/354/354 355/355/355 306/306/306
f 306/306/306 355/355/355 307/307/307
f 355/355/355 356/356/356 307/307/307
f 307/307/307 356/356/356 308/308/308
f 356/356/356 357/357/357 308/308/308
f 308/308/308 357/357/357 309/309/309
f 357/357/357 358/358/358 309/309/309
f 309/309/309 358/358/358 310/310/310
f 358/358/358 359/359/359 310/310/310
f 310/310/310 359/359/359 311/311/311
f 359/359/359 360/360/360 311/311/311
f 311/311/311 360/360/360 312/312/312
f 360/360/360 361/361/361 312/312/312
f 312/312/312 361/361/361 313/313/313
f 361/361/361 362/362/362 313/313/313
f 313/313/313 362/362/362 314/314/314
f 362/362/362 363/363/363 314/314/314
f 314/314/314 363/363/363 315/315/315
f 363/363/363 364/364/364 315/315/315
f 315/315/315 364/364/364 316/316/316
f 364/364/364 365/365/365 316/316/316
f 316/316/316 365/365/365 317/317/317
f 365/365/365 366/366/366 317/317/317
f 317/317/317 366/366/366 318/318/318
f 366/366/366 367/367/367 318/318/318
f 318/318/318 367/367/367 319/319/319
f 367/367/367 368/368/368 319/319/319
f 319/319/319 368/368/368 320/320/320
f 368/368/368 369/369/369 320/320/320
f 320/320/320 369/369/369 321/321/321
f 369/369/369 370/370/370 321/321/321
f 321/321/321 370/370/370 322/322/322
f 370/370/370 371/371/371 322/322/322
f 322/322/322 371/371/371 323/323/323
f 371/371/371 372/372/372 323/323/323
f 323/323/323 372/372/372 324/324/324
f 372/372/372 373/373/373 324/324/324
f 324/324/324 373/373/373 325/325/325
f 373/373/373 374/374/374 325/325/325
f 325/325/325 374/374/374 326/326/326
f 374/374/374 375/375/375 326/326/326
f 326/326/326 375/375/375 327/327/327
f 375/375/375 376/376/376 327/327/327
f 327/327/327 376/376/376 328/328/328
f 376/376/376 377/377/377 328/328/328
f 328/328/328 377/377/377 329/329/329
f 377/377/377 378/378/378 329/329/329
f 329/329/329 378/378/378 330/330/330
f 378/378/378 379/379/379 330/330/330
f 330/330/330 379/379/379 331/331/331
f 379/379/379 380/380/380 331/331/331
f 331/331/331 380/380/380 332/332/332
f 380/380/380 381/381/381 332/332/332
f 332/332/332 381/381/381 333/333/333
f 381/381/381 382/382/382 333/333/333
f 333/333/333 382/382/382 334/334/334
f 382/382/382 383/383/383 334/334/334
f 334/334/334 383/383/383 335/335/335
f 383/383/383 384/384/384 335/335/335
f 335/335/335 384/384/384 336/336/336
f 384/384/384 385/385/385 336/336/336
f 336/336/336 385/385/385 337/337/337
f 385/385/385 386/386/386 337/337/337
f 337/337/337 386/386/386 338/338/338
f 386/386/386 387/387/387 338/338/338
f 338/338/338 387/387/387 339/339/339
f 387/387/387 388/388/388 339/339/339
f 339/339/339 388/388/388 340/340/340
f 388/388/388 389/389/389 340/340/340
f 340/340/340 389/389/389 341/341/341
f 389/389/389 390/390/390 341/341/341
f 439/439/439 440/440/440 391/391/391
f 440/440/440 441/441/441 392/392/392
f 441/441/441 442/442/442 393/393/393
f 442/442/442 443/443/443 394/394/394
f 443/443/443 444/444/444 395/395/395
f 444/444/444 445/445/445 396/396/396
f 445/445/445 446/446/446 397/397/397
f 446/446/446 447/447/447 398/398/398
f 447/447/447 448/448/448 399/399/399
f 448/448/448 449/449/449 400/400/400
f 449/449/449 450/450/450 401/401/401
f 450/450/450 451/451/451 402/402/402
f 451/451/451 452/452/452 403/403/403
f 452/452/452 453/453/453 404/404/404
f 453/453/453 454/454/454 405/405/405
f 454/454/454 455/455/455 406/406/406
f 455/455/455 456/456/456 407/407/407
f 456/456/456 457/457/457 408/408/408
f 457/457/457 458/458/458 409/409/409
f 458/458/458 459/459/459 410/410/410
f 459/459/459 460/460/460 411/411/411
f 460/460/460 461/461/461 412/412/412
f 461/461/461 462/462/462 413/413/413
f 462/462/462 463/463/463 414/414/414
f 463/463/463 464/464/464 415/415/415
f 464/464/464 465/465/465 416/416/416
f 465/465/465 466/466/466 417/417/417
f 466/466/466 467/467/467 418/418/418
f 467/467/467 468/468/468 419/419/419
f 468/468/468 469/469/469 420/420/420
f 469/469/469 470/470/470 421/421/421
f 470/470/470 471/471/471 422/422/422
f 471/471/471 472/472/472 423/423/423
f 472/472/472 473/473/473 424/424/424
f 473/473/473 474/474/474 425/425/425
f 474/474/474 475/475/475 426/426/426
f 475/475/475 476/476/476 427/427/427
f 476/476/476 477/477/477 428/428/428
f 477/477/477 478/478/478 429/429/429
f 478/478/478 479/479/479 430/430/430
f 479/479/479 480/480/480 431/431/431
f 480/480/480 481/481/481 432/432/432
f 481/481/481 482/482/482 433/433/433
f 482/482/482 483/483/483 434/434/434
f 483/483/483 484/484/484 435/435/435
f 484/484/484 485/485/485 436/436/436
f 485/485/485 486/486/486 437/437/437
f 486/486/486 487/487/487 438/438/438
f 537/537/537 536/536/536 488/488/488
f 538/538/538 537/537/537 489/489/489
f 539/539/539 538/538/538 490/490/490
f 540/540/540 539/539/539 491/491/491
f 541/541/541 540/540/540 492/492/492
f 542/542/542 541/541/541 493/493/493
f 543/543/543 542/542/542 494/494/494
f 544/544/544 543/543/543 495/495/495
f 545/545/545 544/544/544 496/496/496
f 546/546/546 545/545/545 497/497/497
f 547/547/547 546/546/546 498/498/498
f 548/548/548 547/547/547 499/499/499
f 549/549/549 548/548/548 500/500/500
f 550/550/550 549/549/549 501/501/501
f 551/551/551 550/550/550 502/502/502
f 552/552/552 551/551/551 503/503/503
f 553/553/553 552/552/552 504/504/504
f 554/554/554 553/553/553 505/505/505
f 555/555/555 554/554/554 506/506/506
f 556/556/556 555/555/555 507/507/507
f 557/557/557 556/556/556 508/508/508
f 558/558/558 557/557/557 509/509/509
f 559/559/559 558/558/558 510/510/510
f 560/560/560 559/559/559 511/511/511
f 561/561/561 560/560/560 512/512/512
f 562/562/562 561/561/561 513/513/513
f 563/563/563 562/562/562 514/514/514
f 564/564/564 563/563/563 515/515/515
f 565/565/565 564/564/564 516/516/516
f 566/566/566 565/565/565 517/517/517
f 567/567/567 566/566/566 518/518/518
f 568/568/568 567/567/567 519/519/519
f 569/569/569 568/568/568 520/520/520
f 570/570/570 569/569/569 521/521/521
f 571/571/571 570/570/570 522/522/522
f 572/572/572 571/571/571 523/523/523
f 573/573/573 572/572/572 524/524/524
f 574/574/574 573/573/573 525/525/525
f 575/575/575 574/574/574 526/526/526
f 576/576/576 575/575/575 527/527/527
f 577/577/577 576/576/576 528/528/528
f 578/578/578 577/577/577 529/529/529
f 579/579/579 578/578/578 530/530/530
f 580/580/580 579/579/579 531/531/531
f 581/581/581 580/580/580 532/532/532
f 582/582/582 581/581/581 533/533/533
f 583/583/583 582/582/582 534/534/534
f 584/584/584 583/583/583 535/535/535
