mtllib crank_link.mtl
o crank_hub
usemtl fanuc_yellow
v 0 0.03500000014901161 0.10999999940395355
v 0.01435788068920374 0.03500000014901161 0.1090589314699173
v 0.028470095247030258 0.03500000014901161 0.10625184327363968
v 0.04209517687559128 0.03500000014901161 0.10162674635648727
v 0.054999999701976776 0.03500000014901161 0.0952627956867218
v 0.06696375459432602 0.03500000014901161 0.08726886659860611
v 0.07778174430131912 0.03500000014901161 0.07778174430131912
v 0.08726886659860611 0.03500000014901161 0.06696375459432602
v 0.0952627956867218 0.03500000014901161 0.054999999701976776
v 0.10162674635648727 0.03500000014901161 0.04209517687559128
v 0.10625184327363968 0.03500000014901161 0.028470095247030258
v 0.1090589314699173 0.03500000014901161 0.01435788068920374
v 0.10999999940395355 0.03500000014901161 6.735557192910056e-18
v 0.1090589314699173 0.03500000014901161 -0.01435788068920374
v 0.10625184327363968 0.03500000014901161 -0.028470095247030258
v 0.10162674635648727 0.03500000014901161 -0.04209517687559128
v 0.0952627956867218 0.03500000014901161 -0.054999999701976776
v 0.08726886659860611 0.03500000014901161 -0.06696375459432602
v 0.07778174430131912 0.03500000014901161 -0.07778174430131912
v 0.06696375459432602 0.03500000014901161 -0.08726886659860611
v 0.054999999701976776 0.03500000014901161 -0.0952627956867218
v 0.04209517687559128 0.03500000014901161 -0.10162674635648727
v 0.028470095247030258 0.03500000014901161 -0.10625184327363968
v 0.01435788068920374 0.03500000014901161 -0.1090589314699173
v 1.3471114385820111e-17 0.03500000014901161 -0.10999999940395355
v -0.01435788068920374 0.03500000014901161 -0.1090589314699173
v -0.028470095247030258 0.03500000014901161 -0.10625184327363968
v -0.04209517687559128 0.03500000014901161 -0.10162674635648727
v -0.054999999701976776 0.03500000014901161 -0.0952627956867218
v -0.06696375459432602 0.03500000014901161 -0.08726886659860611
v -0.07778174430131912 0.03500000014901161 -0.07778174430131912
v -0.08726886659860611 0.03500000014901161 -0.06696375459432602
v -0.0952627956867218 0.03500000014901161 -0.054999999701976776
v -0.10162674635648727 0.03500000014901161 -0.04209517687559128
v -0.10625184327363968 0.03500000014901161 -0.028470095247030258
v -0.1090589314699173 0.03500000014901161 -0.01435788068920374
v -0.10999999940395355 0.03500000014901161 -2.020667240591078e-17
v -0.1090589314699173 0.03500000014901161 0.01435788068920374
v -0.10625184327363968 0.03500000014901161 0.028470095247030258
v -0.10162674635648727 0.03500000014901161 0.04209517687559128
v -0.0952627956867218 0.03500000014901161 0.054999999701976776
v -0.08726886659860611 0.03500000014901161 0.06696375459432602
v -0.07778174430131912 0.03500000014901161 0.07778174430131912
v -0.06696375459432602 0.03500000014901161 0.08726886659860611
v -0.054999999701976776 0.03500000014901161 0.0952627956867218
v -0.04209517687559128 0.03500000014901161 0.10162674635648727
v -0.028470095247030258 0.03500000014901161 0.10625184327363968
v -0.01435788068920374 0.03500000014901161 0.1090589314699173
v -2.6942228771640223e-17 0.03500000014901161 0.10999999940395355
v 0 -0.03500000014901161 0.10999999940395355
v 0.01435788068920374 -0.03500000014901161 0.1090589314699173
v 0.028470095247030258 -0.03500000014901161 0.10625184327363968
v 0.04209517687559128 -0.03500000014901161 0.10162674635648727
v 0.054999999701976776 -0.03500000014901161 0.0952627956867218
v 0.06696375459432602 -0.03500000014901161 0.08726886659860611
v 0.07778174430131912 -0.03500000014901161 0.07778174430131912
v 0.08726886659860611 -0.03500000014901161 0.06696375459432602
v 0.0952627956867218 -0.03500000014901161 0.054999999701976776
v 0.10162674635648727 -0.03500000014901161 0.04209517687559128
v 0.10625184327363968 -0.03500000014901161 0.028470095247030258
v 0.1090589314699173 -0.03500000014901161 0.01435788068920374
v 0.10999999940395355 -0.03500000014901161 6.735557192910056e-18
v 0.1090589314699173 -0.03500000014901161 -0.01435788068920374
v 0.10625184327363968 -0.03500000014901161 -0.028470095247030258
v 0.10162674635648727 -0.03500000014901161 -0.04209517687559128
v 0.0952627956867218 -0.03500000014901161 -0.054999999701976776
v 0.08726886659860611 -0.03500000014901161 -0.06696375459432602
v 0.07778174430131912 -0.03500000014901161 -0.07778174430131912
v 0.06696375459432602 -0.03500000014901161 -0.08726886659860611
v 0.054999999701976776 -0.03500000014901161 -0.0952627956867218
v 0.04209517687559128 -0.03500000014901161 -0.10162674635648727
v 0.028470095247030258 -0.03500000014901161 -0.10625184327363968
v 0.01435788068920374 -0.03500000014901161 -0.1090589314699173
v 1.3471114385820111e-17 -0.03500000014901161 -0.10999999940395355
v -0.01435788068920374 -0.03500000014901161 -0.1090589314699173
v -0.028470095247030258 -0.03500000014901161 -0.10625184327363968
v -0.04209517687559128 -0.03500000014901161 -0.10162674635648727
v -0.054999999701976776 -0.03500000014901161 -0.0952627956867218
v -0.06696375459432602 -0.03500000014901161 -0.08726886659860611
v -0.07778174430131912 -0.03500000014901161 -0.07778174430131912
v -0.08726886659860611 -0.03500000014901161 -0.06696375459432602
v -0.0952627956867218 -0.03500000014901161 -0.054999999701976776
v -0.10162674635648727 -0.03500000014901161 -0.04209517687559128
v -0.10625184327363968 -0.03500000014901161 -0.028470095247030258
v -0.1090589314699173 -0.03500000014901161 -0.01435788068920374
v -0.10999999940395355 -0.03500000014901161 -2.020667240591078e-17
v -0.1090589314699173 -0.03500000014901161 0.01435788068920374
v -0.10625184327363968 -0.03500000014901161 0.028470095247030258
v -0.10162674635648727 -0.03500000014901161 0.04209517687559128
v -0.0952627956867218 -0.03500000014901161 0.054999999701976776
v -0.08726886659860611 -0.03500000014901161 0.06696375459432602
v -0.07778174430131912 -0.03500000014901161 0.07778174430131912
v -0.06696375459432602 -0.03500000014901161 0.08726886659860611
v -0.054999999701976776 -0.03500000014901161 0.0952627956867218
v -0.04209517687559128 -0.03500000014901161 0.10162674635648727
v -0.028470095247030258 -0.03500000014901161 0.10625184327363968
v -0.01435788068920374 -0.03500000014901161 0.1090589314699173
v -2.6942228771640223e-17 -0.03500000014901161 0.10999999940395355
v 0 0.03500000014901161 0
v 0 -0.03500000014901161 0
vt 0 1
vt 0.02083333395421505 1
vt 0.0416666679084301 1
vt 0.0625 1
vt 0.0833333358168602 1
vt 0.1041666641831398 1
vt 0.125 1
vt 0.1458333283662796 1
vt 0.1666666716337204 1
vt 0.1875 1
vt 0.2083333283662796 1
vt 0.2291666716337204 1
vt 0.25 1
vt 0.2708333432674408 1
vt 0.2916666567325592 1
vt 0.3125 1
vt 0.3333333432674408 1
vt 0.3541666567325592 1
vt 0.375 1
vt 0.3958333432674408 1
vt 0.4166666567325592 1
vt 0.4375 1
vt 0.4583333432674408 1
vt 0.4791666567325592 1
vt 0.5 1
vt 0.5208333134651184 1
vt 0.5416666865348816 1
vt 0.5625 1
vt 0.5833333134651184 1
vt 0.6041666865348816 1
vt 0.625 1
vt 0.6458333134651184 1
vt 0.6666666865348816 1
vt 0.6875 1
vt 0.7083333134651184 1
vt 0.7291666865348816 1
vt 0.75 1
vt 0.7708333134651184 1
vt 0.7916666865348816 1
vt 0.8125 1
vt 0.8333333134651184 1
vt 0.8541666865348816 1
vt 0.875 1
vt 0.8958333134651184 1
vt 0.9166666865348816 1
vt 0.9375 1
vt 0.9583333134651184 1
vt 0.9791666865348816 1
vt 1 1
vt 0 0
vt 0.02083333395421505 0
vt 0.0416666679084301 0
vt 0.0625 0
vt 0.0833333358168602 0
vt 0.1041666641831398 0
vt 0.125 0
vt 0.1458333283662796 0
vt 0.1666666716337204 0
vt 0.1875 0
vt 0.2083333283662796 0
vt 0.2291666716337204 0
vt 0.25 0
vt 0.2708333432674408 0
vt 0.2916666567325592 0
vt 0.3125 0
vt 0.3333333432674408 0
vt 0.3541666567325592 0
vt 0.375 0
vt 0.3958333432674408 0
vt 0.4166666567325592 0
vt 0.4375 0
vt 0.4583333432674408 0
vt 0.4791666567325592 0
vt 0.5 0
vt 0.5208333134651184 0
vt 0.5416666865348816 0
vt 0.5625 0
vt 0.5833333134651184 0
vt 0.6041666865348816 0
vt 0.625 0
vt 0.6458333134651184 0
vt 0.6666666865348816 0
vt 0.6875 0
vt 0.7083333134651184 0
vt 0.7291666865348816 0
vt 0.75 0
vt 0.7708333134651184 0
vt 0.7916666865348816 0
vt 0.8125 0
vt 0.8333333134651184 0
vt 0.8541666865348816 0
vt 0.875 0
vt 0.8958333134651184 0
vt 0.9166666865348816 0
vt 0.9375 0
vt 0.9583333134651184 0
vt 0.9791666865348816 0
vt 1 0
vt 0.5 0.5
vt 1 0.5
vt 0.9957224130630493 0.5652630925178528
vt 0.9829629063606262 0.6294095516204834
vt 0.9619397521018982 0.6913416981697083
vt 0.9330127239227295 0.75
vt 0.8966766595840454 0.8043807148933411
vt 0.8535534143447876 0.8535534143447876
vt 0.8043807148933411 0.8966766595840454
vt 0.75 0.9330127239227295
vt 0.6913416981697083 0.9619397521018982
vt 0.6294095516204834 0.9829629063606262
vt 0.5652630925178528 0.9957224130630493
vt 0.4347369074821472 0.9957224130630493
vt 0.370590478181839 0.9829629063606262
vt 0.30865827202796936 0.9619397521018982
vt 0.25 0.9330127239227295
vt 0.19561928510665894 0.8966766595840454
vt 0.1464466154575348 0.8535534143447876
vt 0.10332333296537399 0.8043807148933411
vt 0.0669872984290123 0.75
vt 0.03806023299694061 0.6913416981697083
vt 0.017037086188793182 0.6294095516204834
vt 0.004277569241821766 0.5652630925178528
vt 0 0.5
vt 0.004277569241821766 0.4347369074821472
vt 0.017037086188793182 0.370590478181839
vt 0.03806023299694061 0.30865827202796936
vt 0.0669872984290123 0.25
vt 0.10332333296537399 0.19561928510665894
vt 0.1464466154575348 0.1464466154575348
vt 0.19561928510665894 0.10332333296537399
vt 0.25 0.0669872984290123
vt 0.30865827202796936 0.03806023299694061
vt 0.370590478181839 0.017037086188793182
vt 0.4347369074821472 0.004277569241821766
vt 0.5652630925178528 0.004277569241821766
vt 0.6294095516204834 0.017037086188793182
vt 0.6913416981697083 0.03806023299694061
vt 0.75 0.0669872984290123
vt 0.8043807148933411 0.10332333296537399
vt 0.8535534143447876 0.1464466154575348
vt 0.8966766595840454 0.19561928510665894
vt 0.9330127239227295 0.25
vt 0.9619397521018982 0.30865827202796936
vt 0.9829629063606262 0.370590478181839
vt 0.9957224130630493 0.4347369074821472
vn 0 0 1
vn 0.13052618200608704 0 0.9914448627185043
vn 0.2588190471264927 0 0.9659258257467466
vn 0.3826834370613369 0 0.9238795305660377
vn 0.5000000067305869 0 0.8660253998985324
vn 0.6087614397000725 0 0.7933533320874723
vn 0.7071067811865476 0 0.7071067811865476
vn 0.7933533320874723 0 0.6087614397000725
vn 0.8660253998985324 0 0.5000000067305869
vn 0.9238795305660377 0 0.3826834370613369
vn 0.9659258257467466 0 0.2588190471264927
vn 0.9914448627185043 0 0.13052618200608704
vn 1 0 6.123234262925839e-17
vn 0.9914448627185043 0 -0.13052618200608704
vn 0.9659258257467466 0 -0.2588190471264927
vn 0.9238795305660377 0 -0.3826834370613369
vn 0.8660253998985324 0 -0.5000000067305869
vn 0.7933533320874723 0 -0.6087614397000725
vn 0.7071067811865476 0 -0.7071067811865476
vn 0.6087614397000725 0 -0.7933533320874723
vn 0.5000000067305869 0 -0.8660253998985324
vn 0.3826834370613369 0 -0.9238795305660377
vn 0.2588190471264927 0 -0.9659258257467466
vn 0.13052618200608704 0 -0.9914448627185043
vn 1.2246468525851679e-16 0 -1
vn -0.13052618200608704 0 -0.9914448627185043
vn -0.2588190471264927 0 -0.9659258257467466
vn -0.3826834370613369 0 -0.9238795305660377
vn -0.5000000067305869 0 -0.8660253998985324
vn -0.6087614397000725 0 -0.7933533320874723
vn -0.7071067811865476 0 -0.7071067811865476
vn -0.7933533320874723 0 -0.6087614397000725
vn -0.8660253998985324 0 -0.5000000067305869
vn -0.9238795305660377 0 -0.3826834370613369
vn -0.9659258257467466 0 -0.2588190471264927
vn -0.9914448627185043 0 -0.13052618200608704
vn -1 0 -1.8369701465288538e-16
vn -0.9914448627185043 0 0.13052618200608704
vn -0.9659258257467466 0 0.2588190471264927
vn -0.9238795305660377 0 0.3826834370613369
vn -0.8660253998985324 0 0.5000000067305869
vn -0.7933533320874723 0 0.6087614397000725
vn -0.7071067811865476 0 0.7071067811865476
vn -0.6087614397000725 0 0.7933533320874723
vn -0.5000000067305869 0 0.8660253998985324
vn -0.3826834370613369 0 0.9238795305660377
vn -0.2588190471264927 0 0.9659258257467466
vn -0.13052618200608704 0 0.9914448627185043
vn -2.4492937051703357e-16 0 1
vn 0 1 0
vn 0 -1 0
f 1/1/1 50/50/1 2/2/2
f 50/50/1 51/51/2 2/2/2
f 2/2/2 51/51/2 3/3/3
f 51/51/2 52/52/3 3/3/3
f 3/3/3 52/52/3 4/4/4
f 52/52/3 53/53/4 4/4/4
f 4/4/4 53/53/4 5/5/5
f 53/53/4 54/54/5 5/5/5
f 5/5/5 54/54/5 6/6/6
f 54/54/5 55/55/6 6/6/6
f 6/6/6 55/55/6 7/7/7
f 55/55/6 56/56/7 7/7/7
f 7/7/7 56/56/7 8/8/8
f 56/56/7 57/57/8 8/8/8
f 8/8/8 57/57/8 9/9/9
f 57/57/8 58/58/9 9/9/9
f 9/9/9 58/58/9 10/10/10
f 58/58/9 59/59/10 10/10/10
f 10/10/10 59/59/10 11/11/11
f 59/59/10 60/60/11 11/11/11
f 11/11/11 60/60/11 12/12/12
f 60/60/11 61/61/12 12/12/12
f 12/12/12 61/61/12 13/13/13
f 61/61/12 62/62/13 13/13/13
f 13/13/13 62/62/13 14/14/14
f 62/62/13 63/63/14 14/14/14
f 14/14/14 63/63/14 15/15/15
f 63/63/14 64/64/15 15/15/15
f 15/15/15 64/64/15 16/16/16
f 64/64/15 65/65/16 16/16/16
f 16/16/16 65/65/16 17/17/17
f 65/65/16 66/66/17 17/17/17
f 17/17/17 66/66/17 18/18/18
f 66/66/17 67/67/18 18/18/18
f 18/18/18 67/67/18 19/19/19
f 67/67/18 68/68/19 19/19/19
f 19/19/19 68/68/19 20/20/20
f 68/68/19 69/69/20 20/20/20
f 20/20/20 69/69/20 21/21/21
f 69/69/20 70/70/21 21/21/21
f 21/21/21 70/70/21 22/22/22
f 70/70/21 71/71/22 22/22/22
f 22/22/22 71/71/22 23/23/23
f 71/71/22 72/72/23 23/23/23
f 23/23/23 72/72/23 24/24/24
f 72/72/23 73/73/24 24/24/24
f 24/24/24 73/73/24 25/25/25
f 73/73/24 74/74/25 25/25/25
f 25/25/25 74/74/25 26/26/26
f 74/74/25 75/75/26 26/26/26
f 26/26/26 75/75/26 27/27/27
f 75/75/26 76/76/27 27/27/27
f 27/27/27 76/76/27 28/28/28
f 76/76/27 77/77/28 28/28/28
f 28/28/28 77/77/28 29/29/29
f 77/77/28 78/78/29 29/29/29
f 29/29/29 78/78/29 30/30/30
f 78/78/29 79/79/30 30/30/30
f 30/30/30 79/79/30 31/31/31
f 79/79/30 80/80/31 31/31/31
f 31/31/31 80/80/31 32/32/32
f 80/80/31 81/81/32 32/32/32
f 32/32/32 81/81/32 33/33/33
f 81/81/32 82/82/33 33/33/33
f 33/33/33 82/82/33 34/34/34
f 82/82/33 83/83/34 34/34/34
f 34/34/34 83/83/34 35/35/35
f 83/83/34 84/84/35 35/35/35
f 35/35/35 84/84/35 36/36/36
f 84/84/35 85/85/36 36/36/36
f 36/36/36 85/85/36 37/37/37
f 85/85/36 86/86/37 37/37/37
f 37/37/37 86/86/37 38/38/38
f 86/86/37 87/87/38 38/38/38
f 38/38/38 87/87/38 39/39/39
f 87/87/38 88/88/39 39/39/39
f 39/39/39 88/88/39 40/40/40
f 88/88/39 89/89/40 40/40/40
f 40/40/40 89/89/40 41/41/41
f 89/89/40 90/90/41 41/41/41
f 41/41/41 90/90/41 42/42/42
f 90/90/41 91/91/42 42/42/42
f 42/42/42 91/91/42 43/43/43
f 91/91/42 92/92/43 43/43/43
f 43/43/43 92/92/43 44/44/44
f 92/92/43 93/93/44 44/44/44
f 44/44/44 93/93/44 45/45/45
f 93/93/44 94/94/45 45/45/45
f 45/45/45 94/94/45 46/46/46
f 94/94/45 95/95/46 46/46/46
f 46/46/46 95/95/46 47/47/47
f 95/95/46 96/96/47 47/47/47
f 47/47/47 96/96/47 48/48/48
f 96/96/47 97/97/48 48/48/48
f 48/48/48 97/97/48 49/49/49
f 97/97/48 98/98/49 49/49/49
f 1/100/50 2/101/50 99/99/50
f 2/101/50 3/102/50 99/99/50
f 3/102/50 4/103/50 99/99/50
f 4/103/50 5/104/50 99/99/50
f 5/104/50 6/105/50 99/99/50
f 6/105/50 7/106/50 99/99/50
f 7/106/50 8/107/50 99/99/50
f 8/107/50 9/108/50 99/99/50
f 9/108/50 10/109/50 99/99/50
f 10/109/50 11/110/50 99/99/50
f 11/110/50 12/111/50 99/99/50
f 12/111/50 13/25/50 99/99/50
f 13/25/50 14/112/50 99/99/50
f 14/112/50 15/113/50 99/99/50
f 15/113/50 16/114/50 99/99/50
f 16/114/50 17/115/50 99/99/50
f 17/115/50 18/116/50 99/99/50
f 18/116/50 19/117/50 99/99/50
f 19/117/50 20/118/50 99/99/50
f 20/118/50 21/119/50 99/99/50
f 21/119/50 22/120/50 99/99/50
f 22/120/50 23/121/50 99/99/50
f 23/121/50 24/122/50 99/99/50
f 24/122/50 25/123/50 99/99/50
f 25/123/50 26/124/50 99/99/50
f 26/124/50 27/125/50 99/99/50
f 27/125/50 28/126/50 99/99/50
f 28/126/50 29/127/50 99/99/50
f 29/127/50 30/128/50 99/99/50
f 30/128/50 31/129/50 99/99/50
f 31/129/50 32/130/50 99/99/50
f 32/130/50 33/131/50 99/99/50
f 33/131/50 34/132/50 99/99/50
f 34/132/50 35/133/50 99/99/50
f 35/133/50 36/134/50 99/99/50
f 36/134/50 37/74/50 99/99/50
f 37/74/50 38/135/50 99/99/50
f 38/135/50 39/136/50 99/99/50
f 39/136/50 40/137/50 99/99/50
f 40/137/50 41/138/50 99/99/50
f 41/138/50 42/139/50 99/99/50
f 42/139/50 43/140/50 99/99/50
f 43/140/50 44/141/50 99/99/50
f 44/141/50 45/142/50 99/99/50
f 45/142/50 46/143/50 99/99/50
f 46/143/50 47/144/50 99/99/50
f 47/144/50 48/145/50 99/99/50
f 48/145/50 49/100/50 99/99/50
f 51/145/51 50/100/51 100/99/51
f 52/144/51 51/145/51 100/99/51
f 53/143/51 52/144/51 100/99/51
f 54/142/51 53/143/51 100/99/51
f 55/141/51 54/142/51 100/99/51
f 56/140/51 55/141/51 100/99/51
f 57/139/51 56/140/51 100/99/51
f 58/138/51 57/139/51 100/99/51
f 59/137/51 58/138/51 100/99/51
f 60/136/51 59/137/51 100/99/51
f 61/135/51 60/136/51 100/99/51
f 62/74/51 61/135/51 100/99/51
f 63/134/51 62/74/51 100/99/51
f 64/133/51 63/134/51 100/99/51
f 65/132/51 64/133/51 100/99/51
f 66/131/51 65/132/51 100/99/51
f 67/130/51 66/131/51 100/99/51
f 68/129/51 67/130/51 100/99/51
f 69/128/51 68/129/51 100/99/51
f 70/127/51 69/128/51 100/99/51
f 71/126/51 70/127/51 100/99/51
f 72/125/51 71/126/51 100/99/51
f 73/124/51 72/125/51 100/99/51
f 74/123/51 73/124/51 100/99/51
f 75/122/51 74/123/51 100/99/51
f 76/121/51 75/122/51 100/99/51
f 77/120/51 76/121/51 100/99/51
f 78/119/51 77/120/51 100/99/51
f 79/118/51 78/119/51 100/99/51
f 80/117/51 79/118/51 100/99/51
f 81/116/51 80/117/51 100/99/51
f 82/115/51 81/116/51 100/99/51
f 83/114/51 82/115/51 100/99/51
f 84/113/51 83/114/51 100/99/51
f 85/112/51 84/113/51 100/99/51
f 86/25/51 85/112/51 100/99/51
f 87/111/51 86/25/51 100/99/51
f 88/110/51 87/111/51 100/99/51
f 89/109/51 88/110/51 100/99/51
f 90/108/51 89/109/51 100/99/51
f 91/107/51 90/108/51 100/99/51
f 92/106/51 91/107/51 100/99/51
f 93/105/51 92/106/51 100/99/51
f 94/104/51 93/105/51 100/99/51
f 95/103/51 94/104/51 100/99/51
f 96/102/51 95/103/51 100/99/51
f 97/101/51 96/102/51 100/99/51
f 98/100/51 97/101/51 100/99/51
o crank_lever
usemtl fanuc_yellow
v 0.0467887707054615 -0.03500000014901161 0.08837879449129105
v -0.0467887707054615 -0.03500000014901161 -0.08837879449129105
v -0.0467887707054615 0.03500000014901161 -0.08837879449129105
v 0.0467887707054615 0.03500000014901161 0.08837879449129105
v -0.47958728671073914 -0.03500000014901161 0.32744622230529785
v -0.47958728671073914 0.03500000014901161 0.32744622230529785
v -0.5404127240180969 0.03500000014901161 0.21255378425121307
v -0.5404127240180969 -0.03500000014901161 0.21255378425121307
vn 0.8837879279458032 0 -0.4678876985102983
vn -0.883787827906639 0 0.46788788747312665
vn 0.4135242058346894 0 0.9104931252836505
vn 0 1 0
vn -0.5205347593537737 0 -0.8538404794248801
vn 0 -1 0
f 101//52 102//52 103//52
f 101//52 103//52 104//52
f 105//53 106//53 107//53
f 105//53 107//53 108//53
f 101//54 104//54 106//54
f 101//54 106//54 105//54
f 104//55 103//55 107//55
f 104//55 107//55 106//55
f 103//56 102//56 108//56
f 103//56 108//56 107//56
f 102//57 101//57 105//57
f 102//57 105//57 108//57
o crank_pin
usemtl faceplate_steel
v -0.51 0.040000000298023225 0.3249999997019768
v -0.5028210596553981 0.040000000298023225 0.32452946573495867
v -0.4957649523764849 0.040000000298023225 0.32312592163681986
v -0.48895241156220437 0.040000000298023225 0.32081337317824365
v -0.4825000001490116 0.040000000298023225 0.3176313978433609
v -0.476518122702837 0.040000000298023225 0.3136344332993031
v -0.47110912784934045 0.040000000298023225 0.3088908721506596
v -0.46636556670069695 0.040000000298023225 0.303481877297163
v -0.4623686021566391 0.040000000298023225 0.2974999998509884
v -0.45918662682175637 0.040000000298023225 0.29104758843779566
v -0.45687407836318017 0.040000000298023225 0.28423504762351515
v -0.45547053426504136 0.040000000298023225 0.2771789403446019
v -0.45500000029802323 0.040000000298023225 0.27
v -0.45547053426504136 0.040000000298023225 0.26282105965539815
v -0.45687407836318017 0.040000000298023225 0.2557649523764849
v -0.45918662682175637 0.040000000298023225 0.24895241156220438
v -0.4623686021566391 0.040000000298023225 0.24250000014901163
v -0.46636556670069695 0.040000000298023225 0.236518122702837
v -0.47110912784934045 0.040000000298023225 0.23110912784934046
v -0.476518122702837 0.040000000298023225 0.22636556670069696
v -0.4825000001490116 0.040000000298023225 0.22236860215663912
v -0.48895241156220437 0.040000000298023225 0.21918662682175638
v -0.4957649523764849 0.040000000298023225 0.21687407836318018
v -0.5028210596553981 0.040000000298023225 0.21547053426504137
v -0.51 0.040000000298023225 0.21500000029802324
v -0.5171789403446019 0.040000000298023225 0.21547053426504137
v -0.5242350476235151 0.040000000298023225 0.21687407836318018
v -0.5310475884377956 0.040000000298023225 0.21918662682175638
v -0.5374999998509884 0.040000000298023225 0.22236860215663912
v -0.543481877297163 0.040000000298023225 0.22636556670069696
v -0.5488908721506596 0.040000000298023225 0.23110912784934046
v -0.5536344332993031 0.040000000298023225 0.236518122702837
v -0.5576313978433609 0.040000000298023225 0.24250000014901163
v -0.5608133731782436 0.040000000298023225 0.24895241156220438
v -0.5631259216368198 0.040000000298023225 0.2557649523764849
v -0.5645294657349587 0.040000000298023225 0.26282105965539815
v -0.5649999997019768 0.040000000298023225 0.27
v -0.5645294657349587 0.040000000298023225 0.2771789403446019
v -0.5631259216368198 0.040000000298023225 0.28423504762351515
v -0.5608133731782436 0.040000000298023225 0.29104758843779566
v -0.5576313978433609 0.040000000298023225 0.2974999998509884
v -0.5536344332993031 0.040000000298023225 0.303481877297163
v -0.5488908721506596 0.040000000298023225 0.3088908721506596
v -0.543481877297163 0.040000000298023225 0.3136344332993031
v -0.5374999998509884 0.040000000298023225 0.3176313978433609
v -0.5310475884377956 0.040000000298023225 0.32081337317824365
v -0.5242350476235151 0.040000000298023225 0.32312592163681986
v -0.5171789403446019 0.040000000298023225 0.32452946573495867
v -0.51 -0.10000000029802322 0.3249999997019768
v -0.5028210596553981 -0.10000000029802322 0.32452946573495867
v -0.4957649523764849 -0.10000000029802322 0.32312592163681986
v -0.48895241156220437 -0.10000000029802322 0.32081337317824365
v -0.4825000001490116 -0.10000000029802322 0.3176313978433609
v -0.476518122702837 -0.10000000029802322 0.3136344332993031
v -0.47110912784934045 -0.10000000029802322 0.3088908721506596
v -0.46636556670069695 -0.10000000029802322 0.303481877297163
v -0.4623686021566391 -0.10000000029802322 0.2974999998509884
v -0.45918662682175637 -0.10000000029802322 0.29104758843779566
v -0.45687407836318017 -0.10000000029802322 0.28423504762351515
v -0.45547053426504136 -0.10000000029802322 0.2771789403446019
v -0.45500000029802323 -0.10000000029802322 0.27
v -0.45547053426504136 -0.10000000029802322 0.26282105965539815
v -0.45687407836318017 -0.10000000029802322 0.2557649523764849
v -0.45918662682175637 -0.10000000029802322 0.24895241156220438
v -0.4623686021566391 -0.10000000029802322 0.24250000014901163
v -0.46636556670069695 -0.10000000029802322 0.236518122702837
v -0.47110912784934045 -0.10000000029802322 0.23110912784934046
v -0.476518122702837 -0.10000000029802322 0.22636556670069696
v -0.4825000001490116 -0.10000000029802322 0.22236860215663912
v -0.48895241156220437 -0.10000000029802322 0.21918662682175638
v -0.4957649523764849 -0.10000000029802322 0.21687407836318018
v -0.5028210596553981 -0.10000000029802322 0.21547053426504137
v -0.51 -0.10000000029802322 0.21500000029802324
v -0.5171789403446019 -0.10000000029802322 0.21547053426504137
v -0.5242350476235151 -0.10000000029802322 0.21687407836318018
v -0.5310475884377956 -0.10000000029802322 0.21918662682175638
v -0.5374999998509884 -0.10000000029802322 0.22236860215663912
v -0.543481877297163 -0.10000000029802322 0.22636556670069696
v -0.5488908721506596 -0.10000000029802322 0.23110912784934046
v -0.5536344332993031 -0.10000000029802322 0.236518122702837
v -0.5576313978433609 -0.10000000029802322 0.24250000014901163
v -0.5608133731782436 -0.10000000029802322 0.24895241156220438
v -0.5631259216368198 -0.10000000029802322 0.2557649523764849
v -0.5645294657349587 -0.10000000029802322 0.26282105965539815
v -0.5649999997019768 -0.10000000029802322 0.27
v -0.5645294657349587 -0.10000000029802322 0.2771789403446019
v -0.5631259216368198 -0.10000000029802322 0.28423504762351515
v -0.5608133731782436 -0.10000000029802322 0.29104758843779566
v -0.5576313978433609 -0.10000000029802322 0.2974999998509884
v -0.5536344332993031 -0.10000000029802322 0.303481877297163
v -0.5488908721506596 -0.10000000029802322 0.3088908721506596
v -0.543481877297163 -0.10000000029802322 0.3136344332993031
v -0.5374999998509884 -0.10000000029802322 0.3176313978433609
v -0.5310475884377956 -0.10000000029802322 0.32081337317824365
v -0.5242350476235151 -0.10000000029802322 0.32312592163681986
v -0.5171789403446019 -0.10000000029802322 0.32452946573495867
v -0.51 0.040000000298023225 0.27
v -0.51 -0.10000000029802322 0.27
vt 0 1
vt 0.02083333395421505 1
vt 0.0416666679084301 1
vt 0.0625 1
vt 0.0833333358168602 1
vt 0.1041666641831398 1
vt 0.125 1
vt 0.1458333283662796 1
vt 0.1666666716337204 1
vt 0.1875 1
vt 0.2083333283662796 1
vt 0.2291666716337204 1
vt 0.25 1
vt 0.2708333432674408 1
vt 0.2916666567325592 1
vt 0.3125 1
vt 0.3333333432674408 1
vt 0.3541666567325592 1
vt 0.375 1
vt 0.3958333432674408 1
vt 0.4166666567325592 1
vt 0.4375 1
vt 0.4583333432674408 1
vt 0.4791666567325592 1
vt 0.5 1
vt 0.5208333134651184 1
vt 0.5416666865348816 1
vt 0.5625 1
vt 0.5833333134651184 1
vt 0.6041666865348816 1
vt 0.625 1
vt 0.6458333134651184 1
vt 0.6666666865348816 1
vt 0.6875 1
vt 0.7083333134651184 1
vt 0.7291666865348816 1
vt 0.75 1
vt 0.7708333134651184 1
vt 0.7916666865348816 1
vt 0.8125 1
vt 0.8333333134651184 1
vt 0.8541666865348816 1
vt 0.875 1
vt 0.8958333134651184 1
vt 0.9166666865348816 1
vt 0.9375 1
vt 0.9583333134651184 1
vt 0.9791666865348816 1
vt 1 1
vt 0 0
vt 0.02083333395421505 0
vt 0.0416666679084301 0
vt 0.0625 0
vt 0.0833333358168602 0
vt 0.1041666641831398 0
vt 0.125 0
vt 0.1458333283662796 0
vt 0.1666666716337204 0
vt 0.1875 0
vt 0.2083333283662796 0
vt 0.2291666716337204 0
vt 0.25 0
vt 0.2708333432674408 0
vt 0.2916666567325592 0
vt 0.3125 0
vt 0.3333333432674408 0
vt 0.3541666567325592 0
vt 0.375 0
vt 0.3958333432674408 0
vt 0.4166666567325592 0
vt 0.4375 0
vt 0.4583333432674408 0
vt 0.4791666567325592 0
vt 0.5 0
vt 0.5208333134651184 0
vt 0.5416666865348816 0
vt 0.5625 0
vt 0.5833333134651184 0
vt 0.6041666865348816 0
vt 0.625 0
vt 0.6458333134651184 0
vt 0.6666666865348816 0
vt 0.6875 0
vt 0.7083333134651184 0
vt 0.7291666865348816 0
vt 0.75 0
vt 0.7708333134651184 0
vt 0.7916666865348816 0
vt 0.8125 0
vt 0.8333333134651184 0
vt 0.8541666865348816 0
vt 0.875 0
vt 0.8958333134651184 0
vt 0.9166666865348816 0
vt 0.9375 0
vt 0.9583333134651184 0
vt 0.9791666865348816 0
vt 1 0
vt 0.5 0.5
vt 1 0.5
vt 0.9957224130630493 0.5652630925178528
vt 0.9829629063606262 0.6294095516204834
vt 0.9619397521018982 0.6913416981697083
vt 0.9330127239227295 0.75
vt 0.8966766595840454 0.8043807148933411
vt 0.8535534143447876 0.8535534143447876
vt 0.8043807148933411 0.8966766595840454
vt 0.75 0.9330127239227295
vt 0.6913416981697083 0.9619397521018982
vt 0.6294095516204834 0.9829629063606262
vt 0.5652630925178528 0.9957224130630493
vt 0.4347369074821472 0.9957224130630493
vt 0.370590478181839 0.9829629063606262
vt 0.30865827202796936 0.9619397521018982
vt 0.25 0.9330127239227295
vt 0.19561928510665894 0.8966766595840454
vt 0.1464466154575348 0.8535534143447876
vt 0.10332333296537399 0.8043807148933411
vt 0.0669872984290123 0.75
vt 0.03806023299694061 0.6913416981697083
vt 0.017037086188793182 0.6294095516204834
vt 0.004277569241821766 0.5652630925178528
vt 0 0.5
vt 0.004277569241821766 0.4347369074821472
vt 0.017037086188793182 0.370590478181839
vt 0.03806023299694061 0.30865827202796936
vt 0.0669872984290123 0.25
vt 0.10332333296537399 0.19561928510665894
vt 0.1464466154575348 0.1464466154575348
vt 0.19561928510665894 0.10332333296537399
vt 0.25 0.0669872984290123
vt 0.30865827202796936 0.03806023299694061
vt 0.370590478181839 0.017037086188793182
vt 0.4347369074821472 0.004277569241821766
vt 0.5652630925178528 0.004277569241821766
vt 0.6294095516204834 0.017037086188793182
vt 0.6913416981697083 0.03806023299694061
vt 0.75 0.0669872984290123
vt 0.8043807148933411 0.10332333296537399
vt 0.8535534143447876 0.1464466154575348
vt 0.8966766595840454 0.19561928510665894
vt 0.9330127239227295 0.25
vt 0.9619397521018982 0.30865827202796936
vt 0.9829629063606262 0.370590478181839
vt 0.9957224130630493 0.4347369074821472
vn 0 0 1
vn 0.13052618200608704 0 0.9914448627185043
vn 0.2588190471264927 0 0.9659258257467466
vn 0.3826834370613369 0 0.9238795305660377
vn 0.5000000067305869 0 0.8660253998985324
vn 0.6087614397000725 0 0.7933533320874723
vn 0.7071067811865476 0 0.7071067811865476
vn 0.7933533320874723 0 0.6087614397000725
vn 0.8660253998985324 0 0.5000000067305869
vn 0.9238795305660377 0 0.3826834370613369
vn 0.9659258257467466 0 0.2588190471264927
vn 0.9914448627185043 0 0.13052618200608704
vn 1 0 6.123234262925839e-17
vn 0.9914448627185043 0 -0.13052618200608704
vn 0.9659258257467466 0 -0.2588190471264927
vn 0.9238795305660377 0 -0.3826834370613369
vn 0.8660253998985324 0 -0.5000000067305869
vn 0.7933533320874723 0 -0.6087614397000725
vn 0.7071067811865476 0 -0.7071067811865476
vn 0.6087614397000725 0 -0.7933533320874723
vn 0.5000000067305869 0 -0.8660253998985324
vn 0.3826834370613369 0 -0.9238795305660377
vn 0.2588190471264927 0 -0.9659258257467466
vn 0.13052618200608704 0 -0.9914448627185043
vn 1.2246468525851679e-16 0 -1
vn -0.13052618200608704 0 -0.9914448627185043
vn -0.2588190471264927 0 -0.9659258257467466
vn -0.3826834370613369 0 -0.9238795305660377
vn -0.5000000067305869 0 -0.8660253998985324
vn -0.6087614397000725 0 -0.7933533320874723
vn -0.7071067811865476 0 -0.7071067811865476
vn -0.7933533320874723 0 -0.6087614397000725
vn -0.8660253998985324 0 -0.5000000067305869
vn -0.9238795305660377 0 -0.3826834370613369
vn -0.9659258257467466 0 -0.2588190471264927
vn -0.9914448627185043 0 -0.13052618200608704
vn -1 0 -1.8369701465288538e-16
vn -0.9914448627185043 0 0.13052618200608704
vn -0.9659258257467466 0 0.2588190471264927
vn -0.9238795305660377 0 0.3826834370613369
vn -0.8660253998985324 0 0.5000000067305869
vn -0.7933533320874723 0 0.6087614397000725
vn -0.7071067811865476 0 0.7071067811865476
vn -0.6087614397000725 0 0.7933533320874723
vn -0.5000000067305869 0 0.8660253998985324
vn -0.3826834370613369 0 0.9238795305660377
vn -0.2588190471264927 0 0.9659258257467466
vn -0.13052618200608704 0 0.9914448627185043
vn -2.4492937051703357e-16 0 1
vn 0 1 0
vn 0 -1 0
f 109/146/58 157/195/58 110/147/59
f 157/195/58 158/196/59 110/147/59
f 110/147/59 158/196/59 111/148/60
f 158/196/59 159/197/60 111/148/60
f 111/148/60 159/197/60 112/149/61
f 159/197/60 160/198/61 112/149/61
f 112/149/61 160/198/61 113/150/62
f 160/198/61 161/199/62 113/150/62
f 113/150/62 161/199/62 114/151/63
f 161/199/62 162/200/63 114/151/63
f 114/151/63 162/200/63 115/152/64
f 162/200/63 163/201/64 115/152/64
f 115/152/64 163/201/64 116/153/65
f 163/201/64 164/202/65 116/153/65
f 116/153/65 164/202/65 117/154/66
f 164/202/65 165/203/66 117/154/66
f 117/154/66 165/203/66 118/155/67
f 165/203/66 166/204/67 118/155/67
f 118/155/67 166/204/67 119/156/68
f 166/204/67 167/205/68 119/156/68
f 119/156/68 167/205/68 120/157/69
f 167/205/68 168/206/69 120/157/69
f 120/157/69 168/206/69 121/158/70
f 168/206/69 169/207/70 121/158/70
f 121/158/70 169/207/70 122/159/71
f 169/207/70 170/208/71 122/159/71
f 122/159/71 170/208/71 123/160/72
f 170/208/71 171/209/72 123/160/72
f 123/160/72 171/209/72 124/161/73
f 171/209/72 172/210/73 124/161/73
f 124/161/73 172/210/73 125/162/74
f 172/210/73 173/211/74 125/162/74
f 125/162/74 173/211/74 126/163/75
f 173/211/74 174/212/75 126/163/75
f 126/163/75 174/212/75 127/164/76
f 174/212/75 175/213/76 127/164/76
f 127/164/76 175/213/76 128/165/77
f 175/213/76 176/214/77 128/165/77
f 128/165/77 176/214/77 129/166/78
f 176/214/77 177/215/78 129/166/78
f 129/166/78 177/215/78 130/167/79
f 177/215/78 178/216/79 130/167/79
f 130/167/79 178/216/79 131/168/80
f 178/216/79 179/217/80 131/168/80
f 131/168/80 179/217/80 132/169/81
f 179/217/80 180/218/81 132/169/81
f 132/169/81 180/218/81 133/170/82
f 180/218/81 181/219/82 133/170/82
f 133/170/82 181/219/82 134/171/83
f 181/219/82 182/220/83 134/171/83
f 134/171/83 182/220/83 135/172/84
f 182/220/83 183/221/84 135/172/84
f 135/172/84 183/221/84 136/173/85
f 183/221/84 184/222/85 136/173/85
f 136/173/85 184/222/85 137/174/86
f 184/222/85 185/223/86 137/174/86
f 137/174/86 185/223/86 138/175/87
f 185/223/86 186/224/87 138/175/87
f 138/175/87 186/224/87 139/176/88
f 186/224/87 187/225/88 139/176/88
f 139/176/88 187/225/88 140/177/89
f 187/225/88 188/226/89 140/177/89
f 140/177/89 188/226/89 141/178/90
f 188/226/89 189/227/90 141/178/90
f 141/178/90 189/227/90 142/179/91
f 189/227/90 190/228/91 142/179/91
f 142/179/91 190/228/91 143/180/92
f 190/228/91 191/229/92 143/180/92
f 143/180/92 191/229/92 144/181/93
f 191/229/92 192/230/93 144/181/93
f 144/181/93 192/230/93 145/182/94
f 192/230/93 193/231/94 145/182/94
f 145/182/94 193/231/94 146/183/95
f 193/231/94 194/232/95 146/183/95
f 146/183/95 194/232/95 147/184/96
f 194/232/95 195/233/96 147/184/96
f 147/184/96 195/233/96 148/185/97
f 195/233/96 196/234/97 148/185/97
f 148/185/97 196/234/97 149/186/98
f 196/234/97 197/235/98 149/186/98
f 149/186/98 197/235/98 150/187/99
f 197/235/98 198/236/99 150/187/99
f 150/187/99 198/236/99 151/188/100
f 198/236/99 199/237/100 151/188/100
f 151/188/100 199/237/100 152/189/101
f 199/237/100 200/238/101 152/189/101
f 152/189/101 200/238/101 153/190/102
f 200/238/101 201/239/102 153/190/102
f 153/190/102 201/239/102 154/191/103
f 201/239/102 202/240/103 154/191/103
f 154/191/103 202/240/103 155/192/104
f 202/240/103 203/241/104 155/192/104
f 155/192/104 203/241/104 156/193/105
f 203/241/104 204/242/105 156/193/105
f 156/193/105 204/242/105 109/194/106
f 204/242/105 157/243/106 109/194/106
f 109/245/107 110/246/107 205/244/107
f 110/246/107 111/247/107 205/244/107
f 111/247/107 112/248/107 205/244/107
f 112/248/107 113/249/107 205/244/107
f 113/249/107 114/250/107 205/244/107
f 114/250/107 115/251/107 205/244/107
f 115/251/107 116/252/107 205/244/107
f 116/252/107 117/253/107 205/244/107
f 117/253/107 118/254/107 205/244/107
f 118/254/107 119/255/107 205/244/107
f 119/255/107 120/256/107 205/244/107
f 120/256/107 121/170/107 205/244/107
f 121/170/107 122/257/107 205/244/107
f 122/257/107 123/258/107 205/244/107
f 123/258/107 124/259/107 205/244/107
f 124/259/107 125/260/107 205/244/107
f 125/260/107 126/261/107 205/244/107
f 126/261/107 127/262/107 205/244/107
f 127/262/107 128/263/107 205/244/107
f 128/263/107 129/264/107 205/244/107
f 129/264/107 130/265/107 205/244/107
f 130/265/107 131/266/107 205/244/107
f 131/266/107 132/267/107 205/244/107
f 132/267/107 133/268/107 205/244/107
f 133/268/107 134/269/107 205/244/107
f 134/269/107 135/270/107 205/244/107
f 135/270/107 136/271/107 205/244/107
f 136/271/107 137/272/107 205/244/107
f 137/272/107 138/273/107 205/244/107
f 138/273/107 139/274/107 205/244/107
f 139/274/107 140/275/107 205/244/107
f 140/275/107 141/276/107 205/244/107
f 141/276/107 142/277/107 205/244/107
f 142/277/107 143/278/107 205/244/107
f 143/278/107 144/279/107 205/244/107
f 144/279/107 145/219/107 205/244/107
f 145/219/107 146/280/107 205/244/107
f 146/280/107 147/281/107 205/244/107
f 147/281/107 148/282/107 205/244/107
f 148/282/107 149/283/107 205/244/107
f 149/283/107 150/284/107 205/244/107
f 150/284/107 151/285/107 205/244/107
f 151/285/107 152/286/107 205/244/107
f 152/286/107 153/287/107 205/244/107
f 153/287/107 154/288/107 205/244/107
f 154/288/107 155/289/107 205/244/107
f 155/289/107 156/290/107 205/244/107
f 156/290/107 109/245/107 205/244/107
f 158/290/108 157/245/108 206/244/108
f 159/289/108 158/290/108 206/244/108
f 160/288/108 159/289/108 206/244/108
f 161/287/108 160/288/108 206/244/108
f 162/286/108 161/287/108 206/244/108
f 163/285/108 162/286/108 206/244/108
f 164/284/108 163/285/108 206/244/108
f 165/283/108 164/284/108 206/244/108
f 166/282/108 165/283/108 206/244/108
f 167/281/108 166/282/108 206/244/108
f 168/280/108 167/281/108 206/244/108
f 169/219/108 168/280/108 206/244/108
f 170/279/108 169/219/108 206/244/108
f 171/278/108 170/279/108 206/244/108
f 172/277/108 171/278/108 206/244/108
f 173/276/108 172/277/108 206/244/108
f 174/275/108 173/276/108 206/244/108
f 175/274/108 174/275/108 206/244/108
f 176/273/108 175/274/108 206/244/108
f 177/272/108 176/273/108 206/244/108
f 178/271/108 177/272/108 206/244/108
f 179/270/108 178/271/108 206/244/108
f 180/269/108 179/270/108 206/244/108
f 181/268/108 180/269/108 206/244/108
f 182/267/108 181/268/108 206/244/108
f 183/266/108 182/267/108 206/244/108
f 184/265/108 183/266/108 206/244/108
f 185/264/108 184/265/108 206/244/108
f 186/263/108 185/264/108 206/244/108
f 187/262/108 186/263/108 206/244/108
f 188/261/108 187/262/108 206/244/108
f 189/260/108 188/261/108 206/244/108
f 190/259/108 189/260/108 206/244/108
f 191/258/108 190/259/108 206/244/108
f 192/257/108 191/258/108 206/244/108
f 193/170/108 192/257/108 206/244/108
f 194/256/108 193/170/108 206/244/108
f 195/255/108 194/256/108 206/244/108
f 196/254/108 195/255/108 206/244/108
f 197/253/108 196/254/108 206/244/108
f 198/252/108 197/253/108 206/244/108
f 199/251/108 198/252/108 206/244/108
f 200/250/108 199/251/108 206/244/108
f 201/249/108 200/250/108 206/244/108
f 202/248/108 201/249/108 206/244/108
f 203/247/108 202/248/108 206/244/108
f 204/246/108 203/247/108 206/244/108
f 157/245/108 204/246/108 206/244/108
