mtllib J4_link.mtl
o faceplate
usemtl faceplate_steel
v 0 -0.125 0.02400000010430813
v 0.012252142652869225 -0.12439808994531631 0.02400000010430813
v 0.024386290460824966 -0.12259815633296967 0.02400000010430813
v 0.036285582929849625 -0.11961754411458969 0.02400000010430813
v 0.04783542826771736 -0.11548493802547455 0.02400000010430813
v 0.0589245930314064 -0.1102401614189148 0.02400000010430813
v 0.06944628059864044 -0.10393369942903519 0.02400000010430813
v 0.07929915934801102 -0.09662630409002304 0.02400000010430813
v 0.0883883461356163 -0.0883883461356163 0.02400000010430813
v 0.09662630409002304 -0.07929915934801102 0.02400000010430813
v 0.10393369942903519 -0.06944628059864044 0.02400000010430813
v 0.1102401614189148 -0.0589245930314064 0.02400000010430813
v 0.11548493802547455 -0.04783542826771736 0.02400000010430813
v 0.11961754411458969 -0.036285582929849625 0.02400000010430813
v 0.12259815633296967 -0.024386290460824966 0.02400000010430813
v 0.12439808994531631 -0.012252142652869225 0.02400000010430813
v 0.125 -6.919254568213688e-18 0.02400000010430813
v 0.12439808994531631 0.012252142652869225 0.02400000010430813
v 0.12259815633296967 0.024386290460824966 0.02400000010430813
v 0.11961754411458969 0.036285582929849625 0.02400000010430813
v 0.11548493802547455 0.04783542826771736 0.02400000010430813
v 0.1102401614189148 0.0589245930314064 0.02400000010430813
v 0.10393369942903519 0.06944628059864044 0.02400000010430813
v 0.09662630409002304 0.07929915934801102 0.02400000010430813
v 0.0883883461356163 0.0883883461356163 0.02400000010430813
v 0.07929915934801102 0.09662630409002304 0.02400000010430813
v 0.06944628059864044 0.10393369942903519 0.02400000010430813
v 0.0589245930314064 0.1102401614189148 0.02400000010430813
v 0.04783542826771736 0.11548493802547455 0.02400000010430813
v 0.036285582929849625 0.11961754411458969 0.02400000010430813
v 0.024386290460824966 0.12259815633296967 0.02400000010430813
v 0.012252142652869225 0.12439808994531631 0.02400000010430813
v 1.5308085657314598e-17 0.125 0.02400000010430813
v -0.012252142652869225 0.12439808994531631 0.02400000010430813
v -0.024386290460824966 0.12259815633296967 0.02400000010430813
v -0.036285582929849625 0.11961754411458969 0.02400000010430813
v -0.04783542826771736 0.11548493802547455 0.02400000010430813
v -0.0589245930314064 0.1102401614189148 0.02400000010430813
v -0.06944628059864044 0.10393369942903519 0.02400000010430813
v -0.07929915934801102 0.09662630409002304 0.02400000010430813
v -0.0883883461356163 0.0883883461356163 0.02400000010430813
v -0.09662630409002304 0.07929915934801102 0.02400000010430813
v -0.10393369942903519 0.06944628059864044 0.02400000010430813
v -0.1102401614189148 0.0589245930314064 0.02400000010430813
v -0.11548493802547455 0.04783542826771736 0.02400000010430813
v -0.11961754411458969 0.036285582929849625 0.02400000010430813
v -0.12259815633296967 0.024386290460824966 0.02400000010430813
v -0.12439808994531631 0.012252142652869225 0.02400000010430813
v -0.125 2.3696914678463977e-17 0.02400000010430813
v -0.12439808994531631 -0.012252142652869225 0.02400000010430813
v -0.12259815633296967 -0.024386290460824966 0.02400000010430813
v -0.11961754411458969 -0.036285582929849625 0.02400000010430813
v -0.11548493802547455 -0.04783542826771736 0.02400000010430813
v -0.1102401614189148 -0.0589245930314064 0.02400000010430813
v -0.10393369942903519 -0.06944628059864044 0.02400000010430813
v -0.09662630409002304 -0.07929915934801102 0.02400000010430813
v -0.0883883461356163 -0.0883883461356163 0.02400000010430813
v -0.07929915934801102 -0.09662630409002304 0.02400000010430813
v -0.06944628059864044 -0.10393369942903519 0.02400000010430813
v -0.0589245930314064 -0.1102401614189148 0.02400000010430813
v -0.04783542826771736 -0.11548493802547455 0.02400000010430813
v -0.036285582929849625 -0.11961754411458969 0.02400000010430813
v -0.024386290460824966 -0.12259815633296967 0.02400000010430813
v -0.012252142652869225 -0.12439808994531631 0.02400000010430813
v -3.0616171314629196e-17 -0.125 0.02400000010430813
v 0 -0.125 -1.0430812810713341e-10
v 0.012252142652869225 -0.12439808994531631 -1.0430812810713341e-10
v 0.024386290460824966 -0.12259815633296967 -1.0430812810713341e-10
v 0.036285582929849625 -0.11961754411458969 -1.0430812810713341e-10
v 0.04783542826771736 -0.11548493802547455 -1.0430812810713341e-10
v 0.0589245930314064 -0.1102401614189148 -1.0430812810713341e-10
v 0.06944628059864044 -0.10393369942903519 -1.0430812810713341e-10
v 0.07929915934801102 -0.09662630409002304 -1.0430812810713341e-10
v 0.0883883461356163 -0.0883883461356163 -1.0430812810713341e-10
v 0.09662630409002304 -0.07929915934801102 -1.0430812810713341e-10
v 0.10393369942903519 -0.06944628059864044 -1.0430812810713341e-10
v 0.1102401614189148 -0.0589245930314064 -1.0430812810713341e-10
v 0.11548493802547455 -0.04783542826771736 -1.0430812810713341e-10
v 0.11961754411458969 -0.036285582929849625 -1.0430812810713341e-10
v 0.12259815633296967 -0.024386290460824966 -1.0430812810713341e-10
v 0.12439808994531631 -0.012252142652869225 -1.0430812810713341e-10
v 0.125 -8.388830675510604e-18 -1.0430812810713341e-10
v 0.12439808994531631 0.012252142652869225 -1.0430812810713341e-10
v 0.12259815633296967 0.024386290460824966 -1.0430812810713341e-10
v 0.11961754411458969 0.036285582929849625 -1.0430812810713341e-10
v 0.11548493802547455 0.04783542826771736 -1.0430812810713341e-10
v 0.1102401614189148 0.0589245930314064 -1.0430812810713341e-10
v 0.10393369942903519 0.06944628059864044 -1.0430812810713341e-10
v 0.09662630409002304 0.07929915934801102 -1.0430812810713341e-10
v 0.0883883461356163 0.0883883461356163 -1.0430812810713341e-10
v 0.07929915934801102 0.09662630409002304 -1.0430812810713341e-10
v 0.06944628059864044 0.10393369942903519 -1.0430812810713341e-10
v 0.0589245930314064 0.1102401614189148 -1.0430812810713341e-10
v 0.04783542826771736 0.11548493802547455 -1.0430812810713341e-10
v 0.036285582929849625 0.11961754411458969 -1.0430812810713341e-10
v 0.024386290460824966 0.12259815633296967 -1.0430812810713341e-10
v 0.012252142652869225 0.12439808994531631 -1.0430812810713341e-10
v 1.5308085657314598e-17 0.125 -1.0430812810713341e-10
v -0.012252142652869225 0.12439808994531631 -1.0430812810713341e-10
v -0.024386290460824966 0.12259815633296967 -1.0430812810713341e-10
v -0.036285582929849625 0.11961754411458969 -1.0430812810713341e-10
v -0.04783542826771736 0.11548493802547455 -1.0430812810713341e-10
v -0.0589245930314064 0.1102401614189148 -1.0430812810713341e-10
v -0.06944628059864044 0.10393369942903519 -1.0430812810713341e-10
v -0.07929915934801102 0.09662630409002304 -1.0430812810713341e-10
v -0.0883883461356163 0.0883883461356163 -1.0430812810713341e-10
v -0.09662630409002304 0.07929915934801102 -1.0430812810713341e-10
v -0.10393369942903519 0.06944628059864044 -1.0430812810713341e-10
v -0.1102401614189148 0.0589245930314064 -1.0430812810713341e-10
v -0.11548493802547455 0.04783542826771736 -1.0430812810713341e-10
v -0.11961754411458969 0.036285582929849625 -1.0430812810713341e-10
v -0.12259815633296967 0.024386290460824966 -1.0430812810713341e-10
v -0.12439808994531631 0.012252142652869225 -1.0430812810713341e-10
v -0.125 2.2227338984757367e-17 -1.0430812810713341e-10
v -0.12439808994531631 -0.012252142652869225 -1.0430812810713341e-10
v -0.12259815633296967 -0.024386290460824966 -1.0430812810713341e-10
v -0.11961754411458969 -0.036285582929849625 -1.0430812810713341e-10
v -0.11548493802547455 -0.04783542826771736 -1.0430812810713341e-10
v -0.1102401614189148 -0.0589245930314064 -1.0430812810713341e-10
v -0.10393369942903519 -0.06944628059864044 -1.0430812810713341e-10
v -0.09662630409002304 -0.07929915934801102 -1.0430812810713341e-10
v -0.0883883461356163 -0.0883883461356163 -1.0430812810713341e-10
v -0.07929915934801102 -0.09662630409002304 -1.0430812810713341e-10
v -0.06944628059864044 -0.10393369942903519 -1.0430812810713341e-10
v -0.0589245930314064 -0.1102401614189148 -1.0430812810713341e-10
v -0.04783542826771736 -0.11548493802547455 -1.0430812810713341e-10
v -0.036285582929849625 -0.11961754411458969 -1.0430812810713341e-10
v -0.024386290460824966 -0.12259815633296967 -1.0430812810713341e-10
v -0.012252142652869225 -0.12439808994531631 -1.0430812810713341e-10
v -3.0616171314629196e-17 -0.125 -1.0430812810713341e-10
v 0 7.347881053472461e-19 0.02400000010430813
v 0 -7.347881053472461e-19 -1.0430812810713341e-10
vt 0 1
vt 0.015625 1
vt 0.03125 1
vt 0.046875 1
vt 0.0625 1
vt 0.078125 1
vt 0.09375 1
vt 0.109375 1
vt 0.125 1
vt 0.140625 1
vt 0.15625 1
vt 0.171875 1
vt 0.1875 1
vt 0.203125 1
vt 0.21875 1
vt 0.234375 1
vt 0.25 1
vt 0.265625 1
vt 0.28125 1
vt 0.296875 1
vt 0.3125 1
vt 0.328125 1
vt 0.34375 1
vt 0.359375 1
vt 0.375 1
vt 0.390625 1
vt 0.40625 1
vt 0.421875 1
vt 0.4375 1
vt 0.453125 1
vt 0.46875 1
vt 0.484375 1
vt 0.5 1
vt 0.515625 1
vt 0.53125 1
vt 0.546875 1
vt 0.5625 1
vt 0.578125 1
vt 0.59375 1
vt 0.609375 1
vt 0.625 1
vt 0.640625 1
vt 0.65625 1
vt 0.671875 1
vt 0.6875 1
vt 0.703125 1
vt 0.71875 1
vt 0.734375 1
vt 0.75 1
vt 0.765625 1
vt 0.78125 1
vt 0.796875 1
vt 0.8125 1
vt 0.828125 1
vt 0.84375 1
vt 0.859375 1
vt 0.875 1
vt 0.890625 1
vt 0.90625 1
vt 0.921875 1
vt 0.9375 1
vt 0.953125 1
vt 0.96875 1
vt 0.984375 1
vt 1 1
vt 0 0
vt 0.015625 0
vt 0.03125 0
vt 0.046875 0
vt 0.0625 0
vt 0.078125 0
vt 0.09375 0
vt 0.109375 0
vt 0.125 0
vt 0.140625 0
vt 0.15625 0
vt 0.171875 0
vt 0.1875 0
vt 0.203125 0
vt 0.21875 0
vt 0.234375 0
vt 0.25 0
vt 0.265625 0
vt 0.28125 0
vt 0.296875 0
vt 0.3125 0
vt 0.328125 0
vt 0.34375 0
vt 0.359375 0
vt 0.375 0
vt 0.390625 0
vt 0.40625 0
vt 0.421875 0
vt 0.4375 0
vt 0.453125 0
vt 0.46875 0
vt 0.484375 0
vt 0.5 0
vt 0.515625 0
vt 0.53125 0
vt 0.546875 0
vt 0.5625 0
vt 0.578125 0
vt 0.59375 0
vt 0.609375 0
vt 0.625 0
vt 0.640625 0
vt 0.65625 0
vt 0.671875 0
vt 0.6875 0
vt 0.703125 0
vt 0.71875 0
vt 0.734375 0
vt 0.75 0
vt 0.765625 0
vt 0.78125 0
vt 0.796875 0
vt 0.8125 0
vt 0.828125 0
vt 0.84375 0
vt 0.859375 0
vt 0.875 0
vt 0.890625 0
vt 0.90625 0
vt 0.921875 0
vt 0.9375 0
vt 0.953125 0
vt 0.96875 0
vt 0.984375 0
vt 1 0
vt 0.5 0.5
vt 1 0.5
vt 0.9975923895835876 0.5490085482597351
vt 0.9903926253318787 0.5975451469421387
vt 0.9784701466560364 0.6451423168182373
vt 0.9619397521018982 0.6913416981697083
vt 0.9409606456756592 0.7356983423233032
vt 0.9157348275184631 0.7777851223945618
vt 0.8865052461624146 0.8171966671943665
vt 0.8535534143447876 0.8535534143447876
vt 0.8171966671943665 0.8865052461624146
vt 0.7777851223945618 0.9157348275184631
vt 0.7356983423233032 0.9409606456756592
vt 0.6913416981697083 0.9619397521018982
vt 0.6451423168182373 0.9784701466560364
vt 0.5975451469421387 0.9903926253318787
vt 0.5490085482597351 0.9975923895835876
vt 0.4509914219379425 0.9975923895835876
vt 0.40245485305786133 0.9903926253318787
vt 0.3548576533794403 0.9784701466560364
vt 0.30865827202796936 0.9619397521018982
vt 0.2643016278743744 0.9409606456756592
vt 0.22221487760543823 0.9157348275184631
vt 0.18280336260795593 0.8865052461624146
vt 0.1464466154575348 0.8535534143447876
vt 0.11349477618932724 0.8171966671943665
vt 0.08426519483327866 0.7777851223945618
vt 0.059039369225502014 0.7356983423233032
vt 0.03806023299694061 0.6913416981697083
vt 0.02152983285486698 0.6451423168182373
vt 0.009607359766960144 0.5975451469421387
vt 0.0024076367262750864 0.5490085482597351
vt 0 0.5
vt 0.0024076367262750864 0.4509914219379425
vt 0.009607359766960144 0.40245485305786133
vt 0.02152983285486698 0.3548576533794403
vt 0.03806023299694061 0.30865827202796936
vt 0.059039369225502014 0.2643016278743744
vt 0.08426519483327866 0.22221487760543823
vt 0.11349477618932724 0.18280336260795593
vt 0.1464466154575348 0.1464466154575348
vt 0.18280336260795593 0.11349477618932724
vt 0.22221487760543823 0.08426519483327866
vt 0.2643016278743744 0.059039369225502014
vt 0.30865827202796936 0.03806023299694061
vt 0.3548576533794403 0.02152983285486698
vt 0.40245485305786133 0.009607359766960144
vt 0.4509914219379425 0.0024076367262750864
vt 0.5490085482597351 0.0024076367262750864
vt 0.5975451469421387 0.009607359766960144
vt 0.6451423168182373 0.02152983285486698
vt 0.6913416981697083 0.03806023299694061
vt 0.7356983423233032 0.059039369225502014
vt 0.7777851223945618 0.08426519483327866
vt 0.8171966671943665 0.11349477618932724
vt 0.8535534143447876 0.1464466154575348
vt 0.8865052461624146 0.18280336260795593
vt 0.9157348275184631 0.22221487760543823
vt 0.9409606456756592 0.2643016278743744
vt 0.9619397521018982 0.30865827202796936
vt 0.9784701466560364 0.3548576533794403
vt 0.9903926253318787 0.40245485305786133
vt 0.9975923895835876 0.4509914219379425
vn 0 -1 6.123234262925839e-17
vn 0.09801714190788421 -0.9951847265167456 6.093748956265305e-17
vn 0.19509032931342324 -0.9807852789517083 6.005578251043524e-17
vn 0.2902846598293761 -0.9569403410180507 5.859569377199509e-17
vn 0.3826834370613369 -0.9238795305660377 5.657130722319695e-17
vn 0.47139673137517785 -0.881921267261879 5.4002101003667496e-17
vn 0.555570248949409 -0.8314696016585884 5.0912828117547274e-17
vn 0.6343932886818924 -0.7730104496547076 4.73332410683602e-17
vn 0.7071067811865476 -0.7071067811865476 4.329780375814312e-17
vn 0.7730104496547076 -0.6343932886818924 3.884538510705295e-17
vn 0.8314696016585884 -0.555570248949409 3.401886504589378e-17
vn 0.881921267261879 -0.47139673137517785 2.886472476695692e-17
vn 0.9238795305660377 -0.3826834370613369 2.3432603017245014e-17
vn 0.9569403410180507 -0.2902846598293761 1.7774809160467117e-17
vn 0.9807852789517083 -0.19509032931342324 1.1945837521388368e-17
vn 0.9951847265167456 -0.09801714190788421 6.001819080193974e-18
vn 1 -6.123234262925839e-17 3.74939976039497e-33
vn 0.9951847265167456 0.09801714190788421 -6.001819080193974e-18
vn 0.9807852789517083 0.19509032931342324 -1.1945837521388368e-17
vn 0.9569403410180507 0.2902846598293761 -1.7774809160467117e-17
vn 0.9238795305660377 0.3826834370613369 -2.3432603017245014e-17
vn 0.881921267261879 0.47139673137517785 -2.886472476695692e-17
vn 0.8314696016585884 0.555570248949409 -3.401886504589378e-17
vn 0.7730104496547076 0.6343932886818924 -3.884538510705295e-17
vn 0.7071067811865476 0.7071067811865476 -4.329780375814312e-17
vn 0.6343932886818924 0.7730104496547076 -4.73332410683602e-17
vn 0.555570248949409 0.8314696016585884 -5.0912828117547274e-17
vn 0.47139673137517785 0.881921267261879 -5.4002101003667496e-17
vn 0.3826834370613369 0.9238795305660377 -5.657130722319695e-17
vn 0.2902846598293761 0.9569403410180507 -5.859569377199509e-17
vn 0.19509032931342324 0.9807852789517083 -6.005578251043524e-17
vn 0.09801714190788421 0.9951847265167456 -6.093748956265305e-17
vn 1.2246468525851679e-16 1 -6.123234262925839e-17
vn -0.09801714190788421 0.9951847265167456 -6.093748956265305e-17
vn -0.19509032931342324 0.9807852789517083 -6.005578251043524e-17
vn -0.2902846598293761 0.9569403410180507 -5.859569377199509e-17
vn -0.3826834370613369 0.9238795305660377 -5.657130722319695e-17
vn -0.47139673137517785 0.881921267261879 -5.4002101003667496e-17
vn -0.555570248949409 0.8314696016585884 -5.0912828117547274e-17
vn -0.6343932886818924 0.7730104496547076 -4.73332410683602e-17
vn -0.7071067811865476 0.7071067811865476 -4.329780375814312e-17
vn -0.7730104496547076 0.6343932886818924 -3.884538510705295e-17
vn -0.8314696016585884 0.555570248949409 -3.401886504589378e-17
vn -0.881921267261879 0.47139673137517785 -2.886472476695692e-17
vn -0.9238795305660377 0.3826834370613369 -2.3432603017245014e-17
vn -0.9569403410180507 0.2902846598293761 -1.7774809160467117e-17
vn -0.9807852789517083 0.19509032931342324 -1.1945837521388368e-17
vn -0.9951847265167456 0.09801714190788421 -6.001819080193974e-18
vn -1 1.8369701465288538e-16 -1.1248198179158957e-32
vn -0.9951847265167456 -0.09801714190788421 6.001819080193974e-18
vn -0.9807852789517083 -0.19509032931342324 1.1945837521388368e-17
vn -0.9569403410180507 -0.2902846598293761 1.7774809160467117e-17
vn -0.9238795305660377 -0.3826834370613369 2.3432603017245014e-17
vn -0.881921267261879 -0.47139673137517785 2.886472476695692e-17
vn -0.8314696016585884 -0.555570248949409 3.401886504589378e-17
vn -0.7730104496547076 -0.6343932886818924 3.884538510705295e-17
vn -0.7071067811865476 -0.7071067811865476 4.329780375814312e-17
vn -0.6343932886818924 -0.7730104496547076 4.73332410683602e-17
vn -0.555570248949409 -0.8314696016585884 5.0912828117547274e-17
vn -0.47139673137517785 -0.881921267261879 5.4002101003667496e-17
vn -0.3826834370613369 -0.9238795305660377 5.657130722319695e-17
vn -0.2902846598293761 -0.9569403410180507 5.859569377199509e-17
vn -0.19509032931342324 -0.9807852789517083 6.005578251043524e-17
vn -0.09801714190788421 -0.9951847265167456 6.093748956265305e-17
vn -2.4492937051703357e-16 -1 6.123234262925839e-17
vn 0 6.123234262925839e-17 1
vn 0 -6.123234262925839e-17 -1
f 1/1/1 66/66/1 2/2/2
f 66/66/1 67/67/2 2/2/2
f 2/2/2 67/67/2 3/3/3
f 67/67/2 68/68/3 3/3/3
f 3/3/3 68/68/3 4/4/4
f 68/68/3 69/69/4 4/4/4
f 4/4/4 69/69/4 5/5/5
f 69/69/4 70/70/5 5/5/5
f 5/5/5 70/70/5 6/6/6
f 70/70/5 71/71/6 6/6/6
f 6/6/6 71/71/6 7/7/7
f 71/71/6 72/72/7 7/7/7
f 7/7/7 72/72/7 8/8/8
f 72/72/7 73/73/8 8/8/8
f 8/8/8 73/73/8 9/9/9
f 73/73/8 74/74/9 9/9/9
f 9/9/9 74/74/9 10/10/10
f 74/74/9 75/75/10 10/10/10
f 10/10/10 75/75/10 11/11/11
f 75/75/10 76/76/11 11/11/11
f 11/11/11 76/76/11 12/12/12
f 76/76/11 77/77/12 12/12/12
f 12/12/12 77/77/12 13/13/13
f 77/77/12 78/78/13 13/13/13
f 13/13/13 78/78/13 14/14/14
f 78/78/13 79/79/14 14/14/14
f 14/14/14 79/79/14 15/15/15
f 79/79/14 80/80/15 15/15/15
f 15/15/15 80/80/15 16/16/16
f 80/80/15 81/81/16 16/16/16
f 16/16/16 81/81/16 17/17/17
f 81/81/16 82/82/17 17/17/17
f 17/17/17 82/82/17 18/18/18
f 82/82/17 83/83/18 18/18/18
f 18/18/18 83/83/18 19/19/19
f 83/83/18 84/84/19 19/19/19
f 19/19/19 84/84/19 20/20/20
f 84/84/19 85/85/20 20/20/20
f 20/20/20 85/85/20 21/21/21
f 85/85/20 86/86/21 21/21/21
f 21/21/21 86/86/21 22/22/22
f 86/86/21 87/87/22 22/22/22
f 22/22/22 87/87/22 23/23/23
f 87/87/22 88/88/23 23/23/23
f 23/23/23 88/88/23 24/24/24
f 88/88/23 89/89/24 24/24/24
f 24/24/24 89/89/24 25/25/25
f 89/89/24 90/90/25 25/25/25
f 25/25/25 90/90/25 26/26/26
f 90/90/25 91/91/26 26/26/26
f 26/26/26 91/91/26 27/27/27
f 91/91/26 92/92/27 27/27/27
f 27/27/27 92/92/27 28/28/28
f 92/92/27 93/93/28 28/28/28
f 28/28/28 93/93/28 29/29/29
f 93/93/28 94/94/29 29/29/29
f 29/29/29 94/94/29 30/30/30
f 94/94/29 95/95/30 30/30/30
f 30/30/30 95/95/30 31/31/31
f 95/95/30 96/96/31 31/31/31
f 31/31/31 96/96/31 32/32/32
f 96/96/31 97/97/32 32/32/32
f 32/32/32 97/97/32 33/33/33
f 97/97/32 98/98/33 33/33/33
f 33/33/33 98/98/33 34/34/34
f 98/98/33 99/99/34 34/34/34
f 34/34/34 99/99/34 35/35/35
f 99/99/34 100/100/35 35/35/35
f 35/35/35 100/100/35 36/36/36
f 100/100/35 101/101/36 36/36/36
f 36/36/36 101/101/36 37/37/37
f 101/101/36 102/102/37 37/37/37
f 37/37/37 102/102/37 38/38/38
f 102/102/37 103/103/38 38/38/38
f 38/38/38 103/103/38 39/39/39
f 103/103/38 104/104/39 39/39/39
f 39/39/39 104/104/39 40/40/40
f 104/104/39 105/105/40 40/40/40
f 40/40/40 105/105/40 41/41/41
f 105/105/40 106/106/41 41/41/41
f 41/41/41 106/106/41 42/42/42
f 106/106/41 107/107/42 42/42/42
f 42/42/42 107/107/42 43/43/43
f 107/107/42 108/108/43 43/43/43
f 43/43/43 108/108/43 44/44/44
f 108/108/43 109/109/44 44/44/44
f 44/44/44 109/109/44 45/45/45
f 109/109/44 110/110/45 45/45/45
f 45/45/45 110/110/45 46/46/46
f 110/110/45 111/111/46 46/46/46
f 46/46/46 111/111/46 47/47/47
f 111/111/46 112/112/47 47/47/47
f 47/47/47 112/112/47 48/48/48
f 112/112/47 113/113/48 48/48/48
f 48/48/48 113/113/48 49/49/49
f 113/113/48 114/114/49 49/49/49
f 49/49/49 114/114/49 50/50/50
f 114/114/49 115/115/50 50/50/50
f 50/50/50 115/115/50 51/51/51
f 115/115/50 116/116/51 51/51/51
f 51/51/51 116/116/51 52/52/52
f 116/116/51 117/117/52 52/52/52
f 52/52/52 117/117/52 53/53/53
f 117/117/52 118/118/53 53/53/53
f 53/53/53 118/118/53 54/54/54
f 118/118/53 119/119/54 54/54/54
f 54/54/54 119/119/54 55/55/55
f 119/119/54 120/120/55 55/55/55
f 55/55/55 120/120/55 56/56/56
f 120/120/55 121/121/56 56/56/56
f 56/56/56 121/121/56 57/57/57
f 121/121/56 122/122/57 57/57/57
f 57/57/57 122/122/57 58/58/58
f 122/122/57 123/123/58 58/58/58
f 58/58/58 123/123/58 59/59/59
f 123/123/58 124/124/59 59/59/59
f 59/59/59 124/124/59 60/60/60
f 124/124/59 125/125/60 60/60/60
f 60/60/60 125/125/60 61/61/61
f 125/125/60 126/126/61 61/61/61
f 61/61/61 126/126/61 62/62/62
f 126/126/61 127/127/62 62/62/62
f 62/62/62 127/127/62 63/63/63
f 127/127/62 128/128/63 63/63/63
f 63/63/63 128/128/63 64/64/64
f 128/128/63 129/129/64 64/64/64
f 64/64/64 129/129/64 65/65/65
f 129/129/64 130/130/65 65/65/65
f 1/132/66 2/133/66 131/131/66
f 2/133/66 3/134/66 131/131/66
f 3/134/66 4/135/66 131/131/66
f 4/135/66 5/136/66 131/131/66
f 5/136/66 6/137/66 131/131/66
f 6/137/66 7/138/66 131/131/66
f 7/138/66 8/139/66 131/131/66
f 8/139/66 9/140/66 131/131/66
f 9/140/66 10/141/66 131/131/66
f 10/141/66 11/142/66 131/131/66
f 11/142/66 12/143/66 131/131/66
f 12/143/66 13/144/66 131/131/66
f 13/144/66 14/145/66 131/131/66
f 14/145/66 15/146/66 131/131/66
f 15/146/66 16/147/66 131/131/66
f 16/147/66 17/33/66 131/131/66
f 17/33/66 18/148/66 131/131/66
f 18/148/66 19/149/66 131/131/66
f 19/149/66 20/150/66 131/131/66
f 20/150/66 21/151/66 131/131/66
f 21/151/66 22/152/66 131/131/66
f 22/152/66 23/153/66 131/131/66
f 23/153/66 24/154/66 131/131/66
f 24/154/66 25/155/66 131/131/66
f 25/155/66 26/156/66 131/131/66
f 26/156/66 27/157/66 131/131/66
f 27/157/66 28/158/66 131/131/66
f 28/158/66 29/159/66 131/131/66
f 29/159/66 30/160/66 131/131/66
f 30/160/66 31/161/66 131/131/66
f 31/161/66 32/162/66 131/131/66
f 32/162/66 33/163/66 131/131/66
f 33/163/66 34/164/66 131/131/66
f 34/164/66 35/165/66 131/131/66
f 35/165/66 36/166/66 131/131/66
f 36/166/66 37/167/66 131/131/66
f 37/167/66 38/168/66 131/131/66
f 38/168/66 39/169/66 131/131/66
f 39/169/66 40/170/66 131/131/66
f 40/170/66 41/171/66 131/131/66
f 41/171/66 42/172/66 131/131/66
f 42/172/66 43/173/66 131/131/66
f 43/173/66 44/174/66 131/131/66
f 44/174/66 45/175/66 131/131/66
f 45/175/66 46/176/66 131/131/66
f 46/176/66 47/177/66 131/131/66
f 47/177/66 48/178/66 131/131/66
f 48/178/66 49/98/66 131/131/66
f 49/98/66 50/179/66 131/131/66
f 50/179/66 51/180/66 131/131/66
f 51/180/66 52/181/66 131/131/66
f 52/181/66 53/182/66 131/131/66
f 53/182/66 54/183/66 131/131/66
f 54/183/66 55/184/66 131/131/66
f 55/184/66 56/185/66 131/131/66
f 56/185/66 57/186/66 131/131/66
f 57/186/66 58/187/66 131/131/66
f 58/187/66 59/188/66 131/131/66
f 59/188/66 60/189/66 131/131/66
f 60/189/66 61/190/66 131/131/66
f 61/190/66 62/191/66 131/131/66
f 62/191/66 63/192/66 131/131/66
f 63/192/66 64/193/66 131/131/66
f 64/193/66 65/132/66 131/131/66
f 67/193/67 66/132/67 132/131/67
f 68/192/67 67/193/67 132/131/67
f 69/191/67 68/192/67 132/131/67
f 70/190/67 69/191/67 132/131/67
f 71/189/67 70/190/67 132/131/67
f 72/188/67 71/189/67 132/131/67
f 73/187/67 72/188/67 132/131/67
f 74/186/67 73/187/67 132/131/67
f 75/185/67 74/186/67 132/131/67
f 76/184/67 75/185/67 132/131/67
f 77/183/67 76/184/67 132/131/67
f 78/182/67 77/183/67 132/131/67
f 79/181/67 78/182/67 132/131/67
f 80/180/67 79/181/67 132/131/67
f 81/179/67 80/180/67 132/131/67
f 82/98/67 81/179/67 132/131/67
f 83/178/67 82/98/67 132/131/67
f 84/177/67 83/178/67 132/131/67
f 85/176/67 84/177/67 132/131/67
f 86/175/67 85/176/67 132/131/67
f 87/174/67 86/175/67 132/131/67
f 88/173/67 87/174/67 132/131/67
f 89/172/67 88/173/67 132/131/67
f 90/171/67 89/172/67 132/131/67
f 91/170/67 90/171/67 132/131/67
f 92/169/67 91/170/67 132/131/67
f 93/168/67 92/169/67 132/131/67
f 94/167/67 93/168/67 132/131/67
f 95/166/67 94/167/67 132/131/67
f 96/165/67 95/166/67 132/131/67
f 97/164/67 96/165/67 132/131/67
f 98/163/67 97/164/67 132/131/67
f 99/162/67 98/163/67 132/131/67
f 100/161/67 99/162/67 132/131/67
f 101/160/67 100/161/67 132/131/67
f 102/159/67 101/160/67 132/131/67
f 103/158/67 102/159/67 132/131/67
f 104/157/67 103/158/67 132/131/67
f 105/156/67 104/157/67 132/131/67
f 106/155/67 105/156/67 132/131/67
f 107/154/67 106/155/67 132/131/67
f 108/153/67 107/154/67 132/131/67
f 109/152/67 108/153/67 132/131/67
f 110/151/67 109/152/67 132/131/67
f 111/150/67 110/151/67 132/131/67
f 112/149/67 111/150/67 132/131/67
f 113/148/67 112/149/67 132/131/67
f 114/33/67 113/148/67 132/131/67
f 115/147/67 114/33/67 132/131/67
f 116/146/67 115/147/67 132/131/67
f 117/145/67 116/146/67 132/131/67
f 118/144/67 117/145/67 132/131/67
f 119/143/67 118/144/67 132/131/67
f 120/142/67 119/143/67 132/131/67
f 121/141/67 120/142/67 132/131/67
f 122/140/67 121/141/67 132/131/67
f 123/139/67 122/140/67 132/131/67
f 124/138/67 123/139/67 132/131/67
f 125/137/67 124/138/67 132/131/67
f 126/136/67 125/137/67 132/131/67
f 127/135/67 126/136/67 132/131/67
f 128/134/67 127/135/67 132/131/67
f 129/133/67 128/134/67 132/131/67
f 130/132/67 129/133/67 132/131/67
