mtllib level_upper_link.mtl
o level_rod_upper
usemtl fanuc_yellow
v 0 -0.02500000037252903 -0.029999999329447746
v 0 -0.02500000037252903 0.029999999329447746
v 0 0.02500000037252903 0.029999999329447746
v 0 0.02500000037252903 -0.029999999329447746
v 1.2999999523162842 -0.02500000037252903 -0.029999999329447746
v 1.2999999523162842 0.02500000037252903 -0.029999999329447746
v 1.2999999523162842 0.02500000037252903 0.029999999329447746
v 1.2999999523162842 -0.02500000037252903 0.029999999329447746
vn -1 0 0
vn 1 0 0
vn 0 0 -1
vn 0 1 0
vn 0 0 1
vn 0 -1 0
f 1//1 2//1 3//1
f 1//1 3//1 4//1
f 5//2 6//2 7//2
f 5//2 7//2 8//2
f 1//3 4//3 6//3
f 1//3 6//3 5//3
f 4//4 3//4 7//4
f 4//4 7//4 6//4
f 3//5 2//5 8//5
f 3//5 8//5 7//5
f 2//6 1//6 5//6
f 2//6 5//6 8//6
