mtllib J4_link.mtl
o shaft_end
usemtl shaft_steel
v 0 -0.008999999612569809 0.02800000043213366
v 0.0034441507887095213 -0.008314915932714939 0.02800000043213366
v 0.006363960914313793 -0.006363960914313793 0.02800000043213366
v 0.008314915932714939 -0.0034441507887095213 0.02800000043213366
v 0.008999999612569809 3.0616174933544376e-19 0.02800000043213366
v 0.008314915932714939 0.0034441507887095213 0.02800000043213366
v 0.006363960914313793 0.006363960914313793 0.02800000043213366
v 0.0034441507887095213 0.008314915932714939 0.02800000043213366
v 1.1021820804726868e-18 0.008999999612569809 0.02800000043213366
v -0.0034441507887095213 0.008314915932714939 0.02800000043213366
v -0.006363960914313793 0.006363960914313793 0.02800000043213366
v -0.008314915932714939 0.0034441507887095213 0.02800000043213366
v -0.008999999612569809 2.510526039527788e-18 0.02800000043213366
v -0.008314915932714939 -0.0034441507887095213 0.02800000043213366
v -0.006363960914313793 -0.006363960914313793 0.02800000043213366
v -0.0034441507887095213 -0.008314915932714939 0.02800000043213366
v -2.2043641609453735e-18 -0.008999999612569809 0.02800000043213366
v 0 -0.008999999612569809 -4.3213368994265977e-10
v 0.0034441507887095213 -0.008314915932714939 -4.3213368994265977e-10
v 0.006363960914313793 -0.006363960914313793 -4.3213368994265977e-10
v 0.008314915932714939 -0.0034441507887095213 -4.3213368994265977e-10
v 0.008999999612569809 -1.4083438556575247e-18 -4.3213368994265977e-10
v 0.008314915932714939 0.0034441507887095213 -4.3213368994265977e-10
v 0.006363960914313793 0.006363960914313793 -4.3213368994265977e-10
v 0.0034441507887095213 0.008314915932714939 -4.3213368994265977e-10
v 1.1021820804726868e-18 0.008999999612569809 -4.3213368994265977e-10
v -0.0034441507887095213 0.008314915932714939 -4.3213368994265977e-10
v -0.006363960914313793 0.006363960914313793 -4.3213368994265977e-10
v -0.008314915932714939 0.0034441507887095213 -4.3213368994265977e-10
v -0.008999999612569809 7.960204086854254e-19 -4.3213368994265977e-10
v -0.008314915932714939 -0.0034441507887095213 -4.3213368994265977e-10
v -0.006363960914313793 -0.006363960914313793 -4.3213368994265977e-10
v -0.0034441507887095213 -0.008314915932714939 -4.3213368994265977e-10
v -2.2043641609453735e-18 -0.008999999612569809 -4.3213368994265977e-10
v 0 8.57252763722393e-19 0.02800000043213366
v 0 8.57252763722393e-19 0.02800000043213366
v 0 8.57252763722393e-19 0.02800000043213366
v 0 8.57252763722393e-19 0.02800000043213366
v 0 8.57252763722393e-19 0.02800000043213366
v 0 8.57252763722393e-19 0.02800000043213366
v 0 8.57252763722393e-19 0.02800000043213366
v 0 8.57252763722393e-19 0.02800000043213366
v 0 8.57252763722393e-19 0.02800000043213366
v 0 8.57252763722393e-19 0.02800000043213366
v 0 8.57252763722393e-19 0.02800000043213366
v 0 8.57252763722393e-19 0.02800000043213366
v 0 8.57252763722393e-19 0.02800000043213366
v 0 8.57252763722393e-19 0.02800000043213366
v 0 8.57252763722393e-19 0.02800000043213366
v 0 8.57252763722393e-19 0.02800000043213366
v 0 -0.008999999612569809 0.02800000043213366
v 0.0034441507887095213 -0.008314915932714939 0.02800000043213366
v 0.006363960914313793 -0.006363960914313793 0.02800000043213366
v 0.008314915932714939 -0.0034441507887095213 0.02800000043213366
v 0.008999999612569809 3.0616174933544376e-19 0.02800000043213366
v 0.008314915932714939 0.0034441507887095213 0.02800000043213366
v 0.006363960914313793 0.006363960914313793 0.02800000043213366
v 0.0034441507887095213 0.008314915932714939 0.02800000043213366
v 1.1021820804726868e-18 0.008999999612569809 0.02800000043213366
v -0.0034441507887095213 0.008314915932714939 0.02800000043213366
v -0.006363960914313793 0.006363960914313793 0.02800000043213366
v -0.008314915932714939 0.0034441507887095213 0.02800000043213366
v -0.008999999612569809 2.510526039527788e-18 0.02800000043213366
v -0.008314915932714939 -0.0034441507887095213 0.02800000043213366
v -0.006363960914313793 -0.006363960914313793 0.02800000043213366
v -0.0034441507887095213 -0.008314915932714939 0.02800000043213366
v -2.2043641609453735e-18 -0.008999999612569809 0.02800000043213366
v 0 -8.57252763722393e-19 -4.3213368994265977e-10
v 0 -8.57252763722393e-19 -4.3213368994265977e-10
v 0 -8.57252763722393e-19 -4.3213368994265977e-10
v 0 -8.57252763722393e-19 -4.3213368994265977e-10
v 0 -8.57252763722393e-19 -4.3213368994265977e-10
v 0 -8.57252763722393e-19 -4.3213368994265977e-10
v 0 -8.57252763722393e-19 -4.3213368994265977e-10
v 0 -8.57252763722393e-19 -4.3213368994265977e-10
v 0 -8.57252763722393e-19 -4.3213368994265977e-10
v 0 -8.57252763722393e-19 -4.3213368994265977e-10
v 0 -8.57252763722393e-19 -4.3213368994265977e-10
v 0 -8.57252763722393e-19 -4.3213368994265977e-10
v 0 -8.57252763722393e-19 -4.3213368994265977e-10
v 0 -8.57252763722393e-19 -4.3213368994265977e-10
v 0 -8.57252763722393e-19 -4.3213368994265977e-10
v 0 -8.57252763722393e-19 -4.3213368994265977e-10
v 0 -0.008999999612569809 -4.3213368994265977e-10
v 0.0034441507887095213 -0.008314915932714939 -4.3213368994265977e-10
v 0.006363960914313793 -0.006363960914313793 -4.3213368994265977e-10
v 0.008314915932714939 -0.0034441507887095213 -4.3213368994265977e-10
v 0.008999999612569809 -1.4083438556575247e-18 -4.3213368994265977e-10
v 0.008314915932714939 0.0034441507887095213 -4.3213368994265977e-10
v 0.006363960914313793 0.006363960914313793 -4.3213368994265977e-10
v 0.0034441507887095213 0.008314915932714939 -4.3213368994265977e-10
v 1.1021820804726868e-18 0.008999999612569809 -4.3213368994265977e-10
v -0.0034441507887095213 0.008314915932714939 -4.3213368994265977e-10
v -0.006363960914313793 0.006363960914313793 -4.3213368994265977e-10
v -0.008314915932714939 0.0034441507887095213 -4.3213368994265977e-10
v -0.008999999612569809 7.960204086854254e-19 -4.3213368994265977e-10
v -0.008314915932714939 -0.0034441507887095213 -4.3213368994265977e-10
v -0.006363960914313793 -0.006363960914313793 -4.3213368994265977e-10
v -0.0034441507887095213 -0.008314915932714939 -4.3213368994265977e-10
v -2.2043641609453735e-18 -0.008999999612569809 -4.3213368994265977e-10
vt 0 1
vt 0.0625 1
vt 0.125 1
vt 0.1875 1
vt 0.25 1
vt 0.3125 1
vt 0.375 1
vt 0.4375 1
vt 0.5 1
vt 0.5625 1
vt 0.625 1
vt 0.6875 1
vt 0.75 1
vt 0.8125 1
vt 0.875 1
vt 0.9375 1
vt 1 1
vt 0 0
vt 0.0625 0
vt 0.125 0
vt 0.1875 0
vt 0.25 0
vt 0.3125 0
vt 0.375 0
vt 0.4375 0
vt 0.5 0
vt 0.5625 0
vt 0.625 0
vt 0.6875 0
vt 0.75 0
vt 0.8125 0
vt 0.875 0
vt 0.9375 0
vt 1 0
vt 0.5 0.5
vt 0.5 0.5
vt 0.5 0.5
vt 0.5 0.5
vt 0.5 0.5
vt 0.5 0.5
vt 0.5 0.5
vt 0.5 0.5
vt 0.5 0.5
vt 0.5 0.5
vt 0.5 0.5
vt 0.5 0.5
vt 0.5 0.5
vt 0.5 0.5
vt 0.5 0.5
vt 0.5 0.5
vt 1 0.5
vt 0.9619397521018982 0.6913416981697083
vt 0.8535534143447876 0.8535534143447876
vt 0.6913416981697083 0.9619397521018982
vt 0.5 1
vt 0.30865827202796936 0.9619397521018982
vt 0.1464466154575348 0.8535534143447876
vt 0.03806023299694061 0.6913416981697083
vt 0 0.5
vt 0.03806023299694061 0.30865827202796936
vt 0.1464466154575348 0.1464466154575348
vt 0.30865827202796936 0.03806023299694061
vt 0.5 0
vt 0.6913416981697083 0.03806023299694061
vt 0.8535534143447876 0.1464466154575348
vt 0.9619397521018982 0.30865827202796936
vt 1 0.5
vt 0.5 0.5
vt 0.5 0.5
vt 0.5 0.5
vt 0.5 0.5
vt 0.5 0.5
vt 0.5 0.5
vt 0.5 0.5
vt 0.5 0.5
vt 0.5 0.5
vt 0.5 0.5
vt 0.5 0.5
vt 0.5 0.5
vt 0.5 0.5
vt 0.5 0.5
vt 0.5 0.5
vt 0.5 0.5
vt 1 0.5
vt 0.9619397521018982 0.30865827202796936
vt 0.8535534143447876 0.1464466154575348
vt 0.6913416981697083 0.03806023299694061
vt 0.5 0
vt 0.30865827202796936 0.03806023299694061
vt 0.1464466154575348 0.1464466154575348
vt 0.03806023299694061 0.30865827202796936
vt 0 0.5
vt 0.03806023299694061 0.6913416981697083
vt 0.1464466154575348 0.8535534143447876
vt 0.30865827202796936 0.9619397521018982
vt 0.5 1
vt 0.6913416981697083 0.9619397521018982
vt 0.8535534143447876 0.8535534143447876
vt 0.9619397521018982 0.6913416981697083
vt 1 0.5
vn 0 -1 6.123234262925839e-17
vn 0.3826834370613369 -0.9238795305660377 5.657130722319695e-17
vn 0.7071067811865476 -0.7071067811865476 4.329780375814312e-17
vn 0.9238795305660377 -0.3826834370613369 2.3432603017245014e-17
vn 1 -6.123234262925839e-17 3.74939976039497e-33
vn 0.9238795305660377 0.3826834370613369 -2.3432603017245014e-17
vn 0.7071067811865476 0.7071067811865476 -4.329780375814312e-17
vn 0.3826834370613369 0.9238795305660377 -5.657130722319695e-17
vn 1.2246468525851679e-16 1 -6.123234262925839e-17
vn -0.3826834370613369 0.9238795305660377 -5.657130722319695e-17
vn -0.7071067811865476 0.7071067811865476 -4.329780375814312e-17
vn -0.9238795305660377 0.3826834370613369 -2.3432603017245014e-17
vn -1 1.8369701465288538e-16 -1.1248198179158957e-32
vn -0.9238795305660377 -0.3826834370613369 2.3432603017245014e-17
vn -0.7071067811865476 -0.7071067811865476 4.329780375814312e-17
vn -0.3826834370613369 -0.9238795305660377 5.657130722319695e-17
vn -2.4492937051703357e-16 -1 6.123234262925839e-17
vn 0 -1 6.123234262925839e-17
vn 0.3826834370613369 -0.9238795305660377 5.657130722319695e-17
vn 0.7071067811865476 -0.7071067811865476 4.329780375814312e-17
vn 0.9238795305660377 -0.3826834370613369 2.3432603017245014e-17
vn 1 -6.123234262925839e-17 3.74939976039497e-33
vn 0.9238795305660377 0.3826834370613369 -2.3432603017245014e-17
vn 0.7071067811865476 0.7071067811865476 -4.329780375814312e-17
vn 0.3826834370613369 0.9238795305660377 -5.657130722319695e-17
vn 1.2246468525851679e-16 1 -6.123234262925839e-17
vn -0.3826834370613369 0.9238795305660377 -5.657130722319695e-17
vn -0.7071067811865476 0.7071067811865476 -4.329780375814312e-17
vn -0.9238795305660377 0.3826834370613369 -2.3432603017245014e-17
vn -1 1.8369701465288538e-16 -1.1248198179158957e-32
vn -0.9238795305660377 -0.3826834370613369 2.3432603017245014e-17
vn -0.7071067811865476 -0.7071067811865476 4.329780375814312e-17
vn -0.3826834370613369 -0.9238795305660377 5.657130722319695e-17
vn -2.4492937051703357e-16 -1 6.123234262925839e-17
vn 0 6.123234262925839e-17 1
vn 0 6.123234262925839e-17 1
vn 0 6.123234262925839e-17 1
vn 0 6.123234262925839e-17 1
vn 0 6.123234262925839e-17 1
vn 0 6.123234262925839e-17 1
vn 0 6.123234262925839e-17 1
vn 0 6.123234262925839e-17 1
vn 0 6.123234262925839e-17 1
vn 0 6.123234262925839e-17 1
vn 0 6.123234262925839e-17 1
vn 0 6.123234262925839e-17 1
vn 0 6.123234262925839e-17 1
vn 0 6.123234262925839e-17 1
vn 0 6.123234262925839e-17 1
vn 0 6.123234262925839e-17 1
vn 0 6.123234262925839e-17 1
vn 0 6.123234262925839e-17 1
vn 0 6.123234262925839e-17 1
vn 0 6.123234262925839e-17 1
vn 0 6.123234262925839e-17 1
vn 0 6.123234262925839e-17 1
vn 0 6.123234262925839e-17 1
vn 0 6.123234262925839e-17 1
vn 0 6.123234262925839e-17 1
vn 0 6.123234262925839e-17 1
vn 0 6.123234262925839e-17 1
vn 0 6.123234262925839e-17 1
vn 0 6.123234262925839e-17 1
vn 0 6.123234262925839e-17 1
vn 0 6.123234262925839e-17 1
vn 0 6.123234262925839e-17 1
vn 0 6.123234262925839e-17 1
vn 0 -6.123234262925839e-17 -1
vn 0 -6.123234262925839e-17 -1
vn 0 -6.123234262925839e-17 -1
vn 0 -6.123234262925839e-17 -1
vn 0 -6.123234262925839e-17 -1
vn 0 -6.123234262925839e-17 -1
vn 0 -6.123234262925839e-17 -1
vn 0 -6.123234262925839e-17 -1
vn 0 -6.123234262925839e-17 -1
vn 0 -6.123234262925839e-17 -1
vn 0 -6.123234262925839e-17 -1
vn 0 -6.123234262925839e-17 -1
vn 0 -6.123234262925839e-17 -1
vn 0 -6.123234262925839e-17 -1
vn 0 -6.123234262925839e-17 -1
vn 0 -6.123234262925839e-17 -1
vn 0 -6.123234262925839e-17 -1
vn 0 -6.123234262925839e-17 -1
vn 0 -6.123234262925839e-17 -1
vn 0 -6.123234262925839e-17 -1
vn 0 -6.123234262925839e-17 -1
vn 0 -6.123234262925839e-17 -1
vn 0 -6.123234262925839e-17 -1
vn 0 -6.123234262925839e-17 -1
vn 0 -6.123234262925839e-17 -1
vn 0 -6.123234262925839e-17 -1
vn 0 -6.123234262925839e-17 -1
vn 0 -6.123234262925839e-17 -1
vn 0 -6.123234262925839e-17 -1
vn 0 -6.123234262925839e-17 -1
vn 0 -6.123234262925839e-17 -1
vn 0 -6.123234262925839e-17 -1
vn 0 -6.123234262925839e-17 -1
f 1/1/1 18/18/18 2/2/2
f 18/18/18 19/19/19 2/2/2
f 2/2/2 19/19/19 3/3/3
f 19/19/19 20/20/20 3/3/3
f 3/3/3 20/20/20 4/4/4
f 20/20/20 21/21/21 4/4/4
f 4/4/4 21/21/21 5/5/5
f 21/21/21 22/22/22 5/5/5
f 5/5/5 22/22/22 6/6/6
f 22/22/22 23/23/23 6/6/6
f 6/6/6 23/23/23 7/7/7
f 23/23/23 24/24/24 7/7/7
f 7/7/7 24/24/24 8/8/8
f 24/24/24 25/25/25 8/8/8
f 8/8/8 25/25/25 9/9/9
f 25/25/25 26/26/26 9/9/9
f 9/9/9 26/26/26 10/10/10
f 26/26/26 27/27/27 10/10/10
f 10/10/10 27/27/27 11/11/11
f 27/27/27 28/28/28 11/11/11
f 11/11/11 28/28/28 12/12/12
f 28/28/28 29/29/29 12/12/12
f 12/12/12 29/29/29 13/13/13
f 29/29/29 30/30/30 13/13/13
f 13/13/13 30/30/30 14/14/14
f 30/30/30 31/31/31 14/14/14
f 14/14/14 31/31/31 15/15/15
f 31/31/31 32/32/32 15/15/15
f 15/15/15 32/32/32 16/16/16
f 32/32/32 33/33/33 16/16/16
f 16/16/16 33/33/33 17/17/17
f 33/33/33 34/34/34 17/17/17
f 51/51/51 52/52/52 35/35/35
f 52/52/52 53/53/53 36/36/36
f 53/53/53 54/54/54 37/37/37
f 54/54/54 55/55/55 38/38/38
f 55/55/55 56/56/56 39/39/39
f 56/56/56 57/57/57 40/40/40
f 57/57/57 58/58/58 41/41/41
f 58/58/58 59/59/59 42/42/42
f 59/59/59 60/60/60 43/43/43
f 60/60/60 61/61/61 44/44/44
f 61/61/61 62/62/62 45/45/45
f 62/62/62 63/63/63 46/46/46
f 63/63/63 64/64/64 47/47/47
f 64/64/64 65/65/65 48/48/48
f 65/65/65 66/66/66 49/49/49
f 66/66/66 67/67/67 50/50/50
f 85/85/85 84/84/84 68/68/68
f 86/86/86 85/85/85 69/69/69
f 87/87/87 86/86/86 70/70/70
f 88/88/88 87/87/87 71/71/71
f 89/89/89 88/88/88 72/72/72
f 90/90/90 89/89/89 73/73/73
f 91/91/91 90/90/90 74/74/74
f 92/92/92 91/91/91 75/75/75
f 93/93/93 92/92/92 76/76/76
f 94/94/94 93/93/93 77/77/77
f 95/95/95 94/94/94 78/78/78
f 96/96/96 95/95/95 79/79/79
f 97/97/97 96/96/96 80/80/80
f 98/98/98 97/97/97 81/81/81
f 99/99/99 98/98/98 82/82/82
f 100/100/100 99/99/99 83/83/83
o clamp_collar
usemtl shaft_steel
v 0 -0.019999999552965164 0.04000000005215407
v 0.003901806427165866 -0.01961570605635643 0.04000000005215407
v 0.007653668522834778 -0.01847759075462818 0.04000000005215407
v 0.011111404746770859 -0.01662939228117466 0.04000000005215407
v 0.01414213515818119 -0.01414213515818119 0.04000000005215407
v 0.01662939228117466 -0.011111404746770859 0.04000000005215407
v 0.01847759075462818 -0.007653668522834778 0.04000000005215407
v 0.01961570605635643 -0.003901806427165866 0.04000000005215407
v 0.019999999552965164 -8.57252763722393e-19 0.04000000005215407
v 0.01961570605635643 0.003901806427165866 0.04000000005215407
v 0.01847759075462818 0.007653668522834778 0.04000000005215407
v 0.01662939228117466 0.011111404746770859 0.04000000005215407
v 0.01414213515818119 0.01414213515818119 0.04000000005215407
v 0.011111404746770859 0.01662939228117466 0.04000000005215407
v 0.007653668522834778 0.01847759075462818 0.04000000005215407
v 0.003901806427165866 0.01961570605635643 0.04000000005215407
v 2.449293581093244e-18 0.019999999552965164 0.04000000005215407
v -0.003901806427165866 0.01961570605635643 0.04000000005215407
v -0.007653668522834778 0.01847759075462818 0.04000000005215407
v -0.011111404746770859 0.01662939228117466 0.04000000005215407
v -0.01414213515818119 0.01414213515818119 0.04000000005215407
v -0.01662939228117466 0.011111404746770859 0.04000000005215407
v -0.01847759075462818 0.007653668522834778 0.04000000005215407
v -0.01961570605635643 0.003901806427165866 0.04000000005215407
v -0.019999999552965164 4.041334398464095e-18 0.04000000005215407
v -0.01961570605635643 -0.003901806427165866 0.04000000005215407
v -0.01847759075462818 -0.007653668522834778 0.04000000005215407
v -0.01662939228117466 -0.011111404746770859 0.04000000005215407
v -0.01414213515818119 -0.01414213515818119 0.04000000005215407
v -0.011111404746770859 -0.01662939228117466 0.04000000005215407
v -0.007653668522834778 -0.01847759075462818 0.04000000005215407
v -0.003901806427165866 -0.01961570605635643 0.04000000005215407
v -4.898587162186488e-18 -0.019999999552965164 0.04000000005215407
v 0 -0.019999999552965164 0.027999999947845938
v 0.003901806427165866 -0.01961570605635643 0.027999999947845938
v 0.007653668522834778 -0.01847759075462818 0.027999999947845938
v 0.011111404746770859 -0.01662939228117466 0.027999999947845938
v 0.01414213515818119 -0.01414213515818119 0.027999999947845938
v 0.01662939228117466 -0.011111404746770859 0.027999999947845938
v 0.01847759075462818 -0.007653668522834778 0.027999999947845938
v 0.01961570605635643 -0.003901806427165866 0.027999999947845938
v 0.019999999552965164 -1.5920408173708508e-18 0.027999999947845938
v 0.01961570605635643 0.003901806427165866 0.027999999947845938
v 0.01847759075462818 0.007653668522834778 0.027999999947845938
v 0.01662939228117466 0.011111404746770859 0.027999999947845938
v 0.01414213515818119 0.01414213515818119 0.027999999947845938
v 0.011111404746770859 0.01662939228117466 0.027999999947845938
v 0.007653668522834778 0.01847759075462818 0.027999999947845938
v 0.003901806427165866 0.01961570605635643 0.027999999947845938
v 2.449293581093244e-18 0.019999999552965164 0.027999999947845938
v -0.003901806427165866 0.01961570605635643 0.027999999947845938
v -0.007653668522834778 0.01847759075462818 0.027999999947845938
v -0.011111404746770859 0.01662939228117466 0.027999999947845938
v -0.01414213515818119 0.01414213515818119 0.027999999947845938
v -0.01662939228117466 0.011111404746770859 0.027999999947845938
v -0.01847759075462818 0.007653668522834778 0.027999999947845938
v -0.01961570605635643 0.003901806427165866 0.027999999947845938
v -0.019999999552965164 3.306546344815637e-18 0.027999999947845938
v -0.01961570605635643 -0.003901806427165866 0.027999999947845938
v -0.01847759075462818 -0.007653668522834778 0.027999999947845938
v -0.01662939228117466 -0.011111404746770859 0.027999999947845938
v -0.01414213515818119 -0.01414213515818119 0.027999999947845938
v -0.011111404746770859 -0.01662939228117466 0.027999999947845938
v -0.007653668522834778 -0.01847759075462818 0.027999999947845938
v -0.003901806427165866 -0.01961570605635643 0.027999999947845938
v -4.898587162186488e-18 -0.019999999552965164 0.027999999947845938
v 0 3.6739405267362306e-19 0.04000000005215407
v 0 3.6739405267362306e-19 0.04000000005215407
v 0 3.6739405267362306e-19 0.04000000005215407
v 0 3.6739405267362306e-19 0.04000000005215407
v 0 3.6739405267362306e-19 0.04000000005215407
v 0 3.6739405267362306e-19 0.04000000005215407
v 0 3.6739405267362306e-19 0.04000000005215407
v 0 3.6739405267362306e-19 0.04000000005215407
v 0 3.6739405267362306e-19 0.04000000005215407
v 0 3.6739405267362306e-19 0.04000000005215407
v 0 3.6739405267362306e-19 0.04000000005215407
v 0 3.6739405267362306e-19 0.04000000005215407
v 0 3.6739405267362306e-19 0.04000000005215407
v 0 3.6739405267362306e-19 0.04000000005215407
v 0 3.6739405267362306e-19 0.04000000005215407
v 0 3.6739405267362306e-19 0.04000000005215407
v 0 3.6739405267362306e-19 0.04000000005215407
v 0 3.6739405267362306e-19 0.04000000005215407
v 0 3.6739405267362306e-19 0.04000000005215407
v 0 3.6739405267362306e-19 0.04000000005215407
v 0 3.6739405267362306e-19 0.04000000005215407
v 0 3.6739405267362306e-19 0.04000000005215407
v 0 3.6739405267362306e-19 0.04000000005215407
v 0 3.6739405267362306e-19 0.04000000005215407
v 0 3.6739405267362306e-19 0.04000000005215407
v 0 3.6739405267362306e-19 0.04000000005215407
v 0 3.6739405267362306e-19 0.04000000005215407
v 0 3.6739405267362306e-19 0.04000000005215407
v 0 3.6739405267362306e-19 0.04000000005215407
v 0 3.6739405267362306e-19 0.04000000005215407
v 0 3.6739405267362306e-19 0.04000000005215407
v 0 3.6739405267362306e-19 0.04000000005215407
v 0 -0.019999999552965164 0.04000000005215407
v 0.003901806427165866 -0.01961570605635643 0.04000000005215407
v 0.007653668522834778 -0.01847759075462818 0.04000000005215407
v 0.011111404746770859 -0.01662939228117466 0.04000000005215407
v 0.01414213515818119 -0.01414213515818119 0.04000000005215407
v 0.01662939228117466 -0.011111404746770859 0.04000000005215407
v 0.01847759075462818 -0.007653668522834778 0.04000000005215407
v 0.01961570605635643 -0.003901806427165866 0.04000000005215407
v 0.019999999552965164 -8.57252763722393e-19 0.04000000005215407
v 0.01961570605635643 0.003901806427165866 0.04000000005215407
v 0.01847759075462818 0.007653668522834778 0.04000000005215407
v 0.01662939228117466 0.011111404746770859 0.04000000005215407
v 0.01414213515818119 0.01414213515818119 0.04000000005215407
v 0.011111404746770859 0.01662939228117466 0.04000000005215407
v 0.007653668522834778 0.01847759075462818 0.04000000005215407
v 0.003901806427165866 0.01961570605635643 0.04000000005215407
v 2.449293581093244e-18 0.019999999552965164 0.04000000005215407
v -0.003901806427165866 0.01961570605635643 0.04000000005215407
v -0.007653668522834778 0.01847759075462818 0.04000000005215407
v -0.011111404746770859 0.01662939228117466 0.04000000005215407
v -0.01414213515818119 0.01414213515818119 0.04000000005215407
v -0.01662939228117466 0.011111404746770859 0.04000000005215407
v -0.01847759075462818 0.007653668522834778 0.04000000005215407
v -0.01961570605635643 0.003901806427165866 0.04000000005215407
v -0.019999999552965164 4.041334398464095e-18 0.04000000005215407
v -0.01961570605635643 -0.003901806427165866 0.04000000005215407
v -0.01847759075462818 -0.007653668522834778 0.04000000005215407
v -0.01662939228117466 -0.011111404746770859 0.04000000005215407
v -0.01414213515818119 -0.01414213515818119 0.04000000005215407
v -0.011111404746770859 -0.01662939228117466 0.04000000005215407
v -0.007653668522834778 -0.01847759075462818 0.04000000005215407
v -0.003901806427165866 -0.01961570605635643 0.04000000005215407
v -4.898587162186488e-18 -0.019999999552965164 0.04000000005215407
v 0 -3.6739405267362306e-19 0.027999999947845938
v 0 -3.6739405267362306e-19 0.027999999947845938
v 0 -3.6739405267362306e-19 0.027999999947845938
v 0 -3.6739405267362306e-19 0.027999999947845938
v 0 -3.6739405267362306e-19 0.027999999947845938
v 0 -3.6739405267362306e-19 0.027999999947845938
v 0 -3.6739405267362306e-19 0.027999999947845938
v 0 -3.6739405267362306e-19 0.027999999947845938
v 0 -3.6739405267362306e-19 0.027999999947845938
v 0 -3.6739405267362306e-19 0.027999999947845938
v 0 -3.6739405267362306e-19 0.027999999947845938
v 0 -3.6739405267362306e-19 0.027999999947845938
v 0 -3.6739405267362306e-19 0.027999999947845938
v 0 -3.6739405267362306e-19 0.027999999947845938
v 0 -3.6739405267362306e-19 0.027999999947845938
v 0 -3.6739405267362306e-19 0.027999999947845938
v 0 -3.6739405267362306e-19 0.027999999947845938
v 0 -3.6739405267362306e-19 0.027999999947845938
v 0 -3.6739405267362306e-19 0.027999999947845938
v 0 -3.6739405267362306e-19 0.027999999947845938
v 0 -3.6739405267362306e-19 0.027999999947845938
v 0 -3.6739405267362306e-19 0.027999999947845938
v 0 -3.6739405267362306e-19 0.027999999947845938
v 0 -3.6739405267362306e-19 0.027999999947845938
v 0 -3.6739405267362306e-19 0.027999999947845938
v 0 -3.6739405267362306e-19 0.027999999947845938
v 0 -3.6739405267362306e-19 0.027999999947845938
v 0 -3.6739405267362306e-19 0.027999999947845938
v 0 -3.6739405267362306e-19 0.027999999947845938
v 0 -3.6739405267362306e-19 0.027999999947845938
v 0 -3.6739405267362306e-19 0.027999999947845938
v 0 -3.6739405267362306e-19 0.027999999947845938
v 0 -0.019999999552965164 0.027999999947845938
v 0.003901806427165866 -0.01961570605635643 0.027999999947845938
v 0.007653668522834778 -0.01847759075462818 0.027999999947845938
v 0.011111404746770859 -0.01662939228117466 0.027999999947845938
v 0.01414213515818119 -0.01414213515818119 0.027999999947845938
v 0.01662939228117466 -0.011111404746770859 0.027999999947845938
v 0.01847759075462818 -0.007653668522834778 0.027999999947845938
v 0.01961570605635643 -0.003901806427165866 0.027999999947845938
v 0.019999999552965164 -1.5920408173708508e-18 0.027999999947845938
v 0.01961570605635643 0.003901806427165866 0.027999999947845938
v 0.01847759075462818 0.007653668522834778 0.027999999947845938
v 0.01662939228117466 0.011111404746770859 0.027999999947845938
v 0.01414213515818119 0.01414213515818119 0.027999999947845938
v 0.011111404746770859 0.01662939228117466 0.027999999947845938
v 0.007653668522834778 0.01847759075462818 0.027999999947845938
v 0.003901806427165866 0.01961570605635643 0.027999999947845938
v 2.449293581093244e-18 0.019999999552965164 0.027999999947845938
v -0.003901806427165866 0.01961570605635643 0.027999999947845938
v -0.007653668522834778 0.01847759075462818 0.027999999947845938
v -0.011111404746770859 0.01662939228117466 0.027999999947845938
v -0.01414213515818119 0.01414213515818119 0.027999999947845938
v -0.01662939228117466 0.011111404746770859 0.027999999947845938
v -0.01847759075462818 0.007653668522834778 0.027999999947845938
v -0.01961570605635643 0.003901806427165866 0.027999999947845938
v -0.019999999552965164 3.306546344815637e-18 0.027999999947845938
v -0.01961570605635643 -0.003901806427165866 0.027999999947845938
v -0.01847759075462818 -0.007653668522834778 0.027999999947845938
v -0.01662939228117466 -0.011111404746770859 0.027999999947845938
v -0.01414213515818119 -0.01414213515818119 0.027999999947845938
v -0.011111404746770859 -0.01662939228117466 0.027999999947845938
v -0.007653668522834778 -0.01847759075462818 0.027999999947845938
v -0.003901806427165866 -0.01961570605635643 0.027999999947845938
v -4.898587162186488e-18 -0.019999999552965164 0.027999999947845938
vt 0 1
vt 0.03125 1
vt 0.0625 1
vt 0.09375 1
vt 0.125 1
vt 0.15625 1
vt 0.1875 1
vt 0.21875 1
vt 0.25 1
vt 0.28125 1
vt 0.3125 1
vt 0.34375 1
vt 0.375 1
vt 0.40625 1
vt 0.4375 1
vt 0.46875 1
vt 0.5 1
vt 0.53125 1
vt 0.5625 1
vt 0.59375 1
vt 0.625 1
vt 0.65625 1
vt 0.6875 1
vt 0.71875 1
vt 0.75 1
vt 0.78125 1
vt 0.8125 1
vt 0.84375 1
vt 0.875 1
vt 0.90625 1
vt 0.9375 1
vt 0.96875 1
vt 1 1
vt 0 0
vt 0.03125 0
vt 0.0625 0
vt 0.09375 0
vt 0.125 0
vt 0.15625 0
vt 0.1875 0
vt 0.21875 0
vt 0.25 0
vt 0.28125 0
vt 0.3125 0
vt 0.34375 0
vt 0.375 0
vt 0.40625 0
vt 0.4375 0
vt 0.46875 0
vt 0.5 0
vt 0.53125 0
vt 0.5625 0
vt 0.59375 0
vt 0.625 0
vt 0.65625 0
vt 0.6875 0
vt 0.71875 0
vt 0.75 0
vt 0.78125 0
vt 0.8125 0
vt 0.84375 0
vt 0.875 0
vt 0.90625 0
vt 0.9375 0
vt 0.96875 0
vt 1 0
vt 0.5 0.5
vt 0.5 0.5
vt 0.5 0.5
vt 0.5 0.5
vt 0.5 0.5
vt 0.5 0.5
vt 0.5 0.5
vt 0.5 0.5
vt 0.5 0.5
vt 0.5 0.5
vt 0.5 0.5
vt 0.5 0.5
vt 0.5 0.5
vt 0.5 0.5
vt 0.5 0.5
vt 0.5 0.5
vt 0.5 0.5
vt 0.5 0.5
vt 0.5 0.5
vt 0.5 0.5
vt 0.5 0.5
vt 0.5 0.5
vt 0.5 0.5
vt 0.5 0.5
vt 0.5 0.5
vt 0.5 0.5
vt 0.5 0.5
vt 0.5 0.5
vt 0.5 0.5
vt 0.5 0.5
vt 0.5 0.5
vt 0.5 0.5
vt 1 0.5
vt 0.9903926253318787 0.5975451469421387
vt 0.9619397521018982 0.6913416981697083
vt 0.9157348275184631 0.7777851223945618
vt 0.8535534143447876 0.8535534143447876
vt 0.7777851223945618 0.9157348275184631
vt 0.6913416981697083 0.9619397521018982
vt 0.5975451469421387 0.9903926253318787
vt 0.5 1
vt 0.40245485305786133 0.9903926253318787
vt 0.30865827202796936 0.9619397521018982
vt 0.22221487760543823 0.9157348275184631
vt 0.1464466154575348 0.8535534143447876
vt 0.08426519483327866 0.7777851223945618
vt 0.03806023299694061 0.6913416981697083
vt 0.009607359766960144 0.5975451469421387
vt 0 0.5
vt 0.009607359766960144 0.40245485305786133
vt 0.03806023299694061 0.30865827202796936
vt 0.08426519483327866 0.22221487760543823
vt 0.1464466154575348 0.1464466154575348
vt 0.22221487760543823 0.08426519483327866
vt 0.30865827202796936 0.03806023299694061
vt 0.40245485305786133 0.009607359766960144
vt 0.5 0
vt 0.5975451469421387 0.009607359766960144
vt 0.6913416981697083 0.03806023299694061
vt 0.7777851223945618 0.08426519483327866
vt 0.8535534143447876 0.1464466154575348
vt 0.9157348275184631 0.22221487760543823
vt 0.9619397521018982 0.30865827202796936
vt 0.9903926253318787 0.40245485305786133
vt 1 0.5
vt 0.5 0.5
vt 0.5 0.5
vt 0.5 0.5
vt 0.5 0.5
vt 0.5 0.5
vt 0.5 0.5
vt 0.5 0.5
vt 0.5 0.5
vt 0.5 0.5
vt 0.5 0.5
vt 0.5 0.5
vt 0.5 0.5
vt 0.5 0.5
vt 0.5 0.5
vt 0.5 0.5
vt 0.5 0.5
vt 0.5 0.5
vt 0.5 0.5
vt 0.5 0.5
vt 0.5 0.5
vt 0.5 0.5
vt 0.5 0.5
vt 0.5 0.5
vt 0.5 0.5
vt 0.5 0.5
vt 0.5 0.5
vt 0.5 0.5
vt 0.5 0.5
vt 0.5 0.5
vt 0.5 0.5
vt 0.5 0.5
vt 0.5 0.5
vt 1 0.5
vt 0.9903926253318787 0.40245485305786133
vt 0.9619397521018982 0.30865827202796936
vt 0.9157348275184631 0.22221487760543823
vt 0.8535534143447876 0.1464466154575348
vt 0.7777851223945618 0.08426519483327866
vt 0.6913416981697083 0.03806023299694061
vt 0.5975451469421387 0.009607359766960144
vt 0.5 0
vt 0.40245485305786133 0.009607359766960144
vt 0.30865827202796936 0.03806023299694061
vt 0.22221487760543823 0.08426519483327866
vt 0.1464466154575348 0.1464466154575348
vt 0.08426519483327866 0.22221487760543823
vt 0.03806023299694061 0.30865827202796936
vt 0.009607359766960144 0.40245485305786133
vt 0 0.5
vt 0.009607359766960144 0.5975451469421387
vt 0.03806023299694061 0.6913416981697083
vt 0.08426519483327866 0.7777851223945618
vt 0.1464466154575348 0.8535534143447876
vt 0.22221487760543823 0.9157348275184631
vt 0.30865827202796936 0.9619397521018982
vt 0.40245485305786133 0.9903926253318787
vt 0.5 1
vt 0.5975451469421387 0.9903926253318787
vt 0.6913416981697083 0.9619397521018982
vt 0.7777851223945618 0.9157348275184631
vt 0.8535534143447876 0.8535534143447876
vt 0.9157348275184631 0.7777851223945618
vt 0.9619397521018982 0.6913416981697083
vt 0.9903926253318787 0.5975451469421387
vt 1 0.5
vn 0 -1 6.123234262925839e-17
vn 0.19509032931342324 -0.9807852789517083 6.005578251043524e-17
vn 0.3826834370613369 -0.9238795305660377 5.657130722319695e-17
vn 0.555570248949409 -0.8314696016585884 5.0912828117547274e-17
vn 0.7071067811865476 -0.7071067811865476 4.329780375814312e-17
vn 0.8314696016585884 -0.555570248949409 3.401886504589378e-17
vn 0.9238795305660377 -0.3826834370613369 2.3432603017245014e-17
vn 0.9807852789517083 -0.19509032931342324 1.1945837521388368e-17
vn 1 -6.123234262925839e-17 3.74939976039497e-33
vn 0.9807852789517083 0.19509032931342324 -1.1945837521388368e-17
vn 0.9238795305660377 0.3826834370613369 -2.3432603017245014e-17
vn 0.8314696016585884 0.555570248949409 -3.401886504589378e-17
vn 0.7071067811865476 0.7071067811865476 -4.329780375814312e-17
vn 0.555570248949409 0.8314696016585884 -5.0912828117547274e-17
vn 0.3826834370613369 0.9238795305660377 -5.657130722319695e-17
vn 0.19509032931342324 0.9807852789517083 -6.005578251043524e-17
vn 1.2246468525851679e-16 1 -6.123234262925839e-17
vn -0.19509032931342324 0.9807852789517083 -6.005578251043524e-17
vn -0.3826834370613369 0.9238795305660377 -5.657130722319695e-17
vn -0.555570248949409 0.8314696016585884 -5.0912828117547274e-17
vn -0.7071067811865476 0.7071067811865476 -4.329780375814312e-17
vn -0.8314696016585884 0.555570248949409 -3.401886504589378e-17
vn -0.9238795305660377 0.3826834370613369 -2.3432603017245014e-17
vn -0.9807852789517083 0.19509032931342324 -1.1945837521388368e-17
vn -1 1.8369701465288538e-16 -1.1248198179158957e-32
vn -0.9807852789517083 -0.19509032931342324 1.1945837521388368e-17
vn -0.9238795305660377 -0.3826834370613369 2.3432603017245014e-17
vn -0.8314696016585884 -0.555570248949409 3.401886504589378e-17
vn -0.7071067811865476 -0.7071067811865476 4.329780375814312e-17
vn -0.555570248949409 -0.8314696016585884 5.0912828117547274e-17
vn -0.3826834370613369 -0.9238795305660377 5.657130722319695e-17
vn -0.19509032931342324 -0.9807852789517083 6.005578251043524e-17
vn -2.4492937051703357e-16 -1 6.123234262925839e-17
vn 0 -1 6.123234262925839e-17
vn 0.19509032931342324 -0.9807852789517083 6.005578251043524e-17
vn 0.3826834370613369 -0.9238795305660377 5.657130722319695e-17
vn 0.555570248949409 -0.8314696016585884 5.0912828117547274e-17
vn 0.7071067811865476 -0.7071067811865476 4.329780375814312e-17
vn 0.8314696016585884 -0.555570248949409 3.401886504589378e-17
vn 0.9238795305660377 -0.3826834370613369 2.3432603017245014e-17
vn 0.9807852789517083 -0.19509032931342324 1.1945837521388368e-17
vn 1 -6.123234262925839e-17 3.74939976039497e-33
vn 0.9807852789517083 0.19509032931342324 -1.1945837521388368e-17
vn 0.9238795305660377 0.3826834370613369 -2.3432603017245014e-17
vn 0.8314696016585884 0.555570248949409 -3.401886504589378e-17
vn 0.7071067811865476 0.7071067811865476 -4.329780375814312e-17
vn 0.555570248949409 0.8314696016585884 -5.0912828117547274e-17
vn 0.3826834370613369 0.9238795305660377 -5.657130722319695e-17
vn 0.19509032931342324 0.9807852789517083 -6.005578251043524e-17
vn 1.2246468525851679e-16 1 -6.123234262925839e-17
vn -0.19509032931342324 0.9807852789517083 -6.005578251043524e-17
vn -0.3826834370613369 0.9238795305660377 -5.657130722319695e-17
vn -0.555570248949409 0.8314696016585884 -5.0912828117547274e-17
vn -0.7071067811865476 0.7071067811865476 -4.329780375814312e-17
vn -0.8314696016585884 0.555570248949409 -3.401886504589378e-17
vn -0.9238795305660377 0.3826834370613369 -2.3432603017245014e-17
vn -0.9807852789517083 0.19509032931342324 -1.1945837521388368e-17
vn -1 1.8369701465288538e-16 -1.1248198179158957e-32
vn -0.9807852789517083 -0.19509032931342324 1.1945837521388368e-17
vn -0.9238795305660377 -0.3826834370613369 2.3432603017245014e-17
vn -0.8314696016585884 -0.555570248949409 3.401886504589378e-17
vn -0.7071067811865476 -0.7071067811865476 4.329780375814312e-17
vn -0.555570248949409 -0.8314696016585884 5.0912828117547274e-17
vn -0.3826834370613369 -0.9238795305660377 5.657130722319695e-17
vn -0.19509032931342324 -0.9807852789517083 6.005578251043524e-17
vn -2.4492937051703357e-16 -1 6.123234262925839e-17
vn 0 6.123234262925839e-17 1
vn 0 6.123234262925839e-17 1
vn 0 6.123234262925839e-17 1
vn 0 6.123234262925839e-17 1
vn 0 6.123234262925839e-17 1
vn 0 6.123234262925839e-17 1
vn 0 6.123234262925839e-17 1
vn 0 6.123234262925839e-17 1
vn 0 6.123234262925839e-17 1
vn 0 6.123234262925839e-17 1
vn 0 6.123234262925839e-17 1
vn 0 6.123234262925839e-17 1
vn 0 6.123234262925839e-17 1
vn 0 6.123234262925839e-17 1
vn 0 6.123234262925839e-17 1
vn 0 6.123234262925839e-17 1
vn 0 6.123234262925839e-17 1
vn 0 6.123234262925839e-17 1
vn 0 6.123234262925839e-17 1
vn 0 6.123234262925839e-17 1
vn 0 6.123234262925839e-17 1
vn 0 6.123234262925839e-17 1
vn 0 6.123234262925839e-17 1
vn 0 6.123234262925839e-17 1
vn 0 6.123234262925839e-17 1
vn 0 6.123234262925839e-17 1
vn 0 6.123234262925839e-17 1
vn 0 6.123234262925839e-17 1
vn 0 6.123234262925839e-17 1
vn 0 6.123234262925839e-17 1
vn 0 6.123234262925839e-17 1
vn 0 6.123234262925839e-17 1
vn 0 6.123234262925839e-17 1
vn 0 6.123234262925839e-17 1
vn 0 6.123234262925839e-17 1
vn 0 6.123234262925839e-17 1
vn 0 6.123234262925839e-17 1
vn 0 6.123234262925839e-17 1
vn 0 6.123234262925839e-17 1
vn 0 6.123234262925839e-17 1
vn 0 6.123234262925839e-17 1
vn 0 6.123234262925839e-17 1
vn 0 6.123234262925839e-17 1
vn 0 6.123234262925839e-17 1
vn 0 6.123234262925839e-17 1
vn 0 6.123234262925839e-17 1
vn 0 6.123234262925839e-17 1
vn 0 6.123234262925839e-17 1
vn 0 6.123234262925839e-17 1
vn 0 6.123234262925839e-17 1
vn 0 6.123234262925839e-17 1
vn 0 6.123234262925839e-17 1
vn 0 6.123234262925839e-17 1
vn 0 6.123234262925839e-17 1
vn 0 6.123234262925839e-17 1
vn 0 6.123234262925839e-17 1
vn 0 6.123234262925839e-17 1
vn 0 6.123234262925839e-17 1
vn 0 6.123234262925839e-17 1
vn 0 6.123234262925839e-17 1
vn 0 6.123234262925839e-17 1
vn 0 6.123234262925839e-17 1
vn 0 6.123234262925839e-17 1
vn 0 6.123234262925839e-17 1
vn 0 6.123234262925839e-17 1
vn 0 -6.123234262925839e-17 -1
vn 0 -6.123234262925839e-17 -1
vn 0 -6.123234262925839e-17 -1
vn 0 -6.123234262925839e-17 -1
vn 0 -6.123234262925839e-17 -1
vn 0 -6.123234262925839e-17 -1
vn 0 -6.123234262925839e-17 -1
vn 0 -6.123234262925839e-17 -1
vn 0 -6.123234262925839e-17 -1
vn 0 -6.123234262925839e-17 -1
vn 0 -6.123234262925839e-17 -1
vn 0 -6.123234262925839e-17 -1
vn 0 -6.123234262925839e-17 -1
vn 0 -6.123234262925839e-17 -1
vn 0 -6.123234262925839e-17 -1
vn 0 -6.123234262925839e-17 -1
vn 0 -6.123234262925839e-17 -1
vn 0 -6.123234262925839e-17 -1
vn 0 -6.123234262925839e-17 -1
vn 0 -6.123234262925839e-17 -1
vn 0 -6.123234262925839e-17 -1
vn 0 -6.123234262925839e-17 -1
vn 0 -6.123234262925839e-17 -1
vn 0 -6.123234262925839e-17 -1
vn 0 -6.123234262925839e-17 -1
vn 0 -6.123234262925839e-17 -1
vn 0 -6.123234262925839e-17 -1
vn 0 -6.123234262925839e-17 -1
vn 0 -6.123234262925839e-17 -1
vn 0 -6.123234262925839e-17 -1
vn 0 -6.123234262925839e-17 -1
vn 0 -6.123234262925839e-17 -1
vn 0 -6.123234262925839e-17 -1
vn 0 -6.123234262925839e-17 -1
vn 0 -6.123234262925839e-17 -1
vn 0 -6.123234262925839e-17 -1
vn 0 -6.123234262925839e-17 -1
vn 0 -6.123234262925839e-17 -1
vn 0 -6.123234262925839e-17 -1
vn 0 -6.123234262925839e-17 -1
vn 0 -6.123234262925839e-17 -1
vn 0 -6.123234262925839e-17 -1
vn 0 -6.123234262925839e-17 -1
vn 0 -6.123234262925839e-17 -1
vn 0 -6.123234262925839e-17 -1
vn 0 -6.123234262925839e-17 -1
vn 0 -6.123234262925839e-17 -1
vn 0 -6.123234262925839e-17 -1
vn 0 -6.123234262925839e-17 -1
vn 0 -6.123234262925839e-17 -1
vn 0 -6.123234262925839e-17 -1
vn 0 -6.123234262925839e-17 -1
vn 0 -6.123234262925839e-17 -1
vn 0 -6.123234262925839e-17 -1
vn 0 -6.123234262925839e-17 -1
vn 0 -6.123234262925839e-17 -1
vn 0 -6.123234262925839e-17 -1
vn 0 -6.123234262925839e-17 -1
vn 0 -6.123234262925839e-17 -1
vn 0 -6.123234262925839e-17 -1
vn 0 -6.123234262925839e-17 -1
vn 0 -6.123234262925839e-17 -1
vn 0 -6.123234262925839e-17 -1
vn 0 -6.123234262925839e-17 -1
vn 0 -6.123234262925839e-17 -1
f 101/101/101 134/134/134 102/102/102
f 134/134/134 135/135/135 102/102/102
f 102/102/102 135/135/135 103/103/103
f 135/135/135 136/136/136 103/103/103
f 103/103/103 136/136/136 104/104/104
f 136/136/136 137/137/137 104/104/104
f 104/104/104 137/137/137 105/105/105
f 137/137/137 138/138/138 105/105/105
f 105/105/105 138/138/138 106/106/106
f 138/138/138 139/139/139 106/106/106
f 106/106/106 139/139/139 107/107/107
f 139/139/139 140/140/140 107/107/107
f 107/107/107 140/140/140 108/108/108
f 140/140/140 141/141/141 108/108/108
f 108/108/108 141/141/141 109/109/109
f 141/141/141 142/142/142 109/109/109
f 109/109/109 142/142/142 110/110/110
f 142/142/142 143/143/143 110/110/110
f 110/110/110 143/143/143 111/111/111
f 143/143/143 144/144/144 111/111/111
f 111/111/111 144/144/144 112/112/112
f 144/144/144 145/145/145 112/112/112
f 112/112/112 145/145/145 113/113/113
f 145/145/145 146/146/146 113/113/113
f 113/113/113 146/146/146 114/114/114
f 146/146/146 147/147/147 114/114/114
f 114/114/114 147/147/147 115/115/115
f 147/147/147 148/148/148 115/115/115
f 115/115/115 148/148/148 116/116/116
f 148/148/148 149/149/149 116/116/116
f 116/116/116 149/149/149 117/117/117
f 149/149/149 150/150/150 117/117/117
f 117/117/117 150/150/150 118/118/118
f 150/150/150 151/151/151 118/118/118
f 118/118/118 151/151/151 119/119/119
f 151/151/151 152/152/152 119/119/119
f 119/119/119 152/152/152 120/120/120
f 152/152/152 153/153/153 120/120/120
f 120/120/120 153/153/153 121/121/121
f 153/153/153 154/154/154 121/121/121
f 121/121/121 154/154/154 122/122/122
f 154/154/154 155/155/155 122/122/122
f 122/122/122 155/155/155 123/123/123
f 155/155/155 156/156/156 123/123/123
f 123/123/123 156/156/156 124/124/124
f 156/156/156 157/157/157 124/124/124
f 124/124/124 157/157/157 125/125/125
f 157/157/157 158/158/158 125/125/125
f 125/125/125 158/158/158 126/126/126
f 158/158/158 159/159/159 126/126/126
f 126/126/126 159/159/159 127/127/127
f 159/159/159 160/160/160 127/127/127
f 127/127/127 160/160/160 128/128/128
f 160/160/160 161/161/161 128/128/128
f 128/128/128 161/161/161 129/129/129
f 161/161/161 162/162/162 129/129/129
f 129/129/129 162/162/162 130/130/130
f 162/162/162 163/163/163 130/130/130
f 130/130/130 163/163/163 131/131/131
f 163/163/163 164/164/164 131/131/131
f 131/131/131 164/164/164 132/132/132
f 164/164/164 165/165/165 132/132/132
f 132/132/132 165/165/165 133/133/133
f 165/165/165 166/166/166 133/133/133
f 199/199/199 200/200/200 167/167/167
f 200/200/200 201/201/201 168/168/168
f 201/201/201 202/202/202 169/169/169
f 202/202/202 203/203/203 170/170/170
f 203/203/203 204/204/204 171/171/171
f 204/204/204 205/205/205 172/172/172
f 205/205/205 206/206/206 173/173/173
f 206/206/206 207/207/207 174/174/174
f 207/207/207 208/208/208 175/175/175
f 208/208/208 209/209/209 176/176/176
f 209/209/209 210/210/210 177/177/177
f 210/210/210 211/211/211 178/178/178
f 211/211/211 212/212/212 179/179/179
f 212/212/212 213/213/213 180/180/180
f 213/213/213 214/214/214 181/181/181
f 214/214/214 215/215/215 182/182/182
f 215/215/215 216/216/216 183/183/183
f 216/216/216 217/217/217 184/184/184
f 217/217/217 218/218/218 185/185/185
f 218/218/218 219/219/219 186/186/186
f 219/219/219 220/220/220 187/187/187
f 220/220/220 221/221/221 188/188/188
f 221/221/221 222/222/222 189/189/189
f 222/222/222 223/223/223 190/190/190
f 223/223/223 224/224/224 191/191/191
f 224/224/224 225/225/225 192/192/192
f 225/225/225 226/226/226 193/193/193
f 226/226/226 227/227/227 194/194/194
f 227/227/227 228/228/228 195/195/195
f 228/228/228 229/229/229 196/196/196
f 229/229/229 230/230/230 197/197/197
f 230/230/230 231/231/231 198/198/198
f 265/265/265 264/264/264 232/232/232
f 266/266/266 265/265/265 233/233/233
f 267/267/267 266/266/266 234/234/234
f 268/268/268 267/267/267 235/235/235
f 269/269/269 268/268/268 236/236/236
f 270/270/270 269/269/269 237/237/237
f 271/271/271 270/270/270 238/238/238
f 272/272/272 271/271/271 239/239/239
f 273/273/273 272/272/272 240/240/240
f 274/274/274 273/273/273 241/241/241
f 275/275/275 274/274/274 242/242/242
f 276/276/276 275/275/275 243/243/243
f 277/277/277 276/276/276 244/244/244
f 278/278/278 277/277/277 245/245/245
f 279/279/279 278/278/278 246/246/246
f 280/280/280 279/279/279 247/247/247
f 281/281/281 280/280/280 248/248/248
f 282/282/282 281/281/281 249/249/249
f 283/283/283 282/282/282 250/250/250
f 284/284/284 283/283/283 251/251/251
f 285/285/285 284/284/284 252/252/252
f 286/286/286 285/285/285 253/253/253
f 287/287/287 286/286/286 254/254/254
f 288/288/288 287/287/287 255/255/255
f 289/289/289 288/288/288 256/256/256
f 290/290/290 289/289/289 257/257/257
f 291/291/291 290/290/290 258/258/258
f 292/292/292 291/291/291 259/259/259
f 293/293/293 292/292/292 260/260/260
f 294/294/294 293/293/293 261/261/261
f 295/295/295 294/294/294 262/262/262
f 296/296/296 295/295/295 263/263/263
o clamp_screw
usemtl base_black
v 0 0.022500000094994903 0.03750000010803342
v 0.0013393920380622149 0.022500000094994903 0.03723357828892768
v 0.0024748737923800945 0.022500000094994903 0.0364748737923801
v 0.0032335782889276743 0.022500000094994903 0.03533939203806222
v 0.0035000001080334187 0.022500000094994903 0.034
v 0.0032335782889276743 0.022500000094994903 0.03266060796193779
v 0.0024748737923800945 0.022500000094994903 0.03152512620761991
v 0.0013393920380622149 0.022500000094994903 0.030766421711072328
v 4.286263818611965e-19 0.022500000094994903 0.030499999891966584
v -0.0013393920380622149 0.022500000094994903 0.030766421711072328
v -0.0024748737923800945 0.022500000094994903 0.03152512620761991
v -0.0032335782889276743 0.022500000094994903 0.03266060796193779
v -0.0035000001080334187 0.022500000094994903 0.034
v -0.0032335782889276743 0.022500000094994903 0.03533939203806222
v -0.0024748737923800945 0.022500000094994903 0.0364748737923801
v -0.0013393920380622149 0.022500000094994903 0.03723357828892768
v -8.57252763722393e-19 0.022500000094994903 0.03750000010803342
v 0 0.018499999905005098 0.03750000010803342
v 0.0013393920380622149 0.018499999905005098 0.03723357828892768
v 0.0024748737923800945 0.018499999905005098 0.0364748737923801
v 0.0032335782889276743 0.018499999905005098 0.03533939203806222
v 0.0035000001080334187 0.018499999905005098 0.034
v 0.0032335782889276743 0.018499999905005098 0.03266060796193779
v 0.0024748737923800945 0.018499999905005098 0.03152512620761991
v 0.0013393920380622149 0.018499999905005098 0.030766421711072328
v 4.286263818611965e-19 0.018499999905005098 0.030499999891966584
v -0.0013393920380622149 0.018499999905005098 0.030766421711072328
v -0.0024748737923800945 0.018499999905005098 0.03152512620761991
v -0.0032335782889276743 0.018499999905005098 0.03266060796193779
v -0.0035000001080334187 0.018499999905005098 0.034
v -0.0032335782889276743 0.018499999905005098 0.03533939203806222
v -0.0024748737923800945 0.018499999905005098 0.0364748737923801
v -0.0013393920380622149 0.018499999905005098 0.03723357828892768
v -8.57252763722393e-19 0.018499999905005098 0.03750000010803342
v 0 0.022500000094994903 0.034
v 0 0.022500000094994903 0.034
v 0 0.022500000094994903 0.034
v 0 0.022500000094994903 0.034
v 0 0.022500000094994903 0.034
v 0 0.022500000094994903 0.034
v 0 0.022500000094994903 0.034
v 0 0.022500000094994903 0.034
v 0 0.022500000094994903 0.034
v 0 0.022500000094994903 0.034
v 0 0.022500000094994903 0.034
v 0 0.022500000094994903 0.034
v 0 0.022500000094994903 0.034
v 0 0.022500000094994903 0.034
v 0 0.022500000094994903 0.034
v 0 0.022500000094994903 0.034
v 0 0.022500000094994903 0.03750000010803342
v 0.0013393920380622149 0.022500000094994903 0.03723357828892768
v 0.0024748737923800945 0.022500000094994903 0.0364748737923801
v 0.0032335782889276743 0.022500000094994903 0.03533939203806222
v 0.0035000001080334187 0.022500000094994903 0.034
v 0.0032335782889276743 0.022500000094994903 0.03266060796193779
v 0.0024748737923800945 0.022500000094994903 0.03152512620761991
v 0.0013393920380622149 0.022500000094994903 0.030766421711072328
v 4.286263818611965e-19 0.022500000094994903 0.030499999891966584
v -0.0013393920380622149 0.022500000094994903 0.030766421711072328
v -0.0024748737923800945 0.022500000094994903 0.03152512620761991
v -0.0032335782889276743 0.022500000094994903 0.03266060796193779
v -0.0035000001080334187 0.022500000094994903 0.034
v -0.0032335782889276743 0.022500000094994903 0.03533939203806222
v -0.0024748737923800945 0.022500000094994903 0.0364748737923801
v -0.0013393920380622149 0.022500000094994903 0.03723357828892768
v -8.57252763722393e-19 0.022500000094994903 0.03750000010803342
v 0 0.018499999905005098 0.034
v 0 0.018499999905005098 0.034
v 0 0.018499999905005098 0.034
v 0 0.018499999905005098 0.034
v 0 0.018499999905005098 0.034
v 0 0.018499999905005098 0.034
v 0 0.018499999905005098 0.034
v 0 0.018499999905005098 0.034
v 0 0.018499999905005098 0.034
v 0 0.018499999905005098 0.034
v 0 0.018499999905005098 0.034
v 0 0.018499999905005098 0.034
v 0 0.018499999905005098 0.034
v 0 0.018499999905005098 0.034
v 0 0.018499999905005098 0.034
v 0 0.018499999905005098 0.034
v 0 0.018499999905005098 0.03750000010803342
v 0.0013393920380622149 0.018499999905005098 0.03723357828892768
v 0.0024748737923800945 0.018499999905005098 0.0364748737923801
v 0.0032335782889276743 0.018499999905005098 0.03533939203806222
v 0.0035000001080334187 0.018499999905005098 0.034
v 0.0032335782889276743 0.018499999905005098 0.03266060796193779
v 0.0024748737923800945 0.018499999905005098 0.03152512620761991
v 0.0013393920380622149 0.018499999905005098 0.030766421711072328
v 4.286263818611965e-19 0.018499999905005098 0.030499999891966584
v -0.0013393920380622149 0.018499999905005098 0.030766421711072328
v -0.0024748737923800945 0.018499999905005098 0.03152512620761991
v -0.0032335782889276743 0.018499999905005098 0.03266060796193779
v -0.0035000001080334187 0.018499999905005098 0.034
v -0.0032335782889276743 0.018499999905005098 0.03533939203806222
v -0.0024748737923800945 0.018499999905005098 0.0364748737923801
v -0.0013393920380622149 0.018499999905005098 0.03723357828892768
v -8.57252763722393e-19 0.018499999905005098 0.03750000010803342
vt 0 1
vt 0.0625 1
vt 0.125 1
vt 0.1875 1
vt 0.25 1
vt 0.3125 1
vt 0.375 1
vt 0.4375 1
vt 0.5 1
vt 0.5625 1
vt 0.625 1
vt 0.6875 1
vt 0.75 1
vt 0.8125 1
vt 0.875 1
vt 0.9375 1
vt 1 1
vt 0 0
vt 0.0625 0
vt 0.125 0
vt 0.1875 0
vt 0.25 0
vt 0.3125 0
vt 0.375 0
vt 0.4375 0
vt 0.5 0
vt 0.5625 0
vt 0.625 0
vt 0.6875 0
vt 0.75 0
vt 0.8125 0
vt 0.875 0
vt 0.9375 0
vt 1 0
vt 0.5 0.5
vt 0.5 0.5
vt 0.5 0.5
vt 0.5 0.5
vt 0.5 0.5
vt 0.5 0.5
vt 0.5 0.5
vt 0.5 0.5
vt 0.5 0.5
vt 0.5 0.5
vt 0.5 0.5
vt 0.5 0.5
vt 0.5 0.5
vt 0.5 0.5
vt 0.5 0.5
vt 0.5 0.5
vt 1 0.5
vt 0.9619397521018982 0.6913416981697083
vt 0.8535534143447876 0.8535534143447876
vt 0.6913416981697083 0.9619397521018982
vt 0.5 1
vt 0.30865827202796936 0.9619397521018982
vt 0.1464466154575348 0.8535534143447876
vt 0.03806023299694061 0.6913416981697083
vt 0 0.5
vt 0.03806023299694061 0.30865827202796936
vt 0.1464466154575348 0.1464466154575348
vt 0.30865827202796936 0.03806023299694061
vt 0.5 0
vt 0.6913416981697083 0.03806023299694061
vt 0.8535534143447876 0.1464466154575348
vt 0.9619397521018982 0.30865827202796936
vt 1 0.5
vt 0.5 0.5
vt 0.5 0.5
vt 0.5 0.5
vt 0.5 0.5
vt 0.5 0.5
vt 0.5 0.5
vt 0.5 0.5
vt 0.5 0.5
vt 0.5 0.5
vt 0.5 0.5
vt 0.5 0.5
vt 0.5 0.5
vt 0.5 0.5
vt 0.5 0.5
vt 0.5 0.5
vt 0.5 0.5
vt 1 0.5
vt 0.9619397521018982 0.30865827202796936
vt 0.8535534143447876 0.1464466154575348
vt 0.6913416981697083 0.03806023299694061
vt 0.5 0
vt 0.30865827202796936 0.03806023299694061
vt 0.1464466154575348 0.1464466154575348
vt 0.03806023299694061 0.30865827202796936
vt 0 0.5
vt 0.03806023299694061 0.6913416981697083
vt 0.1464466154575348 0.8535534143447876
vt 0.30865827202796936 0.9619397521018982
vt 0.5 1
vt 0.6913416981697083 0.9619397521018982
vt 0.8535534143447876 0.8535534143447876
vt 0.9619397521018982 0.6913416981697083
vt 1 0.5
vn 0 0 1
vn 0.3826834370613369 0 0.9238795305660377
vn 0.7071067811865476 0 0.7071067811865476
vn 0.9238795305660377 0 0.3826834370613369
vn 1 0 6.123234262925839e-17
vn 0.9238795305660377 0 -0.3826834370613369
vn 0.7071067811865476 0 -0.7071067811865476
vn 0.3826834370613369 0 -0.9238795305660377
vn 1.2246468525851679e-16 0 -1
vn -0.3826834370613369 0 -0.9238795305660377
vn -0.7071067811865476 0 -0.7071067811865476
vn -0.9238795305660377 0 -0.3826834370613369
vn -1 0 -1.8369701465288538e-16
vn -0.9238795305660377 0 0.3826834370613369
vn -0.7071067811865476 0 0.7071067811865476
vn -0.3826834370613369 0 0.9238795305660377
vn -2.4492937051703357e-16 0 1
vn 0 0 1
vn 0.3826834370613369 0 0.9238795305660377
vn 0.7071067811865476 0 0.7071067811865476
vn 0.9238795305660377 0 0.3826834370613369
vn 1 0 6.123234262925839e-17
vn 0.9238795305660377 0 -0.3826834370613369
vn 0.7071067811865476 0 -0.7071067811865476
vn 0.3826834370613369 0 -0.9238795305660377
vn 1.2246468525851679e-16 0 -1
vn -0.3826834370613369 0 -0.9238795305660377
vn -0.7071067811865476 0 -0.7071067811865476
vn -0.9238795305660377 0 -0.3826834370613369
vn -1 0 -1.8369701465288538e-16
vn -0.9238795305660377 0 0.3826834370613369
vn -0.7071067811865476 0 0.7071067811865476
vn -0.3826834370613369 0 0.9238795305660377
vn -2.4492937051703357e-16 0 1
vn 0 1 0
vn 0 1 0
vn 0 1 0
vn 0 1 0
vn 0 1 0
vn 0 1 0
vn 0 1 0
vn 0 1 0
vn 0 1 0
vn 0 1 0
vn 0 1 0
vn 0 1 0
vn 0 1 0
vn 0 1 0
vn 0 1 0
vn 0 1 0
vn 0 1 0
vn 0 1 0
vn 0 1 0
vn 0 1 0
vn 0 1 0
vn 0 1 0
vn 0 1 0
vn 0 1 0
vn 0 1 0
vn 0 1 0
vn 0 1 0
vn 0 1 0
vn 0 1 0
vn 0 1 0
vn 0 1 0
vn 0 1 0
vn 0 1 0
vn 0 -1 0
vn 0 -1 0
vn 0 -1 0
vn 0 -1 0
vn 0 -1 0
vn 0 -1 0
vn 0 -1 0
vn 0 -1 0
vn 0 -1 0
vn 0 -1 0
vn 0 -1 0
vn 0 -1 0
vn 0 -1 0
vn 0 -1 0
vn 0 -1 0
vn 0 -1 0
vn 0 -1 0
vn 0 -1 0
vn 0 -1 0
vn 0 -1 0
vn 0 -1 0
vn 0 -1 0
vn 0 -1 0
vn 0 -1 0
vn 0 -1 0
vn 0 -1 0
vn 0 -1 0
vn 0 -1 0
vn 0 -1 0
vn 0 -1 0
vn 0 -1 0
vn 0 -1 0
vn 0 -1 0
f 297/297/297 314/314/314 298/298/298
f 314/314/314 315/315/315 298/298/298
f 298/298/298 315/315/315 299/299/299
f 315/315/315 316/316/316 299/299/299
f 299/299/299 316/316/316 300/300/300
f 316/316/316 317/317/317 300/300/300
f 300/300/300 317/317/317 301/301/301
f 317/317/317 318/318/318 301/301/301
f 301/301/301 318/318/318 302/302/302
f 318/318/318 319/319/319 302/302/302
f 302/302/302 319/319/319 303/303/303
f 319/319/319 320/320/320 303/303/303
f 303/303/303 320/320/320 304/304/304
f 320/320/320 321/321/321 304/304/304
f 304/304/304 321/321/321 305/305/305
f 321/321/321 322/322/322 305/305/305
f 305/305/305 322/322/322 306/306/306
f 322/322/322 323/323/323 306/306/306
f 306/306/306 323/323/323 307/307/307
f 323/323/323 324/324/324 307/307/307
f 307/307/307 324/324/324 308/308/308
f 324/324/324 325/325/325 308/308/308
f 308/308/308 325/325/325 309/309/309
f 325/325/325 326/326/326 309/309/309
f 309/309/309 326/326/326 310/310/310
f 326/326/326 327/327/327 310/310/310
f 310/310/310 327/327/327 311/311/311
f 327/327/327 328/328/328 311/311/311
f 311/311/311 328/328/328 312/312/312
f 328/328/328 329/329/329 312/312/312
f 312/312/312 329/329/329 313/313/313
f 329/329/329 330/330/330 313/313/313
f 347/347/347 348/348/348 331/331/331
f 348/348/348 349/349/349 332/332/332
f 349/349/349 350/350/350 333/333/333
f 350/350/350 351/351/351 334/334/334
f 351/351/351 352/352/352 335/335/335
f 352/352/352 353/353/353 336/336/336
f 353/353/353 354/354/354 337/337/337
f 354/354/354 355/355/355 338/338/338
f 355/355/355 356/356/356 339/339/339
f 356/356/356 357/357/357 340/340/340
f 357/357/357 358/358/358 341/341/341
f 358/358/358 359/359/359 342/342/342
f 359/359/359 360/360/360 343/343/343
f 360/360/360 361/361/361 344/344/344
f 361/361/361 362/362/362 345/345/345
f 362/362/362 363/363/363 346/346/346
f 381/381/381 380/380/380 364/364/364
f 382/382/382 381/381/381 365/365/365
f 383/383/383 382/382/382 366/366/366
f 384/384/384 383/383/383 367/367/367
f 385/385/385 384/384/384 368/368/368
f 386/386/386 385/385/385 369/369/369
f 387/387/387 386/386/386 370/370/370
f 388/388/388 387/387/387 371/371/371
f 389/389/389 388/388/388 372/372/372
f 390/390/390 389/389/389 373/373/373
f 391/391/391 390/390/390 374/374/374
f 392/392/392 391/391/391 375/375/375
f 393/393/393 392/392/392 376/376/376
f 394/394/394 393/393/393 377/377/377
f 395/395/395 394/394/394 378/378/378
f 396/396/396 395/395/395 379/379/379
