mtllib rg6_v2_gripper_finger_1_flex_finger.mtl
o rubber_pad_contact
usemtl epdm_contact
v -0.004999999888241291 -0.012500000186264515 -0.01850000023841858
v -0.004999999888241291 -0.012500000186264515 0.005999999586492777
v -0.004999999888241291 -0.01247323676943779 0.006817538756877184
v -0.004999999888241291 0.012500000186264515 0.005999999586492777
v -0.004999999888241291 0.012500000186264515 -0.01850000023841858
v -0.004999999888241291 0.012393061071634293 0.007631578017026186
v -0.004999999888241291 0.01247323676943779 0.006817538756877184
v -0.004999999888241291 0.01207407284528017 0.009235238656401634
v -0.004999999888241291 0.012259815819561481 0.008438628166913986
v -0.004999999888241291 0.01154849398881197 0.010783541947603226
v -0.004999999888241291 0.011836626566946507 0.010017992928624153
v -0.004999999888241291 0.010825317353010178 0.012250000610947609
v -0.004999999888241291 0.011210909113287926 0.011528609320521355
v -0.004999999888241291 0.009916916489601135 0.013609517365694046
v -0.004999999888241291 0.010393369942903519 0.012944627553224564
v -0.004999999888241291 0.008838835172355175 0.01483883336186409
v -0.004999999888241291 0.00939799752086401 0.014241822063922882
v -0.004999999888241291 0.007609517779201269 0.015916917473077774
v -0.004999999888241291 0.008241822943091393 0.015397995710372925
v -0.004999999888241291 0.0062500000931322575 0.016825318336486816
v -0.004999999888241291 0.006944627966731787 0.016393370926380157
v -0.004999999888241291 0.004783542826771736 0.017548494040966034
v -0.004999999888241291 0.005528608802706003 0.017210908234119415
v -0.004999999888241291 0.0032352381385862827 0.018074072897434235
v -0.004999999888241291 0.004017993342131376 0.01783662661910057
v -0.004999999888241291 0.0016315773827955127 0.01839306205511093
v -0.004999999888241291 0.0024386290460824966 0.018259815871715546
v -0.004999999888241291 7.654042311669416e-19 0.01850000023841858
v -0.004999999888241291 0.0008175391121767461 0.01847323775291443
v -0.004999999888241291 -0.0016315773827955127 0.01839306205511093
v -0.004999999888241291 -0.0008175391121767461 0.01847323775291443
v -0.004999999888241291 -0.0032352381385862827 0.018074072897434235
v -0.004999999888241291 -0.0024386290460824966 0.018259815871715546
v -0.004999999888241291 -0.004783542826771736 0.017548494040966034
v -0.004999999888241291 -0.004017993342131376 0.01783662661910057
v -0.004999999888241291 -0.0062500000931322575 0.016825318336486816
v -0.004999999888241291 -0.005528608802706003 0.017210908234119415
v -0.004999999888241291 -0.007609517779201269 0.015916917473077774
v -0.004999999888241291 -0.006944627966731787 0.016393370926380157
v -0.004999999888241291 -0.008838835172355175 0.01483883336186409
v -0.004999999888241291 -0.008241822943091393 0.015397995710372925
v -0.004999999888241291 -0.009916916489601135 0.013609517365694046
v -0.004999999888241291 -0.00939799752086401 0.014241822063922882
v -0.004999999888241291 -0.010825317353010178 0.012250000610947609
v -0.004999999888241291 -0.010393369942903519 0.012944627553224564
v -0.004999999888241291 -0.01154849398881197 0.010783541947603226
v -0.004999999888241291 -0.011210909113287926 0.011528609320521355
v -0.004999999888241291 -0.01207407284528017 0.009235238656401634
v -0.004999999888241291 -0.011836626566946507 0.010017992928624153
v -0.004999999888241291 -0.012393061071634293 0.007631578017026186
v -0.004999999888241291 -0.012259815819561481 0.008438628166913986
v -1.1175871339474952e-10 -0.01247323676943779 0.006817538756877184
v -1.1175871339474952e-10 -0.012500000186264515 0.005999999586492777
v -1.1175871339474952e-10 -0.012500000186264515 -0.01850000023841858
v -1.1175871339474952e-10 0.012500000186264515 -0.01850000023841858
v -1.1175871339474952e-10 0.012500000186264515 0.005999999586492777
v -1.1175871339474952e-10 0.01247323676943779 0.006817538756877184
v -1.1175871339474952e-10 0.012393061071634293 0.007631578017026186
v -1.1175871339474952e-10 0.012259815819561481 0.008438628166913986
v -1.1175871339474952e-10 0.01207407284528017 0.009235238656401634
v -1.1175871339474952e-10 0.011836626566946507 0.010017992928624153
v -1.1175871339474952e-10 0.01154849398881197 0.010783541947603226
v -1.1175871339474952e-10 0.011210909113287926 0.011528609320521355
v -1.1175871339474952e-10 0.010825317353010178 0.012250000610947609
v -1.1175871339474952e-10 0.010393369942903519 0.012944627553224564
v -1.1175871339474952e-10 0.009916916489601135 0.013609517365694046
v -1.1175871339474952e-10 0.00939799752086401 0.014241822063922882
v -1.1175871339474952e-10 0.008838835172355175 0.01483883336186409
v -1.1175871339474952e-10 0.008241822943091393 0.015397995710372925
v -1.1175871339474952e-10 0.007609517779201269 0.015916917473077774
v -1.1175871339474952e-10 0.006944627966731787 0.016393370926380157
v -1.1175871339474952e-10 0.0062500000931322575 0.016825318336486816
v -1.1175871339474952e-10 0.005528608802706003 0.017210908234119415
v -1.1175871339474952e-10 0.004783542826771736 0.017548494040966034
v -1.1175871339474952e-10 0.004017993342131376 0.01783662661910057
v -1.1175871339474952e-10 0.0032352381385862827 0.018074072897434235
v -1.1175871339474952e-10 0.0024386290460824966 0.018259815871715546
v -1.1175871339474952e-10 0.0016315773827955127 0.01839306205511093
v -1.1175871339474952e-10 0.0008175391121767461 0.01847323775291443
v -1.1175871339474952e-10 7.654042311669416e-19 0.01850000023841858
v -1.1175871339474952e-10 -0.0008175391121767461 0.01847323775291443
v -1.1175871339474952e-10 -0.0016315773827955127 0.01839306205511093
v -1.1175871339474952e-10 -0.0024386290460824966 0.018259815871715546
v -1.1175871339474952e-10 -0.0032352381385862827 0.018074072897434235
v -1.1175871339474952e-10 -0.004017993342131376 0.01783662661910057
v -1.1175871339474952e-10 -0.004783542826771736 0.017548494040966034
v -1.1175871339474952e-10 -0.005528608802706003 0.017210908234119415
v -1.1175871339474952e-10 -0.0062500000931322575 0.016825318336486816
v -1.1175871339474952e-10 -0.006944627966731787 0.016393370926380157
v -1.1175871339474952e-10 -0.007609517779201269 0.015916917473077774
v -1.1175871339474952e-10 -0.008241822943091393 0.015397995710372925
v -1.1175871339474952e-10 -0.008838835172355175 0.01483883336186409
v -1.1175871339474952e-10 -0.00939799752086401 0.014241822063922882
v -1.1175871339474952e-10 -0.009916916489601135 0.013609517365694046
v -1.1175871339474952e-10 -0.010393369942903519 0.012944627553224564
v -1.1175871339474952e-10 -0.010825317353010178 0.012250000610947609
v -1.1175871339474952e-10 -0.011210909113287926 0.011528609320521355
v -1.1175871339474952e-10 -0.01154849398881197 0.010783541947603226
v -1.1175871339474952e-10 -0.011836626566946507 0.010017992928624153
v -1.1175871339474952e-10 -0.01207407284528017 0.009235238656401634
v -1.1175871339474952e-10 -0.012259815819561481 0.008438628166913986
v -1.1175871339474952e-10 -0.012393061071634293 0.007631578017026186
vt -0.012500000186264515 0
vt -0.012500000186264515 0.02449999935925007
vt -0.01247323676943779 0.025317538529634476
vt 0.012500000186264515 0.02449999935925007
vt 0.012500000186264515 0
vt 0.012393061071634293 0.026131577789783478
vt 0.01247323676943779 0.025317538529634476
vt 0.01207407284528017 0.027735238894820213
vt 0.012259815819561481 0.026938628405332565
vt 0.01154849398881197 0.029283542186021805
vt 0.011836626566946507 0.028517993167042732
vt 0.010825317353010178 0.030750000849366188
vt 0.011210909113287926 0.030028609558939934
vt 0.009916916489601135 0.032109517604112625
vt 0.010393369942903519 0.03144462779164314
vt 0.008838835172355175 0.03333883360028267
vt 0.00939799752086401 0.03274182230234146
vt 0.007609517779201269 0.03441691771149635
vt 0.008241822943091393 0.033897995948791504
vt 0.0062500000931322575 0.035325318574905396
vt 0.006944627966731787 0.03489337116479874
vt 0.004783542826771736 0.03604849427938461
vt 0.005528608802706003 0.035710908472537994
vt 0.0032352381385862827 0.036574073135852814
vt 0.004017993342131376 0.03633662685751915
vt 0.0016315773827955127 0.03689306229352951
vt 0.0024386290460824966 0.036759816110134125
vt 7.654042311669416e-19 0.03700000047683716
vt 0.0008175391121767461 0.03697323799133301
vt -0.0016315773827955127 0.03689306229352951
vt -0.0008175391121767461 0.03697323799133301
vt -0.0032352381385862827 0.036574073135852814
vt -0.0024386290460824966 0.036759816110134125
vt -0.004783542826771736 0.03604849427938461
vt -0.004017993342131376 0.03633662685751915
vt -0.0062500000931322575 0.035325318574905396
vt -0.005528608802706003 0.035710908472537994
vt -0.007609517779201269 0.03441691771149635
vt -0.006944627966731787 0.03489337116479874
vt -0.008838835172355175 0.03333883360028267
vt -0.008241822943091393 0.033897995948791504
vt -0.009916916489601135 0.032109517604112625
vt -0.00939799752086401 0.03274182230234146
vt -0.010825317353010178 0.030750000849366188
vt -0.010393369942903519 0.03144462779164314
vt -0.01154849398881197 0.029283542186021805
vt -0.011210909113287926 0.030028609558939934
vt -0.01207407284528017 0.027735238894820213
vt -0.011836626566946507 0.028517993167042732
vt -0.012393061071634293 0.026131577789783478
vt -0.012259815819561481 0.026938628405332565
vt -0.012500000186264515 1
vt 0.012500000186264515 1
vt -0.012500000186264515 0.9950000047683716
vt 0.012500000186264515 0.9950000047683716
vt 0 1
vt 0.02449999935925007 1
vt 0 0.9950000047683716
vt 0.02449999935925007 0.9950000047683716
vt 0.025317538529634476 1
vt 0.025317538529634476 0.9950000047683716
vt 0.026131577789783478 1
vt 0.026131577789783478 0.9950000047683716
vt 0.026938628405332565 1
vt 0.026938628405332565 0.9950000047683716
vt 0.027735238894820213 1
vt 0.027735238894820213 0.9950000047683716
vt 0.028517993167042732 1
vt 0.028517993167042732 0.9950000047683716
vt 0.029283542186021805 1
vt 0.029283542186021805 0.9950000047683716
vt 0.030028609558939934 1
vt 0.030028609558939934 0.9950000047683716
vt 0.030750000849366188 1
vt 0.030750000849366188 0.9950000047683716
vt 0.03144462779164314 1
vt 0.03144462779164314 0.9950000047683716
vt 0.032109517604112625 1
vt 0.032109517604112625 0.9950000047683716
vt 0.03274182230234146 1
vt 0.03274182230234146 0.9950000047683716
vt 0.03333883360028267 1
vt 0.03333883360028267 0.9950000047683716
vt 0.008838835172355175 1
vt 0.008241822943091393 1
vt 0.008838835172355175 0.9950000047683716
vt 0.008241822943091393 0.9950000047683716
vt 0.007609517779201269 1
vt 0.007609517779201269 0.9950000047683716
vt 0.006944627966731787 1
vt 0.006944627966731787 0.9950000047683716
vt 0.0062500000931322575 1
vt 0.0062500000931322575 0.9950000047683716
vt 0.005528608802706003 1
vt 0.005528608802706003 0.9950000047683716
vt 0.004783542826771736 1
vt 0.004783542826771736 0.9950000047683716
vt 0.004017993342131376 1
vt 0.004017993342131376 0.9950000047683716
vt 0.0032352381385862827 1
vt 0.0032352381385862827 0.9950000047683716
vt 0.0024386290460824966 1
vt 0.0024386290460824966 0.9950000047683716
vt 0.0016315773827955127 1
vt 0.0016315773827955127 0.9950000047683716
vt 0.0008175391121767461 1
vt 0.0008175391121767461 0.9950000047683716
vt 7.654042311669416e-19 1
vt 7.654042311669416e-19 0.9950000047683716
vt -0.0008175391121767461 1
vt -0.0008175391121767461 0.9950000047683716
vt -0.0016315773827955127 1
vt -0.0016315773827955127 0.9950000047683716
vt -0.0024386290460824966 1
vt -0.0024386290460824966 0.9950000047683716
vt -0.0032352381385862827 1
vt -0.0032352381385862827 0.9950000047683716
vt -0.004017993342131376 1
vt -0.004017993342131376 0.9950000047683716
vt -0.004783542826771736 1
vt -0.004783542826771736 0.9950000047683716
vt -0.005528608802706003 1
vt -0.005528608802706003 0.9950000047683716
vt -0.0062500000931322575 1
vt -0.0062500000931322575 0.9950000047683716
vt -0.006944627966731787 1
vt -0.006944627966731787 0.9950000047683716
vt -0.007609517779201269 1
vt -0.007609517779201269 0.9950000047683716
vt -0.008241822943091393 1
vt -0.008241822943091393 0.9950000047683716
vt -0.008838835172355175 1
vt -0.008838835172355175 0.9950000047683716
vn -1 0 0
vn 1 0 0
vn 0 0 -1
vn 0 1 0
vn 0 0.9994645892764863 0.032719027833732345
vn 0 0.9951847461394648 0.0980169426748719
vn 0 0.9866432019285424 0.1628962617379341
vn 0 0.9738771290237667 0.22707562080599042
vn 0 0.9569402067931424 0.2902851023092605
vn 0 0.9359057878129851 0.3522504170872702
vn 0 0.9108641641587595 0.41270628109027396
vn 0 0.881921229237112 0.47139680251450716
vn 0 0.8492018345373686 0.5280684086539998
vn 0 0.8128466036172227 0.5824778098674194
vn 0 0.7730105028725628 0.6343932238357433
vn 0 0.7298639135387995 0.6835924719552049
vn 0 0.6835919165321447 0.7298644337491103
vn 0 0.6343949938404796 0.7730090502640561
vn 0 0.5824778098674194 0.8128466036172227
vn 0 0.5280678881577032 0.8492021582030179
vn 0 0.47139501524983773 0.8819221845478236
vn 0 0.4127078357304443 0.9108634597604037
vn 0 0.3522502408105757 0.9359058541588953
vn 0 0.290284785550754 0.956940302880881
vn 0 0.227076028754174 0.9738770339037848
vn 0 0.16289715124258558 0.9866430550695882
vn 0 0.09801706073888063 0.9951847345111916
vn 0 0.03271789460867211 0.9994646263737281
vn 0 -0.03271789460867211 0.9994646263737281
vn 0 -0.09801706073888063 0.9951847345111916
vn 0 -0.16289715124258558 0.9866430550695882
vn 0 -0.227076028754174 0.9738770339037848
vn 0 -0.290284785550754 0.956940302880881
vn 0 -0.3522502408105757 0.9359058541588953
vn 0 -0.4127078357304443 0.9108634597604037
vn 0 -0.47139501524983773 0.8819221845478236
vn 0 -0.5280678881577032 0.8492021582030179
vn 0 -0.5824778098674194 0.8128466036172227
vn 0 -0.6343949938404796 0.7730090502640561
vn 0 -0.6835919165321447 0.7298644337491103
vn 0 -0.7298639135387995 0.6835924719552049
vn 0 -0.7730105028725628 0.6343932238357433
vn 0 -0.8128466036172227 0.5824778098674194
vn 0 -0.8492018345373686 0.5280684086539998
vn 0 -0.881921229237112 0.47139680251450716
vn 0 -0.9108641641587595 0.41270628109027396
vn 0 -0.9359057878129851 0.3522504170872702
vn 0 -0.9569402067931424 0.2902851023092605
vn 0 -0.9738771290237667 0.22707562080599042
vn 0 -0.9866432019285424 0.1628962617379341
vn 0 -0.9951847461394648 0.0980169426748719
vn 0 -0.9994645892764863 0.032719027833732345
vn 0 -1 0
f 1/1/1 2/2/1 3/3/1
f 4/4/1 5/5/1 1/1/1
f 6/6/1 7/7/1 4/4/1
f 8/8/1 9/9/1 6/6/1
f 10/10/1 11/11/1 8/8/1
f 12/12/1 13/13/1 10/10/1
f 14/14/1 15/15/1 12/12/1
f 16/16/1 17/17/1 14/14/1
f 18/18/1 19/19/1 16/16/1
f 20/20/1 21/21/1 18/18/1
f 22/22/1 23/23/1 20/20/1
f 24/24/1 25/25/1 22/22/1
f 26/26/1 27/27/1 24/24/1
f 28/28/1 29/29/1 26/26/1
f 30/30/1 31/31/1 28/28/1
f 32/32/1 33/33/1 30/30/1
f 34/34/1 35/35/1 32/32/1
f 36/36/1 37/37/1 34/34/1
f 38/38/1 39/39/1 36/36/1
f 40/40/1 41/41/1 38/38/1
f 42/42/1 43/43/1 40/40/1
f 44/44/1 45/45/1 42/42/1
f 46/46/1 47/47/1 44/44/1
f 48/48/1 49/49/1 46/46/1
f 50/50/1 51/51/1 48/48/1
f 1/1/1 3/3/1 50/50/1
f 6/6/1 4/4/1 1/1/1
f 10/10/1 8/8/1 6/6/1
f 14/14/1 12/12/1 10/10/1
f 18/18/1 16/16/1 14/14/1
f 22/22/1 20/20/1 18/18/1
f 26/26/1 24/24/1 22/22/1
f 30/30/1 28/28/1 26/26/1
f 34/34/1 32/32/1 30/30/1
f 38/38/1 36/36/1 34/34/1
f 42/42/1 40/40/1 38/38/1
f 46/46/1 44/44/1 42/42/1
f 50/50/1 48/48/1 46/46/1
f 6/6/1 1/1/1 50/50/1
f 14/14/1 10/10/1 6/6/1
f 22/22/1 18/18/1 14/14/1
f 30/30/1 26/26/1 22/22/1
f 38/38/1 34/34/1 30/30/1
f 46/46/1 42/42/1 38/38/1
f 6/6/1 50/50/1 46/46/1
f 22/22/1 14/14/1 6/6/1
f 38/38/1 30/30/1 22/22/1
f 6/6/1 46/46/1 38/38/1
f 38/38/1 22/22/1 6/6/1
f 52/3/2 53/2/2 54/1/2
f 54/1/2 55/5/2 56/4/2
f 56/4/2 57/7/2 58/6/2
f 58/6/2 59/9/2 60/8/2
f 60/8/2 61/11/2 62/10/2
f 62/10/2 63/13/2 64/12/2
f 64/12/2 65/15/2 66/14/2
f 66/14/2 67/17/2 68/16/2
f 68/16/2 69/19/2 70/18/2
f 70/18/2 71/21/2 72/20/2
f 72/20/2 73/23/2 74/22/2
f 74/22/2 75/25/2 76/24/2
f 76/24/2 77/27/2 78/26/2
f 78/26/2 79/29/2 80/28/2
f 80/28/2 81/31/2 82/30/2
f 82/30/2 83/33/2 84/32/2
f 84/32/2 85/35/2 86/34/2
f 86/34/2 87/37/2 88/36/2
f 88/36/2 89/39/2 90/38/2
f 90/38/2 91/41/2 92/40/2
f 92/40/2 93/43/2 94/42/2
f 94/42/2 95/45/2 96/44/2
f 96/44/2 97/47/2 98/46/2
f 98/46/2 99/49/2 100/48/2
f 100/48/2 101/51/2 102/50/2
f 102/50/2 52/3/2 54/1/2
f 54/1/2 56/4/2 58/6/2
f 58/6/2 60/8/2 62/10/2
f 62/10/2 64/12/2 66/14/2
f 66/14/2 68/16/2 70/18/2
f 70/18/2 72/20/2 74/22/2
f 74/22/2 76/24/2 78/26/2
f 78/26/2 80/28/2 82/30/2
f 82/30/2 84/32/2 86/34/2
f 86/34/2 88/36/2 90/38/2
f 90/38/2 92/40/2 94/42/2
f 94/42/2 96/44/2 98/46/2
f 98/46/2 100/48/2 102/50/2
f 102/50/2 54/1/2 58/6/2
f 58/6/2 62/10/2 66/14/2
f 66/14/2 70/18/2 74/22/2
f 74/22/2 78/26/2 82/30/2
f 82/30/2 86/34/2 90/38/2
f 90/38/2 94/42/2 98/46/2
f 98/46/2 102/50/2 58/6/2
f 58/6/2 66/14/2 74/22/2
f 74/22/2 82/30/2 90/38/2
f 90/38/2 98/46/2 58/6/2
f 58/6/2 74/22/2 90/38/2
f 1/52/3 5/53/3 54/54/3
f 5/53/3 55/55/3 54/54/3
f 5/56/4 4/57/4 55/58/4
f 4/57/4 56/59/4 55/58/4
f 4/57/5 7/60/5 56/59/5
f 7/60/5 57/61/5 56/59/5
f 7/60/6 6/62/6 57/61/6
f 6/62/6 58/63/6 57/61/6
f 6/62/7 9/64/7 58/63/7
f 9/64/7 59/65/7 58/63/7
f 9/64/8 8/66/8 59/65/8
f 8/66/8 60/67/8 59/65/8
f 8/66/9 11/68/9 60/67/9
f 11/68/9 61/69/9 60/67/9
f 11/68/10 10/70/10 61/69/10
f 10/70/10 62/71/10 61/69/10
f 10/70/11 13/72/11 62/71/11
f 13/72/11 63/73/11 62/71/11
f 13/72/12 12/74/12 63/73/12
f 12/74/12 64/75/12 63/73/12
f 12/74/13 15/76/13 64/75/13
f 15/76/13 65/77/13 64/75/13
f 15/76/14 14/78/14 65/77/14
f 14/78/14 66/79/14 65/77/14
f 14/78/15 17/80/15 66/79/15
f 17/80/15 67/81/15 66/79/15
f 17/80/16 16/82/16 67/81/16
f 16/82/16 68/83/16 67/81/16
f 16/84/17 19/85/17 68/86/17
f 19/85/17 69/87/17 68/86/17
f 19/85/18 18/88/18 69/87/18
f 18/88/18 70/89/18 69/87/18
f 18/88/19 21/90/19 70/89/19
f 21/90/19 71/91/19 70/89/19
f 21/90/20 20/92/20 71/91/20
f 20/92/20 72/93/20 71/91/20
f 20/92/21 23/94/21 72/93/21
f 23/94/21 73/95/21 72/93/21
f 23/94/22 22/96/22 73/95/22
f 22/96/22 74/97/22 73/95/22
f 22/96/23 25/98/23 74/97/23
f 25/98/23 75/99/23 74/97/23
f 25/98/24 24/100/24 75/99/24
f 24/100/24 76/101/24 75/99/24
f 24/100/25 27/102/25 76/101/25
f 27/102/25 77/103/25 76/101/25
f 27/102/26 26/104/26 77/103/26
f 26/104/26 78/105/26 77/103/26
f 26/104/27 29/106/27 78/105/27
f 29/106/27 79/107/27 78/105/27
f 29/106/28 28/108/28 79/107/28
f 28/108/28 80/109/28 79/107/28
f 28/108/29 31/110/29 80/109/29
f 31/110/29 81/111/29 80/109/29
f 31/110/30 30/112/30 81/111/30
f 30/112/30 82/113/30 81/111/30
f 30/112/31 33/114/31 82/113/31
f 33/114/31 83/115/31 82/113/31
f 33/114/32 32/116/32 83/115/32
f 32/116/32 84/117/32 83/115/32
f 32/116/33 35/118/33 84/117/33
f 35/118/33 85/119/33 84/117/33
f 35/118/34 34/120/34 85/119/34
f 34/120/34 86/121/34 85/119/34
f 34/120/35 37/122/35 86/121/35
f 37/122/35 87/123/35 86/121/35
f 37/122/36 36/124/36 87/123/36
f 36/124/36 88/125/36 87/123/36
f 36/124/37 39/126/37 88/125/37
f 39/126/37 89/127/37 88/125/37
f 39/126/38 38/128/38 89/127/38
f 38/128/38 90/129/38 89/127/38
f 38/128/39 41/130/39 90/129/39
f 41/130/39 91/131/39 90/129/39
f 41/130/40 40/132/40 91/131/40
f 40/132/40 92/133/40 91/131/40
f 40/82/41 43/80/41 92/83/41
f 43/80/41 93/81/41 92/83/41
f 43/80/42 42/78/42 93/81/42
f 42/78/42 94/79/42 93/81/42
f 42/78/43 45/76/43 94/79/43
f 45/76/43 95/77/43 94/79/43
f 45/76/44 44/74/44 95/77/44
f 44/74/44 96/75/44 95/77/44
f 44/74/45 47/72/45 96/75/45
f 47/72/45 97/73/45 96/75/45
f 47/72/46 46/70/46 97/73/46
f 46/70/46 98/71/46 97/73/46
f 46/70/47 49/68/47 98/71/47
f 49/68/47 99/69/47 98/71/47
f 49/68/48 48/66/48 99/69/48
f 48/66/48 100/67/48 99/69/48
f 48/66/49 51/64/49 100/67/49
f 51/64/49 101/65/49 100/67/49
f 51/64/50 50/62/50 101/65/50
f 50/62/50 102/63/50 101/65/50
f 50/62/51 3/60/51 102/63/51
f 3/60/51 52/61/51 102/63/51
f 3/60/52 2/57/52 52/61/52
f 2/57/52 53/59/52 52/61/52
f 2/57/53 1/56/53 53/59/53
f 1/56/53 54/58/53 53/59/53
o rubber_pad_sleeve
usemtl epdm_contact
v -0.013150000013411045 -0.012500000186264515 -0.01850000023841858
v -0.013150000013411045 -0.012500000186264515 0.005999999586492777
v -0.013150000013411045 -0.01247323676943779 0.006817538756877184
v -0.013150000013411045 -0.010499999858438969 0.005999999586492777
v -0.013150000013411045 -0.010499999858438969 -0.01850000023841858
v -0.013150000013411045 0.012500000186264515 -0.01850000023841858
v -0.013150000013411045 0.010499999858438969 -0.01850000023841858
v -0.013150000013411045 0.010499999858438969 0.005999999586492777
v -0.013150000013411045 0.01247323676943779 0.006817538756877184
v -0.013150000013411045 0.012500000186264515 0.005999999586492777
v -0.013150000013411045 0.012259815819561481 0.008438628166913986
v -0.013150000013411045 0.012393061071634293 0.007631578017026186
v -0.013150000013411045 0.011836626566946507 0.010017992928624153
v -0.013150000013411045 0.01207407284528017 0.009235238656401634
v -0.013150000013411045 0.011210909113287926 0.011528609320521355
v -0.013150000013411045 0.01154849398881197 0.010783541947603226
v -0.013150000013411045 0.010393369942903519 0.012944627553224564
v -0.013150000013411045 0.010825317353010178 0.012250000610947609
v -0.013150000013411045 0.00939799752086401 0.014241822063922882
v -0.013150000013411045 0.009916916489601135 0.013609517365694046
v -0.013150000013411045 0.008241822943091393 0.015397995710372925
v -0.013150000013411045 0.008838835172355175 0.01483883336186409
v -0.013150000013411045 0.006944627966731787 0.016393370926380157
v -0.013150000013411045 0.007609517779201269 0.015916917473077774
v -0.013150000013411045 0.005528608802706003 0.017210908234119415
v -0.013150000013411045 0.0062500000931322575 0.016825318336486816
v -0.013150000013411045 0.004017993342131376 0.01783662661910057
v -0.013150000013411045 0.004783542826771736 0.017548494040966034
v -0.013150000013411045 0.0024386290460824966 0.018259815871715546
v -0.013150000013411045 0.0032352381385862827 0.018074072897434235
v -0.013150000013411045 0.0008175391121767461 0.01847323775291443
v -0.013150000013411045 0.0016315773827955127 0.01839306205511093
v -0.013150000013411045 -0.0008175391121767461 0.01847323775291443
v -0.013150000013411045 7.654042311669416e-19 0.01850000023841858
v -0.013150000013411045 -0.0024386290460824966 0.018259815871715546
v -0.013150000013411045 -0.0016315773827955127 0.01839306205511093
v -0.013150000013411045 -0.004017993342131376 0.01783662661910057
v -0.013150000013411045 -0.0032352381385862827 0.018074072897434235
v -0.013150000013411045 -0.005528608802706003 0.017210908234119415
v -0.013150000013411045 -0.004783542826771736 0.017548494040966034
v -0.013150000013411045 -0.006944627966731787 0.016393370926380157
v -0.013150000013411045 -0.0062500000931322575 0.016825318336486816
v -0.013150000013411045 -0.008241822943091393 0.015397995710372925
v -0.013150000013411045 -0.007609517779201269 0.015916917473077774
v -0.013150000013411045 -0.00939799752086401 0.014241822063922882
v -0.013150000013411045 -0.008838835172355175 0.01483883336186409
v -0.013150000013411045 -0.010393369942903519 0.012944627553224564
v -0.013150000013411045 -0.009916916489601135 0.013609517365694046
v -0.013150000013411045 -0.011210909113287926 0.011528609320521355
v -0.013150000013411045 -0.010825317353010178 0.012250000610947609
v -0.013150000013411045 -0.011836626566946507 0.010017992928624153
v -0.013150000013411045 -0.01154849398881197 0.010783541947603226
v -0.013150000013411045 -0.012259815819561481 0.008438628166913986
v -0.013150000013411045 -0.01207407284528017 0.009235238656401634
v -0.013150000013411045 -0.012393061071634293 0.007631578017026186
v -0.013150000013411045 0.010477518662810326 0.006686732638627291
v -0.013150000013411045 -0.010477518662810326 0.006686732638627291
v -0.013150000013411045 0.010410171002149582 0.007370524574071169
v -0.013150000013411045 -0.010410171002149582 0.007370524574071169
v -0.013150000013411045 0.010298245586454868 0.008048448711633682
v -0.013150000013411045 -0.010298245586454868 0.008048448711633682
v -0.013150000013411045 0.010142221115529537 0.008717600256204605
v -0.013150000013411045 -0.010142221115529537 0.008717600256204605
v -0.013150000013411045 0.009942766278982162 0.009375113993883133
v -0.013150000013411045 0.009700735099613667 0.010018175467848778
v -0.013150000013411045 -0.009942766278982162 0.009375113993883133
v -0.013150000013411045 0.009417164139449596 0.010644031688570976
v -0.013150000013411045 -0.009700735099613667 0.010018175467848778
v -0.013150000013411045 0.009093266911804676 0.011250000447034836
v -0.013150000013411045 -0.009417164139449596 0.010644031688570976
v -0.013150000013411045 0.008730431087315083 0.011833487078547478
v -0.013150000013411045 -0.009093266911804676 0.011250000447034836
v -0.013150000013411045 0.008330210112035275 0.012391995638608932
v -0.013150000013411045 -0.008730431087315083 0.011833487078547478
v -0.013150000013411045 0.007894317619502544 0.012923132628202438
v -0.013150000013411045 -0.008330210112035275 0.012391995638608932
v -0.013150000013411045 0.007424621377140284 0.013424620032310486
v -0.013150000013411045 -0.007894317619502544 0.012923132628202438
v -0.013150000013411045 -0.007424621377140284 0.013424620032310486
v -0.013150000013411045 0.006923131179064512 0.013894319534301758
v -0.013150000013411045 -0.006923131179064512 0.013894319534301758
v -0.013150000013411045 0.006391995120793581 0.01433020830154419
v -0.013150000013411045 -0.006391995120793581 0.01433020830154419
v -0.013150000013411045 0.005833487492054701 0.014730431139469147
v -0.013150000013411045 -0.005833487492054701 0.014730431139469147
v -0.013150000013411045 0.005249999929219484 0.01509326696395874
v -0.013150000013411045 -0.005249999929219484 0.01509326696395874
v -0.013150000013411045 0.004644031170755625 0.015417162328958511
v -0.013150000013411045 -0.004644031170755625 0.015417162328958511
v -0.013150000013411045 0.004018175881356001 0.01570073515176773
v -0.013150000013411045 -0.004018175881356001 0.01570073515176773
v -0.013150000013411045 0.003375114407390356 0.0159427672624588
v -0.013150000013411045 -0.003375114407390356 0.0159427672624588
v -0.013150000013411045 0.0027175999712198973 0.016142219305038452
v -0.013150000013411045 -0.0027175999712198973 0.016142219305038452
v -0.013150000013411045 0.0020484484266489744 0.016298245638608932
v -0.013150000013411045 0.001370524987578392 0.01641017198562622
v -0.013150000013411045 -0.0020484484266489744 0.016298245638608932
v -0.013150000013411045 0.0006867328775115311 0.016477517783641815
v -0.013150000013411045 -0.001370524987578392 0.01641017198562622
v -0.013150000013411045 6.429395727917947e-19 0.016499999910593033
v -0.013150000013411045 -0.0006867328775115311 0.016477517783641815
v -0.004999999888241291 -0.01247323676943779 0.006817538756877184
v -0.004999999888241291 -0.012500000186264515 0.005999999586492777
v -0.004999999888241291 -0.012500000186264515 -0.01850000023841858
v -0.004999999888241291 -0.010499999858438969 -0.01850000023841858
v -0.004999999888241291 -0.010499999858438969 0.005999999586492777
v -0.004999999888241291 0.010499999858438969 0.005999999586492777
v -0.004999999888241291 0.010499999858438969 -0.01850000023841858
v -0.004999999888241291 0.012500000186264515 -0.01850000023841858
v -0.004999999888241291 0.012500000186264515 0.005999999586492777
v -0.004999999888241291 0.01247323676943779 0.006817538756877184
v -0.004999999888241291 0.012393061071634293 0.007631578017026186
v -0.004999999888241291 0.012259815819561481 0.008438628166913986
v -0.004999999888241291 0.01207407284528017 0.009235238656401634
v -0.004999999888241291 0.011836626566946507 0.010017992928624153
v -0.004999999888241291 0.01154849398881197 0.010783541947603226
v -0.004999999888241291 0.011210909113287926 0.011528609320521355
v -0.004999999888241291 0.010825317353010178 0.012250000610947609
v -0.004999999888241291 0.010393369942903519 0.012944627553224564
v -0.004999999888241291 0.009916916489601135 0.013609517365694046
v -0.004999999888241291 0.00939799752086401 0.014241822063922882
v -0.004999999888241291 0.008838835172355175 0.01483883336186409
v -0.004999999888241291 0.008241822943091393 0.015397995710372925
v -0.004999999888241291 0.007609517779201269 0.015916917473077774
v -0.004999999888241291 0.006944627966731787 0.016393370926380157
v -0.004999999888241291 0.0062500000931322575 0.016825318336486816
v -0.004999999888241291 0.005528608802706003 0.017210908234119415
v -0.004999999888241291 0.004783542826771736 0.017548494040966034
v -0.004999999888241291 0.004017993342131376 0.01783662661910057
v -0.004999999888241291 0.0032352381385862827 0.018074072897434235
v -0.004999999888241291 0.0024386290460824966 0.018259815871715546
v -0.004999999888241291 0.0016315773827955127 0.01839306205511093
v -0.004999999888241291 0.0008175391121767461 0.01847323775291443
v -0.004999999888241291 7.654042311669416e-19 0.01850000023841858
v -0.004999999888241291 -0.0008175391121767461 0.01847323775291443
v -0.004999999888241291 -0.0016315773827955127 0.01839306205511093
v -0.004999999888241291 -0.0024386290460824966 0.018259815871715546
v -0.004999999888241291 -0.0032352381385862827 0.018074072897434235
v -0.004999999888241291 -0.004017993342131376 0.01783662661910057
v -0.004999999888241291 -0.004783542826771736 0.017548494040966034
v -0.004999999888241291 -0.005528608802706003 0.017210908234119415
v -0.004999999888241291 -0.0062500000931322575 0.016825318336486816
v -0.004999999888241291 -0.006944627966731787 0.016393370926380157
v -0.004999999888241291 -0.007609517779201269 0.015916917473077774
v -0.004999999888241291 -0.008241822943091393 0.015397995710372925
v -0.004999999888241291 -0.008838835172355175 0.01483883336186409
v -0.004999999888241291 -0.00939799752086401 0.014241822063922882
v -0.004999999888241291 -0.009916916489601135 0.013609517365694046
v -0.004999999888241291 -0.010393369942903519 0.012944627553224564
v -0.004999999888241291 -0.010825317353010178 0.012250000610947609
v -0.004999999888241291 -0.011210909113287926 0.011528609320521355
v -0.004999999888241291 -0.01154849398881197 0.010783541947603226
v -0.004999999888241291 -0.011836626566946507 0.010017992928624153
v -0.004999999888241291 -0.01207407284528017 0.009235238656401634
v -0.004999999888241291 -0.012259815819561481 0.008438628166913986
v -0.004999999888241291 -0.012393061071634293 0.007631578017026186
v -0.004999999888241291 0.010477518662810326 0.006686732638627291
v -0.004999999888241291 -0.010477518662810326 0.006686732638627291
v -0.004999999888241291 0.010410171002149582 0.007370524574071169
v -0.004999999888241291 -0.010410171002149582 0.007370524574071169
v -0.004999999888241291 0.010298245586454868 0.008048448711633682
v -0.004999999888241291 -0.010298245586454868 0.008048448711633682
v -0.004999999888241291 0.010142221115529537 0.008717600256204605
v -0.004999999888241291 -0.010142221115529537 0.008717600256204605
v -0.004999999888241291 0.009942766278982162 0.009375113993883133
v -0.004999999888241291 0.009700735099613667 0.010018175467848778
v -0.004999999888241291 -0.009942766278982162 0.009375113993883133
v -0.004999999888241291 0.009417164139449596 0.010644031688570976
v -0.004999999888241291 -0.009700735099613667 0.010018175467848778
v -0.004999999888241291 0.009093266911804676 0.011250000447034836
v -0.004999999888241291 -0.009417164139449596 0.010644031688570976
v -0.004999999888241291 0.008730431087315083 0.011833487078547478
v -0.004999999888241291 -0.009093266911804676 0.011250000447034836
v -0.004999999888241291 0.008330210112035275 0.012391995638608932
v -0.004999999888241291 -0.008730431087315083 0.011833487078547478
v -0.004999999888241291 0.007894317619502544 0.012923132628202438
v -0.004999999888241291 -0.008330210112035275 0.012391995638608932
v -0.004999999888241291 0.007424621377140284 0.013424620032310486
v -0.004999999888241291 -0.007894317619502544 0.012923132628202438
v -0.004999999888241291 -0.007424621377140284 0.013424620032310486
v -0.004999999888241291 0.006923131179064512 0.013894319534301758
v -0.004999999888241291 -0.006923131179064512 0.013894319534301758
v -0.004999999888241291 0.006391995120793581 0.01433020830154419
v -0.004999999888241291 -0.006391995120793581 0.01433020830154419
v -0.004999999888241291 0.005833487492054701 0.014730431139469147
v -0.004999999888241291 -0.005833487492054701 0.014730431139469147
v -0.004999999888241291 0.005249999929219484 0.01509326696395874
v -0.004999999888241291 -0.005249999929219484 0.01509326696395874
v -0.004999999888241291 0.004644031170755625 0.015417162328958511
v -0.004999999888241291 -0.004644031170755625 0.015417162328958511
v -0.004999999888241291 0.004018175881356001 0.01570073515176773
v -0.004999999888241291 -0.004018175881356001 0.01570073515176773
v -0.004999999888241291 0.003375114407390356 0.0159427672624588
v -0.004999999888241291 -0.003375114407390356 0.0159427672624588
v -0.004999999888241291 0.0027175999712198973 0.016142219305038452
v -0.004999999888241291 -0.0027175999712198973 0.016142219305038452
v -0.004999999888241291 0.0020484484266489744 0.016298245638608932
v -0.004999999888241291 0.001370524987578392 0.01641017198562622
v -0.004999999888241291 -0.0020484484266489744 0.016298245638608932
v -0.004999999888241291 0.0006867328775115311 0.016477517783641815
v -0.004999999888241291 -0.001370524987578392 0.01641017198562622
v -0.004999999888241291 6.429395727917947e-19 0.016499999910593033
v -0.004999999888241291 -0.0006867328775115311 0.016477517783641815
vt -0.012500000186264515 0
vt -0.012500000186264515 0.02449999935925007
vt -0.01247323676943779 0.025317538529634476
vt -0.010499999858438969 0.02449999935925007
vt -0.010499999858438969 0
vt 0.012500000186264515 0
vt 0.010499999858438969 0
vt 0.010499999858438969 0.02449999935925007
vt 0.01247323676943779 0.025317538529634476
vt 0.012500000186264515 0.02449999935925007
vt 0.012259815819561481 0.026938628405332565
vt 0.012393061071634293 0.026131577789783478
vt 0.011836626566946507 0.028517993167042732
vt 0.01207407284528017 0.027735238894820213
vt 0.011210909113287926 0.030028609558939934
vt 0.01154849398881197 0.029283542186021805
vt 0.010393369942903519 0.03144462779164314
vt 0.010825317353010178 0.030750000849366188
vt 0.00939799752086401 0.03274182230234146
vt 0.009916916489601135 0.032109517604112625
vt 0.008241822943091393 0.033897995948791504
vt 0.008838835172355175 0.03333883360028267
vt 0.006944627966731787 0.03489337116479874
vt 0.007609517779201269 0.03441691771149635
vt 0.005528608802706003 0.035710908472537994
vt 0.0062500000931322575 0.035325318574905396
vt 0.004017993342131376 0.03633662685751915
vt 0.004783542826771736 0.03604849427938461
vt 0.0024386290460824966 0.036759816110134125
vt 0.0032352381385862827 0.036574073135852814
vt 0.0008175391121767461 0.03697323799133301
vt 0.0016315773827955127 0.03689306229352951
vt -0.0008175391121767461 0.03697323799133301
vt 7.654042311669416e-19 0.03700000047683716
vt -0.0024386290460824966 0.036759816110134125
vt -0.0016315773827955127 0.03689306229352951
vt -0.004017993342131376 0.03633662685751915
vt -0.0032352381385862827 0.036574073135852814
vt -0.005528608802706003 0.035710908472537994
vt -0.004783542826771736 0.03604849427938461
vt -0.006944627966731787 0.03489337116479874
vt -0.0062500000931322575 0.035325318574905396
vt -0.008241822943091393 0.033897995948791504
vt -0.007609517779201269 0.03441691771149635
vt -0.00939799752086401 0.03274182230234146
vt -0.008838835172355175 0.03333883360028267
vt -0.010393369942903519 0.03144462779164314
vt -0.009916916489601135 0.032109517604112625
vt -0.011210909113287926 0.030028609558939934
vt -0.010825317353010178 0.030750000849366188
vt -0.011836626566946507 0.028517993167042732
vt -0.01154849398881197 0.029283542186021805
vt -0.012259815819561481 0.026938628405332565
vt -0.01207407284528017 0.027735238894820213
vt -0.012393061071634293 0.026131577789783478
vt 0.010477518662810326 0.025186732411384583
vt -0.010477518662810326 0.025186732411384583
vt 0.010410171002149582 0.02587052434682846
vt -0.010410171002149582 0.02587052434682846
vt 0.010298245586454868 0.02654844895005226
vt -0.010298245586454868 0.02654844895005226
vt 0.010142221115529537 0.027217600494623184
vt -0.010142221115529537 0.027217600494623184
vt 0.009942766278982162 0.027875114232301712
vt 0.009700735099613667 0.028518175706267357
vt -0.009942766278982162 0.027875114232301712
vt 0.009417164139449596 0.029144031926989555
vt -0.009700735099613667 0.028518175706267357
vt 0.009093266911804676 0.029750000685453415
vt -0.009417164139449596 0.029144031926989555
vt 0.008730431087315083 0.030333487316966057
vt -0.009093266911804676 0.029750000685453415
vt 0.008330210112035275 0.03089199587702751
vt -0.008730431087315083 0.030333487316966057
vt 0.007894317619502544 0.03142313286662102
vt -0.008330210112035275 0.03089199587702751
vt 0.007424621377140284 0.031924620270729065
vt -0.007894317619502544 0.03142313286662102
vt -0.007424621377140284 0.031924620270729065
vt 0.006923131179064512 0.03239431977272034
vt -0.006923131179064512 0.03239431977272034
vt 0.006391995120793581 0.03283020853996277
vt -0.006391995120793581 0.03283020853996277
vt 0.005833487492054701 0.033230431377887726
vt -0.005833487492054701 0.033230431377887726
vt 0.005249999929219484 0.03359326720237732
vt -0.005249999929219484 0.03359326720237732
vt 0.004644031170755625 0.03391716256737709
vt -0.004644031170755625 0.03391716256737709
vt 0.004018175881356001 0.03420073539018631
vt -0.004018175881356001 0.03420073539018631
vt 0.003375114407390356 0.03444276750087738
vt -0.003375114407390356 0.03444276750087738
vt 0.0027175999712198973 0.03464221954345703
vt -0.0027175999712198973 0.03464221954345703
vt 0.0020484484266489744 0.03479824587702751
vt 0.001370524987578392 0.0349101722240448
vt -0.0020484484266489744 0.03479824587702751
vt 0.0006867328775115311 0.034977518022060394
vt -0.001370524987578392 0.0349101722240448
vt 6.429395727917947e-19 0.03500000014901161
vt -0.0006867328775115311 0.034977518022060394
vt -0.012500000186264515 1
vt -0.010499999858438969 1
vt -0.012500000186264515 0.9918500185012817
vt -0.010499999858438969 0.9918500185012817
vt 0 1
vt 0.02449999935925007 1
vt 0 0.9918500185012817
vt 0.02449999935925007 0.9918500185012817
vt 0.025186732411384583 1
vt 0.025186732411384583 0.9918500185012817
vt 0.02587052434682846 1
vt 0.02587052434682846 0.9918500185012817
vt 0.02654844895005226 1
vt 0.02654844895005226 0.9918500185012817
vt 0.027217600494623184 1
vt 0.027217600494623184 0.9918500185012817
vt 0.027875114232301712 1
vt 0.027875114232301712 0.9918500185012817
vt 0.028518175706267357 1
vt 0.028518175706267357 0.9918500185012817
vt 0.029144031926989555 1
vt 0.029144031926989555 0.9918500185012817
vt 0.029750000685453415 1
vt 0.029750000685453415 0.9918500185012817
vt 0.030333487316966057 1
vt 0.030333487316966057 0.9918500185012817
vt 0.03089199587702751 1
vt 0.03089199587702751 0.9918500185012817
vt 0.03142313286662102 1
vt 0.03142313286662102 0.9918500185012817
vt 0.031924620270729065 1
vt 0.031924620270729065 0.9918500185012817
vt -0.007424621377140284 1
vt -0.006923131179064512 1
vt -0.007424621377140284 0.9918500185012817
vt -0.006923131179064512 0.9918500185012817
vt -0.006391995120793581 1
vt -0.006391995120793581 0.9918500185012817
vt -0.005833487492054701 1
vt -0.005833487492054701 0.9918500185012817
vt -0.005249999929219484 1
vt -0.005249999929219484 0.9918500185012817
vt -0.004644031170755625 1
vt -0.004644031170755625 0.9918500185012817
vt -0.004018175881356001 1
vt -0.004018175881356001 0.9918500185012817
vt -0.003375114407390356 1
vt -0.003375114407390356 0.9918500185012817
vt -0.0027175999712198973 1
vt -0.0027175999712198973 0.9918500185012817
vt -0.0020484484266489744 1
vt -0.0020484484266489744 0.9918500185012817
vt -0.001370524987578392 1
vt -0.001370524987578392 0.9918500185012817
vt -0.0006867328775115311 1
vt -0.0006867328775115311 0.9918500185012817
vt 6.429395727917947e-19 1
vt 6.429395727917947e-19 0.9918500185012817
vt 0.0006867328775115311 1
vt 0.0006867328775115311 0.9918500185012817
vt 0.001370524987578392 1
vt 0.001370524987578392 0.9918500185012817
vt 0.0020484484266489744 1
vt 0.0020484484266489744 0.9918500185012817
vt 0.0027175999712198973 1
vt 0.0027175999712198973 0.9918500185012817
vt 0.003375114407390356 1
vt 0.003375114407390356 0.9918500185012817
vt 0.004018175881356001 1
vt 0.004018175881356001 0.9918500185012817
vt 0.004644031170755625 1
vt 0.004644031170755625 0.9918500185012817
vt 0.005249999929219484 1
vt 0.005249999929219484 0.9918500185012817
vt 0.005833487492054701 1
vt 0.005833487492054701 0.9918500185012817
vt 0.006391995120793581 1
vt 0.006391995120793581 0.9918500185012817
vt 0.006923131179064512 1
vt 0.006923131179064512 0.9918500185012817
vt 0.007424621377140284 1
vt 0.007424621377140284 0.9918500185012817
vt 0.010499999858438969 1
vt 0.012500000186264515 1
vt 0.010499999858438969 0.9918500185012817
vt 0.012500000186264515 0.9918500185012817
vt 0.025317538529634476 1
vt 0.025317538529634476 0.9918500185012817
vt 0.026131577789783478 1
vt 0.026131577789783478 0.9918500185012817
vt 0.026938628405332565 1
vt 0.026938628405332565 0.9918500185012817
vt 0.027735238894820213 1
vt 0.027735238894820213 0.9918500185012817
vt 0.028517993167042732 1
vt 0.028517993167042732 0.9918500185012817
vt 0.029283542186021805 1
vt 0.029283542186021805 0.9918500185012817
vt 0.030028609558939934 1
vt 0.030028609558939934 0.9918500185012817
vt 0.030750000849366188 1
vt 0.030750000849366188 0.9918500185012817
vt 0.03144462779164314 1
vt 0.03144462779164314 0.9918500185012817
vt 0.032109517604112625 1
vt 0.032109517604112625 0.9918500185012817
vt 0.03274182230234146 1
vt 0.03274182230234146 0.9918500185012817
vt 0.03333883360028267 1
vt 0.03333883360028267 0.9918500185012817
vt 0.008838835172355175 1
vt 0.008241822943091393 1
vt 0.008838835172355175 0.9918500185012817
vt 0.008241822943091393 0.9918500185012817
vt 0.007609517779201269 1
vt 0.007609517779201269 0.9918500185012817
vt 0.006944627966731787 1
vt 0.006944627966731787 0.9918500185012817
vt 0.0062500000931322575 1
vt 0.0062500000931322575 0.9918500185012817
vt 0.005528608802706003 1
vt 0.005528608802706003 0.9918500185012817
vt 0.004783542826771736 1
vt 0.004783542826771736 0.9918500185012817
vt 0.004017993342131376 1
vt 0.004017993342131376 0.9918500185012817
vt 0.0032352381385862827 1
vt 0.0032352381385862827 0.9918500185012817
vt 0.0024386290460824966 1
vt 0.0024386290460824966 0.9918500185012817
vt 0.0016315773827955127 1
vt 0.0016315773827955127 0.9918500185012817
vt 0.0008175391121767461 1
vt 0.0008175391121767461 0.9918500185012817
vt 7.654042311669416e-19 1
vt 7.654042311669416e-19 0.9918500185012817
vt -0.0008175391121767461 1
vt -0.0008175391121767461 0.9918500185012817
vt -0.0016315773827955127 1
vt -0.0016315773827955127 0.9918500185012817
vt -0.0024386290460824966 1
vt -0.0024386290460824966 0.9918500185012817
vt -0.0032352381385862827 1
vt -0.0032352381385862827 0.9918500185012817
vt -0.004017993342131376 1
vt -0.004017993342131376 0.9918500185012817
vt -0.004783542826771736 1
vt -0.004783542826771736 0.9918500185012817
vt -0.005528608802706003 1
vt -0.005528608802706003 0.9918500185012817
vt -0.0062500000931322575 1
vt -0.0062500000931322575 0.9918500185012817
vt -0.006944627966731787 1
vt -0.006944627966731787 0.9918500185012817
vt -0.007609517779201269 1
vt -0.007609517779201269 0.9918500185012817
vt -0.008241822943091393 1
vt -0.008241822943091393 0.9918500185012817
vt -0.008838835172355175 1
vt -0.008838835172355175 0.9918500185012817
vn -1 0 0
vn 1 0 0
vn 0 0 -1
vn 0 1 0
vn 0 0.999464593052981 -0.03271891247336003
vn 0 0.9951847214293675 -0.09801719356088548
vn 0 0.9866434237970805 -0.16289491790100388
vn 0 0.9738769124211409 -0.22707654976475516
vn 0 0.9569402399077468 -0.2902849931451916
vn 0 0.9359059303297915 -0.3522500384294192
vn 0 0.910864274089383 -0.41270603846760145
vn 0 0.8819211540427397 -0.47139694319323094
vn 0 0.8492018612662754 -0.5280683656704815
vn 0 0.812847104047076 -0.5824771115179392
vn 0 0.7730107157439207 -0.6343929644511133
vn 0 0.7298625889286339 -0.6835938862236789
vn 0 0.6835943801553823 -0.7298621263087834
vn 0 0.6343903742832545 -0.773012841430692
vn 0 0.5824795445779861 -0.8128453605380435
vn 0 0.5280677754617048 -0.8492022282818895
vn 0 0.4713948266114025 -0.8819222853766684
vn 0 0.4127088556724874 -0.9108629976289003
vn 0 0.3522511940528324 -0.9359054953831363
vn 0 0.29028096115192814 -0.9569414629917091
vn 0 0.2270791265510817 -0.9738763115944435
vn 0 0.16289651791547483 -0.9866431596332148
vn 0 0.09801448591282372 -0.995184988105852
vn 0 0.03272027446993048 -0.9994645484651331
vn 0 -0.03272027446993048 -0.9994645484651331
vn 0 -0.09801448591282372 -0.995184988105852
vn 0 -0.16289651791547483 -0.9866431596332148
vn 0 -0.2270791265510817 -0.9738763115944435
vn 0 -0.29028096115192814 -0.9569414629917091
vn 0 -0.3522511940528324 -0.9359054953831363
vn 0 -0.4127088556724874 -0.9108629976289003
vn 0 -0.4713948266114025 -0.8819222853766684
vn 0 -0.5280677754617048 -0.8492022282818895
vn 0 -0.5824795445779861 -0.8128453605380435
vn 0 -0.6343903742832545 -0.773012841430692
vn 0 -0.6835943801553823 -0.7298621263087834
vn 0 -0.7298625889286339 -0.6835938862236789
vn 0 -0.7730107157439207 -0.6343929644511133
vn 0 -0.812847104047076 -0.5824771115179392
vn 0 -0.8492018612662754 -0.5280683656704815
vn 0 -0.8819211540427397 -0.47139694319323094
vn 0 -0.910864274089383 -0.41270603846760145
vn 0 -0.9359059303297915 -0.3522500384294192
vn 0 -0.9569402399077468 -0.2902849931451916
vn 0 -0.9738769124211409 -0.22707654976475516
vn 0 -0.9866434237970805 -0.16289491790100388
vn 0 -0.9951847214293675 -0.09801719356088548
vn 0 -0.999464593052981 -0.03271891247336003
vn 0 -1 0
vn 0 0.9994645892764863 0.032719027833732345
vn 0 0.9951847468662313 0.0980169352958712
vn 0 0.9866432019285424 0.1628962617379341
vn 0 0.9738771257284677 0.22707563493879784
vn 0 0.9569402150717945 0.29028507501824435
vn 0 0.9359057976380117 0.3522503909828309
vn 0 0.9108641753620292 0.41270625636407593
vn 0 0.8819212168472481 0.47139682569430763
vn 0 0.8492018612662754 0.5280683656704815
vn 0 0.8128466036172227 0.5824778098674194
vn 0 0.7730105028725628 0.6343932238357433
vn 0 0.7298638856856278 0.6835925016937188
vn 0 0.6835918867936336 0.7298644616022348
vn 0 0.6343949938404796 0.7730090502640561
vn 0 0.5824778098674194 0.8128466036172227
vn 0 0.5280678881577032 0.8492021582030179
vn 0 0.47139503842968844 0.8819221721579931
vn 0 0.41270786045660346 0.9108634485570999
vn 0 0.35225021470613255 0.9359058639839177
vn 0 0.29028475825973143 0.9569403111595256
vn 0 0.2270760146213688 0.9738770371990891
vn 0 0.16289716574833688 0.9866430526746534
vn 0 0.09801705335988019 0.9951847352379589
vn 0 0.03271789460867211 0.9994646263737281
vn 0 -0.03271789460867211 0.9994646263737281
vn 0 -0.09801705335988019 0.9951847352379589
vn 0 -0.16289716574833688 0.9866430526746534
vn 0 -0.2270760146213688 0.9738770371990891
vn 0 -0.29028475825973143 0.9569403111595256
vn 0 -0.35225021470613255 0.9359058639839177
vn 0 -0.41270786045660346 0.9108634485570999
vn 0 -0.47139503842968844 0.8819221721579931
vn 0 -0.5280678881577032 0.8492021582030179
vn 0 -0.5824778098674194 0.8128466036172227
vn 0 -0.6343949938404796 0.7730090502640561
vn 0 -0.6835918867936336 0.7298644616022348
vn 0 -0.7298638856856278 0.6835925016937188
vn 0 -0.7730105028725628 0.6343932238357433
vn 0 -0.8128466036172227 0.5824778098674194
vn 0 -0.8492018612662754 0.5280683656704815
vn 0 -0.8819212168472481 0.47139682569430763
vn 0 -0.9108641753620292 0.41270625636407593
vn 0 -0.9359057976380117 0.3522503909828309
vn 0 -0.9569402150717945 0.29028507501824435
vn 0 -0.9738771257284677 0.22707563493879784
vn 0 -0.9866432019285424 0.1628962617379341
vn 0 -0.9951847468662313 0.0980169352958712
vn 0 -0.9994645892764863 0.032719027833732345
f 103/134/54 104/135/54 105/136/54
f 106/137/54 107/138/54 103/134/54
f 108/139/54 109/140/54 110/141/54
f 111/142/54 112/143/54 108/139/54
f 113/144/54 114/145/54 111/142/54
f 115/146/54 116/147/54 113/144/54
f 117/148/54 118/149/54 115/146/54
f 119/150/54 120/151/54 117/148/54
f 121/152/54 122/153/54 119/150/54
f 123/154/54 124/155/54 121/152/54
f 125/156/54 126/157/54 123/154/54
f 127/158/54 128/159/54 125/156/54
f 129/160/54 130/161/54 127/158/54
f 131/162/54 132/163/54 129/160/54
f 133/164/54 134/165/54 131/162/54
f 135/166/54 136/167/54 133/164/54
f 137/168/54 138/169/54 135/166/54
f 139/170/54 140/171/54 137/168/54
f 141/172/54 142/173/54 139/170/54
f 143/174/54 144/175/54 141/172/54
f 145/176/54 146/177/54 143/174/54
f 147/178/54 148/179/54 145/176/54
f 149/180/54 150/181/54 147/178/54
f 151/182/54 152/183/54 149/180/54
f 153/184/54 154/185/54 151/182/54
f 155/186/54 156/187/54 153/184/54
f 105/136/54 157/188/54 155/186/54
f 106/137/54 103/134/54 105/136/54
f 108/139/54 110/141/54 158/189/54
f 113/144/54 111/142/54 108/139/54
f 117/148/54 115/146/54 113/144/54
f 121/152/54 119/150/54 117/148/54
f 125/156/54 123/154/54 121/152/54
f 129/160/54 127/158/54 125/156/54
f 133/164/54 131/162/54 129/160/54
f 137/168/54 135/166/54 133/164/54
f 141/172/54 139/170/54 137/168/54
f 145/176/54 143/174/54 141/172/54
f 149/180/54 147/178/54 145/176/54
f 153/184/54 151/182/54 149/180/54
f 105/136/54 155/186/54 153/184/54
f 159/190/54 106/137/54 105/136/54
f 113/144/54 108/139/54 158/189/54
f 121/152/54 117/148/54 113/144/54
f 129/160/54 125/156/54 121/152/54
f 137/168/54 133/164/54 129/160/54
f 145/176/54 141/172/54 137/168/54
f 153/184/54 149/180/54 145/176/54
f 159/190/54 105/136/54 153/184/54
f 113/144/54 158/189/54 160/191/54
f 129/160/54 121/152/54 113/144/54
f 145/176/54 137/168/54 129/160/54
f 161/192/54 159/190/54 153/184/54
f 113/144/54 160/191/54 162/193/54
f 163/194/54 161/192/54 153/184/54
f 113/144/54 162/193/54 164/195/54
f 165/196/54 163/194/54 153/184/54
f 113/144/54 164/195/54 166/197/54
f 165/196/54 153/184/54 145/176/54
f 113/144/54 166/197/54 167/198/54
f 168/199/54 165/196/54 145/176/54
f 113/144/54 167/198/54 169/200/54
f 170/201/54 168/199/54 145/176/54
f 113/144/54 169/200/54 171/202/54
f 172/203/54 170/201/54 145/176/54
f 113/144/54 171/202/54 173/204/54
f 174/205/54 172/203/54 145/176/54
f 113/144/54 173/204/54 175/206/54
f 176/207/54 174/205/54 145/176/54
f 113/144/54 175/206/54 177/208/54
f 178/209/54 176/207/54 145/176/54
f 113/144/54 177/208/54 179/210/54
f 180/211/54 178/209/54 145/176/54
f 129/160/54 113/144/54 179/210/54
f 181/212/54 180/211/54 145/176/54
f 129/160/54 179/210/54 182/213/54
f 183/214/54 181/212/54 145/176/54
f 129/160/54 182/213/54 184/215/54
f 185/216/54 183/214/54 145/176/54
f 129/160/54 184/215/54 186/217/54
f 187/218/54 185/216/54 145/176/54
f 129/160/54 186/217/54 188/219/54
f 189/220/54 187/218/54 145/176/54
f 129/160/54 188/219/54 190/221/54
f 191/222/54 189/220/54 145/176/54
f 129/160/54 190/221/54 192/223/54
f 193/224/54 191/222/54 145/176/54
f 129/160/54 192/223/54 194/225/54
f 195/226/54 193/224/54 145/176/54
f 129/160/54 194/225/54 196/227/54
f 197/228/54 195/226/54 145/176/54
f 129/160/54 196/227/54 198/229/54
f 197/228/54 145/176/54 129/160/54
f 129/160/54 198/229/54 199/230/54
f 200/231/54 197/228/54 129/160/54
f 129/160/54 199/230/54 201/232/54
f 202/233/54 200/231/54 129/160/54
f 129/160/54 201/232/54 203/234/54
f 204/235/54 202/233/54 129/160/54
f 129/160/54 203/234/54 204/235/54
f 205/136/55 206/135/55 207/134/55
f 207/134/55 208/138/55 209/137/55
f 210/141/55 211/140/55 212/139/55
f 212/139/55 213/143/55 214/142/55
f 214/142/55 215/145/55 216/144/55
f 216/144/55 217/147/55 218/146/55
f 218/146/55 219/149/55 220/148/55
f 220/148/55 221/151/55 222/150/55
f 222/150/55 223/153/55 224/152/55
f 224/152/55 225/155/55 226/154/55
f 226/154/55 227/157/55 228/156/55
f 228/156/55 229/159/55 230/158/55
f 230/158/55 231/161/55 232/160/55
f 232/160/55 233/163/55 234/162/55
f 234/162/55 235/165/55 236/164/55
f 236/164/55 237/167/55 238/166/55
f 238/166/55 239/169/55 240/168/55
f 240/168/55 241/171/55 242/170/55
f 242/170/55 243/173/55 244/172/55
f 244/172/55 245/175/55 246/174/55
f 246/174/55 247/177/55 248/176/55
f 248/176/55 249/179/55 250/178/55
f 250/178/55 251/181/55 252/180/55
f 252/180/55 253/183/55 254/182/55
f 254/182/55 255/185/55 256/184/55
f 256/184/55 257/187/55 258/186/55
f 258/186/55 259/188/55 205/136/55
f 205/136/55 207/134/55 209/137/55
f 260/189/55 210/141/55 212/139/55
f 212/139/55 214/142/55 216/144/55
f 216/144/55 218/146/55 220/148/55
f 220/148/55 222/150/55 224/152/55
f 224/152/55 226/154/55 228/156/55
f 228/156/55 230/158/55 232/160/55
f 232/160/55 234/162/55 236/164/55
f 236/164/55 238/166/55 240/168/55
f 240/168/55 242/170/55 244/172/55
f 244/172/55 246/174/55 248/176/55
f 248/176/55 250/178/55 252/180/55
f 252/180/55 254/182/55 256/184/55
f 256/184/55 258/186/55 205/136/55
f 205/136/55 209/137/55 261/190/55
f 260/189/55 212/139/55 216/144/55
f 216/144/55 220/148/55 224/152/55
f 224/152/55 228/156/55 232/160/55
f 232/160/55 236/164/55 240/168/55
f 240/168/55 244/172/55 248/176/55
f 248/176/55 252/180/55 256/184/55
f 256/184/55 205/136/55 261/190/55
f 262/191/55 260/189/55 216/144/55
f 216/144/55 224/152/55 232/160/55
f 232/160/55 240/168/55 248/176/55
f 256/184/55 261/190/55 263/192/55
f 264/193/55 262/191/55 216/144/55
f 256/184/55 263/192/55 265/194/55
f 266/195/55 264/193/55 216/144/55
f 256/184/55 265/194/55 267/196/55
f 268/197/55 266/195/55 216/144/55
f 248/176/55 256/184/55 267/196/55
f 269/198/55 268/197/55 216/144/55
f 248/176/55 267/196/55 270/199/55
f 271/200/55 269/198/55 216/144/55
f 248/176/55 270/199/55 272/201/55
f 273/202/55 271/200/55 216/144/55
f 248/176/55 272/201/55 274/203/55
f 275/204/55 273/202/55 216/144/55
f 248/176/55 274/203/55 276/205/55
f 277/206/55 275/204/55 216/144/55
f 248/176/55 276/205/55 278/207/55
f 279/208/55 277/206/55 216/144/55
f 248/176/55 278/207/55 280/209/55
f 281/210/55 279/208/55 216/144/55
f 248/176/55 280/209/55 282/211/55
f 281/210/55 216/144/55 232/160/55
f 248/176/55 282/211/55 283/212/55
f 284/213/55 281/210/55 232/160/55
f 248/176/55 283/212/55 285/214/55
f 286/215/55 284/213/55 232/160/55
f 248/176/55 285/214/55 287/216/55
f 288/217/55 286/215/55 232/160/55
f 248/176/55 287/216/55 289/218/55
f 290/219/55 288/217/55 232/160/55
f 248/176/55 289/218/55 291/220/55
f 292/221/55 290/219/55 232/160/55
f 248/176/55 291/220/55 293/222/55
f 294/223/55 292/221/55 232/160/55
f 248/176/55 293/222/55 295/224/55
f 296/225/55 294/223/55 232/160/55
f 248/176/55 295/224/55 297/226/55
f 298/227/55 296/225/55 232/160/55
f 248/176/55 297/226/55 299/228/55
f 300/229/55 298/227/55 232/160/55
f 232/160/55 248/176/55 299/228/55
f 301/230/55 300/229/55 232/160/55
f 232/160/55 299/228/55 302/231/55
f 303/232/55 301/230/55 232/160/55
f 232/160/55 302/231/55 304/233/55
f 305/234/55 303/232/55 232/160/55
f 232/160/55 304/233/55 306/235/55
f 306/235/55 305/234/55 232/160/55
f 103/236/56 107/237/56 207/238/56
f 107/237/56 208/239/56 207/238/56
f 107/240/57 106/241/57 208/242/57
f 106/241/57 209/243/57 208/242/57
f 106/241/58 159/244/58 209/243/58
f 159/244/58 261/245/58 209/243/58
f 159/244/59 161/246/59 261/245/59
f 161/246/59 263/247/59 261/245/59
f 161/246/60 163/248/60 263/247/60
f 163/248/60 265/249/60 263/247/60
f 163/248/61 165/250/61 265/249/61
f 165/250/61 267/251/61 265/249/61
f 165/250/62 168/252/62 267/251/62
f 168/252/62 270/253/62 267/251/62
f 168/252/63 170/254/63 270/253/63
f 170/254/63 272/255/63 270/253/63
f 170/254/64 172/256/64 272/255/64
f 172/256/64 274/257/64 272/255/64
f 172/256/65 174/258/65 274/257/65
f 174/258/65 276/259/65 274/257/65
f 174/258/66 176/260/66 276/259/66
f 176/260/66 278/261/66 276/259/66
f 176/260/67 178/262/67 278/261/67
f 178/262/67 280/263/67 278/261/67
f 178/262/68 180/264/68 280/263/68
f 180/264/68 282/265/68 280/263/68
f 180/264/69 181/266/69 282/265/69
f 181/266/69 283/267/69 282/265/69
f 181/268/70 183/269/70 283/270/70
f 183/269/70 285/271/70 283/270/70
f 183/269/71 185/272/71 285/271/71
f 185/272/71 287/273/71 285/271/71
f 185/272/72 187/274/72 287/273/72
f 187/274/72 289/275/72 287/273/72
f 187/274/73 189/276/73 289/275/73
f 189/276/73 291/277/73 289/275/73
f 189/276/74 191/278/74 291/277/74
f 191/278/74 293/279/74 291/277/74
f 191/278/75 193/280/75 293/279/75
f 193/280/75 295/281/75 293/279/75
f 193/280/76 195/282/76 295/281/76
f 195/282/76 297/283/76 295/281/76
f 195/282/77 197/284/77 297/283/77
f 197/284/77 299/285/77 297/283/77
f 197/284/78 200/286/78 299/285/78
f 200/286/78 302/287/78 299/285/78
f 200/286/79 202/288/79 302/287/79
f 202/288/79 304/289/79 302/287/79
f 202/288/80 204/290/80 304/289/80
f 204/290/80 306/291/80 304/289/80
f 204/290/81 203/292/81 306/291/81
f 203/292/81 305/293/81 306/291/81
f 203/292/82 201/294/82 305/293/82
f 201/294/82 303/295/82 305/293/82
f 201/294/83 199/296/83 303/295/83
f 199/296/83 301/297/83 303/295/83
f 199/296/84 198/298/84 301/297/84
f 198/298/84 300/299/84 301/297/84
f 198/298/85 196/300/85 300/299/85
f 196/300/85 298/301/85 300/299/85
f 196/300/86 194/302/86 298/301/86
f 194/302/86 296/303/86 298/301/86
f 194/302/87 192/304/87 296/303/87
f 192/304/87 294/305/87 296/303/87
f 192/304/88 190/306/88 294/305/88
f 190/306/88 292/307/88 294/305/88
f 190/306/89 188/308/89 292/307/89
f 188/308/89 290/309/89 292/307/89
f 188/308/90 186/310/90 290/309/90
f 186/310/90 288/311/90 290/309/90
f 186/310/91 184/312/91 288/311/91
f 184/312/91 286/313/91 288/311/91
f 184/312/92 182/314/92 286/313/92
f 182/314/92 284/315/92 286/313/92
f 182/314/93 179/316/93 284/315/93
f 179/316/93 281/317/93 284/315/93
f 179/266/94 177/264/94 281/267/94
f 177/264/94 279/265/94 281/267/94
f 177/264/95 175/262/95 279/265/95
f 175/262/95 277/263/95 279/265/95
f 175/262/96 173/260/96 277/263/96
f 173/260/96 275/261/96 277/263/96
f 173/260/97 171/258/97 275/261/97
f 171/258/97 273/259/97 275/261/97
f 171/258/98 169/256/98 273/259/98
f 169/256/98 271/257/98 273/259/98
f 169/256/99 167/254/99 271/257/99
f 167/254/99 269/255/99 271/257/99
f 167/254/100 166/252/100 269/255/100
f 166/252/100 268/253/100 269/255/100
f 166/252/101 164/250/101 268/253/101
f 164/250/101 266/251/101 268/253/101
f 164/250/102 162/248/102 266/251/102
f 162/248/102 264/249/102 266/251/102
f 162/248/103 160/246/103 264/249/103
f 160/246/103 262/247/103 264/249/103
f 160/246/104 158/244/104 262/247/104
f 158/244/104 260/245/104 262/247/104
f 158/244/105 110/241/105 260/245/105
f 110/241/105 210/243/105 260/245/105
f 110/241/106 109/240/106 210/243/106
f 109/240/106 211/242/106 210/243/106
f 109/318/56 108/319/56 211/320/56
f 108/319/56 212/321/56 211/320/56
f 108/240/57 112/241/57 212/242/57
f 112/241/57 213/243/57 212/242/57
f 112/241/107 111/322/107 213/243/107
f 111/322/107 214/323/107 213/243/107
f 111/322/108 114/324/108 214/323/108
f 114/324/108 215/325/108 214/323/108
f 114/324/109 113/326/109 215/325/109
f 113/326/109 216/327/109 215/325/109
f 113/326/110 116/328/110 216/327/110
f 116/328/110 217/329/110 216/327/110
f 116/328/111 115/330/111 217/329/111
f 115/330/111 218/331/111 217/329/111
f 115/330/112 118/332/112 218/331/112
f 118/332/112 219/333/112 218/331/112
f 118/332/113 117/334/113 219/333/113
f 117/334/113 220/335/113 219/333/113
f 117/334/114 120/336/114 220/335/114
f 120/336/114 221/337/114 220/335/114
f 120/336/115 119/338/115 221/337/115
f 119/338/115 222/339/115 221/337/115
f 119/338/116 122/340/116 222/339/116
f 122/340/116 223/341/116 222/339/116
f 122/340/117 121/342/117 223/341/117
f 121/342/117 224/343/117 223/341/117
f 121/342/118 124/344/118 224/343/118
f 124/344/118 225/345/118 224/343/118
f 124/346/119 123/347/119 225/348/119
f 123/347/119 226/349/119 225/348/119
f 123/347/120 126/350/120 226/349/120
f 126/350/120 227/351/120 226/349/120
f 126/350/121 125/352/121 227/351/121
f 125/352/121 228/353/121 227/351/121
f 125/352/122 128/354/122 228/353/122
f 128/354/122 229/355/122 228/353/122
f 128/354/123 127/356/123 229/355/123
f 127/356/123 230/357/123 229/355/123
f 127/356/124 130/358/124 230/357/124
f 130/358/124 231/359/124 230/357/124
f 130/358/125 129/360/125 231/359/125
f 129/360/125 232/361/125 231/359/125
f 129/360/126 132/362/126 232/361/126
f 132/362/126 233/363/126 232/361/126
f 132/362/127 131/364/127 233/363/127
f 131/364/127 234/365/127 233/363/127
f 131/364/128 134/366/128 234/365/128
f 134/366/128 235/367/128 234/365/128
f 134/366/129 133/368/129 235/367/129
f 133/368/129 236/369/129 235/367/129
f 133/368/130 136/370/130 236/369/130
f 136/370/130 237/371/130 236/369/130
f 136/370/131 135/372/131 237/371/131
f 135/372/131 238/373/131 237/371/131
f 135/372/132 138/374/132 238/373/132
f 138/374/132 239/375/132 238/373/132
f 138/374/133 137/376/133 239/375/133
f 137/376/133 240/377/133 239/375/133
f 137/376/134 140/378/134 240/377/134
f 140/378/134 241/379/134 240/377/134
f 140/378/135 139/380/135 241/379/135
f 139/380/135 242/381/135 241/379/135
f 139/380/136 142/382/136 242/381/136
f 142/382/136 243/383/136 242/381/136
f 142/382/137 141/384/137 243/383/137
f 141/384/137 244/385/137 243/383/137
f 141/384/138 144/386/138 244/385/138
f 144/386/138 245/387/138 244/385/138
f 144/386/139 143/388/139 245/387/139
f 143/388/139 246/389/139 245/387/139
f 143/388/140 146/390/140 246/389/140
f 146/390/140 247/391/140 246/389/140
f 146/390/141 145/392/141 247/391/141
f 145/392/141 248/393/141 247/391/141
f 145/392/142 148/394/142 248/393/142
f 148/394/142 249/395/142 248/393/142
f 148/344/143 147/342/143 249/345/143
f 147/342/143 250/343/143 249/345/143
f 147/342/144 150/340/144 250/343/144
f 150/340/144 251/341/144 250/343/144
f 150/340/145 149/338/145 251/341/145
f 149/338/145 252/339/145 251/341/145
f 149/338/146 152/336/146 252/339/146
f 152/336/146 253/337/146 252/339/146
f 152/336/147 151/334/147 253/337/147
f 151/334/147 254/335/147 253/337/147
f 151/334/148 154/332/148 254/335/148
f 154/332/148 255/333/148 254/335/148
f 154/332/149 153/330/149 255/333/149
f 153/330/149 256/331/149 255/333/149
f 153/330/150 156/328/150 256/331/150
f 156/328/150 257/329/150 256/331/150
f 156/328/151 155/326/151 257/329/151
f 155/326/151 258/327/151 257/329/151
f 155/326/152 157/324/152 258/327/152
f 157/324/152 259/325/152 258/327/152
f 157/324/153 105/322/153 259/325/153
f 105/322/153 205/323/153 259/325/153
f 105/322/154 104/241/154 205/323/154
f 104/241/154 206/243/154 205/323/154
f 104/241/106 103/240/106 206/243/106
f 103/240/106 207/242/106 206/243/106
