mtllib castor_right.mtl
o castor_right_tyre
usemtl castor_polyurethane
v 0 -0.025000000372529044 -0.06249999999999999
v 0.010853011161088943 -0.025000000372529044 -0.06155048310756683
v 0.02137625962495804 -0.025000000372529044 -0.05873078852891921
v 0.03125 -0.02500000037252904 -0.05412658676505088
v 0.040174227207899094 -0.02500000037252904 -0.04787777736783027
v 0.047877777367830276 -0.02500000037252904 -0.04017422720789909
v 0.05412658676505089 -0.025000000372529037 -0.031249999999999993
v 0.05873078852891922 -0.025000000372529033 -0.02137625962495803
v 0.061550483107566833 -0.025000000372529033 -0.010853011161088938
v 0.0625 -0.02500000037252903 3.2549023572466542e-18
v 0.061550483107566833 -0.025000000372529026 0.010853011161088949
v 0.05873078852891922 -0.025000000372529026 0.021376259624958045
v 0.05412658676505089 -0.025000000372529023 0.03125000000000001
v 0.047877777367830276 -0.02500000037252902 0.0401742272078991
v 0.040174227207899094 -0.02500000037252902 0.04787777736783028
v 0.03125 -0.02500000037252902 0.054126586765050895
v 0.02137625962495804 -0.025000000372529016 0.05873078852891923
v 0.010853011161088943 -0.025000000372529016 0.06155048310756684
v 7.654042828657299e-18 -0.025000000372529016 0.0625
v -0.010853011161088943 -0.025000000372529016 0.06155048310756684
v -0.02137625962495804 -0.025000000372529016 0.05873078852891923
v -0.03125 -0.02500000037252902 0.054126586765050895
v -0.040174227207899094 -0.02500000037252902 0.04787777736783028
v -0.047877777367830276 -0.02500000037252902 0.0401742272078991
v -0.05412658676505089 -0.025000000372529023 0.03125000000000001
v -0.05873078852891922 -0.025000000372529026 0.021376259624958045
v -0.061550483107566833 -0.025000000372529026 0.010853011161088949
v -0.0625 -0.02500000037252903 1.856298718738064e-17
v -0.061550483107566833 -0.025000000372529033 -0.010853011161088938
v -0.05873078852891922 -0.025000000372529033 -0.02137625962495803
v -0.05412658676505089 -0.025000000372529037 -0.031249999999999993
v -0.047877777367830276 -0.02500000037252904 -0.04017422720789909
v -0.040174227207899094 -0.02500000037252904 -0.04787777736783027
v -0.03125 -0.02500000037252904 -0.05412658676505088
v -0.02137625962495804 -0.025000000372529044 -0.05873078852891921
v -0.010853011161088943 -0.025000000372529044 -0.06155048310756683
v -1.5308085657314598e-17 -0.025000000372529044 -0.06249999999999999
v 0 0.025000000372529016 -0.0625
v 0.010853011161088943 0.025000000372529016 -0.06155048310756684
v 0.02137625962495804 0.025000000372529016 -0.05873078852891923
v 0.03125 0.02500000037252902 -0.054126586765050895
v 0.040174227207899094 0.02500000037252902 -0.04787777736783028
v 0.047877777367830276 0.02500000037252902 -0.0401742272078991
v 0.05412658676505089 0.025000000372529023 -0.03125000000000001
v 0.05873078852891922 0.025000000372529026 -0.021376259624958045
v 0.061550483107566833 0.025000000372529026 -0.010853011161088949
v 0.0625 0.02500000037252903 -1.0908945185903953e-17
v 0.061550483107566833 0.025000000372529033 0.010853011161088938
v 0.05873078852891922 0.025000000372529033 0.02137625962495803
v 0.05412658676505089 0.025000000372529037 0.031249999999999993
v 0.047877777367830276 0.02500000037252904 0.04017422720789909
v 0.040174227207899094 0.02500000037252904 0.04787777736783027
v 0.03125 0.02500000037252904 0.05412658676505088
v 0.02137625962495804 0.025000000372529044 0.05873078852891921
v 0.010853011161088943 0.025000000372529044 0.06155048310756683
v 7.654042828657299e-18 0.025000000372529044 0.06249999999999999
v -0.010853011161088943 0.025000000372529044 0.06155048310756683
v -0.02137625962495804 0.025000000372529044 0.05873078852891921
v -0.03125 0.02500000037252904 0.05412658676505088
v -0.040174227207899094 0.02500000037252904 0.04787777736783027
v -0.047877777367830276 0.02500000037252904 0.04017422720789909
v -0.05412658676505089 0.025000000372529037 0.031249999999999993
v -0.05873078852891922 0.025000000372529033 0.02137625962495803
v -0.061550483107566833 0.025000000372529033 0.010853011161088938
v -0.0625 0.02500000037252903 4.399139644230032e-18
v -0.061550483107566833 0.025000000372529026 -0.010853011161088949
v -0.05873078852891922 0.025000000372529026 -0.021376259624958045
v -0.05412658676505089 0.025000000372529023 -0.03125000000000001
v -0.047877777367830276 0.02500000037252902 -0.0401742272078991
v -0.040174227207899094 0.02500000037252902 -0.04787777736783028
v -0.03125 0.02500000037252902 -0.054126586765050895
v -0.02137625962495804 0.025000000372529016 -0.05873078852891923
v -0.010853011161088943 0.025000000372529016 -0.06155048310756684
v -1.5308085657314598e-17 0.025000000372529016 -0.0625
v 0 -0.02500000037252903 7.081923771575304e-18
v 0 -0.02500000037252903 7.081923771575304e-18
v 0 -0.02500000037252903 7.081923771575304e-18
v 0 -0.02500000037252903 7.081923771575304e-18
v 0 -0.02500000037252903 7.081923771575304e-18
v 0 -0.02500000037252903 7.081923771575304e-18
v 0 -0.02500000037252903 7.081923771575304e-18
v 0 -0.02500000037252903 7.081923771575304e-18
v 0 -0.02500000037252903 7.081923771575304e-18
v 0 -0.02500000037252903 7.081923771575304e-18
v 0 -0.02500000037252903 7.081923771575304e-18
v 0 -0.02500000037252903 7.081923771575304e-18
v 0 -0.02500000037252903 7.081923771575304e-18
v 0 -0.02500000037252903 7.081923771575304e-18
v 0 -0.02500000037252903 7.081923771575304e-18
v 0 -0.02500000037252903 7.081923771575304e-18
v 0 -0.02500000037252903 7.081923771575304e-18
v 0 -0.02500000037252903 7.081923771575304e-18
v 0 -0.02500000037252903 7.081923771575304e-18
v 0 -0.02500000037252903 7.081923771575304e-18
v 0 -0.02500000037252903 7.081923771575304e-18
v 0 -0.02500000037252903 7.081923771575304e-18
v 0 -0.02500000037252903 7.081923771575304e-18
v 0 -0.02500000037252903 7.081923771575304e-18
v 0 -0.02500000037252903 7.081923771575304e-18
v 0 -0.02500000037252903 7.081923771575304e-18
v 0 -0.02500000037252903 7.081923771575304e-18
v 0 -0.02500000037252903 7.081923771575304e-18
v 0 -0.02500000037252903 7.081923771575304e-18
v 0 -0.02500000037252903 7.081923771575304e-18
v 0 -0.02500000037252903 7.081923771575304e-18
v 0 -0.02500000037252903 7.081923771575304e-18
v 0 -0.02500000037252903 7.081923771575304e-18
v 0 -0.02500000037252903 7.081923771575304e-18
v 0 -0.02500000037252903 7.081923771575304e-18
v 0 -0.02500000037252903 7.081923771575304e-18
v 0 -0.025000000372529044 -0.06249999999999999
v 0.010853011161088943 -0.025000000372529044 -0.06155048310756683
v 0.02137625962495804 -0.025000000372529044 -0.05873078852891921
v 0.03125 -0.02500000037252904 -0.05412658676505088
v 0.040174227207899094 -0.02500000037252904 -0.04787777736783027
v 0.047877777367830276 -0.02500000037252904 -0.04017422720789909
v 0.05412658676505089 -0.025000000372529037 -0.031249999999999993
v 0.05873078852891922 -0.025000000372529033 -0.02137625962495803
v 0.061550483107566833 -0.025000000372529033 -0.010853011161088938
v 0.0625 -0.02500000037252903 3.2549023572466542e-18
v 0.061550483107566833 -0.025000000372529026 0.010853011161088949
v 0.05873078852891922 -0.025000000372529026 0.021376259624958045
v 0.05412658676505089 -0.025000000372529023 0.03125000000000001
v 0.047877777367830276 -0.02500000037252902 0.0401742272078991
v 0.040174227207899094 -0.02500000037252902 0.04787777736783028
v 0.03125 -0.02500000037252902 0.054126586765050895
v 0.02137625962495804 -0.025000000372529016 0.05873078852891923
v 0.010853011161088943 -0.025000000372529016 0.06155048310756684
v 7.654042828657299e-18 -0.025000000372529016 0.0625
v -0.010853011161088943 -0.025000000372529016 0.06155048310756684
v -0.02137625962495804 -0.025000000372529016 0.05873078852891923
v -0.03125 -0.02500000037252902 0.054126586765050895
v -0.040174227207899094 -0.02500000037252902 0.04787777736783028
v -0.047877777367830276 -0.02500000037252902 0.0401742272078991
v -0.05412658676505089 -0.025000000372529023 0.03125000000000001
v -0.05873078852891922 -0.025000000372529026 0.021376259624958045
v -0.061550483107566833 -0.025000000372529026 0.010853011161088949
v -0.0625 -0.02500000037252903 1.856298718738064e-17
v -0.061550483107566833 -0.025000000372529033 -0.010853011161088938
v -0.05873078852891922 -0.025000000372529033 -0.02137625962495803
v -0.05412658676505089 -0.025000000372529037 -0.031249999999999993
v -0.047877777367830276 -0.02500000037252904 -0.04017422720789909
v -0.040174227207899094 -0.02500000037252904 -0.04787777736783027
v -0.03125 -0.02500000037252904 -0.05412658676505088
v -0.02137625962495804 -0.025000000372529044 -0.05873078852891921
v -0.010853011161088943 -0.025000000372529044 -0.06155048310756683
v -1.5308085657314598e-17 -0.025000000372529044 -0.06249999999999999
v 0 0.02500000037252903 -7.081923771575304e-18
v 0 0.02500000037252903 -7.081923771575304e-18
v 0 0.02500000037252903 -7.081923771575304e-18
v 0 0.02500000037252903 -7.081923771575304e-18
v 0 0.02500000037252903 -7.081923771575304e-18
v 0 0.02500000037252903 -7.081923771575304e-18
v 0 0.02500000037252903 -7.081923771575304e-18
v 0 0.02500000037252903 -7.081923771575304e-18
v 0 0.02500000037252903 -7.081923771575304e-18
v 0 0.02500000037252903 -7.081923771575304e-18
v 0 0.02500000037252903 -7.081923771575304e-18
v 0 0.02500000037252903 -7.081923771575304e-18
v 0 0.02500000037252903 -7.081923771575304e-18
v 0 0.02500000037252903 -7.081923771575304e-18
v 0 0.02500000037252903 -7.081923771575304e-18
v 0 0.02500000037252903 -7.081923771575304e-18
v 0 0.02500000037252903 -7.081923771575304e-18
v 0 0.02500000037252903 -7.081923771575304e-18
v 0 0.02500000037252903 -7.081923771575304e-18
v 0 0.02500000037252903 -7.081923771575304e-18
v 0 0.02500000037252903 -7.081923771575304e-18
v 0 0.02500000037252903 -7.081923771575304e-18
v 0 0.02500000037252903 -7.081923771575304e-18
v 0 0.02500000037252903 -7.081923771575304e-18
v 0 0.02500000037252903 -7.081923771575304e-18
v 0 0.02500000037252903 -7.081923771575304e-18
v 0 0.02500000037252903 -7.081923771575304e-18
v 0 0.02500000037252903 -7.081923771575304e-18
v 0 0.02500000037252903 -7.081923771575304e-18
v 0 0.02500000037252903 -7.081923771575304e-18
v 0 0.02500000037252903 -7.081923771575304e-18
v 0 0.02500000037252903 -7.081923771575304e-18
v 0 0.02500000037252903 -7.081923771575304e-18
v 0 0.02500000037252903 -7.081923771575304e-18
v 0 0.02500000037252903 -7.081923771575304e-18
v 0 0.02500000037252903 -7.081923771575304e-18
v 0 0.025000000372529016 -0.0625
v 0.010853011161088943 0.025000000372529016 -0.06155048310756684
v 0.02137625962495804 0.025000000372529016 -0.05873078852891923
v 0.03125 0.02500000037252902 -0.054126586765050895
v 0.040174227207899094 0.02500000037252902 -0.04787777736783028
v 0.047877777367830276 0.02500000037252902 -0.0401742272078991
v 0.05412658676505089 0.025000000372529023 -0.03125000000000001
v 0.05873078852891922 0.025000000372529026 -0.021376259624958045
v 0.061550483107566833 0.025000000372529026 -0.010853011161088949
v 0.0625 0.02500000037252903 -1.0908945185903953e-17
v 0.061550483107566833 0.025000000372529033 0.010853011161088938
v 0.05873078852891922 0.025000000372529033 0.02137625962495803
v 0.05412658676505089 0.025000000372529037 0.031249999999999993
v 0.047877777367830276 0.02500000037252904 0.04017422720789909
v 0.040174227207899094 0.02500000037252904 0.04787777736783027
v 0.03125 0.02500000037252904 0.05412658676505088
v 0.02137625962495804 0.025000000372529044 0.05873078852891921
v 0.010853011161088943 0.025000000372529044 0.06155048310756683
v 7.654042828657299e-18 0.025000000372529044 0.06249999999999999
v -0.010853011161088943 0.025000000372529044 0.06155048310756683
v -0.02137625962495804 0.025000000372529044 0.05873078852891921
v -0.03125 0.02500000037252904 0.05412658676505088
v -0.040174227207899094 0.02500000037252904 0.04787777736783027
v -0.047877777367830276 0.02500000037252904 0.04017422720789909
v -0.05412658676505089 0.025000000372529037 0.031249999999999993
v -0.05873078852891922 0.025000000372529033 0.02137625962495803
v -0.061550483107566833 0.025000000372529033 0.010853011161088938
v -0.0625 0.02500000037252903 4.399139644230032e-18
v -0.061550483107566833 0.025000000372529026 -0.010853011161088949
v -0.05873078852891922 0.025000000372529026 -0.021376259624958045
v -0.05412658676505089 0.025000000372529023 -0.03125000000000001
v -0.047877777367830276 0.02500000037252902 -0.0401742272078991
v -0.040174227207899094 0.02500000037252902 -0.04787777736783028
v -0.03125 0.02500000037252902 -0.054126586765050895
v -0.02137625962495804 0.025000000372529016 -0.05873078852891923
v -0.010853011161088943 0.025000000372529016 -0.06155048310756684
v -1.5308085657314598e-17 0.025000000372529016 -0.0625
vt 0 1
vt 0.02777777798473835 1
vt 0.0555555559694767 1
vt 0.0833333358168602 1
vt 0.1111111119389534 1
vt 0.1388888955116272 1
vt 0.1666666716337204 1
vt 0.1944444477558136 1
vt 0.2222222238779068 1
vt 0.25 1
vt 0.2777777910232544 1
vt 0.3055555522441864 1
vt 0.3333333432674408 1
vt 0.3611111044883728 1
vt 0.3888888955116272 1
vt 0.4166666567325592 1
vt 0.4444444477558136 1
vt 0.4722222089767456 1
vt 0.5 1
vt 0.5277777910232544 1
vt 0.5555555820465088 1
vt 0.5833333134651184 1
vt 0.6111111044883728 1
vt 0.6388888955116272 1
vt 0.6666666865348816 1
vt 0.6944444179534912 1
vt 0.7222222089767456 1
vt 0.75 1
vt 0.7777777910232544 1
vt 0.8055555820465088 1
vt 0.8333333134651184 1
vt 0.8611111044883728 1
vt 0.8888888955116272 1
vt 0.9166666865348816 1
vt 0.9444444179534912 1
vt 0.9722222089767456 1
vt 1 1
vt 0 0
vt 0.02777777798473835 0
vt 0.0555555559694767 0
vt 0.0833333358168602 0
vt 0.1111111119389534 0
vt 0.1388888955116272 0
vt 0.1666666716337204 0
vt 0.1944444477558136 0
vt 0.2222222238779068 0
vt 0.25 0
vt 0.2777777910232544 0
vt 0.3055555522441864 0
vt 0.3333333432674408 0
vt 0.3611111044883728 0
vt 0.3888888955116272 0
vt 0.4166666567325592 0
vt 0.4444444477558136 0
vt 0.4722222089767456 0
vt 0.5 0
vt 0.5277777910232544 0
vt 0.5555555820465088 0
vt 0.5833333134651184 0
vt 0.6111111044883728 0
vt 0.6388888955116272 0
vt 0.6666666865348816 0
vt 0.6944444179534912 0
vt 0.7222222089767456 0
vt 0.75 0
vt 0.7777777910232544 0
vt 0.8055555820465088 0
vt 0.8333333134651184 0
vt 0.8611111044883728 0
vt 0.8888888955116272 0
vt 0.9166666865348816 0
vt 0.9444444179534912 0
vt 0.9722222089767456 0
vt 1 0
vt 0.5 0.5
vt 0.5 0.5
vt 0.5 0.5
vt 0.5 0.5
vt 0.5 0.5
vt 0.5 0.5
vt 0.5 0.5
vt 0.5 0.5
vt 0.5 0.5
vt 0.5 0.5
vt 0.5 0.5
vt 0.5 0.5
vt 0.5 0.5
vt 0.5 0.5
vt 0.5 0.5
vt 0.5 0.5
vt 0.5 0.5
vt 0.5 0.5
vt 0.5 0.5
vt 0.5 0.5
vt 0.5 0.5
vt 0.5 0.5
vt 0.5 0.5
vt 0.5 0.5
vt 0.5 0.5
vt 0.5 0.5
vt 0.5 0.5
vt 0.5 0.5
vt 0.5 0.5
vt 0.5 0.5
vt 0.5 0.5
vt 0.5 0.5
vt 0.5 0.5
vt 0.5 0.5
vt 0.5 0.5
vt 0.5 0.5
vt 1 0.5
vt 0.9924038648605347 0.5868240594863892
vt 0.9698463082313538 0.6710100769996643
vt 0.9330127239227295 0.75
vt 0.8830222487449646 0.8213937878608704
vt 0.8213937878608704 0.8830222487449646
vt 0.75 0.9330127239227295
vt 0.6710100769996643 0.9698463082313538
vt 0.5868240594863892 0.9924038648605347
vt 0.5 1
vt 0.41317591071128845 0.9924038648605347
vt 0.3289899230003357 0.9698463082313538
vt 0.25 0.9330127239227295
vt 0.17860619723796844 0.8830222487449646
vt 0.11697778105735779 0.8213937878608704
vt 0.0669872984290123 0.75
vt 0.03015368990600109 0.6710100769996643
vt 0.007596123497933149 0.5868240594863892
vt 0 0.5
vt 0.007596123497933149 0.41317591071128845
vt 0.03015368990600109 0.3289899230003357
vt 0.0669872984290123 0.25
vt 0.11697778105735779 0.17860619723796844
vt 0.17860619723796844 0.11697778105735779
vt 0.25 0.0669872984290123
vt 0.3289899230003357 0.03015368990600109
vt 0.41317591071128845 0.007596123497933149
vt 0.5 0
vt 0.5868240594863892 0.007596123497933149
vt 0.6710100769996643 0.03015368990600109
vt 0.75 0.0669872984290123
vt 0.8213937878608704 0.11697778105735779
vt 0.8830222487449646 0.17860619723796844
vt 0.9330127239227295 0.25
vt 0.9698463082313538 0.3289899230003357
vt 0.9924038648605347 0.41317591071128845
vt 1 0.5
vt 0.5 0.5
vt 0.5 0.5
vt 0.5 0.5
vt 0.5 0.5
vt 0.5 0.5
vt 0.5 0.5
vt 0.5 0.5
vt 0.5 0.5
vt 0.5 0.5
vt 0.5 0.5
vt 0.5 0.5
vt 0.5 0.5
vt 0.5 0.5
vt 0.5 0.5
vt 0.5 0.5
vt 0.5 0.5
vt 0.5 0.5
vt 0.5 0.5
vt 0.5 0.5
vt 0.5 0.5
vt 0.5 0.5
vt 0.5 0.5
vt 0.5 0.5
vt 0.5 0.5
vt 0.5 0.5
vt 0.5 0.5
vt 0.5 0.5
vt 0.5 0.5
vt 0.5 0.5
vt 0.5 0.5
vt 0.5 0.5
vt 0.5 0.5
vt 0.5 0.5
vt 0.5 0.5
vt 0.5 0.5
vt 0.5 0.5
vt 1 0.5
vt 0.9924038648605347 0.41317591071128845
vt 0.9698463082313538 0.3289899230003357
vt 0.9330127239227295 0.25
vt 0.8830222487449646 0.17860619723796844
vt 0.8213937878608704 0.11697778105735779
vt 0.75 0.0669872984290123
vt 0.6710100769996643 0.03015368990600109
vt 0.5868240594863892 0.007596123497933149
vt 0.5 0
vt 0.41317591071128845 0.007596123497933149
vt 0.3289899230003357 0.03015368990600109
vt 0.25 0.0669872984290123
vt 0.17860619723796844 0.11697778105735779
vt 0.11697778105735779 0.17860619723796844
vt 0.0669872984290123 0.25
vt 0.03015368990600109 0.3289899230003357
vt 0.007596123497933149 0.41317591071128845
vt 0 0.5
vt 0.007596123497933149 0.5868240594863892
vt 0.03015368990600109 0.6710100769996643
vt 0.0669872984290123 0.75
vt 0.11697778105735779 0.8213937878608704
vt 0.17860619723796844 0.8830222487449646
vt 0.25 0.9330127239227295
vt 0.3289899230003357 0.9698463082313538
vt 0.41317591071128845 0.9924038648605347
vt 0.5 1
vt 0.5868240594863892 0.9924038648605347
vt 0.6710100769996643 0.9698463082313538
vt 0.75 0.9330127239227295
vt 0.8213937878608704 0.8830222487449646
vt 0.8830222487449646 0.8213937878608704
vt 0.9330127239227295 0.75
vt 0.9698463082313538 0.6710100769996643
vt 0.9924038648605347 0.5868240594863892
vt 1 0.5
vn 0 -2.832769475542897e-16 -1
vn 0.17364818253298778 -2.7897333170530943e-16 -0.9848077521541907
vn 0.34202015414019754 -2.661932526473189e-16 -0.9396926168497417
vn 0.5000000067305869 -2.4532503084999274e-16 -0.8660253998985324
vn 0.6427876273097093 -2.1700272462688356e-16 -0.7660444283313822
vn 0.7660444283313822 -1.820869152457787e-16 -0.6427876273097093
vn 0.8660253998985324 -1.4163847568376496e-16 -0.5000000067305869
vn 0.9396926168497417 -9.688642441732223e-17 -0.34202015414019754
vn 0.9848077521541907 -4.9190527152098137e-17 -0.17364818253298778
vn 1 -1.7345711088142803e-32 -6.123234262925839e-17
vn 0.9848077521541907 4.9190527152098137e-17 0.17364818253298778
vn 0.9396926168497417 9.688642441732223e-17 0.34202015414019754
vn 0.8660253998985324 1.4163847568376496e-16 0.5000000067305869
vn 0.7660444283313822 1.820869152457787e-16 0.6427876273097093
vn 0.6427876273097093 2.1700272462688356e-16 0.7660444283313822
vn 0.5000000067305869 2.4532503084999274e-16 0.8660253998985324
vn 0.34202015414019754 2.661932526473189e-16 0.9396926168497417
vn 0.17364818253298778 2.7897333170530943e-16 0.9848077521541907
vn 1.2246468525851679e-16 2.832769475542897e-16 1
vn -0.17364818253298778 2.7897333170530943e-16 0.9848077521541907
vn -0.34202015414019754 2.661932526473189e-16 0.9396926168497417
vn -0.5000000067305869 2.4532503084999274e-16 0.8660253998985324
vn -0.6427876273097093 2.1700272462688356e-16 0.7660444283313822
vn -0.7660444283313822 1.820869152457787e-16 0.6427876273097093
vn -0.8660253998985324 1.4163847568376496e-16 0.5000000067305869
vn -0.9396926168497417 9.688642441732223e-17 0.34202015414019754
vn -0.9848077521541907 4.9190527152098137e-17 0.17364818253298778
vn -1 5.203712922366658e-32 1.8369701465288538e-16
vn -0.9848077521541907 -4.9190527152098137e-17 -0.17364818253298778
vn -0.9396926168497417 -9.688642441732223e-17 -0.34202015414019754
vn -0.8660253998985324 -1.4163847568376496e-16 -0.5000000067305869
vn -0.7660444283313822 -1.820869152457787e-16 -0.6427876273097093
vn -0.6427876273097093 -2.1700272462688356e-16 -0.7660444283313822
vn -0.5000000067305869 -2.4532503084999274e-16 -0.8660253998985324
vn -0.34202015414019754 -2.661932526473189e-16 -0.9396926168497417
vn -0.17364818253298778 -2.7897333170530943e-16 -0.9848077521541907
vn -2.4492937051703357e-16 -2.832769475542897e-16 -1
vn 0 -2.832769475542897e-16 -1
vn 0.17364818253298778 -2.7897333170530943e-16 -0.9848077521541907
vn 0.34202015414019754 -2.661932526473189e-16 -0.9396926168497417
vn 0.5000000067305869 -2.4532503084999274e-16 -0.8660253998985324
vn 0.6427876273097093 -2.1700272462688356e-16 -0.7660444283313822
vn 0.7660444283313822 -1.820869152457787e-16 -0.6427876273097093
vn 0.8660253998985324 -1.4163847568376496e-16 -0.5000000067305869
vn 0.9396926168497417 -9.688642441732223e-17 -0.34202015414019754
vn 0.9848077521541907 -4.9190527152098137e-17 -0.17364818253298778
vn 1 -1.7345711088142803e-32 -6.123234262925839e-17
vn 0.9848077521541907 4.9190527152098137e-17 0.17364818253298778
vn 0.9396926168497417 9.688642441732223e-17 0.34202015414019754
vn 0.8660253998985324 1.4163847568376496e-16 0.5000000067305869
vn 0.7660444283313822 1.820869152457787e-16 0.6427876273097093
vn 0.6427876273097093 2.1700272462688356e-16 0.7660444283313822
vn 0.5000000067305869 2.4532503084999274e-16 0.8660253998985324
vn 0.34202015414019754 2.661932526473189e-16 0.9396926168497417
vn 0.17364818253298778 2.7897333170530943e-16 0.9848077521541907
vn 1.2246468525851679e-16 2.832769475542897e-16 1
vn -0.17364818253298778 2.7897333170530943e-16 0.9848077521541907
vn -0.34202015414019754 2.661932526473189e-16 0.9396926168497417
vn -0.5000000067305869 2.4532503084999274e-16 0.8660253998985324
vn -0.6427876273097093 2.1700272462688356e-16 0.7660444283313822
vn -0.7660444283313822 1.820869152457787e-16 0.6427876273097093
vn -0.8660253998985324 1.4163847568376496e-16 0.5000000067305869
vn -0.9396926168497417 9.688642441732223e-17 0.34202015414019754
vn -0.9848077521541907 4.9190527152098137e-17 0.17364818253298778
vn -1 5.203712922366658e-32 1.8369701465288538e-16
vn -0.9848077521541907 -4.9190527152098137e-17 -0.17364818253298778
vn -0.9396926168497417 -9.688642441732223e-17 -0.34202015414019754
vn -0.8660253998985324 -1.4163847568376496e-16 -0.5000000067305869
vn -0.7660444283313822 -1.820869152457787e-16 -0.6427876273097093
vn -0.6427876273097093 -2.1700272462688356e-16 -0.7660444283313822
vn -0.5000000067305869 -2.4532503084999274e-16 -0.8660253998985324
vn -0.34202015414019754 -2.661932526473189e-16 -0.9396926168497417
vn -0.17364818253298778 -2.7897333170530943e-16 -0.9848077521541907
vn -2.4492937051703357e-16 -2.832769475542897e-16 -1
vn 0 -1 2.832769475542897e-16
vn 0 -1 2.832769475542897e-16
vn 0 -1 2.832769475542897e-16
vn 0 -1 2.832769475542897e-16
vn 0 -1 2.832769475542897e-16
vn 0 -1 2.832769475542897e-16
vn 0 -1 2.832769475542897e-16
vn 0 -1 2.832769475542897e-16
vn 0 -1 2.832769475542897e-16
vn 0 -1 2.832769475542897e-16
vn 0 -1 2.832769475542897e-16
vn 0 -1 2.832769475542897e-16
vn 0 -1 2.832769475542897e-16
vn 0 -1 2.832769475542897e-16
vn 0 -1 2.832769475542897e-16
vn 0 -1 2.832769475542897e-16
vn 0 -1 2.832769475542897e-16
vn 0 -1 2.832769475542897e-16
vn 0 -1 2.832769475542897e-16
vn 0 -1 2.832769475542897e-16
vn 0 -1 2.832769475542897e-16
vn 0 -1 2.832769475542897e-16
vn 0 -1 2.832769475542897e-16
vn 0 -1 2.832769475542897e-16
vn 0 -1 2.832769475542897e-16
vn 0 -1 2.832769475542897e-16
vn 0 -1 2.832769475542897e-16
vn 0 -1 2.832769475542897e-16
vn 0 -1 2.832769475542897e-16
vn 0 -1 2.832769475542897e-16
vn 0 -1 2.832769475542897e-16
vn 0 -1 2.832769475542897e-16
vn 0 -1 2.832769475542897e-16
vn 0 -1 2.832769475542897e-16
vn 0 -1 2.832769475542897e-16
vn 0 -1 2.832769475542897e-16
vn 0 -1 2.832769475542897e-16
vn 0 -1 2.832769475542897e-16
vn 0 -1 2.832769475542897e-16
vn 0 -1 2.832769475542897e-16
vn 0 -1 2.832769475542897e-16
vn 0 -1 2.832769475542897e-16
vn 0 -1 2.832769475542897e-16
vn 0 -1 2.832769475542897e-16
vn 0 -1 2.832769475542897e-16
vn 0 -1 2.832769475542897e-16
vn 0 -1 2.832769475542897e-16
vn 0 -1 2.832769475542897e-16
vn 0 -1 2.832769475542897e-16
vn 0 -1 2.832769475542897e-16
vn 0 -1 2.832769475542897e-16
vn 0 -1 2.832769475542897e-16
vn 0 -1 2.832769475542897e-16
vn 0 -1 2.832769475542897e-16
vn 0 -1 2.832769475542897e-16
vn 0 -1 2.832769475542897e-16
vn 0 -1 2.832769475542897e-16
vn 0 -1 2.832769475542897e-16
vn 0 -1 2.832769475542897e-16
vn 0 -1 2.832769475542897e-16
vn 0 -1 2.832769475542897e-16
vn 0 -1 2.832769475542897e-16
vn 0 -1 2.832769475542897e-16
vn 0 -1 2.832769475542897e-16
vn 0 -1 2.832769475542897e-16
vn 0 -1 2.832769475542897e-16
vn 0 -1 2.832769475542897e-16
vn 0 -1 2.832769475542897e-16
vn 0 -1 2.832769475542897e-16
vn 0 -1 2.832769475542897e-16
vn 0 -1 2.832769475542897e-16
vn 0 -1 2.832769475542897e-16
vn 0 -1 2.832769475542897e-16
vn 0 1 -2.832769475542897e-16
vn 0 1 -2.832769475542897e-16
vn 0 1 -2.832769475542897e-16
vn 0 1 -2.832769475542897e-16
vn 0 1 -2.832769475542897e-16
vn 0 1 -2.832769475542897e-16
vn 0 1 -2.832769475542897e-16
vn 0 1 -2.832769475542897e-16
vn 0 1 -2.832769475542897e-16
vn 0 1 -2.832769475542897e-16
vn 0 1 -2.832769475542897e-16
vn 0 1 -2.832769475542897e-16
vn 0 1 -2.832769475542897e-16
vn 0 1 -2.832769475542897e-16
vn 0 1 -2.832769475542897e-16
vn 0 1 -2.832769475542897e-16
vn 0 1 -2.832769475542897e-16
vn 0 1 -2.832769475542897e-16
vn 0 1 -2.832769475542897e-16
vn 0 1 -2.832769475542897e-16
vn 0 1 -2.832769475542897e-16
vn 0 1 -2.832769475542897e-16
vn 0 1 -2.832769475542897e-16
vn 0 1 -2.832769475542897e-16
vn 0 1 -2.832769475542897e-16
vn 0 1 -2.832769475542897e-16
vn 0 1 -2.832769475542897e-16
vn 0 1 -2.832769475542897e-16
vn 0 1 -2.832769475542897e-16
vn 0 1 -2.832769475542897e-16
vn 0 1 -2.832769475542897e-16
vn 0 1 -2.832769475542897e-16
vn 0 1 -2.832769475542897e-16
vn 0 1 -2.832769475542897e-16
vn 0 1 -2.832769475542897e-16
vn 0 1 -2.832769475542897e-16
vn 0 1 -2.832769475542897e-16
vn 0 1 -2.832769475542897e-16
vn 0 1 -2.832769475542897e-16
vn 0 1 -2.832769475542897e-16
vn 0 1 -2.832769475542897e-16
vn 0 1 -2.832769475542897e-16
vn 0 1 -2.832769475542897e-16
vn 0 1 -2.832769475542897e-16
vn 0 1 -2.832769475542897e-16
vn 0 1 -2.832769475542897e-16
vn 0 1 -2.832769475542897e-16
vn 0 1 -2.832769475542897e-16
vn 0 1 -2.832769475542897e-16
vn 0 1 -2.832769475542897e-16
vn 0 1 -2.832769475542897e-16
vn 0 1 -2.832769475542897e-16
vn 0 1 -2.832769475542897e-16
vn 0 1 -2.832769475542897e-16
vn 0 1 -2.832769475542897e-16
vn 0 1 -2.832769475542897e-16
vn 0 1 -2.832769475542897e-16
vn 0 1 -2.832769475542897e-16
vn 0 1 -2.832769475542897e-16
vn 0 1 -2.832769475542897e-16
vn 0 1 -2.832769475542897e-16
vn 0 1 -2.832769475542897e-16
vn 0 1 -2.832769475542897e-16
vn 0 1 -2.832769475542897e-16
vn 0 1 -2.832769475542897e-16
vn 0 1 -2.832769475542897e-16
vn 0 1 -2.832769475542897e-16
vn 0 1 -2.832769475542897e-16
vn 0 1 -2.832769475542897e-16
vn 0 1 -2.832769475542897e-16
vn 0 1 -2.832769475542897e-16
vn 0 1 -2.832769475542897e-16
vn 0 1 -2.832769475542897e-16
f 1/1/1 38/38/38 2/2/2
f 38/38/38 39/39/39 2/2/2
f 2/2/2 39/39/39 3/3/3
f 39/39/39 40/40/40 3/3/3
f 3/3/3 40/40/40 4/4/4
f 40/40/40 41/41/41 4/4/4
f 4/4/4 41/41/41 5/5/5
f 41/41/41 42/42/42 5/5/5
f 5/5/5 42/42/42 6/6/6
f 42/42/42 43/43/43 6/6/6
f 6/6/6 43/43/43 7/7/7
f 43/43/43 44/44/44 7/7/7
f 7/7/7 44/44/44 8/8/8
f 44/44/44 45/45/45 8/8/8
f 8/8/8 45/45/45 9/9/9
f 45/45/45 46/46/46 9/9/9
f 9/9/9 46/46/46 10/10/10
f 46/46/46 47/47/47 10/10/10
f 10/10/10 47/47/47 11/11/11
f 47/47/47 48/48/48 11/11/11
f 11/11/11 48/48/48 12/12/12
f 48/48/48 49/49/49 12/12/12
f 12/12/12 49/49/49 13/13/13
f 49/49/49 50/50/50 13/13/13
f 13/13/13 50/50/50 14/14/14
f 50/50/50 51/51/51 14/14/14
f 14/14/14 51/51/51 15/15/15
f 51/51/51 52/52/52 15/15/15
f 15/15/15 52/52/52 16/16/16
f 52/52/52 53/53/53 16/16/16
f 16/16/16 53/53/53 17/17/17
f 53/53/53 54/54/54 17/17/17
f 17/17/17 54/54/54 18/18/18
f 54/54/54 55/55/55 18/18/18
f 18/18/18 55/55/55 19/19/19
f 55/55/55 56/56/56 19/19/19
f 19/19/19 56/56/56 20/20/20
f 56/56/56 57/57/57 20/20/20
f 20/20/20 57/57/57 21/21/21
f 57/57/57 58/58/58 21/21/21
f 21/21/21 58/58/58 22/22/22
f 58/58/58 59/59/59 22/22/22
f 22/22/22 59/59/59 23/23/23
f 59/59/59 60/60/60 23/23/23
f 23/23/23 60/60/60 24/24/24
f 60/60/60 61/61/61 24/24/24
f 24/24/24 61/61/61 25/25/25
f 61/61/61 62/62/62 25/25/25
f 25/25/25 62/62/62 26/26/26
f 62/62/62 63/63/63 26/26/26
f 26/26/26 63/63/63 27/27/27
f 63/63/63 64/64/64 27/27/27
f 27/27/27 64/64/64 28/28/28
f 64/64/64 65/65/65 28/28/28
f 28/28/28 65/65/65 29/29/29
f 65/65/65 66/66/66 29/29/29
f 29/29/29 66/66/66 30/30/30
f 66/66/66 67/67/67 30/30/30
f 30/30/30 67/67/67 31/31/31
f 67/67/67 68/68/68 31/31/31
f 31/31/31 68/68/68 32/32/32
f 68/68/68 69/69/69 32/32/32
f 32/32/32 69/69/69 33/33/33
f 69/69/69 70/70/70 33/33/33
f 33/33/33 70/70/70 34/34/34
f 70/70/70 71/71/71 34/34/34
f 34/34/34 71/71/71 35/35/35
f 71/71/71 72/72/72 35/35/35
f 35/35/35 72/72/72 36/36/36
f 72/72/72 73/73/73 36/36/36
f 36/36/36 73/73/73 37/37/37
f 73/73/73 74/74/74 37/37/37
f 111/111/111 112/112/112 75/75/75
f 112/112/112 113/113/113 76/76/76
f 113/113/113 114/114/114 77/77/77
f 114/114/114 115/115/115 78/78/78
f 115/115/115 116/116/116 79/79/79
f 116/116/116 117/117/117 80/80/80
f 117/117/117 118/118/118 81/81/81
f 118/118/118 119/119/119 82/82/82
f 119/119/119 120/120/120 83/83/83
f 120/120/120 121/121/121 84/84/84
f 121/121/121 122/122/122 85/85/85
f 122/122/122 123/123/123 86/86/86
f 123/123/123 124/124/124 87/87/87
f 124/124/124 125/125/125 88/88/88
f 125/125/125 126/126/126 89/89/89
f 126/126/126 127/127/127 90/90/90
f 127/127/127 128/128/128 91/91/91
f 128/128/128 129/129/129 92/92/92
f 129/129/129 130/130/130 93/93/93
f 130/130/130 131/131/131 94/94/94
f 131/131/131 132/132/132 95/95/95
f 132/132/132 133/133/133 96/96/96
f 133/133/133 134/134/134 97/97/97
f 134/134/134 135/135/135 98/98/98
f 135/135/135 136/136/136 99/99/99
f 136/136/136 137/137/137 100/100/100
f 137/137/137 138/138/138 101/101/101
f 138/138/138 139/139/139 102/102/102
f 139/139/139 140/140/140 103/103/103
f 140/140/140 141/141/141 104/104/104
f 141/141/141 142/142/142 105/105/105
f 142/142/142 143/143/143 106/106/106
f 143/143/143 144/144/144 107/107/107
f 144/144/144 145/145/145 108/108/108
f 145/145/145 146/146/146 109/109/109
f 146/146/146 147/147/147 110/110/110
f 185/185/185 184/184/184 148/148/148
f 186/186/186 185/185/185 149/149/149
f 187/187/187 186/186/186 150/150/150
f 188/188/188 187/187/187 151/151/151
f 189/189/189 188/188/188 152/152/152
f 190/190/190 189/189/189 153/153/153
f 191/191/191 190/190/190 154/154/154
f 192/192/192 191/191/191 155/155/155
f 193/193/193 192/192/192 156/156/156
f 194/194/194 193/193/193 157/157/157
f 195/195/195 194/194/194 158/158/158
f 196/196/196 195/195/195 159/159/159
f 197/197/197 196/196/196 160/160/160
f 198/198/198 197/197/197 161/161/161
f 199/199/199 198/198/198 162/162/162
f 200/200/200 199/199/199 163/163/163
f 201/201/201 200/200/200 164/164/164
f 202/202/202 201/201/201 165/165/165
f 203/203/203 202/202/202 166/166/166
f 204/204/204 203/203/203 167/167/167
f 205/205/205 204/204/204 168/168/168
f 206/206/206 205/205/205 169/169/169
f 207/207/207 206/206/206 170/170/170
f 208/208/208 207/207/207 171/171/171
f 209/209/209 208/208/208 172/172/172
f 210/210/210 209/209/209 173/173/173
f 211/211/211 210/210/210 174/174/174
f 212/212/212 211/211/211 175/175/175
f 213/213/213 212/212/212 176/176/176
f 214/214/214 213/213/213 177/177/177
f 215/215/215 214/214/214 178/178/178
f 216/216/216 215/215/215 179/179/179
f 217/217/217 216/216/216 180/180/180
f 218/218/218 217/217/217 181/181/181
f 219/219/219 218/218/218 182/182/182
f 220/220/220 219/219/219 183/183/183
o castor_right_hub
usemtl wheel_hub
v 0 -0.027000000700354583 -0.031249999999999993
v 0.008088095113635063 -0.027000000700354583 -0.030185181647539132
v 0.015625 -0.027000000700354583 -0.027063293382525437
v 0.022097086533904076 -0.02700000070035458 -0.02209708653390407
v 0.027063293382525444 -0.02700000070035458 -0.015624999999999995
v 0.03018518164753914 -0.02700000070035458 -0.008088095113635058
v 0.03125 -0.027000000700354576 5.7349670054280824e-18
v 0.03018518164753914 -0.027000000700354573 0.008088095113635068
v 0.027063293382525444 -0.027000000700354573 0.015625000000000007
v 0.022097086533904076 -0.027000000700354573 0.022097086533904083
v 0.015625 -0.02700000070035457 0.02706329338252545
v 0.008088095113635063 -0.02700000070035457 0.030185181647539146
v 3.8270214143286495e-18 -0.02700000070035457 0.03125000000000001
v -0.008088095113635063 -0.02700000070035457 0.030185181647539146
v -0.015625 -0.02700000070035457 0.02706329338252545
v -0.022097086533904076 -0.027000000700354573 0.022097086533904083
v -0.027063293382525444 -0.027000000700354573 0.015625000000000007
v -0.03018518164753914 -0.027000000700354573 0.008088095113635068
v -0.03125 -0.027000000700354576 1.3389009678989017e-17
v -0.03018518164753914 -0.02700000070035458 -0.008088095113635058
v -0.027063293382525444 -0.02700000070035458 -0.015624999999999995
v -0.022097086533904076 -0.02700000070035458 -0.02209708653390407
v -0.015625 -0.027000000700354583 -0.027063293382525437
v -0.008088095113635063 -0.027000000700354583 -0.030185181647539132
v -7.654042828657299e-18 -0.027000000700354583 -0.031249999999999993
v 0 0.02700000070035457 -0.03125000000000001
v 0.008088095113635063 0.02700000070035457 -0.030185181647539146
v 0.015625 0.02700000070035457 -0.02706329338252545
v 0.022097086533904076 0.027000000700354573 -0.022097086533904083
v 0.027063293382525444 0.027000000700354573 -0.015625000000000007
v 0.03018518164753914 0.027000000700354573 -0.008088095113635068
v 0.03125 0.027000000700354576 -9.561988264660367e-18
v 0.03018518164753914 0.02700000070035458 0.008088095113635058
v 0.027063293382525444 0.02700000070035458 0.015624999999999995
v 0.022097086533904076 0.02700000070035458 0.02209708653390407
v 0.015625 0.027000000700354583 0.027063293382525437
v 0.008088095113635063 0.027000000700354583 0.030185181647539132
v 3.8270214143286495e-18 0.027000000700354583 0.031249999999999993
v -0.008088095113635063 0.027000000700354583 0.030185181647539132
v -0.015625 0.027000000700354583 0.027063293382525437
v -0.022097086533904076 0.02700000070035458 0.02209708653390407
v -0.027063293382525444 0.02700000070035458 0.015624999999999995
v -0.03018518164753914 0.02700000070035458 0.008088095113635058
v -0.03125 0.027000000700354576 -1.9079458495933743e-18
v -0.03018518164753914 0.027000000700354573 -0.008088095113635068
v -0.027063293382525444 0.027000000700354573 -0.015625000000000007
v -0.022097086533904076 0.027000000700354573 -0.022097086533904083
v -0.015625 0.02700000070035457 -0.02706329338252545
v -0.008088095113635063 0.02700000070035457 -0.030185181647539146
v -7.654042828657299e-18 0.02700000070035457 -0.03125000000000001
v 0 -0.027000000700354576 7.648477660893619e-18
v 0 -0.027000000700354576 7.648477660893619e-18
v 0 -0.027000000700354576 7.648477660893619e-18
v 0 -0.027000000700354576 7.648477660893619e-18
v 0 -0.027000000700354576 7.648477660893619e-18
v 0 -0.027000000700354576 7.648477660893619e-18
v 0 -0.027000000700354576 7.648477660893619e-18
v 0 -0.027000000700354576 7.648477660893619e-18
v 0 -0.027000000700354576 7.648477660893619e-18
v 0 -0.027000000700354576 7.648477660893619e-18
v 0 -0.027000000700354576 7.648477660893619e-18
v 0 -0.027000000700354576 7.648477660893619e-18
v 0 -0.027000000700354576 7.648477660893619e-18
v 0 -0.027000000700354576 7.648477660893619e-18
v 0 -0.027000000700354576 7.648477660893619e-18
v 0 -0.027000000700354576 7.648477660893619e-18
v 0 -0.027000000700354576 7.648477660893619e-18
v 0 -0.027000000700354576 7.648477660893619e-18
v 0 -0.027000000700354576 7.648477660893619e-18
v 0 -0.027000000700354576 7.648477660893619e-18
v 0 -0.027000000700354576 7.648477660893619e-18
v 0 -0.027000000700354576 7.648477660893619e-18
v 0 -0.027000000700354576 7.648477660893619e-18
v 0 -0.027000000700354576 7.648477660893619e-18
v 0 -0.027000000700354583 -0.031249999999999993
v 0.008088095113635063 -0.027000000700354583 -0.030185181647539132
v 0.015625 -0.027000000700354583 -0.027063293382525437
v 0.022097086533904076 -0.02700000070035458 -0.02209708653390407
v 0.027063293382525444 -0.02700000070035458 -0.015624999999999995
v 0.03018518164753914 -0.02700000070035458 -0.008088095113635058
v 0.03125 -0.027000000700354576 5.7349670054280824e-18
v 0.03018518164753914 -0.027000000700354573 0.008088095113635068
v 0.027063293382525444 -0.027000000700354573 0.015625000000000007
v 0.022097086533904076 -0.027000000700354573 0.022097086533904083
v 0.015625 -0.02700000070035457 0.02706329338252545
v 0.008088095113635063 -0.02700000070035457 0.030185181647539146
v 3.8270214143286495e-18 -0.02700000070035457 0.03125000000000001
v -0.008088095113635063 -0.02700000070035457 0.030185181647539146
v -0.015625 -0.02700000070035457 0.02706329338252545
v -0.022097086533904076 -0.027000000700354573 0.022097086533904083
v -0.027063293382525444 -0.027000000700354573 0.015625000000000007
v -0.03018518164753914 -0.027000000700354573 0.008088095113635068
v -0.03125 -0.027000000700354576 1.3389009678989017e-17
v -0.03018518164753914 -0.02700000070035458 -0.008088095113635058
v -0.027063293382525444 -0.02700000070035458 -0.015624999999999995
v -0.022097086533904076 -0.02700000070035458 -0.02209708653390407
v -0.015625 -0.027000000700354583 -0.027063293382525437
v -0.008088095113635063 -0.027000000700354583 -0.030185181647539132
v -7.654042828657299e-18 -0.027000000700354583 -0.031249999999999993
v 0 0.027000000700354576 -7.648477660893619e-18
v 0 0.027000000700354576 -7.648477660893619e-18
v 0 0.027000000700354576 -7.648477660893619e-18
v 0 0.027000000700354576 -7.648477660893619e-18
v 0 0.027000000700354576 -7.648477660893619e-18
v 0 0.027000000700354576 -7.648477660893619e-18
v 0 0.027000000700354576 -7.648477660893619e-18
v 0 0.027000000700354576 -7.648477660893619e-18
v 0 0.027000000700354576 -7.648477660893619e-18
v 0 0.027000000700354576 -7.648477660893619e-18
v 0 0.027000000700354576 -7.648477660893619e-18
v 0 0.027000000700354576 -7.648477660893619e-18
v 0 0.027000000700354576 -7.648477660893619e-18
v 0 0.027000000700354576 -7.648477660893619e-18
v 0 0.027000000700354576 -7.648477660893619e-18
v 0 0.027000000700354576 -7.648477660893619e-18
v 0 0.027000000700354576 -7.648477660893619e-18
v 0 0.027000000700354576 -7.648477660893619e-18
v 0 0.027000000700354576 -7.648477660893619e-18
v 0 0.027000000700354576 -7.648477660893619e-18
v 0 0.027000000700354576 -7.648477660893619e-18
v 0 0.027000000700354576 -7.648477660893619e-18
v 0 0.027000000700354576 -7.648477660893619e-18
v 0 0.027000000700354576 -7.648477660893619e-18
v 0 0.02700000070035457 -0.03125000000000001
v 0.008088095113635063 0.02700000070035457 -0.030185181647539146
v 0.015625 0.02700000070035457 -0.02706329338252545
v 0.022097086533904076 0.027000000700354573 -0.022097086533904083
v 0.027063293382525444 0.027000000700354573 -0.015625000000000007
v 0.03018518164753914 0.027000000700354573 -0.008088095113635068
v 0.03125 0.027000000700354576 -9.561988264660367e-18
v 0.03018518164753914 0.02700000070035458 0.008088095113635058
v 0.027063293382525444 0.02700000070035458 0.015624999999999995
v 0.022097086533904076 0.02700000070035458 0.02209708653390407
v 0.015625 0.027000000700354583 0.027063293382525437
v 0.008088095113635063 0.027000000700354583 0.030185181647539132
v 3.8270214143286495e-18 0.027000000700354583 0.031249999999999993
v -0.008088095113635063 0.027000000700354583 0.030185181647539132
v -0.015625 0.027000000700354583 0.027063293382525437
v -0.022097086533904076 0.02700000070035458 0.02209708653390407
v -0.027063293382525444 0.02700000070035458 0.015624999999999995
v -0.03018518164753914 0.02700000070035458 0.008088095113635058
v -0.03125 0.027000000700354576 -1.9079458495933743e-18
v -0.03018518164753914 0.027000000700354573 -0.008088095113635068
v -0.027063293382525444 0.027000000700354573 -0.015625000000000007
v -0.022097086533904076 0.027000000700354573 -0.022097086533904083
v -0.015625 0.02700000070035457 -0.02706329338252545
v -0.008088095113635063 0.02700000070035457 -0.030185181647539146
v -7.654042828657299e-18 0.02700000070035457 -0.03125000000000001
vt 0 1
vt 0.0416666679084301 1
vt 0.0833333358168602 1
vt 0.125 1
vt 0.1666666716337204 1
vt 0.2083333283662796 1
vt 0.25 1
vt 0.2916666567325592 1
vt 0.3333333432674408 1
vt 0.375 1
vt 0.4166666567325592 1
vt 0.4583333432674408 1
vt 0.5 1
vt 0.5416666865348816 1
vt 0.5833333134651184 1
vt 0.625 1
vt 0.6666666865348816 1
vt 0.7083333134651184 1
vt 0.75 1
vt 0.7916666865348816 1
vt 0.8333333134651184 1
vt 0.875 1
vt 0.9166666865348816 1
vt 0.9583333134651184 1
vt 1 1
vt 0 0
vt 0.0416666679084301 0
vt 0.0833333358168602 0
vt 0.125 0
vt 0.1666666716337204 0
vt 0.2083333283662796 0
vt 0.25 0
vt 0.2916666567325592 0
vt 0.3333333432674408 0
vt 0.375 0
vt 0.4166666567325592 0
vt 0.4583333432674408 0
vt 0.5 0
vt 0.5416666865348816 0
vt 0.5833333134651184 0
vt 0.625 0
vt 0.6666666865348816 0
vt 0.7083333134651184 0
vt 0.75 0
vt 0.7916666865348816 0
vt 0.8333333134651184 0
vt 0.875 0
vt 0.9166666865348816 0
vt 0.9583333134651184 0
vt 1 0
vt 0.5 0.5
vt 0.5 0.5
vt 0.5 0.5
vt 0.5 0.5
vt 0.5 0.5
vt 0.5 0.5
vt 0.5 0.5
vt 0.5 0.5
vt 0.5 0.5
vt 0.5 0.5
vt 0.5 0.5
vt 0.5 0.5
vt 0.5 0.5
vt 0.5 0.5
vt 0.5 0.5
vt 0.5 0.5
vt 0.5 0.5
vt 0.5 0.5
vt 0.5 0.5
vt 0.5 0.5
vt 0.5 0.5
vt 0.5 0.5
vt 0.5 0.5
vt 0.5 0.5
vt 1 0.5
vt 0.9829629063606262 0.6294095516204834
vt 0.9330127239227295 0.75
vt 0.8535534143447876 0.8535534143447876
vt 0.75 0.9330127239227295
vt 0.6294095516204834 0.9829629063606262
vt 0.5 1
vt 0.370590478181839 0.9829629063606262
vt 0.25 0.9330127239227295
vt 0.1464466154575348 0.8535534143447876
vt 0.0669872984290123 0.75
vt 0.017037086188793182 0.6294095516204834
vt 0 0.5
vt 0.017037086188793182 0.370590478181839
vt 0.0669872984290123 0.25
vt 0.1464466154575348 0.1464466154575348
vt 0.25 0.0669872984290123
vt 0.370590478181839 0.017037086188793182
vt 0.5 0
vt 0.6294095516204834 0.017037086188793182
vt 0.75 0.0669872984290123
vt 0.8535534143447876 0.1464466154575348
vt 0.9330127239227295 0.25
vt 0.9829629063606262 0.370590478181839
vt 1 0.5
vt 0.5 0.5
vt 0.5 0.5
vt 0.5 0.5
vt 0.5 0.5
vt 0.5 0.5
vt 0.5 0.5
vt 0.5 0.5
vt 0.5 0.5
vt 0.5 0.5
vt 0.5 0.5
vt 0.5 0.5
vt 0.5 0.5
vt 0.5 0.5
vt 0.5 0.5
vt 0.5 0.5
vt 0.5 0.5
vt 0.5 0.5
vt 0.5 0.5
vt 0.5 0.5
vt 0.5 0.5
vt 0.5 0.5
vt 0.5 0.5
vt 0.5 0.5
vt 0.5 0.5
vt 1 0.5
vt 0.9829629063606262 0.370590478181839
vt 0.9330127239227295 0.25
vt 0.8535534143447876 0.1464466154575348
vt 0.75 0.0669872984290123
vt 0.6294095516204834 0.017037086188793182
vt 0.5 0
vt 0.370590478181839 0.017037086188793182
vt 0.25 0.0669872984290123
vt 0.1464466154575348 0.1464466154575348
vt 0.0669872984290123 0.25
vt 0.017037086188793182 0.370590478181839
vt 0 0.5
vt 0.017037086188793182 0.6294095516204834
vt 0.0669872984290123 0.75
vt 0.1464466154575348 0.8535534143447876
vt 0.25 0.9330127239227295
vt 0.370590478181839 0.9829629063606262
vt 0.5 1
vt 0.6294095516204834 0.9829629063606262
vt 0.75 0.9330127239227295
vt 0.8535534143447876 0.8535534143447876
vt 0.9330127239227295 0.75
vt 0.9829629063606262 0.6294095516204834
vt 1 0.5
vn 0 -2.832769475542897e-16 -1
vn 0.2588190471264927 -2.7362451450178156e-16 -0.9659258257467466
vn 0.5000000067305869 -2.4532503084999274e-16 -0.8660253998985324
vn 0.7071067811865476 -2.0030704962652062e-16 -0.7071067811865476
vn 0.8660253998985324 -1.4163847568376496e-16 -0.5000000067305869
vn 0.9659258257467466 -7.331746891095526e-17 -0.2588190471264927
vn 1 -1.7345711088142803e-32 -6.123234262925839e-17
vn 0.9659258257467466 7.331746891095526e-17 0.2588190471264927
vn 0.8660253998985324 1.4163847568376496e-16 0.5000000067305869
vn 0.7071067811865476 2.0030704962652062e-16 0.7071067811865476
vn 0.5000000067305869 2.4532503084999274e-16 0.8660253998985324
vn 0.2588190471264927 2.7362451450178156e-16 0.9659258257467466
vn 1.2246468525851679e-16 2.832769475542897e-16 1
vn -0.2588190471264927 2.7362451450178156e-16 0.9659258257467466
vn -0.5000000067305869 2.4532503084999274e-16 0.8660253998985324
vn -0.7071067811865476 2.0030704962652062e-16 0.7071067811865476
vn -0.8660253998985324 1.4163847568376496e-16 0.5000000067305869
vn -0.9659258257467466 7.331746891095526e-17 0.2588190471264927
vn -1 5.203712922366658e-32 1.8369701465288538e-16
vn -0.9659258257467466 -7.331746891095526e-17 -0.2588190471264927
vn -0.8660253998985324 -1.4163847568376496e-16 -0.5000000067305869
vn -0.7071067811865476 -2.0030704962652062e-16 -0.7071067811865476
vn -0.5000000067305869 -2.4532503084999274e-16 -0.8660253998985324
vn -0.2588190471264927 -2.7362451450178156e-16 -0.9659258257467466
vn -2.4492937051703357e-16 -2.832769475542897e-16 -1
vn 0 -2.832769475542897e-16 -1
vn 0.2588190471264927 -2.7362451450178156e-16 -0.9659258257467466
vn 0.5000000067305869 -2.4532503084999274e-16 -0.8660253998985324
vn 0.7071067811865476 -2.0030704962652062e-16 -0.7071067811865476
vn 0.8660253998985324 -1.4163847568376496e-16 -0.5000000067305869
vn 0.9659258257467466 -7.331746891095526e-17 -0.2588190471264927
vn 1 -1.7345711088142803e-32 -6.123234262925839e-17
vn 0.9659258257467466 7.331746891095526e-17 0.2588190471264927
vn 0.8660253998985324 1.4163847568376496e-16 0.5000000067305869
vn 0.7071067811865476 2.0030704962652062e-16 0.7071067811865476
vn 0.5000000067305869 2.4532503084999274e-16 0.8660253998985324
vn 0.2588190471264927 2.7362451450178156e-16 0.9659258257467466
vn 1.2246468525851679e-16 2.832769475542897e-16 1
vn -0.2588190471264927 2.7362451450178156e-16 0.9659258257467466
vn -0.5000000067305869 2.4532503084999274e-16 0.8660253998985324
vn -0.7071067811865476 2.0030704962652062e-16 0.7071067811865476
vn -0.8660253998985324 1.4163847568376496e-16 0.5000000067305869
vn -0.9659258257467466 7.331746891095526e-17 0.2588190471264927
vn -1 5.203712922366658e-32 1.8369701465288538e-16
vn -0.9659258257467466 -7.331746891095526e-17 -0.2588190471264927
vn -0.8660253998985324 -1.4163847568376496e-16 -0.5000000067305869
vn -0.7071067811865476 -2.0030704962652062e-16 -0.7071067811865476
vn -0.5000000067305869 -2.4532503084999274e-16 -0.8660253998985324
vn -0.2588190471264927 -2.7362451450178156e-16 -0.9659258257467466
vn -2.4492937051703357e-16 -2.832769475542897e-16 -1
vn 0 -1 2.832769475542897e-16
vn 0 -1 2.832769475542897e-16
vn 0 -1 2.832769475542897e-16
vn 0 -1 2.832769475542897e-16
vn 0 -1 2.832769475542897e-16
vn 0 -1 2.832769475542897e-16
vn 0 -1 2.832769475542897e-16
vn 0 -1 2.832769475542897e-16
vn 0 -1 2.832769475542897e-16
vn 0 -1 2.832769475542897e-16
vn 0 -1 2.832769475542897e-16
vn 0 -1 2.832769475542897e-16
vn 0 -1 2.832769475542897e-16
vn 0 -1 2.832769475542897e-16
vn 0 -1 2.832769475542897e-16
vn 0 -1 2.832769475542897e-16
vn 0 -1 2.832769475542897e-16
vn 0 -1 2.832769475542897e-16
vn 0 -1 2.832769475542897e-16
vn 0 -1 2.832769475542897e-16
vn 0 -1 2.832769475542897e-16
vn 0 -1 2.832769475542897e-16
vn 0 -1 2.832769475542897e-16
vn 0 -1 2.832769475542897e-16
vn 0 -1 2.832769475542897e-16
vn 0 -1 2.832769475542897e-16
vn 0 -1 2.832769475542897e-16
vn 0 -1 2.832769475542897e-16
vn 0 -1 2.832769475542897e-16
vn 0 -1 2.832769475542897e-16
vn 0 -1 2.832769475542897e-16
vn 0 -1 2.832769475542897e-16
vn 0 -1 2.832769475542897e-16
vn 0 -1 2.832769475542897e-16
vn 0 -1 2.832769475542897e-16
vn 0 -1 2.832769475542897e-16
vn 0 -1 2.832769475542897e-16
vn 0 -1 2.832769475542897e-16
vn 0 -1 2.832769475542897e-16
vn 0 -1 2.832769475542897e-16
vn 0 -1 2.832769475542897e-16
vn 0 -1 2.832769475542897e-16
vn 0 -1 2.832769475542897e-16
vn 0 -1 2.832769475542897e-16
vn 0 -1 2.832769475542897e-16
vn 0 -1 2.832769475542897e-16
vn 0 -1 2.832769475542897e-16
vn 0 -1 2.832769475542897e-16
vn 0 -1 2.832769475542897e-16
vn 0 1 -2.832769475542897e-16
vn 0 1 -2.832769475542897e-16
vn 0 1 -2.832769475542897e-16
vn 0 1 -2.832769475542897e-16
vn 0 1 -2.832769475542897e-16
vn 0 1 -2.832769475542897e-16
vn 0 1 -2.832769475542897e-16
vn 0 1 -2.832769475542897e-16
vn 0 1 -2.832769475542897e-16
vn 0 1 -2.832769475542897e-16
vn 0 1 -2.832769475542897e-16
vn 0 1 -2.832769475542897e-16
vn 0 1 -2.832769475542897e-16
vn 0 1 -2.832769475542897e-16
vn 0 1 -2.832769475542897e-16
vn 0 1 -2.832769475542897e-16
vn 0 1 -2.832769475542897e-16
vn 0 1 -2.832769475542897e-16
vn 0 1 -2.832769475542897e-16
vn 0 1 -2.832769475542897e-16
vn 0 1 -2.832769475542897e-16
vn 0 1 -2.832769475542897e-16
vn 0 1 -2.832769475542897e-16
vn 0 1 -2.832769475542897e-16
vn 0 1 -2.832769475542897e-16
vn 0 1 -2.832769475542897e-16
vn 0 1 -2.832769475542897e-16
vn 0 1 -2.832769475542897e-16
vn 0 1 -2.832769475542897e-16
vn 0 1 -2.832769475542897e-16
vn 0 1 -2.832769475542897e-16
vn 0 1 -2.832769475542897e-16
vn 0 1 -2.832769475542897e-16
vn 0 1 -2.832769475542897e-16
vn 0 1 -2.832769475542897e-16
vn 0 1 -2.832769475542897e-16
vn 0 1 -2.832769475542897e-16
vn 0 1 -2.832769475542897e-16
vn 0 1 -2.832769475542897e-16
vn 0 1 -2.832769475542897e-16
vn 0 1 -2.832769475542897e-16
vn 0 1 -2.832769475542897e-16
vn 0 1 -2.832769475542897e-16
vn 0 1 -2.832769475542897e-16
vn 0 1 -2.832769475542897e-16
vn 0 1 -2.832769475542897e-16
vn 0 1 -2.832769475542897e-16
vn 0 1 -2.832769475542897e-16
vn 0 1 -2.832769475542897e-16
f 221/221/221 246/246/246 222/222/222
f 246/246/246 247/247/247 222/222/222
f 222/222/222 247/247/247 223/223/223
f 247/247/247 248/248/248 223/223/223
f 223/223/223 248/248/248 224/224/224
f 248/248/248 249/249/249 224/224/224
f 224/224/224 249/249/249 225/225/225
f 249/249/249 250/250/250 225/225/225
f 225/225/225 250/250/250 226/226/226
f 250/250/250 251/251/251 226/226/226
f 226/226/226 251/251/251 227/227/227
f 251/251/251 252/252/252 227/227/227
f 227/227/227 252/252/252 228/228/228
f 252/252/252 253/253/253 228/228/228
f 228/228/228 253/253/253 229/229/229
f 253/253/253 254/254/254 229/229/229
f 229/229/229 254/254/254 230/230/230
f 254/254/254 255/255/255 230/230/230
f 230/230/230 255/255/255 231/231/231
f 255/255/255 256/256/256 231/231/231
f 231/231/231 256/256/256 232/232/232
f 256/256/256 257/257/257 232/232/232
f 232/232/232 257/257/257 233/233/233
f 257/257/257 258/258/258 233/233/233
f 233/233/233 258/258/258 234/234/234
f 258/258/258 259/259/259 234/234/234
f 234/234/234 259/259/259 235/235/235
f 259/259/259 260/260/260 235/235/235
f 235/235/235 260/260/260 236/236/236
f 260/260/260 261/261/261 236/236/236
f 236/236/236 261/261/261 237/237/237
f 261/261/261 262/262/262 237/237/237
f 237/237/237 262/262/262 238/238/238
f 262/262/262 263/263/263 238/238/238
f 238/238/238 263/263/263 239/239/239
f 263/263/263 264/264/264 239/239/239
f 239/239/239 264/264/264 240/240/240
f 264/264/264 265/265/265 240/240/240
f 240/240/240 265/265/265 241/241/241
f 265/265/265 266/266/266 241/241/241
f 241/241/241 266/266/266 242/242/242
f 266/266/266 267/267/267 242/242/242
f 242/242/242 267/267/267 243/243/243
f 267/267/267 268/268/268 243/243/243
f 243/243/243 268/268/268 244/244/244
f 268/268/268 269/269/269 244/244/244
f 244/244/244 269/269/269 245/245/245
f 269/269/269 270/270/270 245/245/245
f 295/295/295 296/296/296 271/271/271
f 296/296/296 297/297/297 272/272/272
f 297/297/297 298/298/298 273/273/273
f 298/298/298 299/299/299 274/274/274
f 299/299/299 300/300/300 275/275/275
f 300/300/300 301/301/301 276/276/276
f 301/301/301 302/302/302 277/277/277
f 302/302/302 303/303/303 278/278/278
f 303/303/303 304/304/304 279/279/279
f 304/304/304 305/305/305 280/280/280
f 305/305/305 306/306/306 281/281/281
f 306/306/306 307/307/307 282/282/282
f 307/307/307 308/308/308 283/283/283
f 308/308/308 309/309/309 284/284/284
f 309/309/309 310/310/310 285/285/285
f 310/310/310 311/311/311 286/286/286
f 311/311/311 312/312/312 287/287/287
f 312/312/312 313/313/313 288/288/288
f 313/313/313 314/314/314 289/289/289
f 314/314/314 315/315/315 290/290/290
f 315/315/315 316/316/316 291/291/291
f 316/316/316 317/317/317 292/292/292
f 317/317/317 318/318/318 293/293/293
f 318/318/318 319/319/319 294/294/294
f 345/345/345 344/344/344 320/320/320
f 346/346/346 345/345/345 321/321/321
f 347/347/347 346/346/346 322/322/322
f 348/348/348 347/347/347 323/323/323
f 349/349/349 348/348/348 324/324/324
f 350/350/350 349/349/349 325/325/325
f 351/351/351 350/350/350 326/326/326
f 352/352/352 351/351/351 327/327/327
f 353/353/353 352/352/352 328/328/328
f 354/354/354 353/353/353 329/329/329
f 355/355/355 354/354/354 330/330/330
f 356/356/356 355/355/355 331/331/331
f 357/357/357 356/356/356 332/332/332
f 358/358/358 357/357/357 333/333/333
f 359/359/359 358/358/358 334/334/334
f 360/360/360 359/359/359 335/335/335
f 361/361/361 360/360/360 336/336/336
f 362/362/362 361/361/361 337/337/337
f 363/363/363 362/362/362 338/338/338
f 364/364/364 363/363/363 339/339/339
f 365/365/365 364/364/364 340/340/340
f 366/366/366 365/365/365 341/341/341
f 367/367/367 366/366/366 342/342/342
f 368/368/368 367/367/367 343/343/343
