mtllib link_5.mtl
o a5_housing
usemtl kuka_orange
v 0 -0.07500000298023224 -0.10000000149011612
v 0.013052619062364101 -0.07500000298023224 -0.09914448857307434
v 0.025881905108690262 -0.07500000298023224 -0.09659258276224136
v 0.03826834261417389 -0.07500000298023224 -0.09238795191049576
v 0.05000000074505806 -0.07500000298023224 -0.08660253882408142
v 0.06087614223361015 -0.07500000298023224 -0.07933533191680908
v 0.0707106813788414 -0.07500000298023224 -0.0707106813788414
v 0.07933533191680908 -0.07500000298023224 -0.06087614223361015
v 0.08660253882408142 -0.07500000298023224 -0.05000000074505806
v 0.09238795191049576 -0.07500000298023224 -0.03826834261417389
v 0.09659258276224136 -0.07500000298023224 -0.025881905108690262
v 0.09914448857307434 -0.07500000298023224 -0.013052619062364101
v 0.10000000149011612 -0.07500000298023224 3.061617545053226e-18
v 0.09914448857307434 -0.07500000298023224 0.013052619062364101
v 0.09659258276224136 -0.07500000298023224 0.025881905108690262
v 0.09238795191049576 -0.07500000298023224 0.03826834261417389
v 0.08660253882408142 -0.07500000298023224 0.05000000074505806
v 0.07933533191680908 -0.07500000298023224 0.06087614223361015
v 0.0707106813788414 -0.07500000298023224 0.0707106813788414
v 0.06087614223361015 -0.07500000298023224 0.07933533191680908
v 0.05000000074505806 -0.07500000298023224 0.08660253882408142
v 0.03826834261417389 -0.07500000298023224 0.09238795191049576
v 0.025881905108690262 -0.07500000298023224 0.09659258276224136
v 0.013052619062364101 -0.07500000298023224 0.09914448857307434
v 1.2246467698671066e-17 -0.07500000298023224 0.10000000149011612
v -0.013052619062364101 -0.07500000298023224 0.09914448857307434
v -0.025881905108690262 -0.07500000298023224 0.09659258276224136
v -0.03826834261417389 -0.07500000298023224 0.09238795191049576
v -0.05000000074505806 -0.07500000298023224 0.08660253882408142
v -0.06087614223361015 -0.07500000298023224 0.07933533191680908
v -0.0707106813788414 -0.07500000298023224 0.0707106813788414
v -0.07933533191680908 -0.07500000298023224 0.06087614223361015
v -0.08660253882408142 -0.07500000298023224 0.05000000074505806
v -0.09238795191049576 -0.07500000298023224 0.03826834261417389
v -0.09659258276224136 -0.07500000298023224 0.025881905108690262
v -0.09914448857307434 -0.07500000298023224 0.013052619062364101
v -0.10000000149011612 -0.07500000298023224 2.7554554183166277e-17
v -0.09914448857307434 -0.07500000298023224 -0.013052619062364101
v -0.09659258276224136 -0.07500000298023224 -0.025881905108690262
v -0.09238795191049576 -0.07500000298023224 -0.03826834261417389
v -0.08660253882408142 -0.07500000298023224 -0.05000000074505806
v -0.07933533191680908 -0.07500000298023224 -0.06087614223361015
v -0.0707106813788414 -0.07500000298023224 -0.0707106813788414
v -0.06087614223361015 -0.07500000298023224 -0.07933533191680908
v -0.05000000074505806 -0.07500000298023224 -0.08660253882408142
v -0.03826834261417389 -0.07500000298023224 -0.09238795191049576
v -0.025881905108690262 -0.07500000298023224 -0.09659258276224136
v -0.013052619062364101 -0.07500000298023224 -0.09914448857307434
v -2.4492935397342132e-17 -0.07500000298023224 -0.10000000149011612
v 0 0.07500000298023224 -0.10000000149011612
v 0.013052619062364101 0.07500000298023224 -0.09914448857307434
v 0.025881905108690262 0.07500000298023224 -0.09659258276224136
v 0.03826834261417389 0.07500000298023224 -0.09238795191049576
v 0.05000000074505806 0.07500000298023224 -0.08660253882408142
v 0.06087614223361015 0.07500000298023224 -0.07933533191680908
v 0.0707106813788414 0.07500000298023224 -0.0707106813788414
v 0.07933533191680908 0.07500000298023224 -0.06087614223361015
v 0.08660253882408142 0.07500000298023224 -0.05000000074505806
v 0.09238795191049576 0.07500000298023224 -0.03826834261417389
v 0.09659258276224136 0.07500000298023224 -0.025881905108690262
v 0.09914448857307434 0.07500000298023224 -0.013052619062364101
v 0.10000000149011612 0.07500000298023224 -1.5308084002953373e-17
v 0.09914448857307434 0.07500000298023224 0.013052619062364101
v 0.09659258276224136 0.07500000298023224 0.025881905108690262
v 0.09238795191049576 0.07500000298023224 0.03826834261417389
v 0.08660253882408142 0.07500000298023224 0.05000000074505806
v 0.07933533191680908 0.07500000298023224 0.06087614223361015
v 0.0707106813788414 0.07500000298023224 0.0707106813788414
v 0.06087614223361015 0.07500000298023224 0.07933533191680908
v 0.05000000074505806 0.07500000298023224 0.08660253882408142
v 0.03826834261417389 0.07500000298023224 0.09238795191049576
v 0.025881905108690262 0.07500000298023224 0.09659258276224136
v 0.013052619062364101 0.07500000298023224 0.09914448857307434
v 1.2246467698671066e-17 0.07500000298023224 0.10000000149011612
v -0.013052619062364101 0.07500000298023224 0.09914448857307434
v -0.025881905108690262 0.07500000298023224 0.09659258276224136
v -0.03826834261417389 0.07500000298023224 0.09238795191049576
v -0.05000000074505806 0.07500000298023224 0.08660253882408142
v -0.06087614223361015 0.07500000298023224 0.07933533191680908
v -0.0707106813788414 0.07500000298023224 0.0707106813788414
v -0.07933533191680908 0.07500000298023224 0.06087614223361015
v -0.08660253882408142 0.07500000298023224 0.05000000074505806
v -0.09238795191049576 0.07500000298023224 0.03826834261417389
v -0.09659258276224136 0.07500000298023224 0.025881905108690262
v -0.09914448857307434 0.07500000298023224 0.013052619062364101
v -0.10000000149011612 0.07500000298023224 9.184851394388759e-18
v -0.09914448857307434 0.07500000298023224 -0.013052619062364101
v -0.09659258276224136 0.07500000298023224 -0.025881905108690262
v -0.09238795191049576 0.07500000298023224 -0.03826834261417389
v -0.08660253882408142 0.07500000298023224 -0.05000000074505806
v -0.07933533191680908 0.07500000298023224 -0.06087614223361015
v -0.0707106813788414 0.07500000298023224 -0.0707106813788414
v -0.06087614223361015 0.07500000298023224 -0.07933533191680908
v -0.05000000074505806 0.07500000298023224 -0.08660253882408142
v -0.03826834261417389 0.07500000298023224 -0.09238795191049576
v -0.025881905108690262 0.07500000298023224 -0.09659258276224136
v -0.013052619062364101 0.07500000298023224 -0.09914448857307434
v -2.4492935397342132e-17 0.07500000298023224 -0.10000000149011612
v 0 -0.07500000298023224 9.184851394388759e-18
v 0 -0.07500000298023224 9.184851394388759e-18
v 0 -0.07500000298023224 9.184851394388759e-18
v 0 -0.07500000298023224 9.184851394388759e-18
v 0 -0.07500000298023224 9.184851394388759e-18
v 0 -0.07500000298023224 9.184851394388759e-18
v 0 -0.07500000298023224 9.184851394388759e-18
v 0 -0.07500000298023224 9.184851394388759e-18
v 0 -0.07500000298023224 9.184851394388759e-18
v 0 -0.07500000298023224 9.184851394388759e-18
v 0 -0.07500000298023224 9.184851394388759e-18
v 0 -0.07500000298023224 9.184851394388759e-18
v 0 -0.07500000298023224 9.184851394388759e-18
v 0 -0.07500000298023224 9.184851394388759e-18
v 0 -0.07500000298023224 9.184851394388759e-18
v 0 -0.07500000298023224 9.184851394388759e-18
v 0 -0.07500000298023224 9.184851394388759e-18
v 0 -0.07500000298023224 9.184851394388759e-18
v 0 -0.07500000298023224 9.184851394388759e-18
v 0 -0.07500000298023224 9.184851394388759e-18
v 0 -0.07500000298023224 9.184851394388759e-18
v 0 -0.07500000298023224 9.184851394388759e-18
v 0 -0.07500000298023224 9.184851394388759e-18
v 0 -0.07500000298023224 9.184851394388759e-18
v 0 -0.07500000298023224 9.184851394388759e-18
v 0 -0.07500000298023224 9.184851394388759e-18
v 0 -0.07500000298023224 9.184851394388759e-18
v 0 -0.07500000298023224 9.184851394388759e-18
v 0 -0.07500000298023224 9.184851394388759e-18
v 0 -0.07500000298023224 9.184851394388759e-18
v 0 -0.07500000298023224 9.184851394388759e-18
v 0 -0.07500000298023224 9.184851394388759e-18
v 0 -0.07500000298023224 9.184851394388759e-18
v 0 -0.07500000298023224 9.184851394388759e-18
v 0 -0.07500000298023224 9.184851394388759e-18
v 0 -0.07500000298023224 9.184851394388759e-18
v 0 -0.07500000298023224 9.184851394388759e-18
v 0 -0.07500000298023224 9.184851394388759e-18
v 0 -0.07500000298023224 9.184851394388759e-18
v 0 -0.07500000298023224 9.184851394388759e-18
v 0 -0.07500000298023224 9.184851394388759e-18
v 0 -0.07500000298023224 9.184851394388759e-18
v 0 -0.07500000298023224 9.184851394388759e-18
v 0 -0.07500000298023224 9.184851394388759e-18
v 0 -0.07500000298023224 9.184851394388759e-18
v 0 -0.07500000298023224 9.184851394388759e-18
v 0 -0.07500000298023224 9.184851394388759e-18
v 0 -0.07500000298023224 9.184851394388759e-18
v 0 -0.07500000298023224 -0.10000000149011612
v 0.013052619062364101 -0.07500000298023224 -0.09914448857307434
v 0.025881905108690262 -0.07500000298023224 -0.09659258276224136
v 0.03826834261417389 -0.07500000298023224 -0.09238795191049576
v 0.05000000074505806 -0.07500000298023224 -0.08660253882408142
v 0.06087614223361015 -0.07500000298023224 -0.07933533191680908
v 0.0707106813788414 -0.07500000298023224 -0.0707106813788414
v 0.07933533191680908 -0.07500000298023224 -0.06087614223361015
v 0.08660253882408142 -0.07500000298023224 -0.05000000074505806
v 0.09238795191049576 -0.07500000298023224 -0.03826834261417389
v 0.09659258276224136 -0.07500000298023224 -0.025881905108690262
v 0.09914448857307434 -0.07500000298023224 -0.013052619062364101
v 0.10000000149011612 -0.07500000298023224 3.061617545053226e-18
v 0.09914448857307434 -0.07500000298023224 0.013052619062364101
v 0.09659258276224136 -0.07500000298023224 0.025881905108690262
v 0.09238795191049576 -0.07500000298023224 0.03826834261417389
v 0.08660253882408142 -0.07500000298023224 0.05000000074505806
v 0.07933533191680908 -0.07500000298023224 0.06087614223361015
v 0.0707106813788414 -0.07500000298023224 0.0707106813788414
v 0.06087614223361015 -0.07500000298023224 0.07933533191680908
v 0.05000000074505806 -0.07500000298023224 0.08660253882408142
v 0.03826834261417389 -0.07500000298023224 0.09238795191049576
v 0.025881905108690262 -0.07500000298023224 0.09659258276224136
v 0.013052619062364101 -0.07500000298023224 0.09914448857307434
v 1.2246467698671066e-17 -0.07500000298023224 0.10000000149011612
v -0.013052619062364101 -0.07500000298023224 0.09914448857307434
v -0.025881905108690262 -0.07500000298023224 0.09659258276224136
v -0.03826834261417389 -0.07500000298023224 0.09238795191049576
v -0.05000000074505806 -0.07500000298023224 0.08660253882408142
v -0.06087614223361015 -0.07500000298023224 0.07933533191680908
v -0.0707106813788414 -0.07500000298023224 0.0707106813788414
v -0.07933533191680908 -0.07500000298023224 0.06087614223361015
v -0.08660253882408142 -0.07500000298023224 0.05000000074505806
v -0.09238795191049576 -0.07500000298023224 0.03826834261417389
v -0.09659258276224136 -0.07500000298023224 0.025881905108690262
v -0.09914448857307434 -0.07500000298023224 0.013052619062364101
v -0.10000000149011612 -0.07500000298023224 2.7554554183166277e-17
v -0.09914448857307434 -0.07500000298023224 -0.013052619062364101
v -0.09659258276224136 -0.07500000298023224 -0.025881905108690262
v -0.09238795191049576 -0.07500000298023224 -0.03826834261417389
v -0.08660253882408142 -0.07500000298023224 -0.05000000074505806
v -0.07933533191680908 -0.07500000298023224 -0.06087614223361015
v -0.0707106813788414 -0.07500000298023224 -0.0707106813788414
v -0.06087614223361015 -0.07500000298023224 -0.07933533191680908
v -0.05000000074505806 -0.07500000298023224 -0.08660253882408142
v -0.03826834261417389 -0.07500000298023224 -0.09238795191049576
v -0.025881905108690262 -0.07500000298023224 -0.09659258276224136
v -0.013052619062364101 -0.07500000298023224 -0.09914448857307434
v -2.4492935397342132e-17 -0.07500000298023224 -0.10000000149011612
v 0 0.07500000298023224 -9.184851394388759e-18
v 0 0.07500000298023224 -9.184851394388759e-18
v 0 0.07500000298023224 -9.184851394388759e-18
v 0 0.07500000298023224 -9.184851394388759e-18
v 0 0.07500000298023224 -9.184851394388759e-18
v 0 0.07500000298023224 -9.184851394388759e-18
v 0 0.07500000298023224 -9.184851394388759e-18
v 0 0.07500000298023224 -9.184851394388759e-18
v 0 0.07500000298023224 -9.184851394388759e-18
v 0 0.07500000298023224 -9.184851394388759e-18
v 0 0.07500000298023224 -9.184851394388759e-18
v 0 0.07500000298023224 -9.184851394388759e-18
v 0 0.07500000298023224 -9.184851394388759e-18
v 0 0.07500000298023224 -9.184851394388759e-18
v 0 0.07500000298023224 -9.184851394388759e-18
v 0 0.07500000298023224 -9.184851394388759e-18
v 0 0.07500000298023224 -9.184851394388759e-18
v 0 0.07500000298023224 -9.184851394388759e-18
v 0 0.07500000298023224 -9.184851394388759e-18
v 0 0.07500000298023224 -9.184851394388759e-18
v 0 0.07500000298023224 -9.184851394388759e-18
v 0 0.07500000298023224 -9.184851394388759e-18
v 0 0.07500000298023224 -9.184851394388759e-18
v 0 0.07500000298023224 -9.184851394388759e-18
v 0 0.07500000298023224 -9.184851394388759e-18
v 0 0.07500000298023224 -9.184851394388759e-18
v 0 0.07500000298023224 -9.184851394388759e-18
v 0 0.07500000298023224 -9.184851394388759e-18
v 0 0.07500000298023224 -9.184851394388759e-18
v 0 0.07500000298023224 -9.184851394388759e-18
v 0 0.07500000298023224 -9.184851394388759e-18
v 0 0.07500000298023224 -9.184851394388759e-18
v 0 0.07500000298023224 -9.184851394388759e-18
v 0 0.07500000298023224 -9.184851394388759e-18
v 0 0.07500000298023224 -9.184851394388759e-18
v 0 0.07500000298023224 -9.184851394388759e-18
v 0 0.07500000298023224 -9.184851394388759e-18
v 0 0.07500000298023224 -9.184851394388759e-18
v 0 0.07500000298023224 -9.184851394388759e-18
v 0 0.07500000298023224 -9.184851394388759e-18
v 0 0.07500000298023224 -9.184851394388759e-18
v 0 0.07500000298023224 -9.184851394388759e-18
v 0 0.07500000298023224 -9.184851394388759e-18
v 0 0.07500000298023224 -9.184851394388759e-18
v 0 0.07500000298023224 -9.184851394388759e-18
v 0 0.07500000298023224 -9.184851394388759e-18
v 0 0.07500000298023224 -9.184851394388759e-18
v 0 0.07500000298023224 -9.184851394388759e-18
v 0 0.07500000298023224 -0.10000000149011612
v 0.013052619062364101 0.07500000298023224 -0.09914448857307434
v 0.025881905108690262 0.07500000298023224 -0.09659258276224136
v 0.03826834261417389 0.07500000298023224 -0.09238795191049576
v 0.05000000074505806 0.07500000298023224 -0.08660253882408142
v 0.06087614223361015 0.07500000298023224 -0.07933533191680908
v 0.0707106813788414 0.07500000298023224 -0.0707106813788414
v 0.07933533191680908 0.07500000298023224 -0.06087614223361015
v 0.08660253882408142 0.07500000298023224 -0.05000000074505806
v 0.09238795191049576 0.07500000298023224 -0.03826834261417389
v 0.09659258276224136 0.07500000298023224 -0.025881905108690262
v 0.09914448857307434 0.07500000298023224 -0.013052619062364101
v 0.10000000149011612 0.07500000298023224 -1.5308084002953373e-17
v 0.09914448857307434 0.07500000298023224 0.013052619062364101
v 0.09659258276224136 0.07500000298023224 0.025881905108690262
v 0.09238795191049576 0.07500000298023224 0.03826834261417389
v 0.08660253882408142 0.07500000298023224 0.05000000074505806
v 0.07933533191680908 0.07500000298023224 0.06087614223361015
v 0.0707106813788414 0.07500000298023224 0.0707106813788414
v 0.06087614223361015 0.07500000298023224 0.07933533191680908
v 0.05000000074505806 0.07500000298023224 0.08660253882408142
v 0.03826834261417389 0.07500000298023224 0.09238795191049576
v 0.025881905108690262 0.07500000298023224 0.09659258276224136
v 0.013052619062364101 0.07500000298023224 0.09914448857307434
v 1.2246467698671066e-17 0.07500000298023224 0.10000000149011612
v -0.013052619062364101 0.07500000298023224 0.09914448857307434
v -0.025881905108690262 0.07500000298023224 0.09659258276224136
v -0.03826834261417389 0.07500000298023224 0.09238795191049576
v -0.05000000074505806 0.07500000298023224 0.08660253882408142
v -0.06087614223361015 0.07500000298023224 0.07933533191680908
v -0.0707106813788414 0.07500000298023224 0.0707106813788414
v -0.07933533191680908 0.07500000298023224 0.06087614223361015
v -0.08660253882408142 0.07500000298023224 0.05000000074505806
v -0.09238795191049576 0.07500000298023224 0.03826834261417389
v -0.09659258276224136 0.07500000298023224 0.025881905108690262
v -0.09914448857307434 0.07500000298023224 0.013052619062364101
v -0.10000000149011612 0.07500000298023224 9.184851394388759e-18
v -0.09914448857307434 0.07500000298023224 -0.013052619062364101
v -0.09659258276224136 0.07500000298023224 -0.025881905108690262
v -0.09238795191049576 0.07500000298023224 -0.03826834261417389
v -0.08660253882408142 0.07500000298023224 -0.05000000074505806
v -0.07933533191680908 0.07500000298023224 -0.06087614223361015
v -0.0707106813788414 0.07500000298023224 -0.0707106813788414
v -0.06087614223361015 0.07500000298023224 -0.07933533191680908
v -0.05000000074505806 0.07500000298023224 -0.08660253882408142
v -0.03826834261417389 0.07500000298023224 -0.09238795191049576
v -0.025881905108690262 0.07500000298023224 -0.09659258276224136
v -0.013052619062364101 0.07500000298023224 -0.09914448857307434
v -2.4492935397342132e-17 0.07500000298023224 -0.10000000149011612
vt 0 1
vt 0.02083333395421505 1
vt 0.0416666679084301 1
vt 0.0625 1
vt 0.0833333358168602 1
vt 0.1041666641831398 1
vt 0.125 1
vt 0.1458333283662796 1
vt 0.1666666716337204 1
vt 0.1875 1
vt 0.2083333283662796 1
vt 0.2291666716337204 1
vt 0.25 1
vt 0.2708333432674408 1
vt 0.2916666567325592 1
vt 0.3125 1
vt 0.3333333432674408 1
vt 0.3541666567325592 1
vt 0.375 1
vt 0.3958333432674408 1
vt 0.4166666567325592 1
vt 0.4375 1
vt 0.4583333432674408 1
vt 0.4791666567325592 1
vt 0.5 1
vt 0.5208333134651184 1
vt 0.5416666865348816 1
vt 0.5625 1
vt 0.5833333134651184 1
vt 0.6041666865348816 1
vt 0.625 1
vt 0.6458333134651184 1
vt 0.6666666865348816 1
vt 0.6875 1
vt 0.7083333134651184 1
vt 0.7291666865348816 1
vt 0.75 1
vt 0.7708333134651184 1
vt 0.7916666865348816 1
vt 0.8125 1
vt 0.8333333134651184 1
vt 0.8541666865348816 1
vt 0.875 1
vt 0.8958333134651184 1
vt 0.9166666865348816 1
vt 0.9375 1
vt 0.9583333134651184 1
vt 0.9791666865348816 1
vt 1 1
vt 0 0
vt 0.02083333395421505 0
vt 0.0416666679084301 0
vt 0.0625 0
vt 0.0833333358168602 0
vt 0.1041666641831398 0
vt 0.125 0
vt 0.1458333283662796 0
vt 0.1666666716337204 0
vt 0.1875 0
vt 0.2083333283662796 0
vt 0.2291666716337204 0
vt 0.25 0
vt 0.2708333432674408 0
vt 0.2916666567325592 0
vt 0.3125 0
vt 0.3333333432674408 0
vt 0.3541666567325592 0
vt 0.375 0
vt 0.3958333432674408 0
vt 0.4166666567325592 0
vt 0.4375 0
vt 0.4583333432674408 0
vt 0.4791666567325592 0
vt 0.5 0
vt 0.5208333134651184 0
vt 0.5416666865348816 0
vt 0.5625 0
vt 0.5833333134651184 0
vt 0.6041666865348816 0
vt 0.625 0
vt 0.6458333134651184 0
vt 0.6666666865348816 0
vt 0.6875 0
vt 0.7083333134651184 0
vt 0.7291666865348816 0
vt 0.75 0
vt 0.7708333134651184 0
vt 0.7916666865348816 0
vt 0.8125 0
vt 0.8333333134651184 0
vt 0.8541666865348816 0
vt 0.875 0
vt 0.8958333134651184 0
vt 0.9166666865348816 0
vt 0.9375 0
vt 0.9583333134651184 0
vt 0.9791666865348816 0
vt 1 0
vt 0.5 0.5
vt 0.5 0.5
vt 0.5 0.5
vt 0.5 0.5
vt 0.5 0.5
vt 0.5 0.5
vt 0.5 0.5
vt 0.5 0.5
vt 0.5 0.5
vt 0.5 0.5
vt 0.5 0.5
vt 0.5 0.5
vt 0.5 0.5
vt 0.5 0.5
vt 0.5 0.5
vt 0.5 0.5
vt 0.5 0.5
vt 0.5 0.5
vt 0.5 0.5
vt 0.5 0.5
vt 0.5 0.5
vt 0.5 0.5
vt 0.5 0.5
vt 0.5 0.5
vt 0.5 0.5
vt 0.5 0.5
vt 0.5 0.5
vt 0.5 0.5
vt 0.5 0.5
vt 0.5 0.5
vt 0.5 0.5
vt 0.5 0.5
vt 0.5 0.5
vt 0.5 0.5
vt 0.5 0.5
vt 0.5 0.5
vt 0.5 0.5
vt 0.5 0.5
vt 0.5 0.5
vt 0.5 0.5
vt 0.5 0.5
vt 0.5 0.5
vt 0.5 0.5
vt 0.5 0.5
vt 0.5 0.5
vt 0.5 0.5
vt 0.5 0.5
vt 0.5 0.5
vt 1 0.5
vt 0.9957224130630493 0.5652630925178528
vt 0.9829629063606262 0.6294095516204834
vt 0.9619397521018982 0.6913416981697083
vt 0.9330127239227295 0.75
vt 0.8966766595840454 0.8043807148933411
vt 0.8535534143447876 0.8535534143447876
vt 0.8043807148933411 0.8966766595840454
vt 0.75 0.9330127239227295
vt 0.6913416981697083 0.9619397521018982
vt 0.6294095516204834 0.9829629063606262
vt 0.5652630925178528 0.9957224130630493
vt 0.5 1
vt 0.4347369074821472 0.9957224130630493
vt 0.370590478181839 0.9829629063606262
vt 0.30865827202796936 0.9619397521018982
vt 0.25 0.9330127239227295
vt 0.19561928510665894 0.8966766595840454
vt 0.1464466154575348 0.8535534143447876
vt 0.10332333296537399 0.8043807148933411
vt 0.0669872984290123 0.75
vt 0.03806023299694061 0.6913416981697083
vt 0.017037086188793182 0.6294095516204834
vt 0.004277569241821766 0.5652630925178528
vt 0 0.5
vt 0.004277569241821766 0.4347369074821472
vt 0.017037086188793182 0.370590478181839
vt 0.03806023299694061 0.30865827202796936
vt 0.0669872984290123 0.25
vt 0.10332333296537399 0.19561928510665894
vt 0.1464466154575348 0.1464466154575348
vt 0.19561928510665894 0.10332333296537399
vt 0.25 0.0669872984290123
vt 0.30865827202796936 0.03806023299694061
vt 0.370590478181839 0.017037086188793182
vt 0.4347369074821472 0.004277569241821766
vt 0.5 0
vt 0.5652630925178528 0.004277569241821766
vt 0.6294095516204834 0.017037086188793182
vt 0.6913416981697083 0.03806023299694061
vt 0.75 0.0669872984290123
vt 0.8043807148933411 0.10332333296537399
vt 0.8535534143447876 0.1464466154575348
vt 0.8966766595840454 0.19561928510665894
vt 0.9330127239227295 0.25
vt 0.9619397521018982 0.30865827202796936
vt 0.9829629063606262 0.370590478181839
vt 0.9957224130630493 0.4347369074821472
vt 1 0.5
vt 0.5 0.5
vt 0.5 0.5
vt 0.5 0.5
vt 0.5 0.5
vt 0.5 0.5
vt 0.5 0.5
vt 0.5 0.5
vt 0.5 0.5
vt 0.5 0.5
vt 0.5 0.5
vt 0.5 0.5
vt 0.5 0.5
vt 0.5 0.5
vt 0.5 0.5
vt 0.5 0.5
vt 0.5 0.5
vt 0.5 0.5
vt 0.5 0.5
vt 0.5 0.5
vt 0.5 0.5
vt 0.5 0.5
vt 0.5 0.5
vt 0.5 0.5
vt 0.5 0.5
vt 0.5 0.5
vt 0.5 0.5
vt 0.5 0.5
vt 0.5 0.5
vt 0.5 0.5
vt 0.5 0.5
vt 0.5 0.5
vt 0.5 0.5
vt 0.5 0.5
vt 0.5 0.5
vt 0.5 0.5
vt 0.5 0.5
vt 0.5 0.5
vt 0.5 0.5
vt 0.5 0.5
vt 0.5 0.5
vt 0.5 0.5
vt 0.5 0.5
vt 0.5 0.5
vt 0.5 0.5
vt 0.5 0.5
vt 0.5 0.5
vt 0.5 0.5
vt 0.5 0.5
vt 1 0.5
vt 0.9957224130630493 0.4347369074821472
vt 0.9829629063606262 0.370590478181839
vt 0.9619397521018982 0.30865827202796936
vt 0.9330127239227295 0.25
vt 0.8966766595840454 0.19561928510665894
vt 0.8535534143447876 0.1464466154575348
vt 0.8043807148933411 0.10332333296537399
vt 0.75 0.0669872984290123
vt 0.6913416981697083 0.03806023299694061
vt 0.6294095516204834 0.017037086188793182
vt 0.5652630925178528 0.004277569241821766
vt 0.5 0
vt 0.4347369074821472 0.004277569241821766
vt 0.370590478181839 0.017037086188793182
vt 0.30865827202796936 0.03806023299694061
vt 0.25 0.0669872984290123
vt 0.19561928510665894 0.10332333296537399
vt 0.1464466154575348 0.1464466154575348
vt 0.10332333296537399 0.19561928510665894
vt 0.0669872984290123 0.25
vt 0.03806023299694061 0.30865827202796936
vt 0.017037086188793182 0.370590478181839
vt 0.004277569241821766 0.4347369074821472
vt 0 0.5
vt 0.004277569241821766 0.5652630925178528
vt 0.017037086188793182 0.6294095516204834
vt 0.03806023299694061 0.6913416981697083
vt 0.0669872984290123 0.75
vt 0.10332333296537399 0.8043807148933411
vt 0.1464466154575348 0.8535534143447876
vt 0.19561928510665894 0.8966766595840454
vt 0.25 0.9330127239227295
vt 0.30865827202796936 0.9619397521018982
vt 0.370590478181839 0.9829629063606262
vt 0.4347369074821472 0.9957224130630493
vt 0.5 1
vt 0.5652630925178528 0.9957224130630493
vt 0.6294095516204834 0.9829629063606262
vt 0.6913416981697083 0.9619397521018982
vt 0.75 0.9330127239227295
vt 0.8043807148933411 0.8966766595840454
vt 0.8535534143447876 0.8535534143447876
vt 0.8966766595840454 0.8043807148933411
vt 0.9330127239227295 0.75
vt 0.9619397521018982 0.6913416981697083
vt 0.9829629063606262 0.6294095516204834
vt 0.9957224130630493 0.5652630925178528
vt 1 0.5
vn 0 -1.2246468525851679e-16 -1
vn 0.13052618200608704 -1.2141696885902594e-16 -0.9914448627185043
vn 0.2588190471264927 -1.1829179227392118e-16 -0.9659258257467466
vn 0.3826834370613369 -1.131426144463939e-16 -0.9238795305660377
vn 0.5000000067305869 -1.0605752614896174e-16 -0.8660253998985324
vn 0.6087614397000725 -9.71577643615598e-17 -0.7933533320874723
vn 0.7071067811865476 -8.659560751628624e-17 -0.7071067811865476
vn 0.7933533320874723 -7.455177812019489e-17 -0.6087614397000725
vn 0.8660253998985324 -6.12323434535176e-17 -0.5000000067305869
vn 0.9238795305660377 -4.686520603449003e-17 -0.3826834370613369
vn 0.9659258257467466 -3.1696191689360264e-17 -0.2588190471264927
vn 0.9914448627185043 -1.5984846413176062e-17 -0.13052618200608704
vn 1 -7.49879952078994e-33 -6.123234262925839e-17
vn 0.9914448627185043 1.5984846413176062e-17 0.13052618200608704
vn 0.9659258257467466 3.1696191689360264e-17 0.2588190471264927
vn 0.9238795305660377 4.686520603449003e-17 0.3826834370613369
vn 0.8660253998985324 6.12323434535176e-17 0.5000000067305869
vn 0.7933533320874723 7.455177812019489e-17 0.6087614397000725
vn 0.7071067811865476 8.659560751628624e-17 0.7071067811865476
vn 0.6087614397000725 9.71577643615598e-17 0.7933533320874723
vn 0.5000000067305869 1.0605752614896174e-16 0.8660253998985324
vn 0.3826834370613369 1.131426144463939e-16 0.9238795305660377
vn 0.2588190471264927 1.1829179227392118e-16 0.9659258257467466
vn 0.13052618200608704 1.2141696885902594e-16 0.9914448627185043
vn 1.2246468525851679e-16 1.2246468525851679e-16 1
vn -0.13052618200608704 1.2141696885902594e-16 0.9914448627185043
vn -0.2588190471264927 1.1829179227392118e-16 0.9659258257467466
vn -0.3826834370613369 1.131426144463939e-16 0.9238795305660377
vn -0.5000000067305869 1.0605752614896174e-16 0.8660253998985324
vn -0.6087614397000725 9.71577643615598e-17 0.7933533320874723
vn -0.7071067811865476 8.659560751628624e-17 0.7071067811865476
vn -0.7933533320874723 7.455177812019489e-17 0.6087614397000725
vn -0.8660253998985324 6.12323434535176e-17 0.5000000067305869
vn -0.9238795305660377 4.686520603449003e-17 0.3826834370613369
vn -0.9659258257467466 3.1696191689360264e-17 0.2588190471264927
vn -0.9914448627185043 1.5984846413176062e-17 0.13052618200608704
vn -1 2.2496396358317913e-32 1.8369701465288538e-16
vn -0.9914448627185043 -1.5984846413176062e-17 -0.13052618200608704
vn -0.9659258257467466 -3.1696191689360264e-17 -0.2588190471264927
vn -0.9238795305660377 -4.686520603449003e-17 -0.3826834370613369
vn -0.8660253998985324 -6.12323434535176e-17 -0.5000000067305869
vn -0.7933533320874723 -7.455177812019489e-17 -0.6087614397000725
vn -0.7071067811865476 -8.659560751628624e-17 -0.7071067811865476
vn -0.6087614397000725 -9.71577643615598e-17 -0.7933533320874723
vn -0.5000000067305869 -1.0605752614896174e-16 -0.8660253998985324
vn -0.3826834370613369 -1.131426144463939e-16 -0.9238795305660377
vn -0.2588190471264927 -1.1829179227392118e-16 -0.9659258257467466
vn -0.13052618200608704 -1.2141696885902594e-16 -0.9914448627185043
vn -2.4492937051703357e-16 -1.2246468525851679e-16 -1
vn 0 -1.2246468525851679e-16 -1
vn 0.13052618200608704 -1.2141696885902594e-16 -0.9914448627185043
vn 0.2588190471264927 -1.1829179227392118e-16 -0.9659258257467466
vn 0.3826834370613369 -1.131426144463939e-16 -0.9238795305660377
vn 0.5000000067305869 -1.0605752614896174e-16 -0.8660253998985324
vn 0.6087614397000725 -9.71577643615598e-17 -0.7933533320874723
vn 0.7071067811865476 -8.659560751628624e-17 -0.7071067811865476
vn 0.7933533320874723 -7.455177812019489e-17 -0.6087614397000725
vn 0.8660253998985324 -6.12323434535176e-17 -0.5000000067305869
vn 0.9238795305660377 -4.686520603449003e-17 -0.3826834370613369
vn 0.9659258257467466 -3.1696191689360264e-17 -0.2588190471264927
vn 0.9914448627185043 -1.5984846413176062e-17 -0.13052618200608704
vn 1 -7.49879952078994e-33 -6.123234262925839e-17
vn 0.9914448627185043 1.5984846413176062e-17 0.13052618200608704
vn 0.9659258257467466 3.1696191689360264e-17 0.2588190471264927
vn 0.9238795305660377 4.686520603449003e-17 0.3826834370613369
vn 0.8660253998985324 6.12323434535176e-17 0.5000000067305869
vn 0.7933533320874723 7.455177812019489e-17 0.6087614397000725
vn 0.7071067811865476 8.659560751628624e-17 0.7071067811865476
vn 0.6087614397000725 9.71577643615598e-17 0.7933533320874723
vn 0.5000000067305869 1.0605752614896174e-16 0.8660253998985324
vn 0.3826834370613369 1.131426144463939e-16 0.9238795305660377
vn 0.2588190471264927 1.1829179227392118e-16 0.9659258257467466
vn 0.13052618200608704 1.2141696885902594e-16 0.9914448627185043
vn 1.2246468525851679e-16 1.2246468525851679e-16 1
vn -0.13052618200608704 1.2141696885902594e-16 0.9914448627185043
vn -0.2588190471264927 1.1829179227392118e-16 0.9659258257467466
vn -0.3826834370613369 1.131426144463939e-16 0.9238795305660377
vn -0.5000000067305869 1.0605752614896174e-16 0.8660253998985324
vn -0.6087614397000725 9.71577643615598e-17 0.7933533320874723
vn -0.7071067811865476 8.659560751628624e-17 0.7071067811865476
vn -0.7933533320874723 7.455177812019489e-17 0.6087614397000725
vn -0.8660253998985324 6.12323434535176e-17 0.5000000067305869
vn -0.9238795305660377 4.686520603449003e-17 0.3826834370613369
vn -0.9659258257467466 3.1696191689360264e-17 0.2588190471264927
vn -0.9914448627185043 1.5984846413176062e-17 0.13052618200608704
vn -1 2.2496396358317913e-32 1.8369701465288538e-16
vn -0.9914448627185043 -1.5984846413176062e-17 -0.13052618200608704
vn -0.9659258257467466 -3.1696191689360264e-17 -0.2588190471264927
vn -0.9238795305660377 -4.686520603449003e-17 -0.3826834370613369
vn -0.8660253998985324 -6.12323434535176e-17 -0.5000000067305869
vn -0.7933533320874723 -7.455177812019489e-17 -0.6087614397000725
vn -0.7071067811865476 -8.659560751628624e-17 -0.7071067811865476
vn -0.6087614397000725 -9.71577643615598e-17 -0.7933533320874723
vn -0.5000000067305869 -1.0605752614896174e-16 -0.8660253998985324
vn -0.3826834370613369 -1.131426144463939e-16 -0.9238795305660377
vn -0.2588190471264927 -1.1829179227392118e-16 -0.9659258257467466
vn -0.13052618200608704 -1.2141696885902594e-16 -0.9914448627185043
vn -2.4492937051703357e-16 -1.2246468525851679e-16 -1
vn 0 -1 1.2246468525851679e-16
vn 0 -1 1.2246468525851679e-16
vn 0 -1 1.2246468525851679e-16
vn 0 -1 1.2246468525851679e-16
vn 0 -1 1.2246468525851679e-16
vn 0 -1 1.2246468525851679e-16
vn 0 -1 1.2246468525851679e-16
vn 0 -1 1.2246468525851679e-16
vn 0 -1 1.2246468525851679e-16
vn 0 -1 1.2246468525851679e-16
vn 0 -1 1.2246468525851679e-16
vn 0 -1 1.2246468525851679e-16
vn 0 -1 1.2246468525851679e-16
vn 0 -1 1.2246468525851679e-16
vn 0 -1 1.2246468525851679e-16
vn 0 -1 1.2246468525851679e-16
vn 0 -1 1.2246468525851679e-16
vn 0 -1 1.2246468525851679e-16
vn 0 -1 1.2246468525851679e-16
vn 0 -1 1.2246468525851679e-16
vn 0 -1 1.2246468525851679e-16
vn 0 -1 1.2246468525851679e-16
vn 0 -1 1.2246468525851679e-16
vn 0 -1 1.2246468525851679e-16
vn 0 -1 1.2246468525851679e-16
vn 0 -1 1.2246468525851679e-16
vn 0 -1 1.2246468525851679e-16
vn 0 -1 1.2246468525851679e-16
vn 0 -1 1.2246468525851679e-16
vn 0 -1 1.2246468525851679e-16
vn 0 -1 1.2246468525851679e-16
vn 0 -1 1.2246468525851679e-16
vn 0 -1 1.2246468525851679e-16
vn 0 -1 1.2246468525851679e-16
vn 0 -1 1.2246468525851679e-16
vn 0 -1 1.2246468525851679e-16
vn 0 -1 1.2246468525851679e-16
vn 0 -1 1.2246468525851679e-16
vn 0 -1 1.2246468525851679e-16
vn 0 -1 1.2246468525851679e-16
vn 0 -1 1.2246468525851679e-16
vn 0 -1 1.2246468525851679e-16
vn 0 -1 1.2246468525851679e-16
vn 0 -1 1.2246468525851679e-16
vn 0 -1 1.2246468525851679e-16
vn 0 -1 1.2246468525851679e-16
vn 0 -1 1.2246468525851679e-16
vn 0 -1 1.2246468525851679e-16
vn 0 -1 1.2246468525851679e-16
vn 0 -1 1.2246468525851679e-16
vn 0 -1 1.2246468525851679e-16
vn 0 -1 1.2246468525851679e-16
vn 0 -1 1.2246468525851679e-16
vn 0 -1 1.2246468525851679e-16
vn 0 -1 1.2246468525851679e-16
vn 0 -1 1.2246468525851679e-16
vn 0 -1 1.2246468525851679e-16
vn 0 -1 1.2246468525851679e-16
vn 0 -1 1.2246468525851679e-16
vn 0 -1 1.2246468525851679e-16
vn 0 -1 1.2246468525851679e-16
vn 0 -1 1.2246468525851679e-16
vn 0 -1 1.2246468525851679e-16
vn 0 -1 1.2246468525851679e-16
vn 0 -1 1.2246468525851679e-16
vn 0 -1 1.2246468525851679e-16
vn 0 -1 1.2246468525851679e-16
vn 0 -1 1.2246468525851679e-16
vn 0 -1 1.2246468525851679e-16
vn 0 -1 1.2246468525851679e-16
vn 0 -1 1.2246468525851679e-16
vn 0 -1 1.2246468525851679e-16
vn 0 -1 1.2246468525851679e-16
vn 0 -1 1.2246468525851679e-16
vn 0 -1 1.2246468525851679e-16
vn 0 -1 1.2246468525851679e-16
vn 0 -1 1.2246468525851679e-16
vn 0 -1 1.2246468525851679e-16
vn 0 -1 1.2246468525851679e-16
vn 0 -1 1.2246468525851679e-16
vn 0 -1 1.2246468525851679e-16
vn 0 -1 1.2246468525851679e-16
vn 0 -1 1.2246468525851679e-16
vn 0 -1 1.2246468525851679e-16
vn 0 -1 1.2246468525851679e-16
vn 0 -1 1.2246468525851679e-16
vn 0 -1 1.2246468525851679e-16
vn 0 -1 1.2246468525851679e-16
vn 0 -1 1.2246468525851679e-16
vn 0 -1 1.2246468525851679e-16
vn 0 -1 1.2246468525851679e-16
vn 0 -1 1.2246468525851679e-16
vn 0 -1 1.2246468525851679e-16
vn 0 -1 1.2246468525851679e-16
vn 0 -1 1.2246468525851679e-16
vn 0 -1 1.2246468525851679e-16
vn 0 -1 1.2246468525851679e-16
vn 0 1 -1.2246468525851679e-16
vn 0 1 -1.2246468525851679e-16
vn 0 1 -1.2246468525851679e-16
vn 0 1 -1.2246468525851679e-16
vn 0 1 -1.2246468525851679e-16
vn 0 1 -1.2246468525851679e-16
vn 0 1 -1.2246468525851679e-16
vn 0 1 -1.2246468525851679e-16
vn 0 1 -1.2246468525851679e-16
vn 0 1 -1.2246468525851679e-16
vn 0 1 -1.2246468525851679e-16
vn 0 1 -1.2246468525851679e-16
vn 0 1 -1.2246468525851679e-16
vn 0 1 -1.2246468525851679e-16
vn 0 1 -1.2246468525851679e-16
vn 0 1 -1.2246468525851679e-16
vn 0 1 -1.2246468525851679e-16
vn 0 1 -1.2246468525851679e-16
vn 0 1 -1.2246468525851679e-16
vn 0 1 -1.2246468525851679e-16
vn 0 1 -1.2246468525851679e-16
vn 0 1 -1.2246468525851679e-16
vn 0 1 -1.2246468525851679e-16
vn 0 1 -1.2246468525851679e-16
vn 0 1 -1.2246468525851679e-16
vn 0 1 -1.2246468525851679e-16
vn 0 1 -1.2246468525851679e-16
vn 0 1 -1.2246468525851679e-16
vn 0 1 -1.2246468525851679e-16
vn 0 1 -1.2246468525851679e-16
vn 0 1 -1.2246468525851679e-16
vn 0 1 -1.2246468525851679e-16
vn 0 1 -1.2246468525851679e-16
vn 0 1 -1.2246468525851679e-16
vn 0 1 -1.2246468525851679e-16
vn 0 1 -1.2246468525851679e-16
vn 0 1 -1.2246468525851679e-16
vn 0 1 -1.2246468525851679e-16
vn 0 1 -1.2246468525851679e-16
vn 0 1 -1.2246468525851679e-16
vn 0 1 -1.2246468525851679e-16
vn 0 1 -1.2246468525851679e-16
vn 0 1 -1.2246468525851679e-16
vn 0 1 -1.2246468525851679e-16
vn 0 1 -1.2246468525851679e-16
vn 0 1 -1.2246468525851679e-16
vn 0 1 -1.2246468525851679e-16
vn 0 1 -1.2246468525851679e-16
vn 0 1 -1.2246468525851679e-16
vn 0 1 -1.2246468525851679e-16
vn 0 1 -1.2246468525851679e-16
vn 0 1 -1.2246468525851679e-16
vn 0 1 -1.2246468525851679e-16
vn 0 1 -1.2246468525851679e-16
vn 0 1 -1.2246468525851679e-16
vn 0 1 -1.2246468525851679e-16
vn 0 1 -1.2246468525851679e-16
vn 0 1 -1.2246468525851679e-16
vn 0 1 -1.2246468525851679e-16
vn 0 1 -1.2246468525851679e-16
vn 0 1 -1.2246468525851679e-16
vn 0 1 -1.2246468525851679e-16
vn 0 1 -1.2246468525851679e-16
vn 0 1 -1.2246468525851679e-16
vn 0 1 -1.2246468525851679e-16
vn 0 1 -1.2246468525851679e-16
vn 0 1 -1.2246468525851679e-16
vn 0 1 -1.2246468525851679e-16
vn 0 1 -1.2246468525851679e-16
vn 0 1 -1.2246468525851679e-16
vn 0 1 -1.2246468525851679e-16
vn 0 1 -1.2246468525851679e-16
vn 0 1 -1.2246468525851679e-16
vn 0 1 -1.2246468525851679e-16
vn 0 1 -1.2246468525851679e-16
vn 0 1 -1.2246468525851679e-16
vn 0 1 -1.2246468525851679e-16
vn 0 1 -1.2246468525851679e-16
vn 0 1 -1.2246468525851679e-16
vn 0 1 -1.2246468525851679e-16
vn 0 1 -1.2246468525851679e-16
vn 0 1 -1.2246468525851679e-16
vn 0 1 -1.2246468525851679e-16
vn 0 1 -1.2246468525851679e-16
vn 0 1 -1.2246468525851679e-16
vn 0 1 -1.2246468525851679e-16
vn 0 1 -1.2246468525851679e-16
vn 0 1 -1.2246468525851679e-16
vn 0 1 -1.2246468525851679e-16
vn 0 1 -1.2246468525851679e-16
vn 0 1 -1.2246468525851679e-16
vn 0 1 -1.2246468525851679e-16
vn 0 1 -1.2246468525851679e-16
vn 0 1 -1.2246468525851679e-16
vn 0 1 -1.2246468525851679e-16
vn 0 1 -1.2246468525851679e-16
vn 0 1 -1.2246468525851679e-16
f 1/1/1 50/50/50 2/2/2
f 50/50/50 51/51/51 2/2/2
f 2/2/2 51/51/51 3/3/3
f 51/51/51 52/52/52 3/3/3
f 3/3/3 52/52/52 4/4/4
f 52/52/52 53/53/53 4/4/4
f 4/4/4 53/53/53 5/5/5
f 53/53/53 54/54/54 5/5/5
f 5/5/5 54/54/54 6/6/6
f 54/54/54 55/55/55 6/6/6
f 6/6/6 55/55/55 7/7/7
f 55/55/55 56/56/56 7/7/7
f 7/7/7 56/56/56 8/8/8
f 56/56/56 57/57/57 8/8/8
f 8/8/8 57/57/57 9/9/9
f 57/57/57 58/58/58 9/9/9
f 9/9/9 58/58/58 10/10/10
f 58/58/58 59/59/59 10/10/10
f 10/10/10 59/59/59 11/11/11
f 59/59/59 60/60/60 11/11/11
f 11/11/11 60/60/60 12/12/12
f 60/60/60 61/61/61 12/12/12
f 12/12/12 61/61/61 13/13/13
f 61/61/61 62/62/62 13/13/13
f 13/13/13 62/62/62 14/14/14
f 62/62/62 63/63/63 14/14/14
f 14/14/14 63/63/63 15/15/15
f 63/63/63 64/64/64 15/15/15
f 15/15/15 64/64/64 16/16/16
f 64/64/64 65/65/65 16/16/16
f 16/16/16 65/65/65 17/17/17
f 65/65/65 66/66/66 17/17/17
f 17/17/17 66/66/66 18/18/18
f 66/66/66 67/67/67 18/18/18
f 18/18/18 67/67/67 19/19/19
f 67/67/67 68/68/68 19/19/19
f 19/19/19 68/68/68 20/20/20
f 68/68/68 69/69/69 20/20/20
f 20/20/20 69/69/69 21/21/21
f 69/69/69 70/70/70 21/21/21
f 21/21/21 70/70/70 22/22/22
f 70/70/70 71/71/71 22/22/22
f 22/22/22 71/71/71 23/23/23
f 71/71/71 72/72/72 23/23/23
f 23/23/23 72/72/72 24/24/24
f 72/72/72 73/73/73 24/24/24
f 24/24/24 73/73/73 25/25/25
f 73/73/73 74/74/74 25/25/25
f 25/25/25 74/74/74 26/26/26
f 74/74/74 75/75/75 26/26/26
f 26/26/26 75/75/75 27/27/27
f 75/75/75 76/76/76 27/27/27
f 27/27/27 76/76/76 28/28/28
f 76/76/76 77/77/77 28/28/28
f 28/28/28 77/77/77 29/29/29
f 77/77/77 78/78/78 29/29/29
f 29/29/29 78/78/78 30/30/30
f 78/78/78 79/79/79 30/30/30
f 30/30/30 79/79/79 31/31/31
f 79/79/79 80/80/80 31/31/31
f 31/31/31 80/80/80 32/32/32
f 80/80/80 81/81/81 32/32/32
f 32/32/32 81/81/81 33/33/33
f 81/81/81 82/82/82 33/33/33
f 33/33/33 82/82/82 34/34/34
f 82/82/82 83/83/83 34/34/34
f 34/34/34 83/83/83 35/35/35
f 83/83/83 84/84/84 35/35/35
f 35/35/35 84/84/84 36/36/36
f 84/84/84 85/85/85 36/36/36
f 36/36/36 85/85/85 37/37/37
f 85/85/85 86/86/86 37/37/37
f 37/37/37 86/86/86 38/38/38
f 86/86/86 87/87/87 38/38/38
f 38/38/38 87/87/87 39/39/39
f 87/87/87 88/88/88 39/39/39
f 39/39/39 88/88/88 40/40/40
f 88/88/88 89/89/89 40/40/40
f 40/40/40 89/89/89 41/41/41
f 89/89/89 90/90/90 41/41/41
f 41/41/41 90/90/90 42/42/42
f 90/90/90 91/91/91 42/42/42
f 42/42/42 91/91/91 43/43/43
f 91/91/91 92/92/92 43/43/43
f 43/43/43 92/92/92 44/44/44
f 92/92/92 93/93/93 44/44/44
f 44/44/44 93/93/93 45/45/45
f 93/93/93 94/94/94 45/45/45
f 45/45/45 94/94/94 46/46/46
f 94/94/94 95/95/95 46/46/46
f 46/46/46 95/95/95 47/47/47
f 95/95/95 96/96/96 47/47/47
f 47/47/47 96/96/96 48/48/48
f 96/96/96 97/97/97 48/48/48
f 48/48/48 97/97/97 49/49/49
f 97/97/97 98/98/98 49/49/49
f 147/147/147 148/148/148 99/99/99
f 148/148/148 149/149/149 100/100/100
f 149/149/149 150/150/150 101/101/101
f 150/150/150 151/151/151 102/102/102
f 151/151/151 152/152/152 103/103/103
f 152/152/152 153/153/153 104/104/104
f 153/153/153 154/154/154 105/105/105
f 154/154/154 155/155/155 106/106/106
f 155/155/155 156/156/156 107/107/107
f 156/156/156 157/157/157 108/108/108
f 157/157/157 158/158/158 109/109/109
f 158/158/158 159/159/159 110/110/110
f 159/159/159 160/160/160 111/111/111
f 160/160/160 161/161/161 112/112/112
f 161/161/161 162/162/162 113/113/113
f 162/162/162 163/163/163 114/114/114
f 163/163/163 164/164/164 115/115/115
f 164/164/164 165/165/165 116/116/116
f 165/165/165 166/166/166 117/117/117
f 166/166/166 167/167/167 118/118/118
f 167/167/167 168/168/168 119/119/119
f 168/168/168 169/169/169 120/120/120
f 169/169/169 170/170/170 121/121/121
f 170/170/170 171/171/171 122/122/122
f 171/171/171 172/172/172 123/123/123
f 172/172/172 173/173/173 124/124/124
f 173/173/173 174/174/174 125/125/125
f 174/174/174 175/175/175 126/126/126
f 175/175/175 176/176/176 127/127/127
f 176/176/176 177/177/177 128/128/128
f 177/177/177 178/178/178 129/129/129
f 178/178/178 179/179/179 130/130/130
f 179/179/179 180/180/180 131/131/131
f 180/180/180 181/181/181 132/132/132
f 181/181/181 182/182/182 133/133/133
f 182/182/182 183/183/183 134/134/134
f 183/183/183 184/184/184 135/135/135
f 184/184/184 185/185/185 136/136/136
f 185/185/185 186/186/186 137/137/137
f 186/186/186 187/187/187 138/138/138
f 187/187/187 188/188/188 139/139/139
f 188/188/188 189/189/189 140/140/140
f 189/189/189 190/190/190 141/141/141
f 190/190/190 191/191/191 142/142/142
f 191/191/191 192/192/192 143/143/143
f 192/192/192 193/193/193 144/144/144
f 193/193/193 194/194/194 145/145/145
f 194/194/194 195/195/195 146/146/146
f 245/245/245 244/244/244 196/196/196
f 246/246/246 245/245/245 197/197/197
f 247/247/247 246/246/246 198/198/198
f 248/248/248 247/247/247 199/199/199
f 249/249/249 248/248/248 200/200/200
f 250/250/250 249/249/249 201/201/201
f 251/251/251 250/250/250 202/202/202
f 252/252/252 251/251/251 203/203/203
f 253/253/253 252/252/252 204/204/204
f 254/254/254 253/253/253 205/205/205
f 255/255/255 254/254/254 206/206/206
f 256/256/256 255/255/255 207/207/207
f 257/257/257 256/256/256 208/208/208
f 258/258/258 257/257/257 209/209/209
f 259/259/259 258/258/258 210/210/210
f 260/260/260 259/259/259 211/211/211
f 261/261/261 260/260/260 212/212/212
f 262/262/262 261/261/261 213/213/213
f 263/263/263 262/262/262 214/214/214
f 264/264/264 263/263/263 215/215/215
f 265/265/265 264/264/264 216/216/216
f 266/266/266 265/265/265 217/217/217
f 267/267/267 266/266/266 218/218/218
f 268/268/268 267/267/267 219/219/219
f 269/269/269 268/268/268 220/220/220
f 270/270/270 269/269/269 221/221/221
f 271/271/271 270/270/270 222/222/222
f 272/272/272 271/271/271 223/223/223
f 273/273/273 272/272/272 224/224/224
f 274/274/274 273/273/273 225/225/225
f 275/275/275 274/274/274 226/226/226
f 276/276/276 275/275/275 227/227/227
f 277/277/277 276/276/276 228/228/228
f 278/278/278 277/277/277 229/229/229
f 279/279/279 278/278/278 230/230/230
f 280/280/280 279/279/279 231/231/231
f 281/281/281 280/280/280 232/232/232
f 282/282/282 281/281/281 233/233/233
f 283/283/283 282/282/282 234/234/234
f 284/284/284 283/283/283 235/235/235
f 285/285/285 284/284/284 236/236/236
f 286/286/286 285/285/285 237/237/237
f 287/287/287 286/286/286 238/238/238
f 288/288/288 287/287/287 239/239/239
f 289/289/289 288/288/288 240/240/240
f 290/290/290 289/289/289 241/241/241
f 291/291/291 290/290/290 242/242/242
f 292/292/292 291/291/291 243/243/243
o wrist_nose
usemtl kuka_orange
v 0.18000000298023222 1.6653346031121838e-17 0.0949999988079071
v 0.18000000298023222 -0.06717514246702191 0.06717514246702194
v 0.18000000298023225 -0.09499999880790706 5.817072384343425e-18
v 0.18000000298023222 -0.06717514246702191 -0.06717514246702194
v 0.18000000298023222 5.019201262434992e-18 -0.0949999988079071
v 0.18000000298023222 0.06717514246702194 -0.06717514246702194
v 0.1800000029802322 0.09499999880790709 -1.7451216325849662e-17
v 0.18000000298023222 0.06717514246702194 0.06717514246702194
v 0.18000000298023222 3.992163556849553e-17 0.0949999988079071
v 0.02999999701976777 -1.6653346031121838e-17 0.09000000357627869
v 0.029999997019767785 -0.06363961100578308 0.06363961100578308
v 0.029999997019767785 -0.09000000357627869 5.51091050576101e-18
v 0.029999997019767785 -0.06363961100578308 -0.06363961100578308
v 0.02999999701976777 -2.7675167042643856e-17 -0.09000000357627869
v 0.029999997019767757 0.06363961100578305 -0.06363961100578308
v 0.029999997019767757 0.09000000357627866 -1.653273151728303e-17
v 0.029999997019767757 0.06363961100578305 0.06363961100578308
v 0.02999999701976777 5.390295991922197e-18 0.09000000357627869
v 0.18000000298023222 1.6653346031121838e-17 0
v 0.18000000298023222 1.6653346031121838e-17 0
v 0.18000000298023222 1.6653346031121838e-17 0
v 0.18000000298023222 1.6653346031121838e-17 0
v 0.18000000298023222 1.6653346031121838e-17 0
v 0.18000000298023222 1.6653346031121838e-17 0
v 0.18000000298023222 1.6653346031121838e-17 0
v 0.18000000298023222 1.6653346031121838e-17 0
v 0.18000000298023222 1.6653346031121838e-17 0.0949999988079071
v 0.18000000298023222 -0.06717514246702191 0.06717514246702194
v 0.18000000298023225 -0.09499999880790706 5.817072384343425e-18
v 0.18000000298023222 -0.06717514246702191 -0.06717514246702194
v 0.18000000298023222 5.019201262434992e-18 -0.0949999988079071
v 0.18000000298023222 0.06717514246702194 -0.06717514246702194
v 0.1800000029802322 0.09499999880790709 -1.7451216325849662e-17
v 0.18000000298023222 0.06717514246702194 0.06717514246702194
v 0.18000000298023222 3.992163556849553e-17 0.0949999988079071
v 0.02999999701976777 -1.6653346031121838e-17 0
v 0.02999999701976777 -1.6653346031121838e-17 0
v 0.02999999701976777 -1.6653346031121838e-17 0
v 0.02999999701976777 -1.6653346031121838e-17 0
v 0.02999999701976777 -1.6653346031121838e-17 0
v 0.02999999701976777 -1.6653346031121838e-17 0
v 0.02999999701976777 -1.6653346031121838e-17 0
v 0.02999999701976777 -1.6653346031121838e-17 0
v 0.02999999701976777 -1.6653346031121838e-17 0.09000000357627869
v 0.029999997019767785 -0.06363961100578308 0.06363961100578308
v 0.029999997019767785 -0.09000000357627869 5.51091050576101e-18
v 0.029999997019767785 -0.06363961100578308 -0.06363961100578308
v 0.02999999701976777 -2.7675167042643856e-17 -0.09000000357627869
v 0.029999997019767757 0.06363961100578305 -0.06363961100578308
v 0.029999997019767757 0.09000000357627866 -1.653273151728303e-17
v 0.029999997019767757 0.06363961100578305 0.06363961100578308
v 0.02999999701976777 5.390295991922197e-18 0.09000000357627869
vt 0 1
vt 0.125 1
vt 0.25 1
vt 0.375 1
vt 0.5 1
vt 0.625 1
vt 0.75 1
vt 0.875 1
vt 1 1
vt 0 0
vt 0.125 0
vt 0.25 0
vt 0.375 0
vt 0.5 0
vt 0.625 0
vt 0.75 0
vt 0.875 0
vt 1 0
vt 0.5 0.5
vt 0.5 0.5
vt 0.5 0.5
vt 0.5 0.5
vt 0.5 0.5
vt 0.5 0.5
vt 0.5 0.5
vt 0.5 0.5
vt 1 0.5
vt 0.8535534143447876 0.8535534143447876
vt 0.5 1
vt 0.1464466154575348 0.8535534143447876
vt 0 0.5
vt 0.1464466154575348 0.1464466154575348
vt 0.5 0
vt 0.8535534143447876 0.1464466154575348
vt 1 0.5
vt 0.5 0.5
vt 0.5 0.5
vt 0.5 0.5
vt 0.5 0.5
vt 0.5 0.5
vt 0.5 0.5
vt 0.5 0.5
vt 0.5 0.5
vt 1 0.5
vt 0.8535534143447876 0.1464466154575348
vt 0.5 0
vt 0.1464466154575348 0.1464466154575348
vt 0 0.5
vt 0.1464466154575348 0.8535534143447876
vt 0.5 1
vt 0.8535534143447876 0.8535534143447876
vt 1 0.5
vn -0.033314831721100766 -7.397378647655722e-18 0.9994449069295389
vn -0.03331483148976984 -0.7067142711176875 0.7067142711176874
vn -0.03331483172110054 -0.9994449069295389 6.119834912012968e-17
vn -0.03331483148976984 -0.7067142711176875 -0.7067142711176874
vn -0.033314831721100766 -1.2979407688791512e-16 -0.9994449069295389
vn -0.03331483148977016 0.7067142711176875 -0.7067142711176874
vn -0.03331483172110098 0.9994449069295389 -1.8359505397783397e-16
vn -0.03331483148977016 0.7067142711176875 0.7067142711176874
vn -0.033314831721100766 2.373960178328631e-16 0.9994449069295389
vn -0.033314831721100766 -7.397378647655722e-18 0.9994449069295389
vn -0.03331483148976984 -0.7067142711176875 0.7067142711176874
vn -0.03331483172110054 -0.9994449069295389 6.119834912012968e-17
vn -0.03331483148976984 -0.7067142711176875 -0.7067142711176874
vn -0.033314831721100766 -1.2979407688791512e-16 -0.9994449069295389
vn -0.03331483148977016 0.7067142711176875 -0.7067142711176874
vn -0.03331483172110098 0.9994449069295389 -1.8359505397783397e-16
vn -0.03331483148977016 0.7067142711176875 0.7067142711176874
vn -0.033314831721100766 2.373960178328631e-16 0.9994449069295389
vn 1 2.2204460492503136e-16 0
vn 1 2.2204460492503136e-16 0
vn 1 2.2204460492503136e-16 0
vn 1 2.2204460492503136e-16 0
vn 1 2.2204460492503136e-16 0
vn 1 2.2204460492503136e-16 0
vn 1 2.2204460492503136e-16 0
vn 1 2.2204460492503136e-16 0
vn 1 2.2204460492503136e-16 0
vn 1 2.2204460492503136e-16 0
vn 1 2.2204460492503136e-16 0
vn 1 2.2204460492503136e-16 0
vn 1 2.2204460492503136e-16 0
vn 1 2.2204460492503136e-16 0
vn 1 2.2204460492503136e-16 0
vn 1 2.2204460492503136e-16 0
vn 1 2.2204460492503136e-16 0
vn -1 -2.2204460492503136e-16 0
vn -1 -2.2204460492503136e-16 0
vn -1 -2.2204460492503136e-16 0
vn -1 -2.2204460492503136e-16 0
vn -1 -2.2204460492503136e-16 0
vn -1 -2.2204460492503136e-16 0
vn -1 -2.2204460492503136e-16 0
vn -1 -2.2204460492503136e-16 0
vn -1 -2.2204460492503136e-16 0
vn -1 -2.2204460492503136e-16 0
vn -1 -2.2204460492503136e-16 0
vn -1 -2.2204460492503136e-16 0
vn -1 -2.2204460492503136e-16 0
vn -1 -2.2204460492503136e-16 0
vn -1 -2.2204460492503136e-16 0
vn -1 -2.2204460492503136e-16 0
vn -1 -2.2204460492503136e-16 0
f 293/293/293 302/302/302 294/294/294
f 302/302/302 303/303/303 294/294/294
f 294/294/294 303/303/303 295/295/295
f 303/303/303 304/304/304 295/295/295
f 295/295/295 304/304/304 296/296/296
f 304/304/304 305/305/305 296/296/296
f 296/296/296 305/305/305 297/297/297
f 305/305/305 306/306/306 297/297/297
f 297/297/297 306/306/306 298/298/298
f 306/306/306 307/307/307 298/298/298
f 298/298/298 307/307/307 299/299/299
f 307/307/307 308/308/308 299/299/299
f 299/299/299 308/308/308 300/300/300
f 308/308/308 309/309/309 300/300/300
f 300/300/300 309/309/309 301/301/301
f 309/309/309 310/310/310 301/301/301
f 319/319/319 320/320/320 311/311/311
f 320/320/320 321/321/321 312/312/312
f 321/321/321 322/322/322 313/313/313
f 322/322/322 323/323/323 314/314/314
f 323/323/323 324/324/324 315/315/315
f 324/324/324 325/325/325 316/316/316
f 325/325/325 326/326/326 317/317/317
f 326/326/326 327/327/327 318/318/318
f 337/337/337 336/336/336 328/328/328
f 338/338/338 337/337/337 329/329/329
f 339/339/339 338/338/338 330/330/330
f 340/340/340 339/339/339 331/331/331
f 341/341/341 340/340/340 332/332/332
f 342/342/342 341/341/341 333/333/333
f 343/343/343 342/342/342 334/334/334
f 344/344/344 343/343/343 335/335/335
o a6_seal
usemtl joint_seal
v 0.18749999983236193 -0.10199999809265137 4.592425593796803e-19
v 0.18749999983236193 -0.10112737864255905 -0.013313671573996544
v 0.18749999983236193 -0.09852443635463715 -0.02639954350888729
v 0.18749999983236193 -0.09423571079969406 -0.039033710956573486
v 0.18749999983236193 -0.0883345901966095 -0.050999999046325684
v 0.18749999983236193 -0.08092203736305237 -0.06209366396069527
v 0.18749999983236193 -0.0721248909831047 -0.0721248909831047
v 0.18749999983236193 -0.06209366396069527 -0.08092203736305237
v 0.18749999983236193 -0.050999999046325684 -0.0883345901966095
v 0.18749999983236193 -0.039033710956573486 -0.09423571079969406
v 0.18749999983236193 -0.02639954350888729 -0.09852443635463715
v 0.18749999983236193 -0.013313671573996544 -0.10112737864255905
v 0.18749999983236193 -5.786456361921306e-18 -0.10199999809265137
v 0.18749999983236193 0.013313671573996544 -0.10112737864255905
v 0.18749999983236193 0.02639954350888729 -0.09852443635463715
v 0.18749999983236193 0.039033710956573486 -0.09423571079969406
v 0.18749999983236193 0.050999999046325684 -0.0883345901966095
v 0.18749999983236193 0.06209366396069527 -0.08092203736305237
v 0.18749999983236193 0.0721248909831047 -0.0721248909831047
v 0.18749999983236193 0.08092203736305237 -0.06209366396069527
v 0.18749999983236193 0.0883345901966095 -0.050999999046325684
v 0.18749999983236193 0.09423571079969406 -0.039033710956573486
v 0.18749999983236193 0.09852443635463715 -0.02639954350888729
v 0.18749999983236193 0.10112737864255905 -0.013313671573996544
v 0.18749999983236193 0.10199999809265137 -1.2032155128125927e-17
v 0.18749999983236193 0.10112737864255905 0.013313671573996544
v 0.18749999983236193 0.09852443635463715 0.02639954350888729
v 0.18749999983236193 0.09423571079969406 0.039033710956573486
v 0.18749999983236193 0.0883345901966095 0.050999999046325684
v 0.18749999983236193 0.08092203736305237 0.06209366396069527
v 0.18749999983236193 0.0721248909831047 0.0721248909831047
v 0.18749999983236193 0.06209366396069527 0.08092203736305237
v 0.18749999983236193 0.050999999046325684 0.0883345901966095
v 0.18749999983236193 0.039033710956573486 0.09423571079969406
v 0.18749999983236193 0.02639954350888729 0.09852443635463715
v 0.18749999983236193 0.013313671573996544 0.10112737864255905
v 0.18749999983236193 1.9196339116487486e-17 0.10199999809265137
v 0.18749999983236193 -0.013313671573996544 0.10112737864255905
v 0.18749999983236193 -0.02639954350888729 0.09852443635463715
v 0.18749999983236193 -0.039033710956573486 0.09423571079969406
v 0.18749999983236193 -0.050999999046325684 0.0883345901966095
v 0.18749999983236193 -0.06209366396069527 0.08092203736305237
v 0.18749999983236193 -0.0721248909831047 0.0721248909831047
v 0.18749999983236193 -0.08092203736305237 0.06209366396069527
v 0.18749999983236193 -0.0883345901966095 0.050999999046325684
v 0.18749999983236193 -0.09423571079969406 0.039033710956573486
v 0.18749999983236193 -0.09852443635463715 0.02639954350888729
v 0.18749999983236193 -0.10112737864255905 0.013313671573996544
v 0.18749999983236193 -0.10199999809265137 2.54420374691018e-17
v 0.17250000016763806 -0.10199999809265137 -4.592425593796803e-19
v 0.17250000016763806 -0.10112737864255905 -0.013313671573996544
v 0.17250000016763806 -0.09852443635463715 -0.02639954350888729
v 0.17250000016763806 -0.09423571079969406 -0.039033710956573486
v 0.17250000016763806 -0.0883345901966095 -0.050999999046325684
v 0.17250000016763806 -0.08092203736305237 -0.06209366396069527
v 0.17250000016763806 -0.0721248909831047 -0.0721248909831047
v 0.17250000016763806 -0.06209366396069527 -0.08092203736305237
v 0.17250000016763806 -0.050999999046325684 -0.0883345901966095
v 0.17250000016763806 -0.039033710956573486 -0.09423571079969406
v 0.17250000016763806 -0.02639954350888729 -0.09852443635463715
v 0.17250000016763806 -0.013313671573996544 -0.10112737864255905
v 0.17250000016763806 -6.704941170487937e-18 -0.10199999809265137
v 0.17250000016763806 0.013313671573996544 -0.10112737864255905
v 0.17250000016763806 0.02639954350888729 -0.09852443635463715
v 0.17250000016763806 0.039033710956573486 -0.09423571079969406
v 0.17250000016763806 0.050999999046325684 -0.0883345901966095
v 0.17250000016763806 0.06209366396069527 -0.08092203736305237
v 0.17250000016763806 0.0721248909831047 -0.0721248909831047
v 0.17250000016763806 0.08092203736305237 -0.06209366396069527
v 0.17250000016763806 0.0883345901966095 -0.050999999046325684
v 0.17250000016763806 0.09423571079969406 -0.039033710956573486
v 0.17250000016763806 0.09852443635463715 -0.02639954350888729
v 0.17250000016763806 0.10112737864255905 -0.013313671573996544
v 0.17250000016763806 0.10199999809265137 -1.2950639936692558e-17
v 0.17250000016763806 0.10112737864255905 0.013313671573996544
v 0.17250000016763806 0.09852443635463715 0.02639954350888729
v 0.17250000016763806 0.09423571079969406 0.039033710956573486
v 0.17250000016763806 0.0883345901966095 0.050999999046325684
v 0.17250000016763806 0.08092203736305237 0.06209366396069527
v 0.17250000016763806 0.0721248909831047 0.0721248909831047
v 0.17250000016763806 0.06209366396069527 0.08092203736305237
v 0.17250000016763806 0.050999999046325684 0.0883345901966095
v 0.17250000016763806 0.039033710956573486 0.09423571079969406
v 0.17250000016763806 0.02639954350888729 0.09852443635463715
v 0.17250000016763806 0.013313671573996544 0.10112737864255905
v 0.17250000016763806 1.8277854307920855e-17 0.10199999809265137
v 0.17250000016763806 -0.013313671573996544 0.10112737864255905
v 0.17250000016763806 -0.02639954350888729 0.09852443635463715
v 0.17250000016763806 -0.039033710956573486 0.09423571079969406
v 0.17250000016763806 -0.050999999046325684 0.0883345901966095
v 0.17250000016763806 -0.06209366396069527 0.08092203736305237
v 0.17250000016763806 -0.0721248909831047 0.0721248909831047
v 0.17250000016763806 -0.08092203736305237 0.06209366396069527
v 0.17250000016763806 -0.0883345901966095 0.050999999046325684
v 0.17250000016763806 -0.09423571079969406 0.039033710956573486
v 0.17250000016763806 -0.09852443635463715 0.02639954350888729
v 0.17250000016763806 -0.10112737864255905 0.013313671573996544
v 0.17250000016763806 -0.10199999809265137 2.452355266053517e-17
v 0.18749999983236193 4.592425593796803e-19 4.592425593796803e-19
v 0.18749999983236193 4.592425593796803e-19 4.592425593796803e-19
v 0.18749999983236193 4.592425593796803e-19 4.592425593796803e-19
v 0.18749999983236193 4.592425593796803e-19 4.592425593796803e-19
v 0.18749999983236193 4.592425593796803e-19 4.592425593796803e-19
v 0.18749999983236193 4.592425593796803e-19 4.592425593796803e-19
v 0.18749999983236193 4.592425593796803e-19 4.592425593796803e-19
v 0.18749999983236193 4.592425593796803e-19 4.592425593796803e-19
v 0.18749999983236193 4.592425593796803e-19 4.592425593796803e-19
v 0.18749999983236193 4.592425593796803e-19 4.592425593796803e-19
v 0.18749999983236193 4.592425593796803e-19 4.592425593796803e-19
v 0.18749999983236193 4.592425593796803e-19 4.592425593796803e-19
v 0.18749999983236193 4.592425593796803e-19 4.592425593796803e-19
v 0.18749999983236193 4.592425593796803e-19 4.592425593796803e-19
v 0.18749999983236193 4.592425593796803e-19 4.592425593796803e-19
v 0.18749999983236193 4.592425593796803e-19 4.592425593796803e-19
v 0.18749999983236193 4.592425593796803e-19 4.592425593796803e-19
v 0.18749999983236193 4.592425593796803e-19 4.592425593796803e-19
v 0.18749999983236193 4.592425593796803e-19 4.592425593796803e-19
v 0.18749999983236193 4.592425593796803e-19 4.592425593796803e-19
v 0.18749999983236193 4.592425593796803e-19 4.592425593796803e-19
v 0.18749999983236193 4.592425593796803e-19 4.592425593796803e-19
v 0.18749999983236193 4.592425593796803e-19 4.592425593796803e-19
v 0.18749999983236193 4.592425593796803e-19 4.592425593796803e-19
v 0.18749999983236193 4.592425593796803e-19 4.592425593796803e-19
v 0.18749999983236193 4.592425593796803e-19 4.592425593796803e-19
v 0.18749999983236193 4.592425593796803e-19 4.592425593796803e-19
v 0.18749999983236193 4.592425593796803e-19 4.592425593796803e-19
v 0.18749999983236193 4.592425593796803e-19 4.592425593796803e-19
v 0.18749999983236193 4.592425593796803e-19 4.592425593796803e-19
v 0.18749999983236193 4.592425593796803e-19 4.592425593796803e-19
v 0.18749999983236193 4.592425593796803e-19 4.592425593796803e-19
v 0.18749999983236193 4.592425593796803e-19 4.592425593796803e-19
v 0.18749999983236193 4.592425593796803e-19 4.592425593796803e-19
v 0.18749999983236193 4.592425593796803e-19 4.592425593796803e-19
v 0.18749999983236193 4.592425593796803e-19 4.592425593796803e-19
v 0.18749999983236193 4.592425593796803e-19 4.592425593796803e-19
v 0.18749999983236193 4.592425593796803e-19 4.592425593796803e-19
v 0.18749999983236193 4.592425593796803e-19 4.592425593796803e-19
v 0.18749999983236193 4.592425593796803e-19 4.592425593796803e-19
v 0.18749999983236193 4.592425593796803e-19 4.592425593796803e-19
v 0.18749999983236193 4.592425593796803e-19 4.592425593796803e-19
v 0.18749999983236193 4.592425593796803e-19 4.592425593796803e-19
v 0.18749999983236193 4.592425593796803e-19 4.592425593796803e-19
v 0.18749999983236193 4.592425593796803e-19 4.592425593796803e-19
v 0.18749999983236193 4.592425593796803e-19 4.592425593796803e-19
v 0.18749999983236193 4.592425593796803e-19 4.592425593796803e-19
v 0.18749999983236193 4.592425593796803e-19 4.592425593796803e-19
v 0.18749999983236193 -0.10199999809265137 4.592425593796803e-19
v 0.18749999983236193 -0.10112737864255905 -0.013313671573996544
v 0.18749999983236193 -0.09852443635463715 -0.02639954350888729
v 0.18749999983236193 -0.09423571079969406 -0.039033710956573486
v 0.18749999983236193 -0.0883345901966095 -0.050999999046325684
v 0.18749999983236193 -0.08092203736305237 -0.06209366396069527
v 0.18749999983236193 -0.0721248909831047 -0.0721248909831047
v 0.18749999983236193 -0.06209366396069527 -0.08092203736305237
v 0.18749999983236193 -0.050999999046325684 -0.0883345901966095
v 0.18749999983236193 -0.039033710956573486 -0.09423571079969406
v 0.18749999983236193 -0.02639954350888729 -0.09852443635463715
v 0.18749999983236193 -0.013313671573996544 -0.10112737864255905
v 0.18749999983236193 -5.786456361921306e-18 -0.10199999809265137
v 0.18749999983236193 0.013313671573996544 -0.10112737864255905
v 0.18749999983236193 0.02639954350888729 -0.09852443635463715
v 0.18749999983236193 0.039033710956573486 -0.09423571079969406
v 0.18749999983236193 0.050999999046325684 -0.0883345901966095
v 0.18749999983236193 0.06209366396069527 -0.08092203736305237
v 0.18749999983236193 0.0721248909831047 -0.0721248909831047
v 0.18749999983236193 0.08092203736305237 -0.06209366396069527
v 0.18749999983236193 0.0883345901966095 -0.050999999046325684
v 0.18749999983236193 0.09423571079969406 -0.039033710956573486
v 0.18749999983236193 0.09852443635463715 -0.02639954350888729
v 0.18749999983236193 0.10112737864255905 -0.013313671573996544
v 0.18749999983236193 0.10199999809265137 -1.2032155128125927e-17
v 0.18749999983236193 0.10112737864255905 0.013313671573996544
v 0.18749999983236193 0.09852443635463715 0.02639954350888729
v 0.18749999983236193 0.09423571079969406 0.039033710956573486
v 0.18749999983236193 0.0883345901966095 0.050999999046325684
v 0.18749999983236193 0.08092203736305237 0.06209366396069527
v 0.18749999983236193 0.0721248909831047 0.0721248909831047
v 0.18749999983236193 0.06209366396069527 0.08092203736305237
v 0.18749999983236193 0.050999999046325684 0.0883345901966095
v 0.18749999983236193 0.039033710956573486 0.09423571079969406
v 0.18749999983236193 0.02639954350888729 0.09852443635463715
v 0.18749999983236193 0.013313671573996544 0.10112737864255905
v 0.18749999983236193 1.9196339116487486e-17 0.10199999809265137
v 0.18749999983236193 -0.013313671573996544 0.10112737864255905
v 0.18749999983236193 -0.02639954350888729 0.09852443635463715
v 0.18749999983236193 -0.039033710956573486 0.09423571079969406
v 0.18749999983236193 -0.050999999046325684 0.0883345901966095
v 0.18749999983236193 -0.06209366396069527 0.08092203736305237
v 0.18749999983236193 -0.0721248909831047 0.0721248909831047
v 0.18749999983236193 -0.08092203736305237 0.06209366396069527
v 0.18749999983236193 -0.0883345901966095 0.050999999046325684
v 0.18749999983236193 -0.09423571079969406 0.039033710956573486
v 0.18749999983236193 -0.09852443635463715 0.02639954350888729
v 0.18749999983236193 -0.10112737864255905 0.013313671573996544
v 0.18749999983236193 -0.10199999809265137 2.54420374691018e-17
v 0.17250000016763806 -4.592425593796803e-19 -4.592425593796803e-19
v 0.17250000016763806 -4.592425593796803e-19 -4.592425593796803e-19
v 0.17250000016763806 -4.592425593796803e-19 -4.592425593796803e-19
v 0.17250000016763806 -4.592425593796803e-19 -4.592425593796803e-19
v 0.17250000016763806 -4.592425593796803e-19 -4.592425593796803e-19
v 0.17250000016763806 -4.592425593796803e-19 -4.592425593796803e-19
v 0.17250000016763806 -4.592425593796803e-19 -4.592425593796803e-19
v 0.17250000016763806 -4.592425593796803e-19 -4.592425593796803e-19
v 0.17250000016763806 -4.592425593796803e-19 -4.592425593796803e-19
v 0.17250000016763806 -4.592425593796803e-19 -4.592425593796803e-19
v 0.17250000016763806 -4.592425593796803e-19 -4.592425593796803e-19
v 0.17250000016763806 -4.592425593796803e-19 -4.592425593796803e-19
v 0.17250000016763806 -4.592425593796803e-19 -4.592425593796803e-19
v 0.17250000016763806 -4.592425593796803e-19 -4.592425593796803e-19
v 0.17250000016763806 -4.592425593796803e-19 -4.592425593796803e-19
v 0.17250000016763806 -4.592425593796803e-19 -4.592425593796803e-19
v 0.17250000016763806 -4.592425593796803e-19 -4.592425593796803e-19
v 0.17250000016763806 -4.592425593796803e-19 -4.592425593796803e-19
v 0.17250000016763806 -4.592425593796803e-19 -4.592425593796803e-19
v 0.17250000016763806 -4.592425593796803e-19 -4.592425593796803e-19
v 0.17250000016763806 -4.592425593796803e-19 -4.592425593796803e-19
v 0.17250000016763806 -4.592425593796803e-19 -4.592425593796803e-19
v 0.17250000016763806 -4.592425593796803e-19 -4.592425593796803e-19
v 0.17250000016763806 -4.592425593796803e-19 -4.592425593796803e-19
v 0.17250000016763806 -4.592425593796803e-19 -4.592425593796803e-19
v 0.17250000016763806 -4.592425593796803e-19 -4.592425593796803e-19
v 0.17250000016763806 -4.592425593796803e-19 -4.592425593796803e-19
v 0.17250000016763806 -4.592425593796803e-19 -4.592425593796803e-19
v 0.17250000016763806 -4.592425593796803e-19 -4.592425593796803e-19
v 0.17250000016763806 -4.592425593796803e-19 -4.592425593796803e-19
v 0.17250000016763806 -4.592425593796803e-19 -4.592425593796803e-19
v 0.17250000016763806 -4.592425593796803e-19 -4.592425593796803e-19
v 0.17250000016763806 -4.592425593796803e-19 -4.592425593796803e-19
v 0.17250000016763806 -4.592425593796803e-19 -4.592425593796803e-19
v 0.17250000016763806 -4.592425593796803e-19 -4.592425593796803e-19
v 0.17250000016763806 -4.592425593796803e-19 -4.592425593796803e-19
v 0.17250000016763806 -4.592425593796803e-19 -4.592425593796803e-19
v 0.17250000016763806 -4.592425593796803e-19 -4.592425593796803e-19
v 0.17250000016763806 -4.592425593796803e-19 -4.592425593796803e-19
v 0.17250000016763806 -4.592425593796803e-19 -4.592425593796803e-19
v 0.17250000016763806 -4.592425593796803e-19 -4.592425593796803e-19
v 0.17250000016763806 -4.592425593796803e-19 -4.592425593796803e-19
v 0.17250000016763806 -4.592425593796803e-19 -4.592425593796803e-19
v 0.17250000016763806 -4.592425593796803e-19 -4.592425593796803e-19
v 0.17250000016763806 -4.592425593796803e-19 -4.592425593796803e-19
v 0.17250000016763806 -4.592425593796803e-19 -4.592425593796803e-19
v 0.17250000016763806 -4.592425593796803e-19 -4.592425593796803e-19
v 0.17250000016763806 -4.592425593796803e-19 -4.592425593796803e-19
v 0.17250000016763806 -0.10199999809265137 -4.592425593796803e-19
v 0.17250000016763806 -0.10112737864255905 -0.013313671573996544
v 0.17250000016763806 -0.09852443635463715 -0.02639954350888729
v 0.17250000016763806 -0.09423571079969406 -0.039033710956573486
v 0.17250000016763806 -0.0883345901966095 -0.050999999046325684
v 0.17250000016763806 -0.08092203736305237 -0.06209366396069527
v 0.17250000016763806 -0.0721248909831047 -0.0721248909831047
v 0.17250000016763806 -0.06209366396069527 -0.08092203736305237
v 0.17250000016763806 -0.050999999046325684 -0.0883345901966095
v 0.17250000016763806 -0.039033710956573486 -0.09423571079969406
v 0.17250000016763806 -0.02639954350888729 -0.09852443635463715
v 0.17250000016763806 -0.013313671573996544 -0.10112737864255905
v 0.17250000016763806 -6.704941170487937e-18 -0.10199999809265137
v 0.17250000016763806 0.013313671573996544 -0.10112737864255905
v 0.17250000016763806 0.02639954350888729 -0.09852443635463715
v 0.17250000016763806 0.039033710956573486 -0.09423571079969406
v 0.17250000016763806 0.050999999046325684 -0.0883345901966095
v 0.17250000016763806 0.06209366396069527 -0.08092203736305237
v 0.17250000016763806 0.0721248909831047 -0.0721248909831047
v 0.17250000016763806 0.08092203736305237 -0.06209366396069527
v 0.17250000016763806 0.0883345901966095 -0.050999999046325684
v 0.17250000016763806 0.09423571079969406 -0.039033710956573486
v 0.17250000016763806 0.09852443635463715 -0.02639954350888729
v 0.17250000016763806 0.10112737864255905 -0.013313671573996544
v 0.17250000016763806 0.10199999809265137 -1.2950639936692558e-17
v 0.17250000016763806 0.10112737864255905 0.013313671573996544
v 0.17250000016763806 0.09852443635463715 0.02639954350888729
v 0.17250000016763806 0.09423571079969406 0.039033710956573486
v 0.17250000016763806 0.0883345901966095 0.050999999046325684
v 0.17250000016763806 0.08092203736305237 0.06209366396069527
v 0.17250000016763806 0.0721248909831047 0.0721248909831047
v 0.17250000016763806 0.06209366396069527 0.08092203736305237
v 0.17250000016763806 0.050999999046325684 0.0883345901966095
v 0.17250000016763806 0.039033710956573486 0.09423571079969406
v 0.17250000016763806 0.02639954350888729 0.09852443635463715
v 0.17250000016763806 0.013313671573996544 0.10112737864255905
v 0.17250000016763806 1.8277854307920855e-17 0.10199999809265137
v 0.17250000016763806 -0.013313671573996544 0.10112737864255905
v 0.17250000016763806 -0.02639954350888729 0.09852443635463715
v 0.17250000016763806 -0.039033710956573486 0.09423571079969406
v 0.17250000016763806 -0.050999999046325684 0.0883345901966095
v 0.17250000016763806 -0.06209366396069527 0.08092203736305237
v 0.17250000016763806 -0.0721248909831047 0.0721248909831047
v 0.17250000016763806 -0.08092203736305237 0.06209366396069527
v 0.17250000016763806 -0.0883345901966095 0.050999999046325684
v 0.17250000016763806 -0.09423571079969406 0.039033710956573486
v 0.17250000016763806 -0.09852443635463715 0.02639954350888729
v 0.17250000016763806 -0.10112737864255905 0.013313671573996544
v 0.17250000016763806 -0.10199999809265137 2.452355266053517e-17
vt 0 1
vt 0.02083333395421505 1
vt 0.0416666679084301 1
vt 0.0625 1
vt 0.0833333358168602 1
vt 0.1041666641831398 1
vt 0.125 1
vt 0.1458333283662796 1
vt 0.1666666716337204 1
vt 0.1875 1
vt 0.2083333283662796 1
vt 0.2291666716337204 1
vt 0.25 1
vt 0.2708333432674408 1
vt 0.2916666567325592 1
vt 0.3125 1
vt 0.3333333432674408 1
vt 0.3541666567325592 1
vt 0.375 1
vt 0.3958333432674408 1
vt 0.4166666567325592 1
vt 0.4375 1
vt 0.4583333432674408 1
vt 0.4791666567325592 1
vt 0.5 1
vt 0.5208333134651184 1
vt 0.5416666865348816 1
vt 0.5625 1
vt 0.5833333134651184 1
vt 0.6041666865348816 1
vt 0.625 1
vt 0.6458333134651184 1
vt 0.6666666865348816 1
vt 0.6875 1
vt 0.7083333134651184 1
vt 0.7291666865348816 1
vt 0.75 1
vt 0.7708333134651184 1
vt 0.7916666865348816 1
vt 0.8125 1
vt 0.8333333134651184 1
vt 0.8541666865348816 1
vt 0.875 1
vt 0.8958333134651184 1
vt 0.9166666865348816 1
vt 0.9375 1
vt 0.9583333134651184 1
vt 0.9791666865348816 1
vt 1 1
vt 0 0
vt 0.02083333395421505 0
vt 0.0416666679084301 0
vt 0.0625 0
vt 0.0833333358168602 0
vt 0.1041666641831398 0
vt 0.125 0
vt 0.1458333283662796 0
vt 0.1666666716337204 0
vt 0.1875 0
vt 0.2083333283662796 0
vt 0.2291666716337204 0
vt 0.25 0
vt 0.2708333432674408 0
vt 0.2916666567325592 0
vt 0.3125 0
vt 0.3333333432674408 0
vt 0.3541666567325592 0
vt 0.375 0
vt 0.3958333432674408 0
vt 0.4166666567325592 0
vt 0.4375 0
vt 0.4583333432674408 0
vt 0.4791666567325592 0
vt 0.5 0
vt 0.5208333134651184 0
vt 0.5416666865348816 0
vt 0.5625 0
vt 0.5833333134651184 0
vt 0.6041666865348816 0
vt 0.625 0
vt 0.6458333134651184 0
vt 0.6666666865348816 0
vt 0.6875 0
vt 0.7083333134651184 0
vt 0.7291666865348816 0
vt 0.75 0
vt 0.7708333134651184 0
vt 0.7916666865348816 0
vt 0.8125 0
vt 0.8333333134651184 0
vt 0.8541666865348816 0
vt 0.875 0
vt 0.8958333134651184 0
vt 0.9166666865348816 0
vt 0.9375 0
vt 0.9583333134651184 0
vt 0.9791666865348816 0
vt 1 0
vt 0.5 0.5
vt 0.5 0.5
vt 0.5 0.5
vt 0.5 0.5
vt 0.5 0.5
vt 0.5 0.5
vt 0.5 0.5
vt 0.5 0.5
vt 0.5 0.5
vt 0.5 0.5
vt 0.5 0.5
vt 0.5 0.5
vt 0.5 0.5
vt 0.5 0.5
vt 0.5 0.5
vt 0.5 0.5
vt 0.5 0.5
vt 0.5 0.5
vt 0.5 0.5
vt 0.5 0.5
vt 0.5 0.5
vt 0.5 0.5
vt 0.5 0.5
vt 0.5 0.5
vt 0.5 0.5
vt 0.5 0.5
vt 0.5 0.5
vt 0.5 0.5
vt 0.5 0.5
vt 0.5 0.5
vt 0.5 0.5
vt 0.5 0.5
vt 0.5 0.5
vt 0.5 0.5
vt 0.5 0.5
vt 0.5 0.5
vt 0.5 0.5
vt 0.5 0.5
vt 0.5 0.5
vt 0.5 0.5
vt 0.5 0.5
vt 0.5 0.5
vt 0.5 0.5
vt 0.5 0.5
vt 0.5 0.5
vt 0.5 0.5
vt 0.5 0.5
vt 0.5 0.5
vt 1 0.5
vt 0.9957224130630493 0.5652630925178528
vt 0.9829629063606262 0.6294095516204834
vt 0.9619397521018982 0.6913416981697083
vt 0.9330127239227295 0.75
vt 0.8966766595840454 0.8043807148933411
vt 0.8535534143447876 0.8535534143447876
vt 0.8043807148933411 0.8966766595840454
vt 0.75 0.9330127239227295
vt 0.6913416981697083 0.9619397521018982
vt 0.6294095516204834 0.9829629063606262
vt 0.5652630925178528 0.9957224130630493
vt 0.5 1
vt 0.4347369074821472 0.9957224130630493
vt 0.370590478181839 0.9829629063606262
vt 0.30865827202796936 0.9619397521018982
vt 0.25 0.9330127239227295
vt 0.19561928510665894 0.8966766595840454
vt 0.1464466154575348 0.8535534143447876
vt 0.10332333296537399 0.8043807148933411
vt 0.0669872984290123 0.75
vt 0.03806023299694061 0.6913416981697083
vt 0.017037086188793182 0.6294095516204834
vt 0.004277569241821766 0.5652630925178528
vt 0 0.5
vt 0.004277569241821766 0.4347369074821472
vt 0.017037086188793182 0.370590478181839
vt 0.03806023299694061 0.30865827202796936
vt 0.0669872984290123 0.25
vt 0.10332333296537399 0.19561928510665894
vt 0.1464466154575348 0.1464466154575348
vt 0.19561928510665894 0.10332333296537399
vt 0.25 0.0669872984290123
vt 0.30865827202796936 0.03806023299694061
vt 0.370590478181839 0.017037086188793182
vt 0.4347369074821472 0.004277569241821766
vt 0.5 0
vt 0.5652630925178528 0.004277569241821766
vt 0.6294095516204834 0.017037086188793182
vt 0.6913416981697083 0.03806023299694061
vt 0.75 0.0669872984290123
vt 0.8043807148933411 0.10332333296537399
vt 0.8535534143447876 0.1464466154575348
vt 0.8966766595840454 0.19561928510665894
vt 0.9330127239227295 0.25
vt 0.9619397521018982 0.30865827202796936
vt 0.9829629063606262 0.370590478181839
vt 0.9957224130630493 0.4347369074821472
vt 1 0.5
vt 0.5 0.5
vt 0.5 0.5
vt 0.5 0.5
vt 0.5 0.5
vt 0.5 0.5
vt 0.5 0.5
vt 0.5 0.5
vt 0.5 0.5
vt 0.5 0.5
vt 0.5 0.5
vt 0.5 0.5
vt 0.5 0.5
vt 0.5 0.5
vt 0.5 0.5
vt 0.5 0.5
vt 0.5 0.5
vt 0.5 0.5
vt 0.5 0.5
vt 0.5 0.5
vt 0.5 0.5
vt 0.5 0.5
vt 0.5 0.5
vt 0.5 0.5
vt 0.5 0.5
vt 0.5 0.5
vt 0.5 0.5
vt 0.5 0.5
vt 0.5 0.5
vt 0.5 0.5
vt 0.5 0.5
vt 0.5 0.5
vt 0.5 0.5
vt 0.5 0.5
vt 0.5 0.5
vt 0.5 0.5
vt 0.5 0.5
vt 0.5 0.5
vt 0.5 0.5
vt 0.5 0.5
vt 0.5 0.5
vt 0.5 0.5
vt 0.5 0.5
vt 0.5 0.5
vt 0.5 0.5
vt 0.5 0.5
vt 0.5 0.5
vt 0.5 0.5
vt 0.5 0.5
vt 1 0.5
vt 0.9957224130630493 0.4347369074821472
vt 0.9829629063606262 0.370590478181839
vt 0.9619397521018982 0.30865827202796936
vt 0.9330127239227295 0.25
vt 0.8966766595840454 0.19561928510665894
vt 0.8535534143447876 0.1464466154575348
vt 0.8043807148933411 0.10332333296537399
vt 0.75 0.0669872984290123
vt 0.6913416981697083 0.03806023299694061
vt 0.6294095516204834 0.017037086188793182
vt 0.5652630925178528 0.004277569241821766
vt 0.5 0
vt 0.4347369074821472 0.004277569241821766
vt 0.370590478181839 0.017037086188793182
vt 0.30865827202796936 0.03806023299694061
vt 0.25 0.0669872984290123
vt 0.19561928510665894 0.10332333296537399
vt 0.1464466154575348 0.1464466154575348
vt 0.10332333296537399 0.19561928510665894
vt 0.0669872984290123 0.25
vt 0.03806023299694061 0.30865827202796936
vt 0.017037086188793182 0.370590478181839
vt 0.004277569241821766 0.4347369074821472
vt 0 0.5
vt 0.004277569241821766 0.5652630925178528
vt 0.017037086188793182 0.6294095516204834
vt 0.03806023299694061 0.6913416981697083
vt 0.0669872984290123 0.75
vt 0.10332333296537399 0.8043807148933411
vt 0.1464466154575348 0.8535534143447876
vt 0.19561928510665894 0.8966766595840454
vt 0.25 0.9330127239227295
vt 0.30865827202796936 0.9619397521018982
vt 0.370590478181839 0.9829629063606262
vt 0.4347369074821472 0.9957224130630493
vt 0.5 1
vt 0.5652630925178528 0.9957224130630493
vt 0.6294095516204834 0.9829629063606262
vt 0.6913416981697083 0.9619397521018982
vt 0.75 0.9330127239227295
vt 0.8043807148933411 0.8966766595840454
vt 0.8535534143447876 0.8535534143447876
vt 0.8966766595840454 0.8043807148933411
vt 0.9330127239227295 0.75
vt 0.9619397521018982 0.6913416981697083
vt 0.9829629063606262 0.6294095516204834
vt 0.9957224130630493 0.5652630925178528
vt 1 0.5
vn 6.123234262925839e-17 -1 3.74939976039497e-33
vn 6.870090846328159e-17 -0.9914448627185043 -0.13052618200608704
vn 7.499399529036321e-17 -0.9659258257467466 -0.2588190471264927
vn 8.000391189480325e-17 -0.9238795305660377 -0.3826834370613369
vn 8.364493480123967e-17 -0.8660253998985324 -0.5000000067305869
vn 8.585477124087735e-17 -0.7933533320874723 -0.6087614397000725
vn 8.659560751628624e-17 -0.7071067811865476 -0.7071067811865476
vn 8.585477124087735e-17 -0.6087614397000725 -0.7933533320874723
vn 8.364493480123967e-17 -0.5000000067305869 -0.8660253998985324
vn 8.000391189480325e-17 -0.3826834370613369 -0.9238795305660377
vn 7.499399529036321e-17 -0.2588190471264927 -0.9659258257467466
vn 6.870090846328159e-17 -0.13052618200608704 -0.9914448627185043
vn 6.123234262925839e-17 -6.123234262925839e-17 -1
vn 5.271606370446671e-17 0.13052618200608704 -0.9914448627185043
vn 4.329780360100295e-17 0.2588190471264927 -0.9659258257467466
vn 3.3138702551590665e-17 0.3826834370613369 -0.9238795305660377
vn 2.241258969336083e-17 0.5000000067305869 -0.8660253998985324
vn 1.1302992293501833e-17 0.6087614397000725 -0.7933533320874723
vn -9.463684396279185e-25 0.7071067811865476 -0.7071067811865476
vn -1.1302994775043711e-17 0.7933533320874723 -0.6087614397000725
vn -2.2412593002083322e-17 0.8660253998985324 -0.5000000067305869
vn -3.3138705860313214e-17 0.9238795305660377 -0.3826834370613369
vn -4.329780029228046e-17 0.9659258257467466 -0.2588190471264927
vn -5.271606039574434e-17 0.9914448627185043 -0.13052618200608704
vn -6.123234262925839e-17 1 -1.2246468525851679e-16
vn -6.870090846328159e-17 0.9914448627185043 0.13052618200608704
vn -7.499399529036321e-17 0.9659258257467466 0.2588190471264927
vn -8.000391189480325e-17 0.9238795305660377 0.3826834370613369
vn -8.364493480123967e-17 0.8660253998985324 0.5000000067305869
vn -8.585477124087735e-17 0.7933533320874723 0.6087614397000725
vn -8.659560751628624e-17 0.7071067811865476 0.7071067811865476
vn -8.585477124087735e-17 0.6087614397000725 0.7933533320874723
vn -8.364493480123967e-17 0.5000000067305869 0.8660253998985324
vn -8.000391189480325e-17 0.3826834370613369 0.9238795305660377
vn -7.499399529036321e-17 0.2588190471264927 0.9659258257467466
vn -6.870090846328159e-17 0.13052618200608704 0.9914448627185043
vn -6.123234262925839e-17 1.8369701465288538e-16 1
vn -5.271606370446671e-17 -0.13052618200608704 0.9914448627185043
vn -4.329780360100295e-17 -0.2588190471264927 0.9659258257467466
vn -3.3138702551590665e-17 -0.3826834370613369 0.9238795305660377
vn -2.241258969336083e-17 -0.5000000067305869 0.8660253998985324
vn -1.1302992293501833e-17 -0.6087614397000725 0.7933533320874723
vn 9.463684396279185e-25 -0.7071067811865476 0.7071067811865476
vn 1.1302994775043711e-17 -0.7933533320874723 0.6087614397000725
vn 2.2412593002083322e-17 -0.8660253998985324 0.5000000067305869
vn 3.3138705860313214e-17 -0.9238795305660377 0.3826834370613369
vn 4.329780029228046e-17 -0.9659258257467466 0.2588190471264927
vn 5.271606039574434e-17 -0.9914448627185043 0.13052618200608704
vn 6.123234262925839e-17 -1 2.4492937051703357e-16
vn 6.123234262925839e-17 -1 3.74939976039497e-33
vn 6.870090846328159e-17 -0.9914448627185043 -0.13052618200608704
vn 7.499399529036321e-17 -0.9659258257467466 -0.2588190471264927
vn 8.000391189480325e-17 -0.9238795305660377 -0.3826834370613369
vn 8.364493480123967e-17 -0.8660253998985324 -0.5000000067305869
vn 8.585477124087735e-17 -0.7933533320874723 -0.6087614397000725
vn 8.659560751628624e-17 -0.7071067811865476 -0.7071067811865476
vn 8.585477124087735e-17 -0.6087614397000725 -0.7933533320874723
vn 8.364493480123967e-17 -0.5000000067305869 -0.8660253998985324
vn 8.000391189480325e-17 -0.3826834370613369 -0.9238795305660377
vn 7.499399529036321e-17 -0.2588190471264927 -0.9659258257467466
vn 6.870090846328159e-17 -0.13052618200608704 -0.9914448627185043
vn 6.123234262925839e-17 -6.123234262925839e-17 -1
vn 5.271606370446671e-17 0.13052618200608704 -0.9914448627185043
vn 4.329780360100295e-17 0.2588190471264927 -0.9659258257467466
vn 3.3138702551590665e-17 0.3826834370613369 -0.9238795305660377
vn 2.241258969336083e-17 0.5000000067305869 -0.8660253998985324
vn 1.1302992293501833e-17 0.6087614397000725 -0.7933533320874723
vn -9.463684396279185e-25 0.7071067811865476 -0.7071067811865476
vn -1.1302994775043711e-17 0.7933533320874723 -0.6087614397000725
vn -2.2412593002083322e-17 0.8660253998985324 -0.5000000067305869
vn -3.3138705860313214e-17 0.9238795305660377 -0.3826834370613369
vn -4.329780029228046e-17 0.9659258257467466 -0.2588190471264927
vn -5.271606039574434e-17 0.9914448627185043 -0.13052618200608704
vn -6.123234262925839e-17 1 -1.2246468525851679e-16
vn -6.870090846328159e-17 0.9914448627185043 0.13052618200608704
vn -7.499399529036321e-17 0.9659258257467466 0.2588190471264927
vn -8.000391189480325e-17 0.9238795305660377 0.3826834370613369
vn -8.364493480123967e-17 0.8660253998985324 0.5000000067305869
vn -8.585477124087735e-17 0.7933533320874723 0.6087614397000725
vn -8.659560751628624e-17 0.7071067811865476 0.7071067811865476
vn -8.585477124087735e-17 0.6087614397000725 0.7933533320874723
vn -8.364493480123967e-17 0.5000000067305869 0.8660253998985324
vn -8.000391189480325e-17 0.3826834370613369 0.9238795305660377
vn -7.499399529036321e-17 0.2588190471264927 0.9659258257467466
vn -6.870090846328159e-17 0.13052618200608704 0.9914448627185043
vn -6.123234262925839e-17 1.8369701465288538e-16 1
vn -5.271606370446671e-17 -0.13052618200608704 0.9914448627185043
vn -4.329780360100295e-17 -0.2588190471264927 0.9659258257467466
vn -3.3138702551590665e-17 -0.3826834370613369 0.9238795305660377
vn -2.241258969336083e-17 -0.5000000067305869 0.8660253998985324
vn -1.1302992293501833e-17 -0.6087614397000725 0.7933533320874723
vn 9.463684396279185e-25 -0.7071067811865476 0.7071067811865476
vn 1.1302994775043711e-17 -0.7933533320874723 0.6087614397000725
vn 2.2412593002083322e-17 -0.8660253998985324 0.5000000067305869
vn 3.3138705860313214e-17 -0.9238795305660377 0.3826834370613369
vn 4.329780029228046e-17 -0.9659258257467466 0.2588190471264927
vn 5.271606039574434e-17 -0.9914448627185043 0.13052618200608704
vn 6.123234262925839e-17 -1 2.4492937051703357e-16
vn 1 6.123234262925839e-17 6.123234262925839e-17
vn 1 6.123234262925839e-17 6.123234262925839e-17
vn 1 6.123234262925839e-17 6.123234262925839e-17
vn 1 6.123234262925839e-17 6.123234262925839e-17
vn 1 6.123234262925839e-17 6.123234262925839e-17
vn 1 6.123234262925839e-17 6.123234262925839e-17
vn 1 6.123234262925839e-17 6.123234262925839e-17
vn 1 6.123234262925839e-17 6.123234262925839e-17
vn 1 6.123234262925839e-17 6.123234262925839e-17
vn 1 6.123234262925839e-17 6.123234262925839e-17
vn 1 6.123234262925839e-17 6.123234262925839e-17
vn 1 6.123234262925839e-17 6.123234262925839e-17
vn 1 6.123234262925839e-17 6.123234262925839e-17
vn 1 6.123234262925839e-17 6.123234262925839e-17
vn 1 6.123234262925839e-17 6.123234262925839e-17
vn 1 6.123234262925839e-17 6.123234262925839e-17
vn 1 6.123234262925839e-17 6.123234262925839e-17
vn 1 6.123234262925839e-17 6.123234262925839e-17
vn 1 6.123234262925839e-17 6.123234262925839e-17
vn 1 6.123234262925839e-17 6.123234262925839e-17
vn 1 6.123234262925839e-17 6.123234262925839e-17
vn 1 6.123234262925839e-17 6.123234262925839e-17
vn 1 6.123234262925839e-17 6.123234262925839e-17
vn 1 6.123234262925839e-17 6.123234262925839e-17
vn 1 6.123234262925839e-17 6.123234262925839e-17
vn 1 6.123234262925839e-17 6.123234262925839e-17
vn 1 6.123234262925839e-17 6.123234262925839e-17
vn 1 6.123234262925839e-17 6.123234262925839e-17
vn 1 6.123234262925839e-17 6.123234262925839e-17
vn 1 6.123234262925839e-17 6.123234262925839e-17
vn 1 6.123234262925839e-17 6.123234262925839e-17
vn 1 6.123234262925839e-17 6.123234262925839e-17
vn 1 6.123234262925839e-17 6.123234262925839e-17
vn 1 6.123234262925839e-17 6.123234262925839e-17
vn 1 6.123234262925839e-17 6.123234262925839e-17
vn 1 6.123234262925839e-17 6.123234262925839e-17
vn 1 6.123234262925839e-17 6.123234262925839e-17
vn 1 6.123234262925839e-17 6.123234262925839e-17
vn 1 6.123234262925839e-17 6.123234262925839e-17
vn 1 6.123234262925839e-17 6.123234262925839e-17
vn 1 6.123234262925839e-17 6.123234262925839e-17
vn 1 6.123234262925839e-17 6.123234262925839e-17
vn 1 6.123234262925839e-17 6.123234262925839e-17
vn 1 6.123234262925839e-17 6.123234262925839e-17
vn 1 6.123234262925839e-17 6.123234262925839e-17
vn 1 6.123234262925839e-17 6.123234262925839e-17
vn 1 6.123234262925839e-17 6.123234262925839e-17
vn 1 6.123234262925839e-17 6.123234262925839e-17
vn 1 6.123234262925839e-17 6.123234262925839e-17
vn 1 6.123234262925839e-17 6.123234262925839e-17
vn 1 6.123234262925839e-17 6.123234262925839e-17
vn 1 6.123234262925839e-17 6.123234262925839e-17
vn 1 6.123234262925839e-17 6.123234262925839e-17
vn 1 6.123234262925839e-17 6.123234262925839e-17
vn 1 6.123234262925839e-17 6.123234262925839e-17
vn 1 6.123234262925839e-17 6.123234262925839e-17
vn 1 6.123234262925839e-17 6.123234262925839e-17
vn 1 6.123234262925839e-17 6.123234262925839e-17
vn 1 6.123234262925839e-17 6.123234262925839e-17
vn 1 6.123234262925839e-17 6.123234262925839e-17
vn 1 6.123234262925839e-17 6.123234262925839e-17
vn 1 6.123234262925839e-17 6.123234262925839e-17
vn 1 6.123234262925839e-17 6.123234262925839e-17
vn 1 6.123234262925839e-17 6.123234262925839e-17
vn 1 6.123234262925839e-17 6.123234262925839e-17
vn 1 6.123234262925839e-17 6.123234262925839e-17
vn 1 6.123234262925839e-17 6.123234262925839e-17
vn 1 6.123234262925839e-17 6.123234262925839e-17
vn 1 6.123234262925839e-17 6.123234262925839e-17
vn 1 6.123234262925839e-17 6.123234262925839e-17
vn 1 6.123234262925839e-17 6.123234262925839e-17
vn 1 6.123234262925839e-17 6.123234262925839e-17
vn 1 6.123234262925839e-17 6.123234262925839e-17
vn 1 6.123234262925839e-17 6.123234262925839e-17
vn 1 6.123234262925839e-17 6.123234262925839e-17
vn 1 6.123234262925839e-17 6.123234262925839e-17
vn 1 6.123234262925839e-17 6.123234262925839e-17
vn 1 6.123234262925839e-17 6.123234262925839e-17
vn 1 6.123234262925839e-17 6.123234262925839e-17
vn 1 6.123234262925839e-17 6.123234262925839e-17
vn 1 6.123234262925839e-17 6.123234262925839e-17
vn 1 6.123234262925839e-17 6.123234262925839e-17
vn 1 6.123234262925839e-17 6.123234262925839e-17
vn 1 6.123234262925839e-17 6.123234262925839e-17
vn 1 6.123234262925839e-17 6.123234262925839e-17
vn 1 6.123234262925839e-17 6.123234262925839e-17
vn 1 6.123234262925839e-17 6.123234262925839e-17
vn 1 6.123234262925839e-17 6.123234262925839e-17
vn 1 6.123234262925839e-17 6.123234262925839e-17
vn 1 6.123234262925839e-17 6.123234262925839e-17
vn 1 6.123234262925839e-17 6.123234262925839e-17
vn 1 6.123234262925839e-17 6.123234262925839e-17
vn 1 6.123234262925839e-17 6.123234262925839e-17
vn 1 6.123234262925839e-17 6.123234262925839e-17
vn 1 6.123234262925839e-17 6.123234262925839e-17
vn 1 6.123234262925839e-17 6.123234262925839e-17
vn 1 6.123234262925839e-17 6.123234262925839e-17
vn -1 -6.123234262925839e-17 -6.123234262925839e-17
vn -1 -6.123234262925839e-17 -6.123234262925839e-17
vn -1 -6.123234262925839e-17 -6.123234262925839e-17
vn -1 -6.123234262925839e-17 -6.123234262925839e-17
vn -1 -6.123234262925839e-17 -6.123234262925839e-17
vn -1 -6.123234262925839e-17 -6.123234262925839e-17
vn -1 -6.123234262925839e-17 -6.123234262925839e-17
vn -1 -6.123234262925839e-17 -6.123234262925839e-17
vn -1 -6.123234262925839e-17 -6.123234262925839e-17
vn -1 -6.123234262925839e-17 -6.123234262925839e-17
vn -1 -6.123234262925839e-17 -6.123234262925839e-17
vn -1 -6.123234262925839e-17 -6.123234262925839e-17
vn -1 -6.123234262925839e-17 -6.123234262925839e-17
vn -1 -6.123234262925839e-17 -6.123234262925839e-17
vn -1 -6.123234262925839e-17 -6.123234262925839e-17
vn -1 -6.123234262925839e-17 -6.123234262925839e-17
vn -1 -6.123234262925839e-17 -6.123234262925839e-17
vn -1 -6.123234262925839e-17 -6.123234262925839e-17
vn -1 -6.123234262925839e-17 -6.123234262925839e-17
vn -1 -6.123234262925839e-17 -6.123234262925839e-17
vn -1 -6.123234262925839e-17 -6.123234262925839e-17
vn -1 -6.123234262925839e-17 -6.123234262925839e-17
vn -1 -6.123234262925839e-17 -6.123234262925839e-17
vn -1 -6.123234262925839e-17 -6.123234262925839e-17
vn -1 -6.123234262925839e-17 -6.123234262925839e-17
vn -1 -6.123234262925839e-17 -6.123234262925839e-17
vn -1 -6.123234262925839e-17 -6.123234262925839e-17
vn -1 -6.123234262925839e-17 -6.123234262925839e-17
vn -1 -6.123234262925839e-17 -6.123234262925839e-17
vn -1 -6.123234262925839e-17 -6.123234262925839e-17
vn -1 -6.123234262925839e-17 -6.123234262925839e-17
vn -1 -6.123234262925839e-17 -6.123234262925839e-17
vn -1 -6.123234262925839e-17 -6.123234262925839e-17
vn -1 -6.123234262925839e-17 -6.123234262925839e-17
vn -1 -6.123234262925839e-17 -6.123234262925839e-17
vn -1 -6.123234262925839e-17 -6.123234262925839e-17
vn -1 -6.123234262925839e-17 -6.123234262925839e-17
vn -1 -6.123234262925839e-17 -6.123234262925839e-17
vn -1 -6.123234262925839e-17 -6.123234262925839e-17
vn -1 -6.123234262925839e-17 -6.123234262925839e-17
vn -1 -6.123234262925839e-17 -6.123234262925839e-17
vn -1 -6.123234262925839e-17 -6.123234262925839e-17
vn -1 -6.123234262925839e-17 -6.123234262925839e-17
vn -1 -6.123234262925839e-17 -6.123234262925839e-17
vn -1 -6.123234262925839e-17 -6.123234262925839e-17
vn -1 -6.123234262925839e-17 -6.123234262925839e-17
vn -1 -6.123234262925839e-17 -6.123234262925839e-17
vn -1 -6.123234262925839e-17 -6.123234262925839e-17
vn -1 -6.123234262925839e-17 -6.123234262925839e-17
vn -1 -6.123234262925839e-17 -6.123234262925839e-17
vn -1 -6.123234262925839e-17 -6.123234262925839e-17
vn -1 -6.123234262925839e-17 -6.123234262925839e-17
vn -1 -6.123234262925839e-17 -6.123234262925839e-17
vn -1 -6.123234262925839e-17 -6.123234262925839e-17
vn -1 -6.123234262925839e-17 -6.123234262925839e-17
vn -1 -6.123234262925839e-17 -6.123234262925839e-17
vn -1 -6.123234262925839e-17 -6.123234262925839e-17
vn -1 -6.123234262925839e-17 -6.123234262925839e-17
vn -1 -6.123234262925839e-17 -6.123234262925839e-17
vn -1 -6.123234262925839e-17 -6.123234262925839e-17
vn -1 -6.123234262925839e-17 -6.123234262925839e-17
vn -1 -6.123234262925839e-17 -6.123234262925839e-17
vn -1 -6.123234262925839e-17 -6.123234262925839e-17
vn -1 -6.123234262925839e-17 -6.123234262925839e-17
vn -1 -6.123234262925839e-17 -6.123234262925839e-17
vn -1 -6.123234262925839e-17 -6.123234262925839e-17
vn -1 -6.123234262925839e-17 -6.123234262925839e-17
vn -1 -6.123234262925839e-17 -6.123234262925839e-17
vn -1 -6.123234262925839e-17 -6.123234262925839e-17
vn -1 -6.123234262925839e-17 -6.123234262925839e-17
vn -1 -6.123234262925839e-17 -6.123234262925839e-17
vn -1 -6.123234262925839e-17 -6.123234262925839e-17
vn -1 -6.123234262925839e-17 -6.123234262925839e-17
vn -1 -6.123234262925839e-17 -6.123234262925839e-17
vn -1 -6.123234262925839e-17 -6.123234262925839e-17
vn -1 -6.123234262925839e-17 -6.123234262925839e-17
vn -1 -6.123234262925839e-17 -6.123234262925839e-17
vn -1 -6.123234262925839e-17 -6.123234262925839e-17
vn -1 -6.123234262925839e-17 -6.123234262925839e-17
vn -1 -6.123234262925839e-17 -6.123234262925839e-17
vn -1 -6.123234262925839e-17 -6.123234262925839e-17
vn -1 -6.123234262925839e-17 -6.123234262925839e-17
vn -1 -6.123234262925839e-17 -6.123234262925839e-17
vn -1 -6.123234262925839e-17 -6.123234262925839e-17
vn -1 -6.123234262925839e-17 -6.123234262925839e-17
vn -1 -6.123234262925839e-17 -6.123234262925839e-17
vn -1 -6.123234262925839e-17 -6.123234262925839e-17
vn -1 -6.123234262925839e-17 -6.123234262925839e-17
vn -1 -6.123234262925839e-17 -6.123234262925839e-17
vn -1 -6.123234262925839e-17 -6.123234262925839e-17
vn -1 -6.123234262925839e-17 -6.123234262925839e-17
vn -1 -6.123234262925839e-17 -6.123234262925839e-17
vn -1 -6.123234262925839e-17 -6.123234262925839e-17
vn -1 -6.123234262925839e-17 -6.123234262925839e-17
vn -1 -6.123234262925839e-17 -6.123234262925839e-17
vn -1 -6.123234262925839e-17 -6.123234262925839e-17
vn -1 -6.123234262925839e-17 -6.123234262925839e-17
f 345/345/345 394/394/394 346/346/346
f 394/394/394 395/395/395 346/346/346
f 346/346/346 395/395/395 347/347/347
f 395/395/395 396/396/396 347/347/347
f 347/347/347 396/396/396 348/348/348
f 396/396/396 397/397/397 348/348/348
f 348/348/348 397/397/397 349/349/349
f 397/397/397 398/398/398 349/349/349
f 349/349/349 398/398/398 350/350/350
f 398/398/398 399/399/399 350/350/350
f 350/350/350 399/399/399 351/351/351
f 399/399/399 400/400/400 351/351/351
f 351/351/351 400/400/400 352/352/352
f 400/400/400 401/401/401 352/352/352
f 352/352/352 401/401/401 353/353/353
f 401/401/401 402/402/402 353/353/353
f 353/353/353 402/402/402 354/354/354
f 402/402/402 403/403/403 354/354/354
f 354/354/354 403/403/403 355/355/355
f 403/403/403 404/404/404 355/355/355
f 355/355/355 404/404/404 356/356/356
f 404/404/404 405/405/405 356/356/356
f 356/356/356 405/405/405 357/357/357
f 405/405/405 406/406/406 357/357/357
f 357/357/357 406/406/406 358/358/358
f 406/406/406 407/407/407 358/358/358
f 358/358/358 407/407/407 359/359/359
f 407/407/407 408/408/408 359/359/359
f 359/359/359 408/408/408 360/360/360
f 408/408/408 409/409/409 360/360/360
f 360/360/360 409/409/409 361/361/361
f 409/409/409 410/410/410 361/361/361
f 361/361/361 410/410/410 362/362/362
f 410/410/410 411/411/411 362/362/362
f 362/362/362 411/411/411 363/363/363
f 411/411/411 412/412/412 363/363/363
f 363/363/363 412/412/412 364/364/364
f 412/412/412 413/413/413 364/364/364
f 364/364/364 413/413/413 365/365/365
f 413/413/413 414/414/414 365/365/365
f 365/365/365 414/414/414 366/366/366
f 414/414/414 415/415/415 366/366/366
f 366/366/366 415/415/415 367/367/367
f 415/415/415 416/416/416 367/367/367
f 367/367/367 416/416/416 368/368/368
f 416/416/416 417/417/417 368/368/368
f 368/368/368 417/417/417 369/369/369
f 417/417/417 418/418/418 369/369/369
f 369/369/369 418/418/418 370/370/370
f 418/418/418 419/419/419 370/370/370
f 370/370/370 419/419/419 371/371/371
f 419/419/419 420/420/420 371/371/371
f 371/371/371 420/420/420 372/372/372
f 420/420/420 421/421/421 372/372/372
f 372/372/372 421/421/421 373/373/373
f 421/421/421 422/422/422 373/373/373
f 373/373/373 422/422/422 374/374/374
f 422/422/422 423/423/423 374/374/374
f 374/374/374 423/423/423 375/375/375
f 423/423/423 424/424/424 375/375/375
f 375/375/375 424/424/424 376/376/376
f 424/424/424 425/425/425 376/376/376
f 376/376/376 425/425/425 377/377/377
f 425/425/425 426/426/426 377/377/377
f 377/377/377 426/426/426 378/378/378
f 426/426/426 427/427/427 378/378/378
f 378/378/378 427/427/427 379/379/379
f 427/427/427 428/428/428 379/379/379
f 379/379/379 428/428/428 380/380/380
f 428/428/428 429/429/429 380/380/380
f 380/380/380 429/429/429 381/381/381
f 429/429/429 430/430/430 381/381/381
f 381/381/381 430/430/430 382/382/382
f 430/430/430 431/431/431 382/382/382
f 382/382/382 431/431/431 383/383/383
f 431/431/431 432/432/432 383/383/383
f 383/383/383 432/432/432 384/384/384
f 432/432/432 433/433/433 384/384/384
f 384/384/384 433/433/433 385/385/385
f 433/433/433 434/434/434 385/385/385
f 385/385/385 434/434/434 386/386/386
f 434/434/434 435/435/435 386/386/386
f 386/386/386 435/435/435 387/387/387
f 435/435/435 436/436/436 387/387/387
f 387/387/387 436/436/436 388/388/388
f 436/436/436 437/437/437 388/388/388
f 388/388/388 437/437/437 389/389/389
f 437/437/437 438/438/438 389/389/389
f 389/389/389 438/438/438 390/390/390
f 438/438/438 439/439/439 390/390/390
f 390/390/390 439/439/439 391/391/391
f 439/439/439 440/440/440 391/391/391
f 391/391/391 440/440/440 392/392/392
f 440/440/440 441/441/441 392/392/392
f 392/392/392 441/441/441 393/393/393
f 441/441/441 442/442/442 393/393/393
f 491/491/491 492/492/492 443/443/443
f 492/492/492 493/493/493 444/444/444
f 493/493/493 494/494/494 445/445/445
f 494/494/494 495/495/495 446/446/446
f 495/495/495 496/496/496 447/447/447
f 496/496/496 497/497/497 448/448/448
f 497/497/497 498/498/498 449/449/449
f 498/498/498 499/499/499 450/450/450
f 499/499/499 500/500/500 451/451/451
f 500/500/500 501/501/501 452/452/452
f 501/501/501 502/502/502 453/453/453
f 502/502/502 503/503/503 454/454/454
f 503/503/503 504/504/504 455/455/455
f 504/504/504 505/505/505 456/456/456
f 505/505/505 506/506/506 457/457/457
f 506/506/506 507/507/507 458/458/458
f 507/507/507 508/508/508 459/459/459
f 508/508/508 509/509/509 460/460/460
f 509/509/509 510/510/510 461/461/461
f 510/510/510 511/511/511 462/462/462
f 511/511/511 512/512/512 463/463/463
f 512/512/512 513/513/513 464/464/464
f 513/513/513 514/514/514 465/465/465
f 514/514/514 515/515/515 466/466/466
f 515/515/515 516/516/516 467/467/467
f 516/516/516 517/517/517 468/468/468
f 517/517/517 518/518/518 469/469/469
f 518/518/518 519/519/519 470/470/470
f 519/519/519 520/520/520 471/471/471
f 520/520/520 521/521/521 472/472/472
f 521/521/521 522/522/522 473/473/473
f 522/522/522 523/523/523 474/474/474
f 523/523/523 524/524/524 475/475/475
f 524/524/524 525/525/525 476/476/476
f 525/525/525 526/526/526 477/477/477
f 526/526/526 527/527/527 478/478/478
f 527/527/527 528/528/528 479/479/479
f 528/528/528 529/529/529 480/480/480
f 529/529/529 530/530/530 481/481/481
f 530/530/530 531/531/531 482/482/482
f 531/531/531 532/532/532 483/483/483
f 532/532/532 533/533/533 484/484/484
f 533/533/533 534/534/534 485/485/485
f 534/534/534 535/535/535 486/486/486
f 535/535/535 536/536/536 487/487/487
f 536/536/536 537/537/537 488/488/488
f 537/537/537 538/538/538 489/489/489
f 538/538/538 539/539/539 490/490/490
f 589/589/589 588/588/588 540/540/540
f 590/590/590 589/589/589 541/541/541
f 591/591/591 590/590/590 542/542/542
f 592/592/592 591/591/591 543/543/543
f 593/593/593 592/592/592 544/544/544
f 594/594/594 593/593/593 545/545/545
f 595/595/595 594/594/594 546/546/546
f 596/596/596 595/595/595 547/547/547
f 597/597/597 596/596/596 548/548/548
f 598/598/598 597/597/597 549/549/549
f 599/599/599 598/598/598 550/550/550
f 600/600/600 599/599/599 551/551/551
f 601/601/601 600/600/600 552/552/552
f 602/602/602 601/601/601 553/553/553
f 603/603/603 602/602/602 554/554/554
f 604/604/604 603/603/603 555/555/555
f 605/605/605 604/604/604 556/556/556
f 606/606/606 605/605/605 557/557/557
f 607/607/607 606/606/606 558/558/558
f 608/608/608 607/607/607 559/559/559
f 609/609/609 608/608/608 560/560/560
f 610/610/610 609/609/609 561/561/561
f 611/611/611 610/610/610 562/562/562
f 612/612/612 611/611/611 563/563/563
f 613/613/613 612/612/612 564/564/564
f 614/614/614 613/613/613 565/565/565
f 615/615/615 614/614/614 566/566/566
f 616/616/616 615/615/615 567/567/567
f 617/617/617 616/616/616 568/568/568
f 618/618/618 617/617/617 569/569/569
f 619/619/619 618/618/618 570/570/570
f 620/620/620 619/619/619 571/571/571
f 621/621/621 620/620/620 572/572/572
f 622/622/622 621/621/621 573/573/573
f 623/623/623 622/622/622 574/574/574
f 624/624/624 623/623/623 575/575/575
f 625/625/625 624/624/624 576/576/576
f 626/626/626 625/625/625 577/577/577
f 627/627/627 626/626/626 578/578/578
f 628/628/628 627/627/627 579/579/579
f 629/629/629 628/628/628 580/580/580
f 630/630/630 629/629/629 581/581/581
f 631/631/631 630/630/630 582/582/582
f 632/632/632 631/631/631 583/583/583
f 633/633/633 632/632/632 584/584/584
f 634/634/634 633/633/633 585/585/585
f 635/635/635 634/634/634 586/586/586
f 636/636/636 635/635/635 587/587/587
