mtllib link_4.mtl
o arm_extension
usemtl kuka_orange
v 0.46999999940395354 5.218048202503346e-17 0.09000000357627869
v 0.46999999940395354 -0.06363961100578303 0.06363961100578308
v 0.46999999940395354 -0.09000000357627863 5.51091050576101e-18
v 0.46999999940395354 -0.06363961100578303 -0.06363961100578308
v 0.46999999940395354 4.115866101351144e-17 -0.09000000357627869
v 0.46999999940395354 0.06363961100578314 -0.06363961100578308
v 0.46999999940395354 0.09000000357627874 -1.653273151728303e-17
v 0.46999999940395354 0.06363961100578314 0.06363961100578308
v 0.46999999940395354 7.42241240480775e-17 0.09000000357627869
v 5.9604643443123e-10 -5.218048202503346e-17 0.1120000034570694
v 5.960464621868056e-10 -0.07919596135616308 0.07919596135616302
v 5.960464621868056e-10 -0.11200000345706945 6.858022109779144e-18
v 5.960464621868056e-10 -0.07919596135616308 -0.07919596135616302
v 5.9604643443123e-10 -6.589652624459175e-17 -0.1120000034570694
v 5.960464066756543e-10 0.07919596135616297 -0.07919596135616302
v 5.960464066756543e-10 0.11200000345706934 -2.0574066329337432e-17
v 5.960464066756543e-10 0.07919596135616297 0.07919596135616302
v 5.9604643443123e-10 -2.4748393585916884e-17 0.1120000034570694
v 0.46999999940395354 5.218048202503346e-17 0
v 0.46999999940395354 5.218048202503346e-17 0
v 0.46999999940395354 5.218048202503346e-17 0
v 0.46999999940395354 5.218048202503346e-17 0
v 0.46999999940395354 5.218048202503346e-17 0
v 0.46999999940395354 5.218048202503346e-17 0
v 0.46999999940395354 5.218048202503346e-17 0
v 0.46999999940395354 5.218048202503346e-17 0
v 0.46999999940395354 5.218048202503346e-17 0.09000000357627869
v 0.46999999940395354 -0.06363961100578303 0.06363961100578308
v 0.46999999940395354 -0.09000000357627863 5.51091050576101e-18
v 0.46999999940395354 -0.06363961100578303 -0.06363961100578308
v 0.46999999940395354 4.115866101351144e-17 -0.09000000357627869
v 0.46999999940395354 0.06363961100578314 -0.06363961100578308
v 0.46999999940395354 0.09000000357627874 -1.653273151728303e-17
v 0.46999999940395354 0.06363961100578314 0.06363961100578308
v 0.46999999940395354 7.42241240480775e-17 0.09000000357627869
v 5.9604643443123e-10 -5.218048202503346e-17 0
v 5.9604643443123e-10 -5.218048202503346e-17 0
v 5.9604643443123e-10 -5.218048202503346e-17 0
v 5.9604643443123e-10 -5.218048202503346e-17 0
v 5.9604643443123e-10 -5.218048202503346e-17 0
v 5.9604643443123e-10 -5.218048202503346e-17 0
v 5.9604643443123e-10 -5.218048202503346e-17 0
v 5.9604643443123e-10 -5.218048202503346e-17 0
v 5.9604643443123e-10 -5.218048202503346e-17 0.1120000034570694
v 5.960464621868056e-10 -0.07919596135616308 0.07919596135616302
v 5.960464621868056e-10 -0.11200000345706945 6.858022109779144e-18
v 5.960464621868056e-10 -0.07919596135616308 -0.07919596135616302
v 5.9604643443123e-10 -6.589652624459175e-17 -0.1120000034570694
v 5.960464066756543e-10 0.07919596135616297 -0.07919596135616302
v 5.960464066756543e-10 0.11200000345706934 -2.0574066329337432e-17
v 5.960464066756543e-10 0.07919596135616297 0.07919596135616302
v 5.9604643443123e-10 -2.4748393585916884e-17 0.1120000034570694
vt 0 1
vt 0.125 1
vt 0.25 1
vt 0.375 1
vt 0.5 1
vt 0.625 1
vt 0.75 1
vt 0.875 1
vt 1 1
vt 0 0
vt 0.125 0
vt 0.25 0
vt 0.375 0
vt 0.5 0
vt 0.625 0
vt 0.75 0
vt 0.875 0
vt 1 0
vt 0.5 0.5
vt 0.5 0.5
vt 0.5 0.5
vt 0.5 0.5
vt 0.5 0.5
vt 0.5 0.5
vt 0.5 0.5
vt 0.5 0.5
vt 1 0.5
vt 0.8535534143447876 0.8535534143447876
vt 0.5 1
vt 0.1464466154575348 0.8535534143447876
vt 0 0.5
vt 0.1464466154575348 0.1464466154575348
vt 0.5 0
vt 0.8535534143447876 0.1464466154575348
vt 1 0.5
vt 0.5 0.5
vt 0.5 0.5
vt 0.5 0.5
vt 0.5 0.5
vt 0.5 0.5
vt 0.5 0.5
vt 0.5 0.5
vt 0.5 0.5
vt 1 0.5
vt 0.8535534143447876 0.1464466154575348
vt 0.5 0
vt 0.1464466154575348 0.1464466154575348
vt 0 0.5
vt 0.1464466154575348 0.8535534143447876
vt 0.5 1
vt 0.8535534143447876 0.8535534143447876
vt 1 0.5
vn 0.04675731547025527 1.0382209640947887e-17 0.9989062786117702
vn 0.046757314657638036 -0.7063334034030979 0.7063334034030979
vn 0.046757315470255495 -0.9989062786117702 6.116536892940829e-17
vn 0.046757314657638036 -0.7063334034030979 -0.7063334034030979
vn 0.04675731547025527 -1.119485282178687e-16 -0.9989062786117702
vn 0.046757314657637716 0.7063334034030979 -0.7063334034030979
vn 0.04675731547025505 0.9989062786117702 -1.8349611340566991e-16
vn 0.046757314657637716 0.7063334034030979 0.7063334034030979
vn 0.04675731547025527 2.5504368535858104e-16 0.9989062786117702
vn 0.04675731547025527 1.0382209640947887e-17 0.9989062786117702
vn 0.046757314657638036 -0.7063334034030979 0.7063334034030979
vn 0.046757315470255495 -0.9989062786117702 6.116536892940829e-17
vn 0.046757314657638036 -0.7063334034030979 -0.7063334034030979
vn 0.04675731547025527 -1.119485282178687e-16 -0.9989062786117702
vn 0.046757314657637716 0.7063334034030979 -0.7063334034030979
vn 0.04675731547025505 0.9989062786117702 -1.8349611340566991e-16
vn 0.046757314657637716 0.7063334034030979 0.7063334034030979
vn 0.04675731547025527 2.5504368535858104e-16 0.9989062786117702
vn 1 2.220446049250313e-16 0
vn 1 2.220446049250313e-16 0
vn 1 2.220446049250313e-16 0
vn 1 2.220446049250313e-16 0
vn 1 2.220446049250313e-16 0
vn 1 2.220446049250313e-16 0
vn 1 2.220446049250313e-16 0
vn 1 2.220446049250313e-16 0
vn 1 2.220446049250313e-16 0
vn 1 2.220446049250313e-16 0
vn 1 2.220446049250313e-16 0
vn 1 2.220446049250313e-16 0
vn 1 2.220446049250313e-16 0
vn 1 2.220446049250313e-16 0
vn 1 2.220446049250313e-16 0
vn 1 2.220446049250313e-16 0
vn 1 2.220446049250313e-16 0
vn -1 -2.220446049250313e-16 0
vn -1 -2.220446049250313e-16 0
vn -1 -2.220446049250313e-16 0
vn -1 -2.220446049250313e-16 0
vn -1 -2.220446049250313e-16 0
vn -1 -2.220446049250313e-16 0
vn -1 -2.220446049250313e-16 0
vn -1 -2.220446049250313e-16 0
vn -1 -2.220446049250313e-16 0
vn -1 -2.220446049250313e-16 0
vn -1 -2.220446049250313e-16 0
vn -1 -2.220446049250313e-16 0
vn -1 -2.220446049250313e-16 0
vn -1 -2.220446049250313e-16 0
vn -1 -2.220446049250313e-16 0
vn -1 -2.220446049250313e-16 0
vn -1 -2.220446049250313e-16 0
f 1/1/1 10/10/10 2/2/2
f 10/10/10 11/11/11 2/2/2
f 2/2/2 11/11/11 3/3/3
f 11/11/11 12/12/12 3/3/3
f 3/3/3 12/12/12 4/4/4
f 12/12/12 13/13/13 4/4/4
f 4/4/4 13/13/13 5/5/5
f 13/13/13 14/14/14 5/5/5
f 5/5/5 14/14/14 6/6/6
f 14/14/14 15/15/15 6/6/6
f 6/6/6 15/15/15 7/7/7
f 15/15/15 16/16/16 7/7/7
f 7/7/7 16/16/16 8/8/8
f 16/16/16 17/17/17 8/8/8
f 8/8/8 17/17/17 9/9/9
f 17/17/17 18/18/18 9/9/9
f 27/27/27 28/28/28 19/19/19
f 28/28/28 29/29/29 20/20/20
f 29/29/29 30/30/30 21/21/21
f 30/30/30 31/31/31 22/22/22
f 31/31/31 32/32/32 23/23/23
f 32/32/32 33/33/33 24/24/24
f 33/33/33 34/34/34 25/25/25
f 34/34/34 35/35/35 26/26/26
f 45/45/45 44/44/44 36/36/36
f 46/46/46 45/45/45 37/37/37
f 47/47/47 46/46/46 38/38/38
f 48/48/48 47/47/47 39/39/39
f 49/49/49 48/48/48 40/40/40
f 50/50/50 49/49/49 41/41/41
f 51/51/51 50/50/50 42/42/42
f 52/52/52 51/51/51 43/43/43
o wrist_bearing
usemtl kuka_orange
v 0.542 -0.0949999988079071 -0.11500000208616257
v 0.5570105124339462 -0.0949999988079071 -0.11401616036891937
v 0.5717641903162003 -0.0949999988079071 -0.11108147352933884
v 0.5860085940063 -0.0949999988079071 -0.10624614357948303
v 0.5995000010430813 -0.0949999988079071 -0.09959292411804199
v 0.6120075626373291 -0.0949999988079071 -0.09123563766479492
v 0.6233172832131386 -0.0949999988079071 -0.08131728321313858
v 0.633235637664795 -0.0949999988079071 -0.0700075626373291
v 0.641592924118042 -0.0949999988079071 -0.057500001043081284
v 0.6482461435794831 -0.0949999988079071 -0.04400859400629997
v 0.6530814735293389 -0.0949999988079071 -0.029764190316200256
v 0.6560161603689194 -0.0949999988079071 -0.015010512433946133
v 0.6570000020861626 -0.0949999988079071 4.592425283604073e-18
v 0.6560161603689194 -0.0949999988079071 0.015010512433946133
v 0.6530814735293389 -0.0949999988079071 0.029764190316200256
v 0.6482461435794831 -0.0949999988079071 0.04400859400629997
v 0.641592924118042 -0.0949999988079071 0.057500001043081284
v 0.633235637664795 -0.0949999988079071 0.0700075626373291
v 0.6233172832131386 -0.0949999988079071 0.08131728321313858
v 0.6120075626373291 -0.0949999988079071 0.09123563766479492
v 0.5995000010430813 -0.0949999988079071 0.09959292411804199
v 0.5860085940063 -0.0949999988079071 0.10624614357948303
v 0.5717641903162003 -0.0949999988079071 0.11108147352933884
v 0.5570105124339462 -0.0949999988079071 0.11401616036891937
v 0.542 -0.0949999988079071 0.11500000208616257
v 0.5269894875660539 -0.0949999988079071 0.11401616036891937
v 0.5122358096837998 -0.0949999988079071 0.11108147352933884
v 0.49799140599370006 -0.0949999988079071 0.10624614357948303
v 0.48449999895691875 -0.0949999988079071 0.09959292411804199
v 0.47199243736267094 -0.0949999988079071 0.09123563766479492
v 0.46068271678686146 -0.0949999988079071 0.08131728321313858
v 0.4507643623352051 -0.0949999988079071 0.0700075626373291
v 0.44240707588195805 -0.0949999988079071 0.057500001043081284
v 0.435753856420517 -0.0949999988079071 0.04400859400629997
v 0.4309185264706612 -0.0949999988079071 0.029764190316200256
v 0.42798383963108066 -0.0949999988079071 0.015010512433946133
v 0.42699999791383747 -0.0949999988079071 3.2759300328803035e-17
v 0.42798383963108066 -0.0949999988079071 -0.015010512433946133
v 0.4309185264706612 -0.0949999988079071 -0.029764190316200256
v 0.435753856420517 -0.0949999988079071 -0.04400859400629997
v 0.44240707588195805 -0.0949999988079071 -0.057500001043081284
v 0.4507643623352051 -0.0949999988079071 -0.0700075626373291
v 0.46068271678686146 -0.0949999988079071 -0.08131728321313858
v 0.47199243736267094 -0.0949999988079071 -0.09123563766479492
v 0.48449999895691875 -0.0949999988079071 -0.09959292411804199
v 0.49799140599370006 -0.0949999988079071 -0.10624614357948303
v 0.5122358096837998 -0.0949999988079071 -0.11108147352933884
v 0.5269894875660539 -0.0949999988079071 -0.11401616036891937
v 0.542 -0.0949999988079071 -0.11500000208616257
v 0.542 0.0949999988079071 -0.11500000208616257
v 0.5570105124339462 0.0949999988079071 -0.11401616036891937
v 0.5717641903162003 0.0949999988079071 -0.11108147352933884
v 0.5860085940063 0.0949999988079071 -0.10624614357948303
v 0.5995000010430813 0.0949999988079071 -0.09959292411804199
v 0.6120075626373291 0.0949999988079071 -0.09123563766479492
v 0.6233172832131386 0.0949999988079071 -0.08131728321313858
v 0.633235637664795 0.0949999988079071 -0.0700075626373291
v 0.641592924118042 0.0949999988079071 -0.057500001043081284
v 0.6482461435794831 0.0949999988079071 -0.04400859400629997
v 0.6530814735293389 0.0949999988079071 -0.029764190316200256
v 0.6560161603689194 0.0949999988079071 -0.015010512433946133
v 0.6570000020861626 0.0949999988079071 -1.867586384017932e-17
v 0.6560161603689194 0.0949999988079071 0.015010512433946133
v 0.6530814735293389 0.0949999988079071 0.029764190316200256
v 0.6482461435794831 0.0949999988079071 0.04400859400629997
v 0.641592924118042 0.0949999988079071 0.057500001043081284
v 0.633235637664795 0.0949999988079071 0.0700075626373291
v 0.6233172832131386 0.0949999988079071 0.08131728321313858
v 0.6120075626373291 0.0949999988079071 0.09123563766479492
v 0.5995000010430813 0.0949999988079071 0.09959292411804199
v 0.5860085940063 0.0949999988079071 0.10624614357948303
v 0.5717641903162003 0.0949999988079071 0.11108147352933884
v 0.5570105124339462 0.0949999988079071 0.11401616036891937
v 0.542 0.0949999988079071 0.11500000208616257
v 0.5269894875660539 0.0949999988079071 0.11401616036891937
v 0.5122358096837998 0.0949999988079071 0.11108147352933884
v 0.49799140599370006 0.0949999988079071 0.10624614357948303
v 0.48449999895691875 0.0949999988079071 0.09959292411804199
v 0.47199243736267094 0.0949999988079071 0.09123563766479492
v 0.46068271678686146 0.0949999988079071 0.08131728321313858
v 0.4507643623352051 0.0949999988079071 0.0700075626373291
v 0.44240707588195805 0.0949999988079071 0.057500001043081284
v 0.435753856420517 0.0949999988079071 0.04400859400629997
v 0.4309185264706612 0.0949999988079071 0.029764190316200256
v 0.42798383963108066 0.0949999988079071 0.015010512433946133
v 0.42699999791383747 0.0949999988079071 9.491013272971173e-18
v 0.42798383963108066 0.0949999988079071 -0.015010512433946133
v 0.4309185264706612 0.0949999988079071 -0.029764190316200256
v 0.435753856420517 0.0949999988079071 -0.04400859400629997
v 0.44240707588195805 0.0949999988079071 -0.057500001043081284
v 0.4507643623352051 0.0949999988079071 -0.0700075626373291
v 0.46068271678686146 0.0949999988079071 -0.08131728321313858
v 0.47199243736267094 0.0949999988079071 -0.09123563766479492
v 0.48449999895691875 0.0949999988079071 -0.09959292411804199
v 0.49799140599370006 0.0949999988079071 -0.10624614357948303
v 0.5122358096837998 0.0949999988079071 -0.11108147352933884
v 0.5269894875660539 0.0949999988079071 -0.11401616036891937
v 0.542 0.0949999988079071 -0.11500000208616257
v 0.542 -0.0949999988079071 1.163414476868685e-17
v 0.542 -0.0949999988079071 1.163414476868685e-17
v 0.542 -0.0949999988079071 1.163414476868685e-17
v 0.542 -0.0949999988079071 1.163414476868685e-17
v 0.542 -0.0949999988079071 1.163414476868685e-17
v 0.542 -0.0949999988079071 1.163414476868685e-17
v 0.542 -0.0949999988079071 1.163414476868685e-17
v 0.542 -0.0949999988079071 1.163414476868685e-17
v 0.542 -0.0949999988079071 1.163414476868685e-17
v 0.542 -0.0949999988079071 1.163414476868685e-17
v 0.542 -0.0949999988079071 1.163414476868685e-17
v 0.542 -0.0949999988079071 1.163414476868685e-17
v 0.542 -0.0949999988079071 1.163414476868685e-17
v 0.542 -0.0949999988079071 1.163414476868685e-17
v 0.542 -0.0949999988079071 1.163414476868685e-17
v 0.542 -0.0949999988079071 1.163414476868685e-17
v 0.542 -0.0949999988079071 1.163414476868685e-17
v 0.542 -0.0949999988079071 1.163414476868685e-17
v 0.542 -0.0949999988079071 1.163414476868685e-17
v 0.542 -0.0949999988079071 1.163414476868685e-17
v 0.542 -0.0949999988079071 1.163414476868685e-17
v 0.542 -0.0949999988079071 1.163414476868685e-17
v 0.542 -0.0949999988079071 1.163414476868685e-17
v 0.542 -0.0949999988079071 1.163414476868685e-17
v 0.542 -0.0949999988079071 1.163414476868685e-17
v 0.542 -0.0949999988079071 1.163414476868685e-17
v 0.542 -0.0949999988079071 1.163414476868685e-17
v 0.542 -0.0949999988079071 1.163414476868685e-17
v 0.542 -0.0949999988079071 1.163414476868685e-17
v 0.542 -0.0949999988079071 1.163414476868685e-17
v 0.542 -0.0949999988079071 1.163414476868685e-17
v 0.542 -0.0949999988079071 1.163414476868685e-17
v 0.542 -0.0949999988079071 1.163414476868685e-17
v 0.542 -0.0949999988079071 1.163414476868685e-17
v 0.542 -0.0949999988079071 1.163414476868685e-17
v 0.542 -0.0949999988079071 1.163414476868685e-17
v 0.542 -0.0949999988079071 1.163414476868685e-17
v 0.542 -0.0949999988079071 1.163414476868685e-17
v 0.542 -0.0949999988079071 1.163414476868685e-17
v 0.542 -0.0949999988079071 1.163414476868685e-17
v 0.542 -0.0949999988079071 1.163414476868685e-17
v 0.542 -0.0949999988079071 1.163414476868685e-17
v 0.542 -0.0949999988079071 1.163414476868685e-17
v 0.542 -0.0949999988079071 1.163414476868685e-17
v 0.542 -0.0949999988079071 1.163414476868685e-17
v 0.542 -0.0949999988079071 1.163414476868685e-17
v 0.542 -0.0949999988079071 1.163414476868685e-17
v 0.542 -0.0949999988079071 1.163414476868685e-17
v 0.542 -0.0949999988079071 -0.11500000208616257
v 0.5570105124339462 -0.0949999988079071 -0.11401616036891937
v 0.5717641903162003 -0.0949999988079071 -0.11108147352933884
v 0.5860085940063 -0.0949999988079071 -0.10624614357948303
v 0.5995000010430813 -0.0949999988079071 -0.09959292411804199
v 0.6120075626373291 -0.0949999988079071 -0.09123563766479492
v 0.6233172832131386 -0.0949999988079071 -0.08131728321313858
v 0.633235637664795 -0.0949999988079071 -0.0700075626373291
v 0.641592924118042 -0.0949999988079071 -0.057500001043081284
v 0.6482461435794831 -0.0949999988079071 -0.04400859400629997
v 0.6530814735293389 -0.0949999988079071 -0.029764190316200256
v 0.6560161603689194 -0.0949999988079071 -0.015010512433946133
v 0.6570000020861626 -0.0949999988079071 4.592425283604073e-18
v 0.6560161603689194 -0.0949999988079071 0.015010512433946133
v 0.6530814735293389 -0.0949999988079071 0.029764190316200256
v 0.6482461435794831 -0.0949999988079071 0.04400859400629997
v 0.641592924118042 -0.0949999988079071 0.057500001043081284
v 0.633235637664795 -0.0949999988079071 0.0700075626373291
v 0.6233172832131386 -0.0949999988079071 0.08131728321313858
v 0.6120075626373291 -0.0949999988079071 0.09123563766479492
v 0.5995000010430813 -0.0949999988079071 0.09959292411804199
v 0.5860085940063 -0.0949999988079071 0.10624614357948303
v 0.5717641903162003 -0.0949999988079071 0.11108147352933884
v 0.5570105124339462 -0.0949999988079071 0.11401616036891937
v 0.542 -0.0949999988079071 0.11500000208616257
v 0.5269894875660539 -0.0949999988079071 0.11401616036891937
v 0.5122358096837998 -0.0949999988079071 0.11108147352933884
v 0.49799140599370006 -0.0949999988079071 0.10624614357948303
v 0.48449999895691875 -0.0949999988079071 0.09959292411804199
v 0.47199243736267094 -0.0949999988079071 0.09123563766479492
v 0.46068271678686146 -0.0949999988079071 0.08131728321313858
v 0.4507643623352051 -0.0949999988079071 0.0700075626373291
v 0.44240707588195805 -0.0949999988079071 0.057500001043081284
v 0.435753856420517 -0.0949999988079071 0.04400859400629997
v 0.4309185264706612 -0.0949999988079071 0.029764190316200256
v 0.42798383963108066 -0.0949999988079071 0.015010512433946133
v 0.42699999791383747 -0.0949999988079071 3.2759300328803035e-17
v 0.42798383963108066 -0.0949999988079071 -0.015010512433946133
v 0.4309185264706612 -0.0949999988079071 -0.029764190316200256
v 0.435753856420517 -0.0949999988079071 -0.04400859400629997
v 0.44240707588195805 -0.0949999988079071 -0.057500001043081284
v 0.4507643623352051 -0.0949999988079071 -0.0700075626373291
v 0.46068271678686146 -0.0949999988079071 -0.08131728321313858
v 0.47199243736267094 -0.0949999988079071 -0.09123563766479492
v 0.48449999895691875 -0.0949999988079071 -0.09959292411804199
v 0.49799140599370006 -0.0949999988079071 -0.10624614357948303
v 0.5122358096837998 -0.0949999988079071 -0.11108147352933884
v 0.5269894875660539 -0.0949999988079071 -0.11401616036891937
v 0.542 -0.0949999988079071 -0.11500000208616257
v 0.542 0.0949999988079071 -1.163414476868685e-17
v 0.542 0.0949999988079071 -1.163414476868685e-17
v 0.542 0.0949999988079071 -1.163414476868685e-17
v 0.542 0.0949999988079071 -1.163414476868685e-17
v 0.542 0.0949999988079071 -1.163414476868685e-17
v 0.542 0.0949999988079071 -1.163414476868685e-17
v 0.542 0.0949999988079071 -1.163414476868685e-17
v 0.542 0.0949999988079071 -1.163414476868685e-17
v 0.542 0.0949999988079071 -1.163414476868685e-17
v 0.542 0.0949999988079071 -1.163414476868685e-17
v 0.542 0.0949999988079071 -1.163414476868685e-17
v 0.542 0.0949999988079071 -1.163414476868685e-17
v 0.542 0.0949999988079071 -1.163414476868685e-17
v 0.542 0.0949999988079071 -1.163414476868685e-17
v 0.542 0.0949999988079071 -1.163414476868685e-17
v 0.542 0.0949999988079071 -1.163414476868685e-17
v 0.542 0.0949999988079071 -1.163414476868685e-17
v 0.542 0.0949999988079071 -1.163414476868685e-17
v 0.542 0.0949999988079071 -1.163414476868685e-17
v 0.542 0.0949999988079071 -1.163414476868685e-17
v 0.542 0.0949999988079071 -1.163414476868685e-17
v 0.542 0.0949999988079071 -1.163414476868685e-17
v 0.542 0.0949999988079071 -1.163414476868685e-17
v 0.542 0.0949999988079071 -1.163414476868685e-17
v 0.542 0.0949999988079071 -1.163414476868685e-17
v 0.542 0.0949999988079071 -1.163414476868685e-17
v 0.542 0.0949999988079071 -1.163414476868685e-17
v 0.542 0.0949999988079071 -1.163414476868685e-17
v 0.542 0.0949999988079071 -1.163414476868685e-17
v 0.542 0.0949999988079071 -1.163414476868685e-17
v 0.542 0.0949999988079071 -1.163414476868685e-17
v 0.542 0.0949999988079071 -1.163414476868685e-17
v 0.542 0.0949999988079071 -1.163414476868685e-17
v 0.542 0.0949999988079071 -1.163414476868685e-17
v 0.542 0.0949999988079071 -1.163414476868685e-17
v 0.542 0.0949999988079071 -1.163414476868685e-17
v 0.542 0.0949999988079071 -1.163414476868685e-17
v 0.542 0.0949999988079071 -1.163414476868685e-17
v 0.542 0.0949999988079071 -1.163414476868685e-17
v 0.542 0.0949999988079071 -1.163414476868685e-17
v 0.542 0.0949999988079071 -1.163414476868685e-17
v 0.542 0.0949999988079071 -1.163414476868685e-17
v 0.542 0.0949999988079071 -1.163414476868685e-17
v 0.542 0.0949999988079071 -1.163414476868685e-17
v 0.542 0.0949999988079071 -1.163414476868685e-17
v 0.542 0.0949999988079071 -1.163414476868685e-17
v 0.542 0.0949999988079071 -1.163414476868685e-17
v 0.542 0.0949999988079071 -1.163414476868685e-17
v 0.542 0.0949999988079071 -0.11500000208616257
v 0.5570105124339462 0.0949999988079071 -0.11401616036891937
v 0.5717641903162003 0.0949999988079071 -0.11108147352933884
v 0.5860085940063 0.0949999988079071 -0.10624614357948303
v 0.5995000010430813 0.0949999988079071 -0.09959292411804199
v 0.6120075626373291 0.0949999988079071 -0.09123563766479492
v 0.6233172832131386 0.0949999988079071 -0.08131728321313858
v 0.633235637664795 0.0949999988079071 -0.0700075626373291
v 0.641592924118042 0.0949999988079071 -0.057500001043081284
v 0.6482461435794831 0.0949999988079071 -0.04400859400629997
v 0.6530814735293389 0.0949999988079071 -0.029764190316200256
v 0.6560161603689194 0.0949999988079071 -0.015010512433946133
v 0.6570000020861626 0.0949999988079071 -1.867586384017932e-17
v 0.6560161603689194 0.0949999988079071 0.015010512433946133
v 0.6530814735293389 0.0949999988079071 0.029764190316200256
v 0.6482461435794831 0.0949999988079071 0.04400859400629997
v 0.641592924118042 0.0949999988079071 0.057500001043081284
v 0.633235637664795 0.0949999988079071 0.0700075626373291
v 0.6233172832131386 0.0949999988079071 0.08131728321313858
v 0.6120075626373291 0.0949999988079071 0.09123563766479492
v 0.5995000010430813 0.0949999988079071 0.09959292411804199
v 0.5860085940063 0.0949999988079071 0.10624614357948303
v 0.5717641903162003 0.0949999988079071 0.11108147352933884
v 0.5570105124339462 0.0949999988079071 0.11401616036891937
v 0.542 0.0949999988079071 0.11500000208616257
v 0.5269894875660539 0.0949999988079071 0.11401616036891937
v 0.5122358096837998 0.0949999988079071 0.11108147352933884
v 0.49799140599370006 0.0949999988079071 0.10624614357948303
v 0.48449999895691875 0.0949999988079071 0.09959292411804199
v 0.47199243736267094 0.0949999988079071 0.09123563766479492
v 0.46068271678686146 0.0949999988079071 0.08131728321313858
v 0.4507643623352051 0.0949999988079071 0.0700075626373291
v 0.44240707588195805 0.0949999988079071 0.057500001043081284
v 0.435753856420517 0.0949999988079071 0.04400859400629997
v 0.4309185264706612 0.0949999988079071 0.029764190316200256
v 0.42798383963108066 0.0949999988079071 0.015010512433946133
v 0.42699999791383747 0.0949999988079071 9.491013272971173e-18
v 0.42798383963108066 0.0949999988079071 -0.015010512433946133
v 0.4309185264706612 0.0949999988079071 -0.029764190316200256
v 0.435753856420517 0.0949999988079071 -0.04400859400629997
v 0.44240707588195805 0.0949999988079071 -0.057500001043081284
v 0.4507643623352051 0.0949999988079071 -0.0700075626373291
v 0.46068271678686146 0.0949999988079071 -0.08131728321313858
v 0.47199243736267094 0.0949999988079071 -0.09123563766479492
v 0.48449999895691875 0.0949999988079071 -0.09959292411804199
v 0.49799140599370006 0.0949999988079071 -0.10624614357948303
v 0.5122358096837998 0.0949999988079071 -0.11108147352933884
v 0.5269894875660539 0.0949999988079071 -0.11401616036891937
v 0.542 0.0949999988079071 -0.11500000208616257
vt 0 1
vt 0.02083333395421505 1
vt 0.0416666679084301 1
vt 0.0625 1
vt 0.0833333358168602 1
vt 0.1041666641831398 1
vt 0.125 1
vt 0.1458333283662796 1
vt 0.1666666716337204 1
vt 0.1875 1
vt 0.2083333283662796 1
vt 0.2291666716337204 1
vt 0.25 1
vt 0.2708333432674408 1
vt 0.2916666567325592 1
vt 0.3125 1
vt 0.3333333432674408 1
vt 0.3541666567325592 1
vt 0.375 1
vt 0.3958333432674408 1
vt 0.4166666567325592 1
vt 0.4375 1
vt 0.4583333432674408 1
vt 0.4791666567325592 1
vt 0.5 1
vt 0.5208333134651184 1
vt 0.5416666865348816 1
vt 0.5625 1
vt 0.5833333134651184 1
vt 0.6041666865348816 1
vt 0.625 1
vt 0.6458333134651184 1
vt 0.6666666865348816 1
vt 0.6875 1
vt 0.7083333134651184 1
vt 0.7291666865348816 1
vt 0.75 1
vt 0.7708333134651184 1
vt 0.7916666865348816 1
vt 0.8125 1
vt 0.8333333134651184 1
vt 0.8541666865348816 1
vt 0.875 1
vt 0.8958333134651184 1
vt 0.9166666865348816 1
vt 0.9375 1
vt 0.9583333134651184 1
vt 0.9791666865348816 1
vt 1 1
vt 0 0
vt 0.02083333395421505 0
vt 0.0416666679084301 0
vt 0.0625 0
vt 0.0833333358168602 0
vt 0.1041666641831398 0
vt 0.125 0
vt 0.1458333283662796 0
vt 0.1666666716337204 0
vt 0.1875 0
vt 0.2083333283662796 0
vt 0.2291666716337204 0
vt 0.25 0
vt 0.2708333432674408 0
vt 0.2916666567325592 0
vt 0.3125 0
vt 0.3333333432674408 0
vt 0.3541666567325592 0
vt 0.375 0
vt 0.3958333432674408 0
vt 0.4166666567325592 0
vt 0.4375 0
vt 0.4583333432674408 0
vt 0.4791666567325592 0
vt 0.5 0
vt 0.5208333134651184 0
vt 0.5416666865348816 0
vt 0.5625 0
vt 0.5833333134651184 0
vt 0.6041666865348816 0
vt 0.625 0
vt 0.6458333134651184 0
vt 0.6666666865348816 0
vt 0.6875 0
vt 0.7083333134651184 0
vt 0.7291666865348816 0
vt 0.75 0
vt 0.7708333134651184 0
vt 0.7916666865348816 0
vt 0.8125 0
vt 0.8333333134651184 0
vt 0.8541666865348816 0
vt 0.875 0
vt 0.8958333134651184 0
vt 0.9166666865348816 0
vt 0.9375 0
vt 0.9583333134651184 0
vt 0.9791666865348816 0
vt 1 0
vt 0.5 0.5
vt 0.5 0.5
vt 0.5 0.5
vt 0.5 0.5
vt 0.5 0.5
vt 0.5 0.5
vt 0.5 0.5
vt 0.5 0.5
vt 0.5 0.5
vt 0.5 0.5
vt 0.5 0.5
vt 0.5 0.5
vt 0.5 0.5
vt 0.5 0.5
vt 0.5 0.5
vt 0.5 0.5
vt 0.5 0.5
vt 0.5 0.5
vt 0.5 0.5
vt 0.5 0.5
vt 0.5 0.5
vt 0.5 0.5
vt 0.5 0.5
vt 0.5 0.5
vt 0.5 0.5
vt 0.5 0.5
vt 0.5 0.5
vt 0.5 0.5
vt 0.5 0.5
vt 0.5 0.5
vt 0.5 0.5
vt 0.5 0.5
vt 0.5 0.5
vt 0.5 0.5
vt 0.5 0.5
vt 0.5 0.5
vt 0.5 0.5
vt 0.5 0.5
vt 0.5 0.5
vt 0.5 0.5
vt 0.5 0.5
vt 0.5 0.5
vt 0.5 0.5
vt 0.5 0.5
vt 0.5 0.5
vt 0.5 0.5
vt 0.5 0.5
vt 0.5 0.5
vt 1 0.5
vt 0.9957224130630493 0.5652630925178528
vt 0.9829629063606262 0.6294095516204834
vt 0.9619397521018982 0.6913416981697083
vt 0.9330127239227295 0.75
vt 0.8966766595840454 0.8043807148933411
vt 0.8535534143447876 0.8535534143447876
vt 0.8043807148933411 0.8966766595840454
vt 0.75 0.9330127239227295
vt 0.6913416981697083 0.9619397521018982
vt 0.6294095516204834 0.9829629063606262
vt 0.5652630925178528 0.9957224130630493
vt 0.5 1
vt 0.4347369074821472 0.9957224130630493
vt 0.370590478181839 0.9829629063606262
vt 0.30865827202796936 0.9619397521018982
vt 0.25 0.9330127239227295
vt 0.19561928510665894 0.8966766595840454
vt 0.1464466154575348 0.8535534143447876
vt 0.10332333296537399 0.8043807148933411
vt 0.0669872984290123 0.75
vt 0.03806023299694061 0.6913416981697083
vt 0.017037086188793182 0.6294095516204834
vt 0.004277569241821766 0.5652630925178528
vt 0 0.5
vt 0.004277569241821766 0.4347369074821472
vt 0.017037086188793182 0.370590478181839
vt 0.03806023299694061 0.30865827202796936
vt 0.0669872984290123 0.25
vt 0.10332333296537399 0.19561928510665894
vt 0.1464466154575348 0.1464466154575348
vt 0.19561928510665894 0.10332333296537399
vt 0.25 0.0669872984290123
vt 0.30865827202796936 0.03806023299694061
vt 0.370590478181839 0.017037086188793182
vt 0.4347369074821472 0.004277569241821766
vt 0.5 0
vt 0.5652630925178528 0.004277569241821766
vt 0.6294095516204834 0.017037086188793182
vt 0.6913416981697083 0.03806023299694061
vt 0.75 0.0669872984290123
vt 0.8043807148933411 0.10332333296537399
vt 0.8535534143447876 0.1464466154575348
vt 0.8966766595840454 0.19561928510665894
vt 0.9330127239227295 0.25
vt 0.9619397521018982 0.30865827202796936
vt 0.9829629063606262 0.370590478181839
vt 0.9957224130630493 0.4347369074821472
vt 1 0.5
vt 0.5 0.5
vt 0.5 0.5
vt 0.5 0.5
vt 0.5 0.5
vt 0.5 0.5
vt 0.5 0.5
vt 0.5 0.5
vt 0.5 0.5
vt 0.5 0.5
vt 0.5 0.5
vt 0.5 0.5
vt 0.5 0.5
vt 0.5 0.5
vt 0.5 0.5
vt 0.5 0.5
vt 0.5 0.5
vt 0.5 0.5
vt 0.5 0.5
vt 0.5 0.5
vt 0.5 0.5
vt 0.5 0.5
vt 0.5 0.5
vt 0.5 0.5
vt 0.5 0.5
vt 0.5 0.5
vt 0.5 0.5
vt 0.5 0.5
vt 0.5 0.5
vt 0.5 0.5
vt 0.5 0.5
vt 0.5 0.5
vt 0.5 0.5
vt 0.5 0.5
vt 0.5 0.5
vt 0.5 0.5
vt 0.5 0.5
vt 0.5 0.5
vt 0.5 0.5
vt 0.5 0.5
vt 0.5 0.5
vt 0.5 0.5
vt 0.5 0.5
vt 0.5 0.5
vt 0.5 0.5
vt 0.5 0.5
vt 0.5 0.5
vt 0.5 0.5
vt 0.5 0.5
vt 1 0.5
vt 0.9957224130630493 0.4347369074821472
vt 0.9829629063606262 0.370590478181839
vt 0.9619397521018982 0.30865827202796936
vt 0.9330127239227295 0.25
vt 0.8966766595840454 0.19561928510665894
vt 0.8535534143447876 0.1464466154575348
vt 0.8043807148933411 0.10332333296537399
vt 0.75 0.0669872984290123
vt 0.6913416981697083 0.03806023299694061
vt 0.6294095516204834 0.017037086188793182
vt 0.5652630925178528 0.004277569241821766
vt 0.5 0
vt 0.4347369074821472 0.004277569241821766
vt 0.370590478181839 0.017037086188793182
vt 0.30865827202796936 0.03806023299694061
vt 0.25 0.0669872984290123
vt 0.19561928510665894 0.10332333296537399
vt 0.1464466154575348 0.1464466154575348
vt 0.10332333296537399 0.19561928510665894
vt 0.0669872984290123 0.25
vt 0.03806023299694061 0.30865827202796936
vt 0.017037086188793182 0.370590478181839
vt 0.004277569241821766 0.4347369074821472
vt 0 0.5
vt 0.004277569241821766 0.5652630925178528
vt 0.017037086188793182 0.6294095516204834
vt 0.03806023299694061 0.6913416981697083
vt 0.0669872984290123 0.75
vt 0.10332333296537399 0.8043807148933411
vt 0.1464466154575348 0.8535534143447876
vt 0.19561928510665894 0.8966766595840454
vt 0.25 0.9330127239227295
vt 0.30865827202796936 0.9619397521018982
vt 0.370590478181839 0.9829629063606262
vt 0.4347369074821472 0.9957224130630493
vt 0.5 1
vt 0.5652630925178528 0.9957224130630493
vt 0.6294095516204834 0.9829629063606262
vt 0.6913416981697083 0.9619397521018982
vt 0.75 0.9330127239227295
vt 0.8043807148933411 0.8966766595840454
vt 0.8535534143447876 0.8535534143447876
vt 0.8966766595840454 0.8043807148933411
vt 0.9330127239227295 0.75
vt 0.9619397521018982 0.6913416981697083
vt 0.9829629063606262 0.6294095516204834
vt 0.9957224130630493 0.5652630925178528
vt 1 0.5
vn 0 -1.2246468525851679e-16 -1
vn 0.13052618200608704 -1.2141696885902594e-16 -0.9914448627185043
vn 0.2588190471264927 -1.1829179227392118e-16 -0.9659258257467466
vn 0.3826834370613369 -1.131426144463939e-16 -0.9238795305660377
vn 0.5000000067305869 -1.0605752614896174e-16 -0.8660253998985324
vn 0.6087614397000725 -9.71577643615598e-17 -0.7933533320874723
vn 0.7071067811865476 -8.659560751628624e-17 -0.7071067811865476
vn 0.7933533320874723 -7.455177812019489e-17 -0.6087614397000725
vn 0.8660253998985324 -6.12323434535176e-17 -0.5000000067305869
vn 0.9238795305660377 -4.686520603449003e-17 -0.3826834370613369
vn 0.9659258257467466 -3.1696191689360264e-17 -0.2588190471264927
vn 0.9914448627185043 -1.5984846413176062e-17 -0.13052618200608704
vn 1 -7.49879952078994e-33 -6.123234262925839e-17
vn 0.9914448627185043 1.5984846413176062e-17 0.13052618200608704
vn 0.9659258257467466 3.1696191689360264e-17 0.2588190471264927
vn 0.9238795305660377 4.686520603449003e-17 0.3826834370613369
vn 0.8660253998985324 6.12323434535176e-17 0.5000000067305869
vn 0.7933533320874723 7.455177812019489e-17 0.6087614397000725
vn 0.7071067811865476 8.659560751628624e-17 0.7071067811865476
vn 0.6087614397000725 9.71577643615598e-17 0.7933533320874723
vn 0.5000000067305869 1.0605752614896174e-16 0.8660253998985324
vn 0.3826834370613369 1.131426144463939e-16 0.9238795305660377
vn 0.2588190471264927 1.1829179227392118e-16 0.9659258257467466
vn 0.13052618200608704 1.2141696885902594e-16 0.9914448627185043
vn 1.2246468525851679e-16 1.2246468525851679e-16 1
vn -0.13052618200608704 1.2141696885902594e-16 0.9914448627185043
vn -0.2588190471264927 1.1829179227392118e-16 0.9659258257467466
vn -0.3826834370613369 1.131426144463939e-16 0.9238795305660377
vn -0.5000000067305869 1.0605752614896174e-16 0.8660253998985324
vn -0.6087614397000725 9.71577643615598e-17 0.7933533320874723
vn -0.7071067811865476 8.659560751628624e-17 0.7071067811865476
vn -0.7933533320874723 7.455177812019489e-17 0.6087614397000725
vn -0.8660253998985324 6.12323434535176e-17 0.5000000067305869
vn -0.9238795305660377 4.686520603449003e-17 0.3826834370613369
vn -0.9659258257467466 3.1696191689360264e-17 0.2588190471264927
vn -0.9914448627185043 1.5984846413176062e-17 0.13052618200608704
vn -1 2.2496396358317913e-32 1.8369701465288538e-16
vn -0.9914448627185043 -1.5984846413176062e-17 -0.13052618200608704
vn -0.9659258257467466 -3.1696191689360264e-17 -0.2588190471264927
vn -0.9238795305660377 -4.686520603449003e-17 -0.3826834370613369
vn -0.8660253998985324 -6.12323434535176e-17 -0.5000000067305869
vn -0.7933533320874723 -7.455177812019489e-17 -0.6087614397000725
vn -0.7071067811865476 -8.659560751628624e-17 -0.7071067811865476
vn -0.6087614397000725 -9.71577643615598e-17 -0.7933533320874723
vn -0.5000000067305869 -1.0605752614896174e-16 -0.8660253998985324
vn -0.3826834370613369 -1.131426144463939e-16 -0.9238795305660377
vn -0.2588190471264927 -1.1829179227392118e-16 -0.9659258257467466
vn -0.13052618200608704 -1.2141696885902594e-16 -0.9914448627185043
vn -2.4492937051703357e-16 -1.2246468525851679e-16 -1
vn 0 -1.2246468525851679e-16 -1
vn 0.13052618200608704 -1.2141696885902594e-16 -0.9914448627185043
vn 0.2588190471264927 -1.1829179227392118e-16 -0.9659258257467466
vn 0.3826834370613369 -1.131426144463939e-16 -0.9238795305660377
vn 0.5000000067305869 -1.0605752614896174e-16 -0.8660253998985324
vn 0.6087614397000725 -9.71577643615598e-17 -0.7933533320874723
vn 0.7071067811865476 -8.659560751628624e-17 -0.7071067811865476
vn 0.7933533320874723 -7.455177812019489e-17 -0.6087614397000725
vn 0.8660253998985324 -6.12323434535176e-17 -0.5000000067305869
vn 0.9238795305660377 -4.686520603449003e-17 -0.3826834370613369
vn 0.9659258257467466 -3.1696191689360264e-17 -0.2588190471264927
vn 0.9914448627185043 -1.5984846413176062e-17 -0.13052618200608704
vn 1 -7.49879952078994e-33 -6.123234262925839e-17
vn 0.9914448627185043 1.5984846413176062e-17 0.13052618200608704
vn 0.9659258257467466 3.1696191689360264e-17 0.2588190471264927
vn 0.9238795305660377 4.686520603449003e-17 0.3826834370613369
vn 0.8660253998985324 6.12323434535176e-17 0.5000000067305869
vn 0.7933533320874723 7.455177812019489e-17 0.6087614397000725
vn 0.7071067811865476 8.659560751628624e-17 0.7071067811865476
vn 0.6087614397000725 9.71577643615598e-17 0.7933533320874723
vn 0.5000000067305869 1.0605752614896174e-16 0.8660253998985324
vn 0.3826834370613369 1.131426144463939e-16 0.9238795305660377
vn 0.2588190471264927 1.1829179227392118e-16 0.9659258257467466
vn 0.13052618200608704 1.2141696885902594e-16 0.9914448627185043
vn 1.2246468525851679e-16 1.2246468525851679e-16 1
vn -0.13052618200608704 1.2141696885902594e-16 0.9914448627185043
vn -0.2588190471264927 1.1829179227392118e-16 0.9659258257467466
vn -0.3826834370613369 1.131426144463939e-16 0.9238795305660377
vn -0.5000000067305869 1.0605752614896174e-16 0.8660253998985324
vn -0.6087614397000725 9.71577643615598e-17 0.7933533320874723
vn -0.7071067811865476 8.659560751628624e-17 0.7071067811865476
vn -0.7933533320874723 7.455177812019489e-17 0.6087614397000725
vn -0.8660253998985324 6.12323434535176e-17 0.5000000067305869
vn -0.9238795305660377 4.686520603449003e-17 0.3826834370613369
vn -0.9659258257467466 3.1696191689360264e-17 0.2588190471264927
vn -0.9914448627185043 1.5984846413176062e-17 0.13052618200608704
vn -1 2.2496396358317913e-32 1.8369701465288538e-16
vn -0.9914448627185043 -1.5984846413176062e-17 -0.13052618200608704
vn -0.9659258257467466 -3.1696191689360264e-17 -0.2588190471264927
vn -0.9238795305660377 -4.686520603449003e-17 -0.3826834370613369
vn -0.8660253998985324 -6.12323434535176e-17 -0.5000000067305869
vn -0.7933533320874723 -7.455177812019489e-17 -0.6087614397000725
vn -0.7071067811865476 -8.659560751628624e-17 -0.7071067811865476
vn -0.6087614397000725 -9.71577643615598e-17 -0.7933533320874723
vn -0.5000000067305869 -1.0605752614896174e-16 -0.8660253998985324
vn -0.3826834370613369 -1.131426144463939e-16 -0.9238795305660377
vn -0.2588190471264927 -1.1829179227392118e-16 -0.9659258257467466
vn -0.13052618200608704 -1.2141696885902594e-16 -0.9914448627185043
vn -2.4492937051703357e-16 -1.2246468525851679e-16 -1
vn 0 -1 1.2246468525851679e-16
vn 0 -1 1.2246468525851679e-16
vn 0 -1 1.2246468525851679e-16
vn 0 -1 1.2246468525851679e-16
vn 0 -1 1.2246468525851679e-16
vn 0 -1 1.2246468525851679e-16
vn 0 -1 1.2246468525851679e-16
vn 0 -1 1.2246468525851679e-16
vn 0 -1 1.2246468525851679e-16
vn 0 -1 1.2246468525851679e-16
vn 0 -1 1.2246468525851679e-16
vn 0 -1 1.2246468525851679e-16
vn 0 -1 1.2246468525851679e-16
vn 0 -1 1.2246468525851679e-16
vn 0 -1 1.2246468525851679e-16
vn 0 -1 1.2246468525851679e-16
vn 0 -1 1.2246468525851679e-16
vn 0 -1 1.2246468525851679e-16
vn 0 -1 1.2246468525851679e-16
vn 0 -1 1.2246468525851679e-16
vn 0 -1 1.2246468525851679e-16
vn 0 -1 1.2246468525851679e-16
vn 0 -1 1.2246468525851679e-16
vn 0 -1 1.2246468525851679e-16
vn 0 -1 1.2246468525851679e-16
vn 0 -1 1.2246468525851679e-16
vn 0 -1 1.2246468525851679e-16
vn 0 -1 1.2246468525851679e-16
vn 0 -1 1.2246468525851679e-16
vn 0 -1 1.2246468525851679e-16
vn 0 -1 1.2246468525851679e-16
vn 0 -1 1.2246468525851679e-16
vn 0 -1 1.2246468525851679e-16
vn 0 -1 1.2246468525851679e-16
vn 0 -1 1.2246468525851679e-16
vn 0 -1 1.2246468525851679e-16
vn 0 -1 1.2246468525851679e-16
vn 0 -1 1.2246468525851679e-16
vn 0 -1 1.2246468525851679e-16
vn 0 -1 1.2246468525851679e-16
vn 0 -1 1.2246468525851679e-16
vn 0 -1 1.2246468525851679e-16
vn 0 -1 1.2246468525851679e-16
vn 0 -1 1.2246468525851679e-16
vn 0 -1 1.2246468525851679e-16
vn 0 -1 1.2246468525851679e-16
vn 0 -1 1.2246468525851679e-16
vn 0 -1 1.2246468525851679e-16
vn 0 -1 1.2246468525851679e-16
vn 0 -1 1.2246468525851679e-16
vn 0 -1 1.2246468525851679e-16
vn 0 -1 1.2246468525851679e-16
vn 0 -1 1.2246468525851679e-16
vn 0 -1 1.2246468525851679e-16
vn 0 -1 1.2246468525851679e-16
vn 0 -1 1.2246468525851679e-16
vn 0 -1 1.2246468525851679e-16
vn 0 -1 1.2246468525851679e-16
vn 0 -1 1.2246468525851679e-16
vn 0 -1 1.2246468525851679e-16
vn 0 -1 1.2246468525851679e-16
vn 0 -1 1.2246468525851679e-16
vn 0 -1 1.2246468525851679e-16
vn 0 -1 1.2246468525851679e-16
vn 0 -1 1.2246468525851679e-16
vn 0 -1 1.2246468525851679e-16
vn 0 -1 1.2246468525851679e-16
vn 0 -1 1.2246468525851679e-16
vn 0 -1 1.2246468525851679e-16
vn 0 -1 1.2246468525851679e-16
vn 0 -1 1.2246468525851679e-16
vn 0 -1 1.2246468525851679e-16
vn 0 -1 1.2246468525851679e-16
vn 0 -1 1.2246468525851679e-16
vn 0 -1 1.2246468525851679e-16
vn 0 -1 1.2246468525851679e-16
vn 0 -1 1.2246468525851679e-16
vn 0 -1 1.2246468525851679e-16
vn 0 -1 1.2246468525851679e-16
vn 0 -1 1.2246468525851679e-16
vn 0 -1 1.2246468525851679e-16
vn 0 -1 1.2246468525851679e-16
vn 0 -1 1.2246468525851679e-16
vn 0 -1 1.2246468525851679e-16
vn 0 -1 1.2246468525851679e-16
vn 0 -1 1.2246468525851679e-16
vn 0 -1 1.2246468525851679e-16
vn 0 -1 1.2246468525851679e-16
vn 0 -1 1.2246468525851679e-16
vn 0 -1 1.2246468525851679e-16
vn 0 -1 1.2246468525851679e-16
vn 0 -1 1.2246468525851679e-16
vn 0 -1 1.2246468525851679e-16
vn 0 -1 1.2246468525851679e-16
vn 0 -1 1.2246468525851679e-16
vn 0 -1 1.2246468525851679e-16
vn 0 -1 1.2246468525851679e-16
vn 0 1 -1.2246468525851679e-16
vn 0 1 -1.2246468525851679e-16
vn 0 1 -1.2246468525851679e-16
vn 0 1 -1.2246468525851679e-16
vn 0 1 -1.2246468525851679e-16
vn 0 1 -1.2246468525851679e-16
vn 0 1 -1.2246468525851679e-16
vn 0 1 -1.2246468525851679e-16
vn 0 1 -1.2246468525851679e-16
vn 0 1 -1.2246468525851679e-16
vn 0 1 -1.2246468525851679e-16
vn 0 1 -1.2246468525851679e-16
vn 0 1 -1.2246468525851679e-16
vn 0 1 -1.2246468525851679e-16
vn 0 1 -1.2246468525851679e-16
vn 0 1 -1.2246468525851679e-16
vn 0 1 -1.2246468525851679e-16
vn 0 1 -1.2246468525851679e-16
vn 0 1 -1.2246468525851679e-16
vn 0 1 -1.2246468525851679e-16
vn 0 1 -1.2246468525851679e-16
vn 0 1 -1.2246468525851679e-16
vn 0 1 -1.2246468525851679e-16
vn 0 1 -1.2246468525851679e-16
vn 0 1 -1.2246468525851679e-16
vn 0 1 -1.2246468525851679e-16
vn 0 1 -1.2246468525851679e-16
vn 0 1 -1.2246468525851679e-16
vn 0 1 -1.2246468525851679e-16
vn 0 1 -1.2246468525851679e-16
vn 0 1 -1.2246468525851679e-16
vn 0 1 -1.2246468525851679e-16
vn 0 1 -1.2246468525851679e-16
vn 0 1 -1.2246468525851679e-16
vn 0 1 -1.2246468525851679e-16
vn 0 1 -1.2246468525851679e-16
vn 0 1 -1.2246468525851679e-16
vn 0 1 -1.2246468525851679e-16
vn 0 1 -1.2246468525851679e-16
vn 0 1 -1.2246468525851679e-16
vn 0 1 -1.2246468525851679e-16
vn 0 1 -1.2246468525851679e-16
vn 0 1 -1.2246468525851679e-16
vn 0 1 -1.2246468525851679e-16
vn 0 1 -1.2246468525851679e-16
vn 0 1 -1.2246468525851679e-16
vn 0 1 -1.2246468525851679e-16
vn 0 1 -1.2246468525851679e-16
vn 0 1 -1.2246468525851679e-16
vn 0 1 -1.2246468525851679e-16
vn 0 1 -1.2246468525851679e-16
vn 0 1 -1.2246468525851679e-16
vn 0 1 -1.2246468525851679e-16
vn 0 1 -1.2246468525851679e-16
vn 0 1 -1.2246468525851679e-16
vn 0 1 -1.2246468525851679e-16
vn 0 1 -1.2246468525851679e-16
vn 0 1 -1.2246468525851679e-16
vn 0 1 -1.2246468525851679e-16
vn 0 1 -1.2246468525851679e-16
vn 0 1 -1.2246468525851679e-16
vn 0 1 -1.2246468525851679e-16
vn 0 1 -1.2246468525851679e-16
vn 0 1 -1.2246468525851679e-16
vn 0 1 -1.2246468525851679e-16
vn 0 1 -1.2246468525851679e-16
vn 0 1 -1.2246468525851679e-16
vn 0 1 -1.2246468525851679e-16
vn 0 1 -1.2246468525851679e-16
vn 0 1 -1.2246468525851679e-16
vn 0 1 -1.2246468525851679e-16
vn 0 1 -1.2246468525851679e-16
vn 0 1 -1.2246468525851679e-16
vn 0 1 -1.2246468525851679e-16
vn 0 1 -1.2246468525851679e-16
vn 0 1 -1.2246468525851679e-16
vn 0 1 -1.2246468525851679e-16
vn 0 1 -1.2246468525851679e-16
vn 0 1 -1.2246468525851679e-16
vn 0 1 -1.2246468525851679e-16
vn 0 1 -1.2246468525851679e-16
vn 0 1 -1.2246468525851679e-16
vn 0 1 -1.2246468525851679e-16
vn 0 1 -1.2246468525851679e-16
vn 0 1 -1.2246468525851679e-16
vn 0 1 -1.2246468525851679e-16
vn 0 1 -1.2246468525851679e-16
vn 0 1 -1.2246468525851679e-16
vn 0 1 -1.2246468525851679e-16
vn 0 1 -1.2246468525851679e-16
vn 0 1 -1.2246468525851679e-16
vn 0 1 -1.2246468525851679e-16
vn 0 1 -1.2246468525851679e-16
vn 0 1 -1.2246468525851679e-16
vn 0 1 -1.2246468525851679e-16
vn 0 1 -1.2246468525851679e-16
vn 0 1 -1.2246468525851679e-16
f 53/53/53 102/102/102 54/54/54
f 102/102/102 103/103/103 54/54/54
f 54/54/54 103/103/103 55/55/55
f 103/103/103 104/104/104 55/55/55
f 55/55/55 104/104/104 56/56/56
f 104/104/104 105/105/105 56/56/56
f 56/56/56 105/105/105 57/57/57
f 105/105/105 106/106/106 57/57/57
f 57/57/57 106/106/106 58/58/58
f 106/106/106 107/107/107 58/58/58
f 58/58/58 107/107/107 59/59/59
f 107/107/107 108/108/108 59/59/59
f 59/59/59 108/108/108 60/60/60
f 108/108/108 109/109/109 60/60/60
f 60/60/60 109/109/109 61/61/61
f 109/109/109 110/110/110 61/61/61
f 61/61/61 110/110/110 62/62/62
f 110/110/110 111/111/111 62/62/62
f 62/62/62 111/111/111 63/63/63
f 111/111/111 112/112/112 63/63/63
f 63/63/63 112/112/112 64/64/64
f 112/112/112 113/113/113 64/64/64
f 64/64/64 113/113/113 65/65/65
f 113/113/113 114/114/114 65/65/65
f 65/65/65 114/114/114 66/66/66
f 114/114/114 115/115/115 66/66/66
f 66/66/66 115/115/115 67/67/67
f 115/115/115 116/116/116 67/67/67
f 67/67/67 116/116/116 68/68/68
f 116/116/116 117/117/117 68/68/68
f 68/68/68 117/117/117 69/69/69
f 117/117/117 118/118/118 69/69/69
f 69/69/69 118/118/118 70/70/70
f 118/118/118 119/119/119 70/70/70
f 70/70/70 119/119/119 71/71/71
f 119/119/119 120/120/120 71/71/71
f 71/71/71 120/120/120 72/72/72
f 120/120/120 121/121/121 72/72/72
f 72/72/72 121/121/121 73/73/73
f 121/121/121 122/122/122 73/73/73
f 73/73/73 122/122/122 74/74/74
f 122/122/122 123/123/123 74/74/74
f 74/74/74 123/123/123 75/75/75
f 123/123/123 124/124/124 75/75/75
f 75/75/75 124/124/124 76/76/76
f 124/124/124 125/125/125 76/76/76
f 76/76/76 125/125/125 77/77/77
f 125/125/125 126/126/126 77/77/77
f 77/77/77 126/126/126 78/78/78
f 126/126/126 127/127/127 78/78/78
f 78/78/78 127/127/127 79/79/79
f 127/127/127 128/128/128 79/79/79
f 79/79/79 128/128/128 80/80/80
f 128/128/128 129/129/129 80/80/80
f 80/80/80 129/129/129 81/81/81
f 129/129/129 130/130/130 81/81/81
f 81/81/81 130/130/130 82/82/82
f 130/130/130 131/131/131 82/82/82
f 82/82/82 131/131/131 83/83/83
f 131/131/131 132/132/132 83/83/83
f 83/83/83 132/132/132 84/84/84
f 132/132/132 133/133/133 84/84/84
f 84/84/84 133/133/133 85/85/85
f 133/133/133 134/134/134 85/85/85
f 85/85/85 134/134/134 86/86/86
f 134/134/134 135/135/135 86/86/86
f 86/86/86 135/135/135 87/87/87
f 135/135/135 136/136/136 87/87/87
f 87/87/87 136/136/136 88/88/88
f 136/136/136 137/137/137 88/88/88
f 88/88/88 137/137/137 89/89/89
f 137/137/137 138/138/138 89/89/89
f 89/89/89 138/138/138 90/90/90
f 138/138/138 139/139/139 90/90/90
f 90/90/90 139/139/139 91/91/91
f 139/139/139 140/140/140 91/91/91
f 91/91/91 140/140/140 92/92/92
f 140/140/140 141/141/141 92/92/92
f 92/92/92 141/141/141 93/93/93
f 141/141/141 142/142/142 93/93/93
f 93/93/93 142/142/142 94/94/94
f 142/142/142 143/143/143 94/94/94
f 94/94/94 143/143/143 95/95/95
f 143/143/143 144/144/144 95/95/95
f 95/95/95 144/144/144 96/96/96
f 144/144/144 145/145/145 96/96/96
f 96/96/96 145/145/145 97/97/97
f 145/145/145 146/146/146 97/97/97
f 97/97/97 146/146/146 98/98/98
f 146/146/146 147/147/147 98/98/98
f 98/98/98 147/147/147 99/99/99
f 147/147/147 148/148/148 99/99/99
f 99/99/99 148/148/148 100/100/100
f 148/148/148 149/149/149 100/100/100
f 100/100/100 149/149/149 101/101/101
f 149/149/149 150/150/150 101/101/101
f 199/199/199 200/200/200 151/151/151
f 200/200/200 201/201/201 152/152/152
f 201/201/201 202/202/202 153/153/153
f 202/202/202 203/203/203 154/154/154
f 203/203/203 204/204/204 155/155/155
f 204/204/204 205/205/205 156/156/156
f 205/205/205 206/206/206 157/157/157
f 206/206/206 207/207/207 158/158/158
f 207/207/207 208/208/208 159/159/159
f 208/208/208 209/209/209 160/160/160
f 209/209/209 210/210/210 161/161/161
f 210/210/210 211/211/211 162/162/162
f 211/211/211 212/212/212 163/163/163
f 212/212/212 213/213/213 164/164/164
f 213/213/213 214/214/214 165/165/165
f 214/214/214 215/215/215 166/166/166
f 215/215/215 216/216/216 167/167/167
f 216/216/216 217/217/217 168/168/168
f 217/217/217 218/218/218 169/169/169
f 218/218/218 219/219/219 170/170/170
f 219/219/219 220/220/220 171/171/171
f 220/220/220 221/221/221 172/172/172
f 221/221/221 222/222/222 173/173/173
f 222/222/222 223/223/223 174/174/174
f 223/223/223 224/224/224 175/175/175
f 224/224/224 225/225/225 176/176/176
f 225/225/225 226/226/226 177/177/177
f 226/226/226 227/227/227 178/178/178
f 227/227/227 228/228/228 179/179/179
f 228/228/228 229/229/229 180/180/180
f 229/229/229 230/230/230 181/181/181
f 230/230/230 231/231/231 182/182/182
f 231/231/231 232/232/232 183/183/183
f 232/232/232 233/233/233 184/184/184
f 233/233/233 234/234/234 185/185/185
f 234/234/234 235/235/235 186/186/186
f 235/235/235 236/236/236 187/187/187
f 236/236/236 237/237/237 188/188/188
f 237/237/237 238/238/238 189/189/189
f 238/238/238 239/239/239 190/190/190
f 239/239/239 240/240/240 191/191/191
f 240/240/240 241/241/241 192/192/192
f 241/241/241 242/242/242 193/193/193
f 242/242/242 243/243/243 194/194/194
f 243/243/243 244/244/244 195/195/195
f 244/244/244 245/245/245 196/196/196
f 245/245/245 246/246/246 197/197/197
f 246/246/246 247/247/247 198/198/198
f 297/297/297 296/296/296 248/248/248
f 298/298/298 297/297/297 249/249/249
f 299/299/299 298/298/298 250/250/250
f 300/300/300 299/299/299 251/251/251
f 301/301/301 300/300/300 252/252/252
f 302/302/302 301/301/301 253/253/253
f 303/303/303 302/302/302 254/254/254
f 304/304/304 303/303/303 255/255/255
f 305/305/305 304/304/304 256/256/256
f 306/306/306 305/305/305 257/257/257
f 307/307/307 306/306/306 258/258/258
f 308/308/308 307/307/307 259/259/259
f 309/309/309 308/308/308 260/260/260
f 310/310/310 309/309/309 261/261/261
f 311/311/311 310/310/310 262/262/262
f 312/312/312 311/311/311 263/263/263
f 313/313/313 312/312/312 264/264/264
f 314/314/314 313/313/313 265/265/265
f 315/315/315 314/314/314 266/266/266
f 316/316/316 315/315/315 267/267/267
f 317/317/317 316/316/316 268/268/268
f 318/318/318 317/317/317 269/269/269
f 319/319/319 318/318/318 270/270/270
f 320/320/320 319/319/319 271/271/271
f 321/321/321 320/320/320 272/272/272
f 322/322/322 321/321/321 273/273/273
f 323/323/323 322/322/322 274/274/274
f 324/324/324 323/323/323 275/275/275
f 325/325/325 324/324/324 276/276/276
f 326/326/326 325/325/325 277/277/277
f 327/327/327 326/326/326 278/278/278
f 328/328/328 327/327/327 279/279/279
f 329/329/329 328/328/328 280/280/280
f 330/330/330 329/329/329 281/281/281
f 331/331/331 330/330/330 282/282/282
f 332/332/332 331/331/331 283/283/283
f 333/333/333 332/332/332 284/284/284
f 334/334/334 333/333/333 285/285/285
f 335/335/335 334/334/334 286/286/286
f 336/336/336 335/335/335 287/287/287
f 337/337/337 336/336/336 288/288/288
f 338/338/338 337/337/337 289/289/289
f 339/339/339 338/338/338 290/290/290
f 340/340/340 339/339/339 291/291/291
f 341/341/341 340/340/340 292/292/292
f 342/342/342 341/341/341 293/293/293
f 343/343/343 342/342/342 294/294/294
f 344/344/344 343/343/343 295/295/295
o wrist_side_cap
usemtl motor_graphite
v 0.542 -0.12250000018626452 -0.0820000022649765
v 0.5527031473889947 -0.12250000018626452 -0.08129847794771194
v 0.5632231613695622 -0.12250000018626452 -0.07920591533184052
v 0.5733800424337387 -0.12250000018626452 -0.07575812190771103
v 0.5830000011324883 -0.12250000018626452 -0.07101408392190933
v 0.5919184355139733 -0.12250000018626452 -0.06505497545003891
v 0.5999827576875687 -0.12250000018626452 -0.057982757687568665
v 0.607054975450039 -0.12250000018626452 -0.049918435513973236
v 0.6130140839219094 -0.12250000018626452 -0.04100000113248825
v 0.6177581219077111 -0.12250000018626452 -0.03138004243373871
v 0.6212059153318406 -0.12250000018626452 -0.02122316136956215
v 0.623298477947712 -0.12250000018626452 -0.010703147388994694
v 0.6240000022649765 -0.12250000018626452 -3.490243513324116e-18
v 0.623298477947712 -0.12250000018626452 0.010703147388994694
v 0.6212059153318406 -0.12250000018626452 0.02122316136956215
v 0.6177581219077111 -0.12250000018626452 0.03138004243373871
v 0.6130140839219094 -0.12250000018626452 0.04100000113248825
v 0.607054975450039 -0.12250000018626452 0.049918435513973236
v 0.5999827576875687 -0.12250000018626452 0.057982757687568665
v 0.5919184355139733 -0.12250000018626452 0.06505497545003891
v 0.5830000011324883 -0.12250000018626452 0.07101408392190933
v 0.5733800424337387 -0.12250000018626452 0.07575812190771103
v 0.5632231613695622 -0.12250000018626452 0.07920591533184052
v 0.5527031473889947 -0.12250000018626452 0.08129847794771194
v 0.542 -0.12250000018626452 0.0820000022649765
v 0.5312968526110053 -0.12250000018626452 0.08129847794771194
v 0.5207768386304379 -0.12250000018626452 0.07920591533184052
v 0.5106199575662613 -0.12250000018626452 0.07575812190771103
v 0.5009999988675118 -0.12250000018626452 0.07101408392190933
v 0.4920815644860268 -0.12250000018626452 0.06505497545003891
v 0.4840172423124314 -0.12250000018626452 0.057982757687568665
v 0.4769450245499611 -0.12250000018626452 0.049918435513973236
v 0.4709859160780907 -0.12250000018626452 0.04100000113248825
v 0.466241878092289 -0.12250000018626452 0.03138004243373871
v 0.4627940846681595 -0.12250000018626452 0.02122316136956215
v 0.4607015220522881 -0.12250000018626452 0.010703147388994694
v 0.45999999773502354 -0.12250000018626452 1.6593962734946656e-17
v 0.4607015220522881 -0.12250000018626452 -0.010703147388994694
v 0.4627940846681595 -0.12250000018626452 -0.02122316136956215
v 0.466241878092289 -0.12250000018626452 -0.03138004243373871
v 0.4709859160780907 -0.12250000018626452 -0.04100000113248825
v 0.4769450245499611 -0.12250000018626452 -0.049918435513973236
v 0.4840172423124314 -0.12250000018626452 -0.057982757687568665
v 0.4920815644860268 -0.12250000018626452 -0.06505497545003891
v 0.5009999988675118 -0.12250000018626452 -0.07101408392190933
v 0.5106199575662613 -0.12250000018626452 -0.07575812190771103
v 0.5207768386304379 -0.12250000018626452 -0.07920591533184052
v 0.5312968526110053 -0.12250000018626452 -0.08129847794771194
v 0.542 -0.12250000018626452 -0.0820000022649765
v 0.542 -0.09749999981373549 -0.0820000022649765
v 0.5527031473889947 -0.09749999981373549 -0.08129847794771194
v 0.5632231613695622 -0.09749999981373549 -0.07920591533184052
v 0.5733800424337387 -0.09749999981373549 -0.07575812190771103
v 0.5830000011324883 -0.09749999981373549 -0.07101408392190933
v 0.5919184355139733 -0.09749999981373549 -0.06505497545003891
v 0.5999827576875687 -0.09749999981373549 -0.057982757687568665
v 0.607054975450039 -0.09749999981373549 -0.049918435513973236
v 0.6130140839219094 -0.09749999981373549 -0.04100000113248825
v 0.6177581219077111 -0.09749999981373549 -0.03138004243373871
v 0.6212059153318406 -0.09749999981373549 -0.02122316136956215
v 0.623298477947712 -0.09749999981373549 -0.010703147388994694
v 0.6240000022649765 -0.09749999981373549 -6.551860644787036e-18
v 0.623298477947712 -0.09749999981373549 0.010703147388994694
v 0.6212059153318406 -0.09749999981373549 0.02122316136956215
v 0.6177581219077111 -0.09749999981373549 0.03138004243373871
v 0.6130140839219094 -0.09749999981373549 0.04100000113248825
v 0.607054975450039 -0.09749999981373549 0.049918435513973236
v 0.5999827576875687 -0.09749999981373549 0.057982757687568665
v 0.5919184355139733 -0.09749999981373549 0.06505497545003891
v 0.5830000011324883 -0.09749999981373549 0.07101408392190933
v 0.5733800424337387 -0.09749999981373549 0.07575812190771103
v 0.5632231613695622 -0.09749999981373549 0.07920591533184052
v 0.5527031473889947 -0.09749999981373549 0.08129847794771194
v 0.542 -0.09749999981373549 0.0820000022649765
v 0.5312968526110053 -0.09749999981373549 0.08129847794771194
v 0.5207768386304379 -0.09749999981373549 0.07920591533184052
v 0.5106199575662613 -0.09749999981373549 0.07575812190771103
v 0.5009999988675118 -0.09749999981373549 0.07101408392190933
v 0.4920815644860268 -0.09749999981373549 0.06505497545003891
v 0.4840172423124314 -0.09749999981373549 0.057982757687568665
v 0.4769450245499611 -0.09749999981373549 0.049918435513973236
v 0.4709859160780907 -0.09749999981373549 0.04100000113248825
v 0.466241878092289 -0.09749999981373549 0.03138004243373871
v 0.4627940846681595 -0.09749999981373549 0.02122316136956215
v 0.4607015220522881 -0.09749999981373549 0.010703147388994694
v 0.45999999773502354 -0.09749999981373549 1.3532348085025574e-17
v 0.4607015220522881 -0.09749999981373549 -0.010703147388994694
v 0.4627940846681595 -0.09749999981373549 -0.02122316136956215
v 0.466241878092289 -0.09749999981373549 -0.03138004243373871
v 0.4709859160780907 -0.09749999981373549 -0.04100000113248825
v 0.4769450245499611 -0.09749999981373549 -0.049918435513973236
v 0.4840172423124314 -0.09749999981373549 -0.057982757687568665
v 0.4920815644860268 -0.09749999981373549 -0.06505497545003891
v 0.5009999988675118 -0.09749999981373549 -0.07101408392190933
v 0.5106199575662613 -0.09749999981373549 -0.07575812190771103
v 0.5207768386304379 -0.09749999981373549 -0.07920591533184052
v 0.5312968526110053 -0.09749999981373549 -0.08129847794771194
v 0.542 -0.09749999981373549 -0.0820000022649765
v 0.542 -0.12250000018626452 1.5308085657314598e-18
v 0.542 -0.12250000018626452 1.5308085657314598e-18
v 0.542 -0.12250000018626452 1.5308085657314598e-18
v 0.542 -0.12250000018626452 1.5308085657314598e-18
v 0.542 -0.12250000018626452 1.5308085657314598e-18
v 0.542 -0.12250000018626452 1.5308085657314598e-18
v 0.542 -0.12250000018626452 1.5308085657314598e-18
v 0.542 -0.12250000018626452 1.5308085657314598e-18
v 0.542 -0.12250000018626452 1.5308085657314598e-18
v 0.542 -0.12250000018626452 1.5308085657314598e-18
v 0.542 -0.12250000018626452 1.5308085657314598e-18
v 0.542 -0.12250000018626452 1.5308085657314598e-18
v 0.542 -0.12250000018626452 1.5308085657314598e-18
v 0.542 -0.12250000018626452 1.5308085657314598e-18
v 0.542 -0.12250000018626452 1.5308085657314598e-18
v 0.542 -0.12250000018626452 1.5308085657314598e-18
v 0.542 -0.12250000018626452 1.5308085657314598e-18
v 0.542 -0.12250000018626452 1.5308085657314598e-18
v 0.542 -0.12250000018626452 1.5308085657314598e-18
v 0.542 -0.12250000018626452 1.5308085657314598e-18
v 0.542 -0.12250000018626452 1.5308085657314598e-18
v 0.542 -0.12250000018626452 1.5308085657314598e-18
v 0.542 -0.12250000018626452 1.5308085657314598e-18
v 0.542 -0.12250000018626452 1.5308085657314598e-18
v 0.542 -0.12250000018626452 1.5308085657314598e-18
v 0.542 -0.12250000018626452 1.5308085657314598e-18
v 0.542 -0.12250000018626452 1.5308085657314598e-18
v 0.542 -0.12250000018626452 1.5308085657314598e-18
v 0.542 -0.12250000018626452 1.5308085657314598e-18
v 0.542 -0.12250000018626452 1.5308085657314598e-18
v 0.542 -0.12250000018626452 1.5308085657314598e-18
v 0.542 -0.12250000018626452 1.5308085657314598e-18
v 0.542 -0.12250000018626452 1.5308085657314598e-18
v 0.542 -0.12250000018626452 1.5308085657314598e-18
v 0.542 -0.12250000018626452 1.5308085657314598e-18
v 0.542 -0.12250000018626452 1.5308085657314598e-18
v 0.542 -0.12250000018626452 1.5308085657314598e-18
v 0.542 -0.12250000018626452 1.5308085657314598e-18
v 0.542 -0.12250000018626452 1.5308085657314598e-18
v 0.542 -0.12250000018626452 1.5308085657314598e-18
v 0.542 -0.12250000018626452 1.5308085657314598e-18
v 0.542 -0.12250000018626452 1.5308085657314598e-18
v 0.542 -0.12250000018626452 1.5308085657314598e-18
v 0.542 -0.12250000018626452 1.5308085657314598e-18
v 0.542 -0.12250000018626452 1.5308085657314598e-18
v 0.542 -0.12250000018626452 1.5308085657314598e-18
v 0.542 -0.12250000018626452 1.5308085657314598e-18
v 0.542 -0.12250000018626452 1.5308085657314598e-18
v 0.542 -0.12250000018626452 -0.0820000022649765
v 0.5527031473889947 -0.12250000018626452 -0.08129847794771194
v 0.5632231613695622 -0.12250000018626452 -0.07920591533184052
v 0.5733800424337387 -0.12250000018626452 -0.07575812190771103
v 0.5830000011324883 -0.12250000018626452 -0.07101408392190933
v 0.5919184355139733 -0.12250000018626452 -0.06505497545003891
v 0.5999827576875687 -0.12250000018626452 -0.057982757687568665
v 0.607054975450039 -0.12250000018626452 -0.049918435513973236
v 0.6130140839219094 -0.12250000018626452 -0.04100000113248825
v 0.6177581219077111 -0.12250000018626452 -0.03138004243373871
v 0.6212059153318406 -0.12250000018626452 -0.02122316136956215
v 0.623298477947712 -0.12250000018626452 -0.010703147388994694
v 0.6240000022649765 -0.12250000018626452 -3.490243513324116e-18
v 0.623298477947712 -0.12250000018626452 0.010703147388994694
v 0.6212059153318406 -0.12250000018626452 0.02122316136956215
v 0.6177581219077111 -0.12250000018626452 0.03138004243373871
v 0.6130140839219094 -0.12250000018626452 0.04100000113248825
v 0.607054975450039 -0.12250000018626452 0.049918435513973236
v 0.5999827576875687 -0.12250000018626452 0.057982757687568665
v 0.5919184355139733 -0.12250000018626452 0.06505497545003891
v 0.5830000011324883 -0.12250000018626452 0.07101408392190933
v 0.5733800424337387 -0.12250000018626452 0.07575812190771103
v 0.5632231613695622 -0.12250000018626452 0.07920591533184052
v 0.5527031473889947 -0.12250000018626452 0.08129847794771194
v 0.542 -0.12250000018626452 0.0820000022649765
v 0.5312968526110053 -0.12250000018626452 0.08129847794771194
v 0.5207768386304379 -0.12250000018626452 0.07920591533184052
v 0.5106199575662613 -0.12250000018626452 0.07575812190771103
v 0.5009999988675118 -0.12250000018626452 0.07101408392190933
v 0.4920815644860268 -0.12250000018626452 0.06505497545003891
v 0.4840172423124314 -0.12250000018626452 0.057982757687568665
v 0.4769450245499611 -0.12250000018626452 0.049918435513973236
v 0.4709859160780907 -0.12250000018626452 0.04100000113248825
v 0.466241878092289 -0.12250000018626452 0.03138004243373871
v 0.4627940846681595 -0.12250000018626452 0.02122316136956215
v 0.4607015220522881 -0.12250000018626452 0.010703147388994694
v 0.45999999773502354 -0.12250000018626452 1.6593962734946656e-17
v 0.4607015220522881 -0.12250000018626452 -0.010703147388994694
v 0.4627940846681595 -0.12250000018626452 -0.02122316136956215
v 0.466241878092289 -0.12250000018626452 -0.03138004243373871
v 0.4709859160780907 -0.12250000018626452 -0.04100000113248825
v 0.4769450245499611 -0.12250000018626452 -0.049918435513973236
v 0.4840172423124314 -0.12250000018626452 -0.057982757687568665
v 0.4920815644860268 -0.12250000018626452 -0.06505497545003891
v 0.5009999988675118 -0.12250000018626452 -0.07101408392190933
v 0.5106199575662613 -0.12250000018626452 -0.07575812190771103
v 0.5207768386304379 -0.12250000018626452 -0.07920591533184052
v 0.5312968526110053 -0.12250000018626452 -0.08129847794771194
v 0.542 -0.12250000018626452 -0.0820000022649765
v 0.542 -0.09749999981373549 -1.5308085657314598e-18
v 0.542 -0.09749999981373549 -1.5308085657314598e-18
v 0.542 -0.09749999981373549 -1.5308085657314598e-18
v 0.542 -0.09749999981373549 -1.5308085657314598e-18
v 0.542 -0.09749999981373549 -1.5308085657314598e-18
v 0.542 -0.09749999981373549 -1.5308085657314598e-18
v 0.542 -0.09749999981373549 -1.5308085657314598e-18
v 0.542 -0.09749999981373549 -1.5308085657314598e-18
v 0.542 -0.09749999981373549 -1.5308085657314598e-18
v 0.542 -0.09749999981373549 -1.5308085657314598e-18
v 0.542 -0.09749999981373549 -1.5308085657314598e-18
v 0.542 -0.09749999981373549 -1.5308085657314598e-18
v 0.542 -0.09749999981373549 -1.5308085657314598e-18
v 0.542 -0.09749999981373549 -1.5308085657314598e-18
v 0.542 -0.09749999981373549 -1.5308085657314598e-18
v 0.542 -0.09749999981373549 -1.5308085657314598e-18
v 0.542 -0.09749999981373549 -1.5308085657314598e-18
v 0.542 -0.09749999981373549 -1.5308085657314598e-18
v 0.542 -0.09749999981373549 -1.5308085657314598e-18
v 0.542 -0.09749999981373549 -1.5308085657314598e-18
v 0.542 -0.09749999981373549 -1.5308085657314598e-18
v 0.542 -0.09749999981373549 -1.5308085657314598e-18
v 0.542 -0.09749999981373549 -1.5308085657314598e-18
v 0.542 -0.09749999981373549 -1.5308085657314598e-18
v 0.542 -0.09749999981373549 -1.5308085657314598e-18
v 0.542 -0.09749999981373549 -1.5308085657314598e-18
v 0.542 -0.09749999981373549 -1.5308085657314598e-18
v 0.542 -0.09749999981373549 -1.5308085657314598e-18
v 0.542 -0.09749999981373549 -1.5308085657314598e-18
v 0.542 -0.09749999981373549 -1.5308085657314598e-18
v 0.542 -0.09749999981373549 -1.5308085657314598e-18
v 0.542 -0.09749999981373549 -1.5308085657314598e-18
v 0.542 -0.09749999981373549 -1.5308085657314598e-18
v 0.542 -0.09749999981373549 -1.5308085657314598e-18
v 0.542 -0.09749999981373549 -1.5308085657314598e-18
v 0.542 -0.09749999981373549 -1.5308085657314598e-18
v 0.542 -0.09749999981373549 -1.5308085657314598e-18
v 0.542 -0.09749999981373549 -1.5308085657314598e-18
v 0.542 -0.09749999981373549 -1.5308085657314598e-18
v 0.542 -0.09749999981373549 -1.5308085657314598e-18
v 0.542 -0.09749999981373549 -1.5308085657314598e-18
v 0.542 -0.09749999981373549 -1.5308085657314598e-18
v 0.542 -0.09749999981373549 -1.5308085657314598e-18
v 0.542 -0.09749999981373549 -1.5308085657314598e-18
v 0.542 -0.09749999981373549 -1.5308085657314598e-18
v 0.542 -0.09749999981373549 -1.5308085657314598e-18
v 0.542 -0.09749999981373549 -1.5308085657314598e-18
v 0.542 -0.09749999981373549 -1.5308085657314598e-18
v 0.542 -0.09749999981373549 -0.0820000022649765
v 0.5527031473889947 -0.09749999981373549 -0.08129847794771194
v 0.5632231613695622 -0.09749999981373549 -0.07920591533184052
v 0.5733800424337387 -0.09749999981373549 -0.07575812190771103
v 0.5830000011324883 -0.09749999981373549 -0.07101408392190933
v 0.5919184355139733 -0.09749999981373549 -0.06505497545003891
v 0.5999827576875687 -0.09749999981373549 -0.057982757687568665
v 0.607054975450039 -0.09749999981373549 -0.049918435513973236
v 0.6130140839219094 -0.09749999981373549 -0.04100000113248825
v 0.6177581219077111 -0.09749999981373549 -0.03138004243373871
v 0.6212059153318406 -0.09749999981373549 -0.02122316136956215
v 0.623298477947712 -0.09749999981373549 -0.010703147388994694
v 0.6240000022649765 -0.09749999981373549 -6.551860644787036e-18
v 0.623298477947712 -0.09749999981373549 0.010703147388994694
v 0.6212059153318406 -0.09749999981373549 0.02122316136956215
v 0.6177581219077111 -0.09749999981373549 0.03138004243373871
v 0.6130140839219094 -0.09749999981373549 0.04100000113248825
v 0.607054975450039 -0.09749999981373549 0.049918435513973236
v 0.5999827576875687 -0.09749999981373549 0.057982757687568665
v 0.5919184355139733 -0.09749999981373549 0.06505497545003891
v 0.5830000011324883 -0.09749999981373549 0.07101408392190933
v 0.5733800424337387 -0.09749999981373549 0.07575812190771103
v 0.5632231613695622 -0.09749999981373549 0.07920591533184052
v 0.5527031473889947 -0.09749999981373549 0.08129847794771194
v 0.542 -0.09749999981373549 0.0820000022649765
v 0.5312968526110053 -0.09749999981373549 0.08129847794771194
v 0.5207768386304379 -0.09749999981373549 0.07920591533184052
v 0.5106199575662613 -0.09749999981373549 0.07575812190771103
v 0.5009999988675118 -0.09749999981373549 0.07101408392190933
v 0.4920815644860268 -0.09749999981373549 0.06505497545003891
v 0.4840172423124314 -0.09749999981373549 0.057982757687568665
v 0.4769450245499611 -0.09749999981373549 0.049918435513973236
v 0.4709859160780907 -0.09749999981373549 0.04100000113248825
v 0.466241878092289 -0.09749999981373549 0.03138004243373871
v 0.4627940846681595 -0.09749999981373549 0.02122316136956215
v 0.4607015220522881 -0.09749999981373549 0.010703147388994694
v 0.45999999773502354 -0.09749999981373549 1.3532348085025574e-17
v 0.4607015220522881 -0.09749999981373549 -0.010703147388994694
v 0.4627940846681595 -0.09749999981373549 -0.02122316136956215
v 0.466241878092289 -0.09749999981373549 -0.03138004243373871
v 0.4709859160780907 -0.09749999981373549 -0.04100000113248825
v 0.4769450245499611 -0.09749999981373549 -0.049918435513973236
v 0.4840172423124314 -0.09749999981373549 -0.057982757687568665
v 0.4920815644860268 -0.09749999981373549 -0.06505497545003891
v 0.5009999988675118 -0.09749999981373549 -0.07101408392190933
v 0.5106199575662613 -0.09749999981373549 -0.07575812190771103
v 0.5207768386304379 -0.09749999981373549 -0.07920591533184052
v 0.5312968526110053 -0.09749999981373549 -0.08129847794771194
v 0.542 -0.09749999981373549 -0.0820000022649765
vt 0 1
vt 0.02083333395421505 1
vt 0.0416666679084301 1
vt 0.0625 1
vt 0.0833333358168602 1
vt 0.1041666641831398 1
vt 0.125 1
vt 0.1458333283662796 1
vt 0.1666666716337204 1
vt 0.1875 1
vt 0.2083333283662796 1
vt 0.2291666716337204 1
vt 0.25 1
vt 0.2708333432674408 1
vt 0.2916666567325592 1
vt 0.3125 1
vt 0.3333333432674408 1
vt 0.3541666567325592 1
vt 0.375 1
vt 0.3958333432674408 1
vt 0.4166666567325592 1
vt 0.4375 1
vt 0.4583333432674408 1
vt 0.4791666567325592 1
vt 0.5 1
vt 0.5208333134651184 1
vt 0.5416666865348816 1
vt 0.5625 1
vt 0.5833333134651184 1
vt 0.6041666865348816 1
vt 0.625 1
vt 0.6458333134651184 1
vt 0.6666666865348816 1
vt 0.6875 1
vt 0.7083333134651184 1
vt 0.7291666865348816 1
vt 0.75 1
vt 0.7708333134651184 1
vt 0.7916666865348816 1
vt 0.8125 1
vt 0.8333333134651184 1
vt 0.8541666865348816 1
vt 0.875 1
vt 0.8958333134651184 1
vt 0.9166666865348816 1
vt 0.9375 1
vt 0.9583333134651184 1
vt 0.9791666865348816 1
vt 1 1
vt 0 0
vt 0.02083333395421505 0
vt 0.0416666679084301 0
vt 0.0625 0
vt 0.0833333358168602 0
vt 0.1041666641831398 0
vt 0.125 0
vt 0.1458333283662796 0
vt 0.1666666716337204 0
vt 0.1875 0
vt 0.2083333283662796 0
vt 0.2291666716337204 0
vt 0.25 0
vt 0.2708333432674408 0
vt 0.2916666567325592 0
vt 0.3125 0
vt 0.3333333432674408 0
vt 0.3541666567325592 0
vt 0.375 0
vt 0.3958333432674408 0
vt 0.4166666567325592 0
vt 0.4375 0
vt 0.4583333432674408 0
vt 0.4791666567325592 0
vt 0.5 0
vt 0.5208333134651184 0
vt 0.5416666865348816 0
vt 0.5625 0
vt 0.5833333134651184 0
vt 0.6041666865348816 0
vt 0.625 0
vt 0.6458333134651184 0
vt 0.6666666865348816 0
vt 0.6875 0
vt 0.7083333134651184 0
vt 0.7291666865348816 0
vt 0.75 0
vt 0.7708333134651184 0
vt 0.7916666865348816 0
vt 0.8125 0
vt 0.8333333134651184 0
vt 0.8541666865348816 0
vt 0.875 0
vt 0.8958333134651184 0
vt 0.9166666865348816 0
vt 0.9375 0
vt 0.9583333134651184 0
vt 0.9791666865348816 0
vt 1 0
vt 0.5 0.5
vt 0.5 0.5
vt 0.5 0.5
vt 0.5 0.5
vt 0.5 0.5
vt 0.5 0.5
vt 0.5 0.5
vt 0.5 0.5
vt 0.5 0.5
vt 0.5 0.5
vt 0.5 0.5
vt 0.5 0.5
vt 0.5 0.5
vt 0.5 0.5
vt 0.5 0.5
vt 0.5 0.5
vt 0.5 0.5
vt 0.5 0.5
vt 0.5 0.5
vt 0.5 0.5
vt 0.5 0.5
vt 0.5 0.5
vt 0.5 0.5
vt 0.5 0.5
vt 0.5 0.5
vt 0.5 0.5
vt 0.5 0.5
vt 0.5 0.5
vt 0.5 0.5
vt 0.5 0.5
vt 0.5 0.5
vt 0.5 0.5
vt 0.5 0.5
vt 0.5 0.5
vt 0.5 0.5
vt 0.5 0.5
vt 0.5 0.5
vt 0.5 0.5
vt 0.5 0.5
vt 0.5 0.5
vt 0.5 0.5
vt 0.5 0.5
vt 0.5 0.5
vt 0.5 0.5
vt 0.5 0.5
vt 0.5 0.5
vt 0.5 0.5
vt 0.5 0.5
vt 1 0.5
vt 0.9957224130630493 0.5652630925178528
vt 0.9829629063606262 0.6294095516204834
vt 0.9619397521018982 0.6913416981697083
vt 0.9330127239227295 0.75
vt 0.8966766595840454 0.8043807148933411
vt 0.8535534143447876 0.8535534143447876
vt 0.8043807148933411 0.8966766595840454
vt 0.75 0.9330127239227295
vt 0.6913416981697083 0.9619397521018982
vt 0.6294095516204834 0.9829629063606262
vt 0.5652630925178528 0.9957224130630493
vt 0.5 1
vt 0.4347369074821472 0.9957224130630493
vt 0.370590478181839 0.9829629063606262
vt 0.30865827202796936 0.9619397521018982
vt 0.25 0.9330127239227295
vt 0.19561928510665894 0.8966766595840454
vt 0.1464466154575348 0.8535534143447876
vt 0.10332333296537399 0.8043807148933411
vt 0.0669872984290123 0.75
vt 0.03806023299694061 0.6913416981697083
vt 0.017037086188793182 0.6294095516204834
vt 0.004277569241821766 0.5652630925178528
vt 0 0.5
vt 0.004277569241821766 0.4347369074821472
vt 0.017037086188793182 0.370590478181839
vt 0.03806023299694061 0.30865827202796936
vt 0.0669872984290123 0.25
vt 0.10332333296537399 0.19561928510665894
vt 0.1464466154575348 0.1464466154575348
vt 0.19561928510665894 0.10332333296537399
vt 0.25 0.0669872984290123
vt 0.30865827202796936 0.03806023299694061
vt 0.370590478181839 0.017037086188793182
vt 0.4347369074821472 0.004277569241821766
vt 0.5 0
vt 0.5652630925178528 0.004277569241821766
vt 0.6294095516204834 0.017037086188793182
vt 0.6913416981697083 0.03806023299694061
vt 0.75 0.0669872984290123
vt 0.8043807148933411 0.10332333296537399
vt 0.8535534143447876 0.1464466154575348
vt 0.8966766595840454 0.19561928510665894
vt 0.9330127239227295 0.25
vt 0.9619397521018982 0.30865827202796936
vt 0.9829629063606262 0.370590478181839
vt 0.9957224130630493 0.4347369074821472
vt 1 0.5
vt 0.5 0.5
vt 0.5 0.5
vt 0.5 0.5
vt 0.5 0.5
vt 0.5 0.5
vt 0.5 0.5
vt 0.5 0.5
vt 0.5 0.5
vt 0.5 0.5
vt 0.5 0.5
vt 0.5 0.5
vt 0.5 0.5
vt 0.5 0.5
vt 0.5 0.5
vt 0.5 0.5
vt 0.5 0.5
vt 0.5 0.5
vt 0.5 0.5
vt 0.5 0.5
vt 0.5 0.5
vt 0.5 0.5
vt 0.5 0.5
vt 0.5 0.5
vt 0.5 0.5
vt 0.5 0.5
vt 0.5 0.5
vt 0.5 0.5
vt 0.5 0.5
vt 0.5 0.5
vt 0.5 0.5
vt 0.5 0.5
vt 0.5 0.5
vt 0.5 0.5
vt 0.5 0.5
vt 0.5 0.5
vt 0.5 0.5
vt 0.5 0.5
vt 0.5 0.5
vt 0.5 0.5
vt 0.5 0.5
vt 0.5 0.5
vt 0.5 0.5
vt 0.5 0.5
vt 0.5 0.5
vt 0.5 0.5
vt 0.5 0.5
vt 0.5 0.5
vt 0.5 0.5
vt 1 0.5
vt 0.9957224130630493 0.4347369074821472
vt 0.9829629063606262 0.370590478181839
vt 0.9619397521018982 0.30865827202796936
vt 0.9330127239227295 0.25
vt 0.8966766595840454 0.19561928510665894
vt 0.8535534143447876 0.1464466154575348
vt 0.8043807148933411 0.10332333296537399
vt 0.75 0.0669872984290123
vt 0.6913416981697083 0.03806023299694061
vt 0.6294095516204834 0.017037086188793182
vt 0.5652630925178528 0.004277569241821766
vt 0.5 0
vt 0.4347369074821472 0.004277569241821766
vt 0.370590478181839 0.017037086188793182
vt 0.30865827202796936 0.03806023299694061
vt 0.25 0.0669872984290123
vt 0.19561928510665894 0.10332333296537399
vt 0.1464466154575348 0.1464466154575348
vt 0.10332333296537399 0.19561928510665894
vt 0.0669872984290123 0.25
vt 0.03806023299694061 0.30865827202796936
vt 0.017037086188793182 0.370590478181839
vt 0.004277569241821766 0.4347369074821472
vt 0 0.5
vt 0.004277569241821766 0.5652630925178528
vt 0.017037086188793182 0.6294095516204834
vt 0.03806023299694061 0.6913416981697083
vt 0.0669872984290123 0.75
vt 0.10332333296537399 0.8043807148933411
vt 0.1464466154575348 0.8535534143447876
vt 0.19561928510665894 0.8966766595840454
vt 0.25 0.9330127239227295
vt 0.30865827202796936 0.9619397521018982
vt 0.370590478181839 0.9829629063606262
vt 0.4347369074821472 0.9957224130630493
vt 0.5 1
vt 0.5652630925178528 0.9957224130630493
vt 0.6294095516204834 0.9829629063606262
vt 0.6913416981697083 0.9619397521018982
vt 0.75 0.9330127239227295
vt 0.8043807148933411 0.8966766595840454
vt 0.8535534143447876 0.8535534143447876
vt 0.8966766595840454 0.8043807148933411
vt 0.9330127239227295 0.75
vt 0.9619397521018982 0.6913416981697083
vt 0.9829629063606262 0.6294095516204834
vt 0.9957224130630493 0.5652630925178528
vt 1 0.5
vn 0 -1.2246468525851679e-16 -1
vn 0.13052618200608704 -1.2141696885902594e-16 -0.9914448627185043
vn 0.2588190471264927 -1.1829179227392118e-16 -0.9659258257467466
vn 0.3826834370613369 -1.131426144463939e-16 -0.9238795305660377
vn 0.5000000067305869 -1.0605752614896174e-16 -0.8660253998985324
vn 0.6087614397000725 -9.71577643615598e-17 -0.7933533320874723
vn 0.7071067811865476 -8.659560751628624e-17 -0.7071067811865476
vn 0.7933533320874723 -7.455177812019489e-17 -0.6087614397000725
vn 0.8660253998985324 -6.12323434535176e-17 -0.5000000067305869
vn 0.9238795305660377 -4.686520603449003e-17 -0.3826834370613369
vn 0.9659258257467466 -3.1696191689360264e-17 -0.2588190471264927
vn 0.9914448627185043 -1.5984846413176062e-17 -0.13052618200608704
vn 1 -7.49879952078994e-33 -6.123234262925839e-17
vn 0.9914448627185043 1.5984846413176062e-17 0.13052618200608704
vn 0.9659258257467466 3.1696191689360264e-17 0.2588190471264927
vn 0.9238795305660377 4.686520603449003e-17 0.3826834370613369
vn 0.8660253998985324 6.12323434535176e-17 0.5000000067305869
vn 0.7933533320874723 7.455177812019489e-17 0.6087614397000725
vn 0.7071067811865476 8.659560751628624e-17 0.7071067811865476
vn 0.6087614397000725 9.71577643615598e-17 0.7933533320874723
vn 0.5000000067305869 1.0605752614896174e-16 0.8660253998985324
vn 0.3826834370613369 1.131426144463939e-16 0.9238795305660377
vn 0.2588190471264927 1.1829179227392118e-16 0.9659258257467466
vn 0.13052618200608704 1.2141696885902594e-16 0.9914448627185043
vn 1.2246468525851679e-16 1.2246468525851679e-16 1
vn -0.13052618200608704 1.2141696885902594e-16 0.9914448627185043
vn -0.2588190471264927 1.1829179227392118e-16 0.9659258257467466
vn -0.3826834370613369 1.131426144463939e-16 0.9238795305660377
vn -0.5000000067305869 1.0605752614896174e-16 0.8660253998985324
vn -0.6087614397000725 9.71577643615598e-17 0.7933533320874723
vn -0.7071067811865476 8.659560751628624e-17 0.7071067811865476
vn -0.7933533320874723 7.455177812019489e-17 0.6087614397000725
vn -0.8660253998985324 6.12323434535176e-17 0.5000000067305869
vn -0.9238795305660377 4.686520603449003e-17 0.3826834370613369
vn -0.9659258257467466 3.1696191689360264e-17 0.2588190471264927
vn -0.9914448627185043 1.5984846413176062e-17 0.13052618200608704
vn -1 2.2496396358317913e-32 1.8369701465288538e-16
vn -0.9914448627185043 -1.5984846413176062e-17 -0.13052618200608704
vn -0.9659258257467466 -3.1696191689360264e-17 -0.2588190471264927
vn -0.9238795305660377 -4.686520603449003e-17 -0.3826834370613369
vn -0.8660253998985324 -6.12323434535176e-17 -0.5000000067305869
vn -0.7933533320874723 -7.455177812019489e-17 -0.6087614397000725
vn -0.7071067811865476 -8.659560751628624e-17 -0.7071067811865476
vn -0.6087614397000725 -9.71577643615598e-17 -0.7933533320874723
vn -0.5000000067305869 -1.0605752614896174e-16 -0.8660253998985324
vn -0.3826834370613369 -1.131426144463939e-16 -0.9238795305660377
vn -0.2588190471264927 -1.1829179227392118e-16 -0.9659258257467466
vn -0.13052618200608704 -1.2141696885902594e-16 -0.9914448627185043
vn -2.4492937051703357e-16 -1.2246468525851679e-16 -1
vn 0 -1.2246468525851679e-16 -1
vn 0.13052618200608704 -1.2141696885902594e-16 -0.9914448627185043
vn 0.2588190471264927 -1.1829179227392118e-16 -0.9659258257467466
vn 0.3826834370613369 -1.131426144463939e-16 -0.9238795305660377
vn 0.5000000067305869 -1.0605752614896174e-16 -0.8660253998985324
vn 0.6087614397000725 -9.71577643615598e-17 -0.7933533320874723
vn 0.7071067811865476 -8.659560751628624e-17 -0.7071067811865476
vn 0.7933533320874723 -7.455177812019489e-17 -0.6087614397000725
vn 0.8660253998985324 -6.12323434535176e-17 -0.5000000067305869
vn 0.9238795305660377 -4.686520603449003e-17 -0.3826834370613369
vn 0.9659258257467466 -3.1696191689360264e-17 -0.2588190471264927
vn 0.9914448627185043 -1.5984846413176062e-17 -0.13052618200608704
vn 1 -7.49879952078994e-33 -6.123234262925839e-17
vn 0.9914448627185043 1.5984846413176062e-17 0.13052618200608704
vn 0.9659258257467466 3.1696191689360264e-17 0.2588190471264927
vn 0.9238795305660377 4.686520603449003e-17 0.3826834370613369
vn 0.8660253998985324 6.12323434535176e-17 0.5000000067305869
vn 0.7933533320874723 7.455177812019489e-17 0.6087614397000725
vn 0.7071067811865476 8.659560751628624e-17 0.7071067811865476
vn 0.6087614397000725 9.71577643615598e-17 0.7933533320874723
vn 0.5000000067305869 1.0605752614896174e-16 0.8660253998985324
vn 0.3826834370613369 1.131426144463939e-16 0.9238795305660377
vn 0.2588190471264927 1.1829179227392118e-16 0.9659258257467466
vn 0.13052618200608704 1.2141696885902594e-16 0.9914448627185043
vn 1.2246468525851679e-16 1.2246468525851679e-16 1
vn -0.13052618200608704 1.2141696885902594e-16 0.9914448627185043
vn -0.2588190471264927 1.1829179227392118e-16 0.9659258257467466
vn -0.3826834370613369 1.131426144463939e-16 0.9238795305660377
vn -0.5000000067305869 1.0605752614896174e-16 0.8660253998985324
vn -0.6087614397000725 9.71577643615598e-17 0.7933533320874723
vn -0.7071067811865476 8.659560751628624e-17 0.7071067811865476
vn -0.7933533320874723 7.455177812019489e-17 0.6087614397000725
vn -0.8660253998985324 6.12323434535176e-17 0.5000000067305869
vn -0.9238795305660377 4.686520603449003e-17 0.3826834370613369
vn -0.9659258257467466 3.1696191689360264e-17 0.2588190471264927
vn -0.9914448627185043 1.5984846413176062e-17 0.13052618200608704
vn -1 2.2496396358317913e-32 1.8369701465288538e-16
vn -0.9914448627185043 -1.5984846413176062e-17 -0.13052618200608704
vn -0.9659258257467466 -3.1696191689360264e-17 -0.2588190471264927
vn -0.9238795305660377 -4.686520603449003e-17 -0.3826834370613369
vn -0.8660253998985324 -6.12323434535176e-17 -0.5000000067305869
vn -0.7933533320874723 -7.455177812019489e-17 -0.6087614397000725
vn -0.7071067811865476 -8.659560751628624e-17 -0.7071067811865476
vn -0.6087614397000725 -9.71577643615598e-17 -0.7933533320874723
vn -0.5000000067305869 -1.0605752614896174e-16 -0.8660253998985324
vn -0.3826834370613369 -1.131426144463939e-16 -0.9238795305660377
vn -0.2588190471264927 -1.1829179227392118e-16 -0.9659258257467466
vn -0.13052618200608704 -1.2141696885902594e-16 -0.9914448627185043
vn -2.4492937051703357e-16 -1.2246468525851679e-16 -1
vn 0 -1 1.2246468525851679e-16
vn 0 -1 1.2246468525851679e-16
vn 0 -1 1.2246468525851679e-16
vn 0 -1 1.2246468525851679e-16
vn 0 -1 1.2246468525851679e-16
vn 0 -1 1.2246468525851679e-16
vn 0 -1 1.2246468525851679e-16
vn 0 -1 1.2246468525851679e-16
vn 0 -1 1.2246468525851679e-16
vn 0 -1 1.2246468525851679e-16
vn 0 -1 1.2246468525851679e-16
vn 0 -1 1.2246468525851679e-16
vn 0 -1 1.2246468525851679e-16
vn 0 -1 1.2246468525851679e-16
vn 0 -1 1.2246468525851679e-16
vn 0 -1 1.2246468525851679e-16
vn 0 -1 1.2246468525851679e-16
vn 0 -1 1.2246468525851679e-16
vn 0 -1 1.2246468525851679e-16
vn 0 -1 1.2246468525851679e-16
vn 0 -1 1.2246468525851679e-16
vn 0 -1 1.2246468525851679e-16
vn 0 -1 1.2246468525851679e-16
vn 0 -1 1.2246468525851679e-16
vn 0 -1 1.2246468525851679e-16
vn 0 -1 1.2246468525851679e-16
vn 0 -1 1.2246468525851679e-16
vn 0 -1 1.2246468525851679e-16
vn 0 -1 1.2246468525851679e-16
vn 0 -1 1.2246468525851679e-16
vn 0 -1 1.2246468525851679e-16
vn 0 -1 1.2246468525851679e-16
vn 0 -1 1.2246468525851679e-16
vn 0 -1 1.2246468525851679e-16
vn 0 -1 1.2246468525851679e-16
vn 0 -1 1.2246468525851679e-16
vn 0 -1 1.2246468525851679e-16
vn 0 -1 1.2246468525851679e-16
vn 0 -1 1.2246468525851679e-16
vn 0 -1 1.2246468525851679e-16
vn 0 -1 1.2246468525851679e-16
vn 0 -1 1.2246468525851679e-16
vn 0 -1 1.2246468525851679e-16
vn 0 -1 1.2246468525851679e-16
vn 0 -1 1.2246468525851679e-16
vn 0 -1 1.2246468525851679e-16
vn 0 -1 1.2246468525851679e-16
vn 0 -1 1.2246468525851679e-16
vn 0 -1 1.2246468525851679e-16
vn 0 -1 1.2246468525851679e-16
vn 0 -1 1.2246468525851679e-16
vn 0 -1 1.2246468525851679e-16
vn 0 -1 1.2246468525851679e-16
vn 0 -1 1.2246468525851679e-16
vn 0 -1 1.2246468525851679e-16
vn 0 -1 1.2246468525851679e-16
vn 0 -1 1.2246468525851679e-16
vn 0 -1 1.2246468525851679e-16
vn 0 -1 1.2246468525851679e-16
vn 0 -1 1.2246468525851679e-16
vn 0 -1 1.2246468525851679e-16
vn 0 -1 1.2246468525851679e-16
vn 0 -1 1.2246468525851679e-16
vn 0 -1 1.2246468525851679e-16
vn 0 -1 1.2246468525851679e-16
vn 0 -1 1.2246468525851679e-16
vn 0 -1 1.2246468525851679e-16
vn 0 -1 1.2246468525851679e-16
vn 0 -1 1.2246468525851679e-16
vn 0 -1 1.2246468525851679e-16
vn 0 -1 1.2246468525851679e-16
vn 0 -1 1.2246468525851679e-16
vn 0 -1 1.2246468525851679e-16
vn 0 -1 1.2246468525851679e-16
vn 0 -1 1.2246468525851679e-16
vn 0 -1 1.2246468525851679e-16
vn 0 -1 1.2246468525851679e-16
vn 0 -1 1.2246468525851679e-16
vn 0 -1 1.2246468525851679e-16
vn 0 -1 1.2246468525851679e-16
vn 0 -1 1.2246468525851679e-16
vn 0 -1 1.2246468525851679e-16
vn 0 -1 1.2246468525851679e-16
vn 0 -1 1.2246468525851679e-16
vn 0 -1 1.2246468525851679e-16
vn 0 -1 1.2246468525851679e-16
vn 0 -1 1.2246468525851679e-16
vn 0 -1 1.2246468525851679e-16
vn 0 -1 1.2246468525851679e-16
vn 0 -1 1.2246468525851679e-16
vn 0 -1 1.2246468525851679e-16
vn 0 -1 1.2246468525851679e-16
vn 0 -1 1.2246468525851679e-16
vn 0 -1 1.2246468525851679e-16
vn 0 -1 1.2246468525851679e-16
vn 0 -1 1.2246468525851679e-16
vn 0 -1 1.2246468525851679e-16
vn 0 1 -1.2246468525851679e-16
vn 0 1 -1.2246468525851679e-16
vn 0 1 -1.2246468525851679e-16
vn 0 1 -1.2246468525851679e-16
vn 0 1 -1.2246468525851679e-16
vn 0 1 -1.2246468525851679e-16
vn 0 1 -1.2246468525851679e-16
vn 0 1 -1.2246468525851679e-16
vn 0 1 -1.2246468525851679e-16
vn 0 1 -1.2246468525851679e-16
vn 0 1 -1.2246468525851679e-16
vn 0 1 -1.2246468525851679e-16
vn 0 1 -1.2246468525851679e-16
vn 0 1 -1.2246468525851679e-16
vn 0 1 -1.2246468525851679e-16
vn 0 1 -1.2246468525851679e-16
vn 0 1 -1.2246468525851679e-16
vn 0 1 -1.2246468525851679e-16
vn 0 1 -1.2246468525851679e-16
vn 0 1 -1.2246468525851679e-16
vn 0 1 -1.2246468525851679e-16
vn 0 1 -1.2246468525851679e-16
vn 0 1 -1.2246468525851679e-16
vn 0 1 -1.2246468525851679e-16
vn 0 1 -1.2246468525851679e-16
vn 0 1 -1.2246468525851679e-16
vn 0 1 -1.2246468525851679e-16
vn 0 1 -1.2246468525851679e-16
vn 0 1 -1.2246468525851679e-16
vn 0 1 -1.2246468525851679e-16
vn 0 1 -1.2246468525851679e-16
vn 0 1 -1.2246468525851679e-16
vn 0 1 -1.2246468525851679e-16
vn 0 1 -1.2246468525851679e-16
vn 0 1 -1.2246468525851679e-16
vn 0 1 -1.2246468525851679e-16
vn 0 1 -1.2246468525851679e-16
vn 0 1 -1.2246468525851679e-16
vn 0 1 -1.2246468525851679e-16
vn 0 1 -1.2246468525851679e-16
vn 0 1 -1.2246468525851679e-16
vn 0 1 -1.2246468525851679e-16
vn 0 1 -1.2246468525851679e-16
vn 0 1 -1.2246468525851679e-16
vn 0 1 -1.2246468525851679e-16
vn 0 1 -1.2246468525851679e-16
vn 0 1 -1.2246468525851679e-16
vn 0 1 -1.2246468525851679e-16
vn 0 1 -1.2246468525851679e-16
vn 0 1 -1.2246468525851679e-16
vn 0 1 -1.2246468525851679e-16
vn 0 1 -1.2246468525851679e-16
vn 0 1 -1.2246468525851679e-16
vn 0 1 -1.2246468525851679e-16
vn 0 1 -1.2246468525851679e-16
vn 0 1 -1.2246468525851679e-16
vn 0 1 -1.2246468525851679e-16
vn 0 1 -1.2246468525851679e-16
vn 0 1 -1.2246468525851679e-16
vn 0 1 -1.2246468525851679e-16
vn 0 1 -1.2246468525851679e-16
vn 0 1 -1.2246468525851679e-16
vn 0 1 -1.2246468525851679e-16
vn 0 1 -1.2246468525851679e-16
vn 0 1 -1.2246468525851679e-16
vn 0 1 -1.2246468525851679e-16
vn 0 1 -1.2246468525851679e-16
vn 0 1 -1.2246468525851679e-16
vn 0 1 -1.2246468525851679e-16
vn 0 1 -1.2246468525851679e-16
vn 0 1 -1.2246468525851679e-16
vn 0 1 -1.2246468525851679e-16
vn 0 1 -1.2246468525851679e-16
vn 0 1 -1.2246468525851679e-16
vn 0 1 -1.2246468525851679e-16
vn 0 1 -1.2246468525851679e-16
vn 0 1 -1.2246468525851679e-16
vn 0 1 -1.2246468525851679e-16
vn 0 1 -1.2246468525851679e-16
vn 0 1 -1.2246468525851679e-16
vn 0 1 -1.2246468525851679e-16
vn 0 1 -1.2246468525851679e-16
vn 0 1 -1.2246468525851679e-16
vn 0 1 -1.2246468525851679e-16
vn 0 1 -1.2246468525851679e-16
vn 0 1 -1.2246468525851679e-16
vn 0 1 -1.2246468525851679e-16
vn 0 1 -1.2246468525851679e-16
vn 0 1 -1.2246468525851679e-16
vn 0 1 -1.2246468525851679e-16
vn 0 1 -1.2246468525851679e-16
vn 0 1 -1.2246468525851679e-16
vn 0 1 -1.2246468525851679e-16
vn 0 1 -1.2246468525851679e-16
vn 0 1 -1.2246468525851679e-16
vn 0 1 -1.2246468525851679e-16
vn 0 1 -1.2246468525851679e-16
f 345/345/345 394/394/394 346/346/346
f 394/394/394 395/395/395 346/346/346
f 346/346/346 395/395/395 347/347/347
f 395/395/395 396/396/396 347/347/347
f 347/347/347 396/396/396 348/348/348
f 396/396/396 397/397/397 348/348/348
f 348/348/348 397/397/397 349/349/349
f 397/397/397 398/398/398 349/349/349
f 349/349/349 398/398/398 350/350/350
f 398/398/398 399/399/399 350/350/350
f 350/350/350 399/399/399 351/351/351
f 399/399/399 400/400/400 351/351/351
f 351/351/351 400/400/400 352/352/352
f 400/400/400 401/401/401 352/352/352
f 352/352/352 401/401/401 353/353/353
f 401/401/401 402/402/402 353/353/353
f 353/353/353 402/402/402 354/354/354
f 402/402/402 403/403/403 354/354/354
f 354/354/354 403/403/403 355/355/355
f 403/403/403 404/404/404 355/355/355
f 355/355/355 404/404/404 356/356/356
f 404/404/404 405/405/405 356/356/356
f 356/356/356 405/405/405 357/357/357
f 405/405/405 406/406/406 357/357/357
f 357/357/357 406/406/406 358/358/358
f 406/406/406 407/407/407 358/358/358
f 358/358/358 407/407/407 359/359/359
f 407/407/407 408/408/408 359/359/359
f 359/359/359 408/408/408 360/360/360
f 408/408/408 409/409/409 360/360/360
f 360/360/360 409/409/409 361/361/361
f 409/409/409 410/410/410 361/361/361
f 361/361/361 410/410/410 362/362/362
f 410/410/410 411/411/411 362/362/362
f 362/362/362 411/411/411 363/363/363
f 411/411/411 412/412/412 363/363/363
f 363/363/363 412/412/412 364/364/364
f 412/412/412 413/413/413 364/364/364
f 364/364/364 413/413/413 365/365/365
f 413/413/413 414/414/414 365/365/365
f 365/365/365 414/414/414 366/366/366
f 414/414/414 415/415/415 366/366/366
f 366/366/366 415/415/415 367/367/367
f 415/415/415 416/416/416 367/367/367
f 367/367/367 416/416/416 368/368/368
f 416/416/416 417/417/417 368/368/368
f 368/368/368 417/417/417 369/369/369
f 417/417/417 418/418/418 369/369/369
f 369/369/369 418/418/418 370/370/370
f 418/418/418 419/419/419 370/370/370
f 370/370/370 419/419/419 371/371/371
f 419/419/419 420/420/420 371/371/371
f 371/371/371 420/420/420 372/372/372
f 420/420/420 421/421/421 372/372/372
f 372/372/372 421/421/421 373/373/373
f 421/421/421 422/422/422 373/373/373
f 373/373/373 422/422/422 374/374/374
f 422/422/422 423/423/423 374/374/374
f 374/374/374 423/423/423 375/375/375
f 423/423/423 424/424/424 375/375/375
f 375/375/375 424/424/424 376/376/376
f 424/424/424 425/425/425 376/376/376
f 376/376/376 425/425/425 377/377/377
f 425/425/425 426/426/426 377/377/377
f 377/377/377 426/426/426 378/378/378
f 426/426/426 427/427/427 378/378/378
f 378/378/378 427/427/427 379/379/379
f 427/427/427 428/428/428 379/379/379
f 379/379/379 428/428/428 380/380/380
f 428/428/428 429/429/429 380/380/380
f 380/380/380 429/429/429 381/381/381
f 429/429/429 430/430/430 381/381/381
f 381/381/381 430/430/430 382/382/382
f 430/430/430 431/431/431 382/382/382
f 382/382/382 431/431/431 383/383/383
f 431/431/431 432/432/432 383/383/383
f 383/383/383 432/432/432 384/384/384
f 432/432/432 433/433/433 384/384/384
f 384/384/384 433/433/433 385/385/385
f 433/433/433 434/434/434 385/385/385
f 385/385/385 434/434/434 386/386/386
f 434/434/434 435/435/435 386/386/386
f 386/386/386 435/435/435 387/387/387
f 435/435/435 436/436/436 387/387/387
f 387/387/387 436/436/436 388/388/388
f 436/436/436 437/437/437 388/388/388
f 388/388/388 437/437/437 389/389/389
f 437/437/437 438/438/438 389/389/389
f 389/389/389 438/438/438 390/390/390
f 438/438/438 439/439/439 390/390/390
f 390/390/390 439/439/439 391/391/391
f 439/439/439 440/440/440 391/391/391
f 391/391/391 440/440/440 392/392/392
f 440/440/440 441/441/441 392/392/392
f 392/392/392 441/441/441 393/393/393
f 441/441/441 442/442/442 393/393/393
f 491/491/491 492/492/492 443/443/443
f 492/492/492 493/493/493 444/444/444
f 493/493/493 494/494/494 445/445/445
f 494/494/494 495/495/495 446/446/446
f 495/495/495 496/496/496 447/447/447
f 496/496/496 497/497/497 448/448/448
f 497/497/497 498/498/498 449/449/449
f 498/498/498 499/499/499 450/450/450
f 499/499/499 500/500/500 451/451/451
f 500/500/500 501/501/501 452/452/452
f 501/501/501 502/502/502 453/453/453
f 502/502/502 503/503/503 454/454/454
f 503/503/503 504/504/504 455/455/455
f 504/504/504 505/505/505 456/456/456
f 505/505/505 506/506/506 457/457/457
f 506/506/506 507/507/507 458/458/458
f 507/507/507 508/508/508 459/459/459
f 508/508/508 509/509/509 460/460/460
f 509/509/509 510/510/510 461/461/461
f 510/510/510 511/511/511 462/462/462
f 511/511/511 512/512/512 463/463/463
f 512/512/512 513/513/513 464/464/464
f 513/513/513 514/514/514 465/465/465
f 514/514/514 515/515/515 466/466/466
f 515/515/515 516/516/516 467/467/467
f 516/516/516 517/517/517 468/468/468
f 517/517/517 518/518/518 469/469/469
f 518/518/518 519/519/519 470/470/470
f 519/519/519 520/520/520 471/471/471
f 520/520/520 521/521/521 472/472/472
f 521/521/521 522/522/522 473/473/473
f 522/522/522 523/523/523 474/474/474
f 523/523/523 524/524/524 475/475/475
f 524/524/524 525/525/525 476/476/476
f 525/525/525 526/526/526 477/477/477
f 526/526/526 527/527/527 478/478/478
f 527/527/527 528/528/528 479/479/479
f 528/528/528 529/529/529 480/480/480
f 529/529/529 530/530/530 481/481/481
f 530/530/530 531/531/531 482/482/482
f 531/531/531 532/532/532 483/483/483
f 532/532/532 533/533/533 484/484/484
f 533/533/533 534/534/534 485/485/485
f 534/534/534 535/535/535 486/486/486
f 535/535/535 536/536/536 487/487/487
f 536/536/536 537/537/537 488/488/488
f 537/537/537 538/538/538 489/489/489
f 538/538/538 539/539/539 490/490/490
f 589/589/589 588/588/588 540/540/540
f 590/590/590 589/589/589 541/541/541
f 591/591/591 590/590/590 542/542/542
f 592/592/592 591/591/591 543/543/543
f 593/593/593 592/592/592 544/544/544
f 594/594/594 593/593/593 545/545/545
f 595/595/595 594/594/594 546/546/546
f 596/596/596 595/595/595 547/547/547
f 597/597/597 596/596/596 548/548/548
f 598/598/598 597/597/597 549/549/549
f 599/599/599 598/598/598 550/550/550
f 600/600/600 599/599/599 551/551/551
f 601/601/601 600/600/600 552/552/552
f 602/602/602 601/601/601 553/553/553
f 603/603/603 602/602/602 554/554/554
f 604/604/604 603/603/603 555/555/555
f 605/605/605 604/604/604 556/556/556
f 606/606/606 605/605/605 557/557/557
f 607/607/607 606/606/606 558/558/558
f 608/608/608 607/607/607 559/559/559
f 609/609/609 608/608/608 560/560/560
f 610/610/610 609/609/609 561/561/561
f 611/611/611 610/610/610 562/562/562
f 612/612/612 611/611/611 563/563/563
f 613/613/613 612/612/612 564/564/564
f 614/614/614 613/613/613 565/565/565
f 615/615/615 614/614/614 566/566/566
f 616/616/616 615/615/615 567/567/567
f 617/617/617 616/616/616 568/568/568
f 618/618/618 617/617/617 569/569/569
f 619/619/619 618/618/618 570/570/570
f 620/620/620 619/619/619 571/571/571
f 621/621/621 620/620/620 572/572/572
f 622/622/622 621/621/621 573/573/573
f 623/623/623 622/622/622 574/574/574
f 624/624/624 623/623/623 575/575/575
f 625/625/625 624/624/624 576/576/576
f 626/626/626 625/625/625 577/577/577
f 627/627/627 626/626/626 578/578/578
f 628/628/628 627/627/627 579/579/579
f 629/629/629 628/628/628 580/580/580
f 630/630/630 629/629/629 581/581/581
f 631/631/631 630/630/630 582/582/582
f 632/632/632 631/631/631 583/583/583
f 633/633/633 632/632/632 584/584/584
f 634/634/634 633/633/633 585/585/585
f 635/635/635 634/634/634 586/586/586
f 636/636/636 635/635/635 587/587/587
