mtllib carriage.mtl
o guide_shoe_side_-1_-0.095_-1
usemtl black_powder_coat
v -0.08099999990500509 0.02800000075995922 -0.05999999985098839
v -0.08099999990500509 0.02800000075995922 -0.1300000001490116
v -0.08099999990500509 -0.004000000759959221 -0.05999999985098839
v -0.08099999990500509 -0.004000000759959221 -0.1300000001490116
v -0.0850000000949949 0.02800000075995922 -0.1300000001490116
v -0.0850000000949949 0.02800000075995922 -0.05999999985098839
v -0.0850000000949949 -0.004000000759959221 -0.1300000001490116
v -0.0850000000949949 -0.004000000759959221 -0.05999999985098839
vt 0 1
vt 1 1
vt 0 0
vt 1 0
vn 1 0 0
vn -1 0 0
vn 0 1 0
vn 0 -1 0
vn 0 0 1
vn 0 0 -1
f 1/1/1 3/3/1 2/2/1
f 3/3/1 4/4/1 2/2/1
f 5/1/2 7/3/2 6/2/2
f 7/3/2 8/4/2 6/2/2
f 5/1/3 6/3/3 2/2/3
f 6/3/3 1/4/3 2/2/3
f 8/1/4 7/3/4 3/2/4
f 7/3/4 4/4/4 3/2/4
f 6/1/5 8/3/5 1/2/5
f 8/3/5 3/4/5 1/2/5
f 2/1/6 4/3/6 5/2/6
f 4/3/6 7/4/6 5/2/6
o guide_shoe_side_-1_-0.095_1
usemtl black_powder_coat
v -0.0609999999050051 0.02800000075995922 -0.05999999985098839
v -0.0609999999050051 0.02800000075995922 -0.1300000001490116
v -0.0609999999050051 -0.004000000759959221 -0.05999999985098839
v -0.0609999999050051 -0.004000000759959221 -0.1300000001490116
v -0.0650000000949949 0.02800000075995922 -0.1300000001490116
v -0.0650000000949949 0.02800000075995922 -0.05999999985098839
v -0.0650000000949949 -0.004000000759959221 -0.1300000001490116
v -0.0650000000949949 -0.004000000759959221 -0.05999999985098839
vt 0 1
vt 1 1
vt 0 0
vt 1 0
vn 1 0 0
vn -1 0 0
vn 0 1 0
vn 0 -1 0
vn 0 0 1
vn 0 0 -1
f 9/5/7 11/7/7 10/6/7
f 11/7/7 12/8/7 10/6/7
f 13/5/8 15/7/8 14/6/8
f 15/7/8 16/8/8 14/6/8
f 13/5/9 14/7/9 10/6/9
f 14/7/9 9/8/9 10/6/9
f 16/5/10 15/7/10 11/6/10
f 15/7/10 12/8/10 11/6/10
f 14/5/11 16/7/11 9/6/11
f 16/7/11 11/8/11 9/6/11
f 10/5/12 12/7/12 13/6/12
f 12/7/12 15/8/12 13/6/12
o guide_shoe_front_-1_-0.095
usemtl black_powder_coat
v -0.059999999731779094 0.028000000189989806 -0.05999999985098839
v -0.059999999731779094 0.028000000189989806 -0.1300000001490116
v -0.059999999731779094 0.019999999810010195 -0.05999999985098839
v -0.059999999731779094 0.019999999810010195 -0.1300000001490116
v -0.0860000002682209 0.028000000189989806 -0.1300000001490116
v -0.0860000002682209 0.028000000189989806 -0.05999999985098839
v -0.0860000002682209 0.019999999810010195 -0.1300000001490116
v -0.0860000002682209 0.019999999810010195 -0.05999999985098839
vt 0 1
vt 1 1
vt 0 0
vt 1 0
vn 1 0 0
vn -1 0 0
vn 0 1 0
vn 0 -1 0
vn 0 0 1
vn 0 0 -1
f 17/9/13 19/11/13 18/10/13
f 19/11/13 20/12/13 18/10/13
f 21/9/14 23/11/14 22/10/14
f 23/11/14 24/12/14 22/10/14
f 21/9/15 22/11/15 18/10/15
f 22/11/15 17/12/15 18/10/15
f 24/9/16 23/11/16 19/10/16
f 23/11/16 20/12/16 19/10/16
f 22/9/17 24/11/17 17/10/17
f 24/11/17 19/12/17 17/10/17
f 18/9/18 20/11/18 21/10/18
f 20/11/18 23/12/18 21/10/18
o guide_shoe_side_-1_0.095_-1
usemtl black_powder_coat
v -0.08099999990500509 0.02800000075995922 0.1300000001490116
v -0.08099999990500509 0.02800000075995922 0.05999999985098839
v -0.08099999990500509 -0.004000000759959221 0.1300000001490116
v -0.08099999990500509 -0.004000000759959221 0.05999999985098839
v -0.0850000000949949 0.02800000075995922 0.05999999985098839
v -0.0850000000949949 0.02800000075995922 0.1300000001490116
v -0.0850000000949949 -0.004000000759959221 0.05999999985098839
v -0.0850000000949949 -0.004000000759959221 0.1300000001490116
vt 0 1
vt 1 1
vt 0 0
vt 1 0
vn 1 0 0
vn -1 0 0
vn 0 1 0
vn 0 -1 0
vn 0 0 1
vn 0 0 -1
f 25/13/19 27/15/19 26/14/19
f 27/15/19 28/16/19 26/14/19
f 29/13/20 31/15/20 30/14/20
f 31/15/20 32/16/20 30/14/20
f 29/13/21 30/15/21 26/14/21
f 30/15/21 25/16/21 26/14/21
f 32/13/22 31/15/22 27/14/22
f 31/15/22 28/16/22 27/14/22
f 30/13/23 32/15/23 25/14/23
f 32/15/23 27/16/23 25/14/23
f 26/13/24 28/15/24 29/14/24
f 28/15/24 31/16/24 29/14/24
o guide_shoe_side_-1_0.095_1
usemtl black_powder_coat
v -0.0609999999050051 0.02800000075995922 0.1300000001490116
v -0.0609999999050051 0.02800000075995922 0.05999999985098839
v -0.0609999999050051 -0.004000000759959221 0.1300000001490116
v -0.0609999999050051 -0.004000000759959221 0.05999999985098839
v -0.0650000000949949 0.02800000075995922 0.05999999985098839
v -0.0650000000949949 0.02800000075995922 0.1300000001490116
v -0.0650000000949949 -0.004000000759959221 0.05999999985098839
v -0.0650000000949949 -0.004000000759959221 0.1300000001490116
vt 0 1
vt 1 1
vt 0 0
vt 1 0
vn 1 0 0
vn -1 0 0
vn 0 1 0
vn 0 -1 0
vn 0 0 1
vn 0 0 -1
f 33/17/25 35/19/25 34/18/25
f 35/19/25 36/20/25 34/18/25
f 37/17/26 39/19/26 38/18/26
f 39/19/26 40/20/26 38/18/26
f 37/17/27 38/19/27 34/18/27
f 38/19/27 33/20/27 34/18/27
f 40/17/28 39/19/28 35/18/28
f 39/19/28 36/20/28 35/18/28
f 38/17/29 40/19/29 33/18/29
f 40/19/29 35/20/29 33/18/29
f 34/17/30 36/19/30 37/18/30
f 36/19/30 39/20/30 37/18/30
o guide_shoe_front_-1_0.095
usemtl black_powder_coat
v -0.059999999731779094 0.028000000189989806 0.1300000001490116
v -0.059999999731779094 0.028000000189989806 0.05999999985098839
v -0.059999999731779094 0.019999999810010195 0.1300000001490116
v -0.059999999731779094 0.019999999810010195 0.05999999985098839
v -0.0860000002682209 0.028000000189989806 0.05999999985098839
v -0.0860000002682209 0.028000000189989806 0.1300000001490116
v -0.0860000002682209 0.019999999810010195 0.05999999985098839
v -0.0860000002682209 0.019999999810010195 0.1300000001490116
vt 0 1
vt 1 1
vt 0 0
vt 1 0
vn 1 0 0
vn -1 0 0
vn 0 1 0
vn 0 -1 0
vn 0 0 1
vn 0 0 -1
f 41/21/31 43/23/31 42/22/31
f 43/23/31 44/24/31 42/22/31
f 45/21/32 47/23/32 46/22/32
f 47/23/32 48/24/32 46/22/32
f 45/21/33 46/23/33 42/22/33
f 46/23/33 41/24/33 42/22/33
f 48/21/34 47/23/34 43/22/34
f 47/23/34 44/24/34 43/22/34
f 46/21/35 48/23/35 41/22/35
f 48/23/35 43/24/35 41/22/35
f 42/21/36 44/23/36 45/22/36
f 44/23/36 47/24/36 45/22/36
o guide_shoe_side_1_-0.095_-1
usemtl black_powder_coat
v 0.0650000000949949 0.02800000075995922 -0.05999999985098839
v 0.0650000000949949 0.02800000075995922 -0.1300000001490116
v 0.0650000000949949 -0.004000000759959221 -0.05999999985098839
v 0.0650000000949949 -0.004000000759959221 -0.1300000001490116
v 0.0609999999050051 0.02800000075995922 -0.1300000001490116
v 0.0609999999050051 0.02800000075995922 -0.05999999985098839
v 0.0609999999050051 -0.004000000759959221 -0.1300000001490116
v 0.0609999999050051 -0.004000000759959221 -0.05999999985098839
vt 0 1
vt 1 1
vt 0 0
vt 1 0
vn 1 0 0
vn -1 0 0
vn 0 1 0
vn 0 -1 0
vn 0 0 1
vn 0 0 -1
f 49/25/37 51/27/37 50/26/37
f 51/27/37 52/28/37 50/26/37
f 53/25/38 55/27/38 54/26/38
f 55/27/38 56/28/38 54/26/38
f 53/25/39 54/27/39 50/26/39
f 54/27/39 49/28/39 50/26/39
f 56/25/40 55/27/40 51/26/40
f 55/27/40 52/28/40 51/26/40
f 54/25/41 56/27/41 49/26/41
f 56/27/41 51/28/41 49/26/41
f 50/25/42 52/27/42 53/26/42
f 52/27/42 55/28/42 53/26/42
o guide_shoe_side_1_-0.095_1
usemtl black_powder_coat
v 0.0850000000949949 0.02800000075995922 -0.05999999985098839
v 0.0850000000949949 0.02800000075995922 -0.1300000001490116
v 0.0850000000949949 -0.004000000759959221 -0.05999999985098839
v 0.0850000000949949 -0.004000000759959221 -0.1300000001490116
v 0.08099999990500509 0.02800000075995922 -0.1300000001490116
v 0.08099999990500509 0.02800000075995922 -0.05999999985098839
v 0.08099999990500509 -0.004000000759959221 -0.1300000001490116
v 0.08099999990500509 -0.004000000759959221 -0.05999999985098839
vt 0 1
vt 1 1
vt 0 0
vt 1 0
vn 1 0 0
vn -1 0 0
vn 0 1 0
vn 0 -1 0
vn 0 0 1
vn 0 0 -1
f 57/29/43 59/31/43 58/30/43
f 59/31/43 60/32/43 58/30/43
f 61/29/44 63/31/44 62/30/44
f 63/31/44 64/32/44 62/30/44
f 61/29/45 62/31/45 58/30/45
f 62/31/45 57/32/45 58/30/45
f 64/29/46 63/31/46 59/30/46
f 63/31/46 60/32/46 59/30/46
f 62/29/47 64/31/47 57/30/47
f 64/31/47 59/32/47 57/30/47
f 58/29/48 60/31/48 61/30/48
f 60/31/48 63/32/48 61/30/48
o guide_shoe_front_1_-0.095
usemtl black_powder_coat
v 0.0860000002682209 0.028000000189989806 -0.05999999985098839
v 0.0860000002682209 0.028000000189989806 -0.1300000001490116
v 0.0860000002682209 0.019999999810010195 -0.05999999985098839
v 0.0860000002682209 0.019999999810010195 -0.1300000001490116
v 0.059999999731779094 0.028000000189989806 -0.1300000001490116
v 0.059999999731779094 0.028000000189989806 -0.05999999985098839
v 0.059999999731779094 0.019999999810010195 -0.1300000001490116
v 0.059999999731779094 0.019999999810010195 -0.05999999985098839
vt 0 1
vt 1 1
vt 0 0
vt 1 0
vn 1 0 0
vn -1 0 0
vn 0 1 0
vn 0 -1 0
vn 0 0 1
vn 0 0 -1
f 65/33/49 67/35/49 66/34/49
f 67/35/49 68/36/49 66/34/49
f 69/33/50 71/35/50 70/34/50
f 71/35/50 72/36/50 70/34/50
f 69/33/51 70/35/51 66/34/51
f 70/35/51 65/36/51 66/34/51
f 72/33/52 71/35/52 67/34/52
f 71/35/52 68/36/52 67/34/52
f 70/33/53 72/35/53 65/34/53
f 72/35/53 67/36/53 65/34/53
f 66/33/54 68/35/54 69/34/54
f 68/35/54 71/36/54 69/34/54
o guide_shoe_side_1_0.095_-1
usemtl black_powder_coat
v 0.0650000000949949 0.02800000075995922 0.1300000001490116
v 0.0650000000949949 0.02800000075995922 0.05999999985098839
v 0.0650000000949949 -0.004000000759959221 0.1300000001490116
v 0.0650000000949949 -0.004000000759959221 0.05999999985098839
v 0.0609999999050051 0.02800000075995922 0.05999999985098839
v 0.0609999999050051 0.02800000075995922 0.1300000001490116
v 0.0609999999050051 -0.004000000759959221 0.05999999985098839
v 0.0609999999050051 -0.004000000759959221 0.1300000001490116
vt 0 1
vt 1 1
vt 0 0
vt 1 0
vn 1 0 0
vn -1 0 0
vn 0 1 0
vn 0 -1 0
vn 0 0 1
vn 0 0 -1
f 73/37/55 75/39/55 74/38/55
f 75/39/55 76/40/55 74/38/55
f 77/37/56 79/39/56 78/38/56
f 79/39/56 80/40/56 78/38/56
f 77/37/57 78/39/57 74/38/57
f 78/39/57 73/40/57 74/38/57
f 80/37/58 79/39/58 75/38/58
f 79/39/58 76/40/58 75/38/58
f 78/37/59 80/39/59 73/38/59
f 80/39/59 75/40/59 73/38/59
f 74/37/60 76/39/60 77/38/60
f 76/39/60 79/40/60 77/38/60
o guide_shoe_side_1_0.095_1
usemtl black_powder_coat
v 0.0850000000949949 0.02800000075995922 0.1300000001490116
v 0.0850000000949949 0.02800000075995922 0.05999999985098839
v 0.0850000000949949 -0.004000000759959221 0.1300000001490116
v 0.0850000000949949 -0.004000000759959221 0.05999999985098839
v 0.08099999990500509 0.02800000075995922 0.05999999985098839
v 0.08099999990500509 0.02800000075995922 0.1300000001490116
v 0.08099999990500509 -0.004000000759959221 0.05999999985098839
v 0.08099999990500509 -0.004000000759959221 0.1300000001490116
vt 0 1
vt 1 1
vt 0 0
vt 1 0
vn 1 0 0
vn -1 0 0
vn 0 1 0
vn 0 -1 0
vn 0 0 1
vn 0 0 -1
f 81/41/61 83/43/61 82/42/61
f 83/43/61 84/44/61 82/42/61
f 85/41/62 87/43/62 86/42/62
f 87/43/62 88/44/62 86/42/62
f 85/41/63 86/43/63 82/42/63
f 86/43/63 81/44/63 82/42/63
f 88/41/64 87/43/64 83/42/64
f 87/43/64 84/44/64 83/42/64
f 86/41/65 88/43/65 81/42/65
f 88/43/65 83/44/65 81/42/65
f 82/41/66 84/43/66 85/42/66
f 84/43/66 87/44/66 85/42/66
o guide_shoe_front_1_0.095
usemtl black_powder_coat
v 0.0860000002682209 0.028000000189989806 0.1300000001490116
v 0.0860000002682209 0.028000000189989806 0.05999999985098839
v 0.0860000002682209 0.019999999810010195 0.1300000001490116
v 0.0860000002682209 0.019999999810010195 0.05999999985098839
v 0.059999999731779094 0.028000000189989806 0.05999999985098839
v 0.059999999731779094 0.028000000189989806 0.1300000001490116
v 0.059999999731779094 0.019999999810010195 0.05999999985098839
v 0.059999999731779094 0.019999999810010195 0.1300000001490116
vt 0 1
vt 1 1
vt 0 0
vt 1 0
vn 1 0 0
vn -1 0 0
vn 0 1 0
vn 0 -1 0
vn 0 0 1
vn 0 0 -1
f 89/45/67 91/47/67 90/46/67
f 91/47/67 92/48/67 90/46/67
f 93/45/68 95/47/68 94/46/68
f 95/47/68 96/48/68 94/46/68
f 93/45/69 94/47/69 90/46/69
f 94/47/69 89/48/69 90/46/69
f 96/45/70 95/47/70 91/46/70
f 95/47/70 92/48/70 91/46/70
f 94/45/71 96/47/71 89/46/71
f 96/47/71 91/48/71 89/46/71
f 90/45/72 92/47/72 93/46/72
f 92/47/72 95/48/72 93/46/72
o carriage_backplate
usemtl black_powder_coat
v 0.12999999523162842 0.04699999977648258 0.15000000596046448
v 0.12999999523162842 0.04699999977648258 -0.15000000596046448
v 0.12999999523162842 0.027000000223517416 0.15000000596046448
v 0.12999999523162842 0.027000000223517416 -0.15000000596046448
v -0.12999999523162842 0.04699999977648258 -0.15000000596046448
v -0.12999999523162842 0.04699999977648258 0.15000000596046448
v -0.12999999523162842 0.027000000223517416 -0.15000000596046448
v -0.12999999523162842 0.027000000223517416 0.15000000596046448
vt 0 1
vt 1 1
vt 0 0
vt 1 0
vn 1 0 0
vn -1 0 0
vn 0 1 0
vn 0 -1 0
vn 0 0 1
vn 0 0 -1
f 97/49/73 99/51/73 98/50/73
f 99/51/73 100/52/73 98/50/73
f 101/49/74 103/51/74 102/50/74
f 103/51/74 104/52/74 102/50/74
f 101/49/75 102/51/75 98/50/75
f 102/51/75 97/52/75 98/50/75
f 104/49/76 103/51/76 99/50/76
f 103/51/76 100/52/76 99/50/76
f 102/49/77 104/51/77 97/50/77
f 104/51/77 99/52/77 97/50/77
f 98/49/78 100/51/78 101/50/78
f 100/51/78 103/52/78 101/50/78
o cantilever_top_deck
usemtl black_powder_coat
v 0.11749999970197678 0.5700000009536743 0.1299999996125698
v 0.11749999970197678 0.5700000009536743 0.11200000038743019
v 0.11749999970197678 0.04699999904632568 0.1299999996125698
v 0.11749999970197678 0.04699999904632568 0.11200000038743019
v -0.11749999970197678 0.5700000009536743 0.11200000038743019
v -0.11749999970197678 0.5700000009536743 0.1299999996125698
v -0.11749999970197678 0.04699999904632568 0.11200000038743019
v -0.11749999970197678 0.04699999904632568 0.1299999996125698
vt 0 1
vt 1 1
vt 0 0
vt 1 0
vn 1 0 0
vn -1 0 0
vn 0 1 0
vn 0 -1 0
vn 0 0 1
vn 0 0 -1
f 105/53/79 107/55/79 106/54/79
f 107/55/79 108/56/79 106/54/79
f 109/53/80 111/55/80 110/54/80
f 111/55/80 112/56/80 110/54/80
f 109/53/81 110/55/81 106/54/81
f 110/55/81 105/56/81 106/54/81
f 112/53/82 111/55/82 107/54/82
f 111/55/82 108/56/82 107/54/82
f 110/53/83 112/55/83 105/54/83
f 112/55/83 107/56/83 105/54/83
f 106/53/84 108/55/84 109/54/84
f 108/55/84 111/56/84 109/54/84
o cantilever_triangular_cheek_-1
usemtl black_powder_coat
v -0.1125 0.04699999839067459 -0.1420000046491623
v -0.1125 0.04699999839067459 0.1120000034570694
v -0.11249999999999998 0.5649999976158142 0.1120000034570694
v -0.11249999999999998 0.5550000071525574 0.07500000298023224
v -0.10250000022351742 0.5649999976158142 0.1120000034570694
v -0.10250000022351742 0.04699999839067459 0.1120000034570694
v -0.10250000022351742 0.04699999839067459 -0.1420000046491623
v -0.10250000022351742 0.5550000071525574 0.07500000298023224
vt 0.04699999839067459 -0.1420000046491623
vt 0.04699999839067459 0.1120000034570694
vt 0.5649999976158142 0.1120000034570694
vt 0.5550000071525574 0.07500000298023224
vt 0.04699999839067459 1
vt 0.5550000071525574 1
vt 0.04699999839067459 0.9900000095367432
vt 0.5550000071525574 0.9900000095367432
vt 0.07500000298023224 1
vt 0.1120000034570694 1
vt 0.07500000298023224 0.9900000095367432
vt 0.1120000034570694 0.9900000095367432
vt 0.5649999976158142 1
vt 0.5649999976158142 0.9900000095367432
vt -0.1420000046491623 1
vt -0.1420000046491623 0.9900000095367432
vn -1 6.123234262925839e-17 -3.74939976039497e-33
vn 1 -6.123234262925839e-17 3.74939976039497e-33
vn 2.4053694816104845e-17 0.39282662649478384 -0.9196125496733543
vn 5.911146567028897e-17 0.9653634575424551 -0.26090878644015914
vn 0 6.123234262925839e-17 1
vn -6.123234262925839e-17 -1 6.123234262925839e-17
f 113/57/85 114/58/85 115/59/85
f 115/59/85 116/60/85 113/57/85
f 117/59/86 118/58/86 119/57/86
f 119/57/86 120/60/86 117/59/86
f 113/61/87 116/62/87 119/63/87
f 116/62/87 120/64/87 119/63/87
f 116/65/88 115/66/88 120/67/88
f 115/66/88 117/68/88 120/67/88
f 115/69/89 114/61/89 117/70/89
f 114/61/89 118/63/89 117/70/89
f 114/66/90 113/71/90 118/68/90
f 113/71/90 119/72/90 118/68/90
o cantilever_triangular_cheek_1
usemtl black_powder_coat
v 0.1025 0.04699999839067459 -0.1420000046491623
v 0.1025 0.04699999839067459 0.1120000034570694
v 0.10250000000000002 0.5649999976158142 0.1120000034570694
v 0.10250000000000002 0.5550000071525574 0.07500000298023224
v 0.11249999977648258 0.5649999976158142 0.1120000034570694
v 0.11249999977648258 0.04699999839067459 0.1120000034570694
v 0.11249999977648258 0.04699999839067459 -0.1420000046491623
v 0.11249999977648258 0.5550000071525574 0.07500000298023224
vt 0.04699999839067459 -0.1420000046491623
vt 0.04699999839067459 0.1120000034570694
vt 0.5649999976158142 0.1120000034570694
vt 0.5550000071525574 0.07500000298023224
vt 0.04699999839067459 1
vt 0.5550000071525574 1
vt 0.04699999839067459 0.9900000095367432
vt 0.5550000071525574 0.9900000095367432
vt 0.07500000298023224 1
vt 0.1120000034570694 1
vt 0.07500000298023224 0.9900000095367432
vt 0.1120000034570694 0.9900000095367432
vt 0.5649999976158142 1
vt 0.5649999976158142 0.9900000095367432
vt -0.1420000046491623 1
vt -0.1420000046491623 0.9900000095367432
vn -1 6.123234262925839e-17 -3.74939976039497e-33
vn 1 -6.123234262925839e-17 3.74939976039497e-33
vn 2.4053694816104845e-17 0.39282662649478384 -0.9196125496733543
vn 5.911146567028897e-17 0.9653634575424551 -0.26090878644015914
vn 0 6.123234262925839e-17 1
vn -6.123234262925839e-17 -1 6.123234262925839e-17
f 121/73/91 122/74/91 123/75/91
f 123/75/91 124/76/91 121/73/91
f 125/75/92 126/74/92 127/73/92
f 127/73/92 128/76/92 125/75/92
f 121/77/93 124/78/93 127/79/93
f 124/78/93 128/80/93 127/79/93
f 124/81/94 123/82/94 128/83/94
f 123/82/94 125/84/94 128/83/94
f 123/85/95 122/77/95 125/86/95
f 122/77/95 126/79/95 125/86/95
f 122/82/96 121/87/96 126/84/96
f 121/87/96 127/88/96 126/84/96
o cantilever_rear_tie
usemtl black_powder_coat
v 0.10249999910593033 0.06699999977648258 0.10199999701976777
v 0.10249999910593033 0.06699999977648258 -0.12299999701976776
v 0.10249999910593033 0.04700000022351742 0.10199999701976777
v 0.10249999910593033 0.04700000022351742 -0.12299999701976776
v -0.10249999910593033 0.06699999977648258 -0.12299999701976776
v -0.10249999910593033 0.06699999977648258 0.10199999701976777
v -0.10249999910593033 0.04700000022351742 -0.12299999701976776
v -0.10249999910593033 0.04700000022351742 0.10199999701976777
vt 0 1
vt 1 1
vt 0 0
vt 1 0
vn 1 0 0
vn -1 0 0
vn 0 1 0
vn 0 -1 0
vn 0 0 1
vn 0 0 -1
f 129/89/97 131/91/97 130/90/97
f 131/91/97 132/92/97 130/90/97
f 133/89/98 135/91/98 134/90/98
f 135/91/98 136/92/98 134/90/98
f 133/89/99 134/91/99 130/90/99
f 134/91/99 129/92/99 130/90/99
f 136/89/100 135/91/100 131/90/100
f 135/91/100 132/92/100 131/90/100
f 134/89/101 136/91/101 129/90/101
f 136/91/101 131/92/101 129/90/101
f 130/89/102 132/91/102 133/90/102
f 132/91/102 135/92/102 133/90/102
o robot_mount_plate
usemtl guide_aluminium
v 0.15000000596046448 0.5700000059604644 0.1499999997764826
v 0.15000000596046448 0.5700000059604644 0.13000000022351743
v 0.15000000596046448 0.2699999940395355 0.1499999997764826
v 0.15000000596046448 0.2699999940395355 0.13000000022351743
v -0.15000000596046448 0.5700000059604644 0.13000000022351743
v -0.15000000596046448 0.5700000059604644 0.1499999997764826
v -0.15000000596046448 0.2699999940395355 0.13000000022351743
v -0.15000000596046448 0.2699999940395355 0.1499999997764826
vt 0 1
vt 1 1
vt 0 0
vt 1 0
vn 1 0 0
vn -1 0 0
vn 0 1 0
vn 0 -1 0
vn 0 0 1
vn 0 0 -1
f 137/93/103 139/95/103 138/94/103
f 139/95/103 140/96/103 138/94/103
f 141/93/104 143/95/104 142/94/104
f 143/95/104 144/96/104 142/94/104
f 141/93/105 142/95/105 138/94/105
f 142/95/105 137/96/105 138/94/105
f 144/93/106 143/95/106 139/94/106
f 143/95/106 140/96/106 139/94/106
f 142/93/107 144/95/107 137/94/107
f 144/95/107 139/96/107 137/94/107
f 138/93/108 140/95/108 141/94/108
f 140/95/108 143/96/108 141/94/108
o carriage_face_bolt_-1_-0.105
usemtl guide_aluminium
v -0.117 0.05000000001303852 -0.10149999989196658
v -0.11396891102939845 0.05000000001303852 -0.10324999994598329
v -0.11396891102939845 0.05000000001303852 -0.1067500000540167
v -0.117 0.05000000001303852 -0.10850000010803341
v -0.12003108897060157 0.05000000001303852 -0.1067500000540167
v -0.12003108897060157 0.05000000001303852 -0.10324999994598329
v -0.117 0.046999999986961485 -0.10149999989196658
v -0.11396891102939845 0.046999999986961485 -0.10324999994598329
v -0.11396891102939845 0.046999999986961485 -0.1067500000540167
v -0.117 0.046999999986961485 -0.10850000010803341
v -0.12003108897060157 0.046999999986961485 -0.1067500000540167
v -0.12003108897060157 0.046999999986961485 -0.10324999994598329
v -0.117 0.05000000001303852 -0.105
v -0.117 0.046999999986961485 -0.105
vt 0 1
vt 0.1666666716337204 1
vt 0.3333333432674408 1
vt 0.5 1
vt 0.6666666865348816 1
vt 0.8333333134651184 1
vt 1 1
vt 0 0
vt 0.1666666716337204 0
vt 0.3333333432674408 0
vt 0.5 0
vt 0.6666666865348816 0
vt 0.8333333134651184 0
vt 1 0
vt 0.5 0.5
vt 1 0.5
vt 0.75 0.9330127239227295
vt 0.25 0.9330127239227295
vt 0 0.5
vt 0.25 0.0669872984290123
vt 0.75 0.0669872984290123
vn 0 0 1
vn 0.8660253998985324 0 0.5000000067305869
vn 0.8660253998985324 0 -0.5000000067305869
vn 1.2246468525851679e-16 0 -1
vn -0.8660253998985324 0 -0.5000000067305869
vn -0.8660253998985324 0 0.5000000067305869
vn -2.4492937051703357e-16 0 1
vn 0 1 0
vn 0 -1 0
f 145/97/109 151/104/109 146/98/110
f 151/104/109 152/105/110 146/98/110
f 146/98/110 152/105/110 147/99/111
f 152/105/110 153/106/111 147/99/111
f 147/99/111 153/106/111 148/100/112
f 153/106/111 154/107/112 148/100/112
f 148/100/112 154/107/112 149/101/113
f 154/107/112 155/108/113 149/101/113
f 149/101/113 155/108/113 150/102/114
f 155/108/113 156/109/114 150/102/114
f 150/102/114 156/109/114 145/103/115
f 156/109/114 151/110/115 145/103/115
f 145/112/116 146/113/116 157/111/116
f 146/113/116 147/114/116 157/111/116
f 147/114/116 148/115/116 157/111/116
f 148/115/116 149/116/116 157/111/116
f 149/116/116 150/117/116 157/111/116
f 150/117/116 145/112/116 157/111/116
f 152/117/117 151/112/117 158/111/117
f 153/116/117 152/117/117 158/111/117
f 154/115/117 153/116/117 158/111/117
f 155/114/117 154/115/117 158/111/117
f 156/113/117 155/114/117 158/111/117
f 151/112/117 156/113/117 158/111/117
o carriage_face_bolt_-1_0.105
usemtl guide_aluminium
v -0.117 0.05000000001303852 0.10850000010803341
v -0.11396891102939845 0.05000000001303852 0.1067500000540167
v -0.11396891102939845 0.05000000001303852 0.10324999994598329
v -0.117 0.05000000001303852 0.10149999989196658
v -0.12003108897060157 0.05000000001303852 0.10324999994598329
v -0.12003108897060157 0.05000000001303852 0.1067500000540167
v -0.117 0.046999999986961485 0.10850000010803341
v -0.11396891102939845 0.046999999986961485 0.1067500000540167
v -0.11396891102939845 0.046999999986961485 0.10324999994598329
v -0.117 0.046999999986961485 0.10149999989196658
v -0.12003108897060157 0.046999999986961485 0.10324999994598329
v -0.12003108897060157 0.046999999986961485 0.1067500000540167
v -0.117 0.05000000001303852 0.105
v -0.117 0.046999999986961485 0.105
vt 0 1
vt 0.1666666716337204 1
vt 0.3333333432674408 1
vt 0.5 1
vt 0.6666666865348816 1
vt 0.8333333134651184 1
vt 1 1
vt 0 0
vt 0.1666666716337204 0
vt 0.3333333432674408 0
vt 0.5 0
vt 0.6666666865348816 0
vt 0.8333333134651184 0
vt 1 0
vt 0.5 0.5
vt 1 0.5
vt 0.75 0.9330127239227295
vt 0.25 0.9330127239227295
vt 0 0.5
vt 0.25 0.0669872984290123
vt 0.75 0.0669872984290123
vn 0 0 1
vn 0.8660253998985324 0 0.5000000067305869
vn 0.8660253998985324 0 -0.5000000067305869
vn 1.2246468525851679e-16 0 -1
vn -0.8660253998985324 0 -0.5000000067305869
vn -0.8660253998985324 0 0.5000000067305869
vn -2.4492937051703357e-16 0 1
vn 0 1 0
vn 0 -1 0
f 159/118/118 165/125/118 160/119/119
f 165/125/118 166/126/119 160/119/119
f 160/119/119 166/126/119 161/120/120
f 166/126/119 167/127/120 161/120/120
f 161/120/120 167/127/120 162/121/121
f 167/127/120 168/128/121 162/121/121
f 162/121/121 168/128/121 163/122/122
f 168/128/121 169/129/122 163/122/122
f 163/122/122 169/129/122 164/123/123
f 169/129/122 170/130/123 164/123/123
f 164/123/123 170/130/123 159/124/124
f 170/130/123 165/131/124 159/124/124
f 159/133/125 160/134/125 171/132/125
f 160/134/125 161/135/125 171/132/125
f 161/135/125 162/136/125 171/132/125
f 162/136/125 163/137/125 171/132/125
f 163/137/125 164/138/125 171/132/125
f 164/138/125 159/133/125 171/132/125
f 166/138/126 165/133/126 172/132/126
f 167/137/126 166/138/126 172/132/126
f 168/136/126 167/137/126 172/132/126
f 169/135/126 168/136/126 172/132/126
f 170/134/126 169/135/126 172/132/126
f 165/133/126 170/134/126 172/132/126
o carriage_face_bolt_1_-0.105
usemtl guide_aluminium
v 0.117 0.05000000001303852 -0.10149999989196658
v 0.12003108897060157 0.05000000001303852 -0.10324999994598329
v 0.12003108897060157 0.05000000001303852 -0.1067500000540167
v 0.117 0.05000000001303852 -0.10850000010803341
v 0.11396891102939845 0.05000000001303852 -0.1067500000540167
v 0.11396891102939845 0.05000000001303852 -0.10324999994598329
v 0.117 0.046999999986961485 -0.10149999989196658
v 0.12003108897060157 0.046999999986961485 -0.10324999994598329
v 0.12003108897060157 0.046999999986961485 -0.1067500000540167
v 0.117 0.046999999986961485 -0.10850000010803341
v 0.11396891102939845 0.046999999986961485 -0.1067500000540167
v 0.11396891102939845 0.046999999986961485 -0.10324999994598329
v 0.117 0.05000000001303852 -0.105
v 0.117 0.046999999986961485 -0.105
vt 0 1
vt 0.1666666716337204 1
vt 0.3333333432674408 1
vt 0.5 1
vt 0.6666666865348816 1
vt 0.8333333134651184 1
vt 1 1
vt 0 0
vt 0.1666666716337204 0
vt 0.3333333432674408 0
vt 0.5 0
vt 0.6666666865348816 0
vt 0.8333333134651184 0
vt 1 0
vt 0.5 0.5
vt 1 0.5
vt 0.75 0.9330127239227295
vt 0.25 0.9330127239227295
vt 0 0.5
vt 0.25 0.0669872984290123
vt 0.75 0.0669872984290123
vn 0 0 1
vn 0.8660253998985324 0 0.5000000067305869
vn 0.8660253998985324 0 -0.5000000067305869
vn 1.2246468525851679e-16 0 -1
vn -0.8660253998985324 0 -0.5000000067305869
vn -0.8660253998985324 0 0.5000000067305869
vn -2.4492937051703357e-16 0 1
vn 0 1 0
vn 0 -1 0
f 173/139/127 179/146/127 174/140/128
f 179/146/127 180/147/128 174/140/128
f 174/140/128 180/147/128 175/141/129
f 180/147/128 181/148/129 175/141/129
f 175/141/129 181/148/129 176/142/130
f 181/148/129 182/149/130 176/142/130
f 176/142/130 182/149/130 177/143/131
f 182/149/130 183/150/131 177/143/131
f 177/143/131 183/150/131 178/144/132
f 183/150/131 184/151/132 178/144/132
f 178/144/132 184/151/132 173/145/133
f 184/151/132 179/152/133 173/145/133
f 173/154/134 174/155/134 185/153/134
f 174/155/134 175/156/134 185/153/134
f 175/156/134 176/157/134 185/153/134
f 176/157/134 177/158/134 185/153/134
f 177/158/134 178/159/134 185/153/134
f 178/159/134 173/154/134 185/153/134
f 180/159/135 179/154/135 186/153/135
f 181/158/135 180/159/135 186/153/135
f 182/157/135 181/158/135 186/153/135
f 183/156/135 182/157/135 186/153/135
f 184/155/135 183/156/135 186/153/135
f 179/154/135 184/155/135 186/153/135
o carriage_face_bolt_1_0.105
usemtl guide_aluminium
v 0.117 0.05000000001303852 0.10850000010803341
v 0.12003108897060157 0.05000000001303852 0.1067500000540167
v 0.12003108897060157 0.05000000001303852 0.10324999994598329
v 0.117 0.05000000001303852 0.10149999989196658
v 0.11396891102939845 0.05000000001303852 0.10324999994598329
v 0.11396891102939845 0.05000000001303852 0.1067500000540167
v 0.117 0.046999999986961485 0.10850000010803341
v 0.12003108897060157 0.046999999986961485 0.1067500000540167
v 0.12003108897060157 0.046999999986961485 0.10324999994598329
v 0.117 0.046999999986961485 0.10149999989196658
v 0.11396891102939845 0.046999999986961485 0.10324999994598329
v 0.11396891102939845 0.046999999986961485 0.1067500000540167
v 0.117 0.05000000001303852 0.105
v 0.117 0.046999999986961485 0.105
vt 0 1
vt 0.1666666716337204 1
vt 0.3333333432674408 1
vt 0.5 1
vt 0.6666666865348816 1
vt 0.8333333134651184 1
vt 1 1
vt 0 0
vt 0.1666666716337204 0
vt 0.3333333432674408 0
vt 0.5 0
vt 0.6666666865348816 0
vt 0.8333333134651184 0
vt 1 0
vt 0.5 0.5
vt 1 0.5
vt 0.75 0.9330127239227295
vt 0.25 0.9330127239227295
vt 0 0.5
vt 0.25 0.0669872984290123
vt 0.75 0.0669872984290123
vn 0 0 1
vn 0.8660253998985324 0 0.5000000067305869
vn 0.8660253998985324 0 -0.5000000067305869
vn 1.2246468525851679e-16 0 -1
vn -0.8660253998985324 0 -0.5000000067305869
vn -0.8660253998985324 0 0.5000000067305869
vn -2.4492937051703357e-16 0 1
vn 0 1 0
vn 0 -1 0
f 187/160/136 193/167/136 188/161/137
f 193/167/136 194/168/137 188/161/137
f 188/161/137 194/168/137 189/162/138
f 194/168/137 195/169/138 189/162/138
f 189/162/138 195/169/138 190/163/139
f 195/169/138 196/170/139 190/163/139
f 190/163/139 196/170/139 191/164/140
f 196/170/139 197/171/140 191/164/140
f 191/164/140 197/171/140 192/165/141
f 197/171/140 198/172/141 192/165/141
f 192/165/141 198/172/141 187/166/142
f 198/172/141 193/173/142 187/166/142
f 187/175/143 188/176/143 199/174/143
f 188/176/143 189/177/143 199/174/143
f 189/177/143 190/178/143 199/174/143
f 190/178/143 191/179/143 199/174/143
f 191/179/143 192/180/143 199/174/143
f 192/180/143 187/175/143 199/174/143
f 194/180/144 193/175/144 200/174/144
f 195/179/144 194/180/144 200/174/144
f 196/178/144 195/179/144 200/174/144
f 197/177/144 196/178/144 200/174/144
f 198/176/144 197/177/144 200/174/144
f 193/175/144 198/176/144 200/174/144
